<?xml version="1.0" standalone="no"?>
<!DOCTYPE svg PUBLIC "-//W3C//DTD SVG 1.1//EN" "http://www.w3.org/Graphics/SVG/1.1/DTD/svg11.dtd" >
<svg xmlns="http://www.w3.org/2000/svg">
<metadata></metadata>
<defs>
<font id="calibribold_italic" horiz-adv-x="1020" >
<font-face units-per-em="2048" ascent="1536" descent="-512" />
<missing-glyph horiz-adv-x="463" />
<glyph horiz-adv-x="0" />
<glyph unicode="&#xd;" horiz-adv-x="463" />
<glyph horiz-adv-x="0" />
<glyph horiz-adv-x="0" />
<glyph unicode="&#x9;" horiz-adv-x="463" />
<glyph unicode=" "  horiz-adv-x="463" />
<glyph unicode="&#x09;" horiz-adv-x="463" />
<glyph unicode="&#xa0;" horiz-adv-x="463" />
<glyph unicode="!" horiz-adv-x="667" d="M155 69q0 16 3 39.5t10 48.5t17 47.5t24 36.5q22 22 51 30.5t71 8.5q39 0 62.5 -6.5t37 -18t18 -27.5t4.5 -34t-3.5 -42t-10.5 -48.5t-17 -46t-23 -34.5q-19 -19 -48.5 -28.5t-75.5 -9.5q-36 0 -59.5 5.5t-37 16.5t-18.5 26.5t-5 35.5zM252 424l156 908q4 27 36 39.5 t110 12.5q40 0 65.5 -3t39.5 -9.5t18.5 -16.5t1.5 -23l-207 -908q-5 -20 -31 -31.5t-88 -11.5q-32 0 -52.5 3t-32 8.5t-15 13.5t-1.5 18z" />
<glyph unicode="&#x22;" horiz-adv-x="898" d="M234 910l67 447q3 21 31 31.5t91 10.5q66 0 88.5 -10.5t17.5 -31.5l-114 -447q-5 -20 -26 -31t-73 -11q-26 0 -43 3t-26 8t-12 13t-1 18zM614 910l67 447q3 20 30 31t93 11t88.5 -10.5t17.5 -31.5l-114 -447q-5 -20 -26.5 -31t-72.5 -11q-54 0 -70 11t-13 31z" />
<glyph unicode="#" d="M15 386q0 12 3 33.5t10.5 43t18.5 37t28 15.5h117l92 284h-99q-28 0 -28 44q0 15 4 36.5t11.5 42t18.5 35t26 14.5h121l93 292q7 20 32.5 28.5t83.5 8.5q31 0 49.5 -2.5t27 -7.5t9.5 -11.5t-2 -14.5l-94 -293h222l94 292q4 19 28.5 28t84.5 9q31 0 49 -2.5t27 -7.5 t11 -11.5t-1 -14.5l-94 -293h95q14 0 20.5 -10.5t6.5 -28.5q0 -10 -3.5 -32t-11 -44.5t-19.5 -39.5t-30 -17h-111l-92 -284h98q27 0 27 -39q0 -11 -3.5 -33.5t-11 -44.5t-19.5 -38.5t-30 -16.5h-117l-99 -312q-7 -20 -32 -28.5t-83 -8.5q-31 0 -49 2t-27 6.5t-10.5 11.5 t1.5 16l101 313h-224l-100 -313q-6 -19 -29 -27.5t-81 -8.5q-32 0 -50.5 2t-27.5 6.5t-11 11.5t0 16l101 313h-95q-27 0 -27 43zM389 515h225l92 284h-224z" />
<glyph unicode="$" horiz-adv-x="1038" d="M20 132q0 10 4 36.5t11.5 54t19 48.5t25.5 21q13 0 33.5 -14t54.5 -30.5t84.5 -30t123.5 -13.5q82 0 138 17.5t89.5 45t48 62t14.5 68.5q0 37 -20.5 63.5t-54 47.5t-76 38.5t-87 37.5t-87 44.5t-76 58.5t-54 81t-20.5 111q0 76 26 146.5t80.5 126.5t138.5 93.5t200 47.5 l60 200q3 7 7.5 13t14.5 10.5t26.5 6.5t42.5 2q31 0 50.5 -2.5t29.5 -8.5t11.5 -14.5t-1.5 -20.5l-57 -193q51 -9 97 -26t73 -37q16 -12 21 -21.5t5 -21.5q0 -10 -3.5 -37t-10.5 -55.5t-17.5 -50.5t-23.5 -22q-12 0 -33 13t-54 28t-80.5 28t-112.5 13q-60 0 -101.5 -15 t-67.5 -39t-37.5 -55t-11.5 -64q0 -35 20.5 -61t54 -46.5t76.5 -39t88 -39t88 -45.5t76.5 -60t54 -81.5t20.5 -110.5q0 -88 -31 -164.5t-94 -134.5t-159 -95t-226 -46l-65 -214q-2 -8 -7 -14t-15 -10.5t-27 -6.5t-42 -2q-32 0 -51 3t-28.5 9t-11 14.5t1.5 19.5l63 205 q-60 9 -108 24.5t-80 35.5q-25 16 -33 29.5t-8 37.5z" />
<glyph unicode="%" horiz-adv-x="1493" d="M79 -18q-13 16 13 44l1175 1263q11 12 22.5 19.5t27 12.5t36 7t50.5 2q66 0 79 -16t-13 -44l-1175 -1263q-11 -12 -22.5 -19.5t-27 -12.5t-36.5 -7t-50 -2q-66 0 -79 16zM147 857q0 35 5 82t19 97.5t39.5 99.5t66 88t98 63t136.5 24q69 0 118 -16.5t79.5 -46.5t44.5 -72 t14 -93q0 -32 -5 -78.5t-18.5 -97t-39 -100t-66 -89t-99.5 -64t-140 -24.5q-66 0 -114 16t-78.5 45t-45 71t-14.5 95zM342 862q0 -49 18 -70t57 -21q31 0 55 18.5t41 47t28 64t18 69.5t9.5 63t2.5 45q0 46 -16.5 69t-58.5 23q-30 0 -53.5 -18.5t-40.5 -47.5t-28.5 -65 t-18.5 -70t-10 -63t-3 -44zM798 210q0 35 5 82t19 97.5t39.5 99.5t66 88t98 63t136.5 24q69 0 118 -16.5t79.5 -46.5t44.5 -72t14 -93q0 -32 -5 -78.5t-18.5 -97t-39 -100t-66 -89t-99.5 -64t-140 -24.5q-66 0 -114 16t-78.5 45t-45 71t-14.5 95zM993 215q0 -49 18 -70 t57 -21q31 0 55 18.5t41 47t28 64t18 69.5t9.5 63t2.5 45q0 46 -16.5 69t-58.5 23q-30 0 -53.5 -18.5t-40.5 -47.5t-28.5 -65t-18.5 -70t-10 -63t-3 -44z" />
<glyph unicode="&#x26;" horiz-adv-x="1443" d="M55 296q0 63 19 122t60.5 113.5t107.5 105.5t159 98q-51 91 -69 159.5t-18 109.5q0 34 7.5 73.5t27 79t53 76t85 64.5t122.5 45t167 17q109 0 183.5 -20.5t120 -54t65 -77t19.5 -88.5q0 -59 -20 -114t-68 -108t-128 -106t-199 -108q26 -39 51.5 -73t51.5 -66t54 -63 t59 -64q30 36 51 75.5t34.5 74.5t20 61.5t6.5 37.5q3 15 9 25t20 15.5t37.5 7.5t60.5 2q29 0 49.5 -2t34.5 -5t20 -8.5t7 -15.5t-2 -24.5t-7 -35.5q-9 -41 -25 -88.5t-38.5 -95t-50.5 -91.5t-61 -78q48 -43 80.5 -63.5t59.5 -20.5q20 0 27 -7t7 -27q0 -8 -2 -22.5t-5.5 -32 t-8 -35.5t-8.5 -32q-8 -28 -29.5 -39t-64.5 -13q-36 -2 -94.5 29.5t-143.5 101.5q-94 -60 -208 -97.5t-250 -37.5q-96 0 -176 21t-137.5 62t-90 100.5t-32.5 136.5zM330 326q0 -28 10.5 -54.5t34.5 -47t63 -33t97 -12.5q31 0 63.5 5.5t64 15t60 23.5t51.5 31 q-72 74 -136.5 150t-123.5 163q-184 -99 -184 -241zM576 1007q0 -29 12.5 -70.5t44.5 -101.5q82 38 133 71t79 62t37.5 56t9.5 53q0 14 -6 29.5t-21 28t-40 21t-63 8.5q-56 0 -92 -16t-57 -39.5t-29 -51t-8 -50.5z" />
<glyph unicode="'" horiz-adv-x="478" d="M234 910l67 447q3 21 32 31.5t93 10.5q66 0 89.5 -10.5t18.5 -31.5l-113 -447q-5 -21 -27.5 -31.5t-75.5 -10.5q-51 0 -69 11t-15 31z" />
<glyph unicode="(" horiz-adv-x="638" d="M89 194q0 125 19 262t65 286.5t123.5 311.5t194.5 336q6 9 14.5 15.5t23 10.5t37.5 6t58 2q71 0 92.5 -14t3.5 -42q-107 -167 -180 -335.5t-119 -329t-66 -309t-20 -276.5q0 -46 3 -99t8.5 -107t13 -106t17.5 -96q3 -16 2 -27.5t-12 -19.5t-34 -12t-63 -4q-57 0 -78 7.5 t-25 21.5q-35 115 -56.5 243.5t-21.5 274.5z" />
<glyph unicode=")" horiz-adv-x="638" d="M-62 -320.5q0 10.5 8 24.5q105 168 178 336.5t119.5 328.5t67.5 308t21 276q0 47 -3 100t-9 107t-14 105.5t-18 95.5q-4 16 -2 28t13 19.5t34.5 11.5t63.5 4q56 0 77 -7t25 -21q35 -115 56.5 -243.5t21.5 -275.5q0 -124 -18.5 -261.5t-64.5 -287.5t-123 -312t-195 -334 q-6 -9 -14.5 -16t-23 -11t-37.5 -6t-59 -2q-37 0 -59.5 4t-33.5 11t-11 17.5z" />
<glyph unicode="*" d="M227 911.5q4 24.5 24 32.5l254 93l-213 88q-20 8 -17 33t41 74q39 49 61.5 60.5t37.5 -5.5l164 -156l11 251q1 20 24 31.5t80 11.5q59 0 78.5 -11.5t12.5 -31.5l-92 -251l231 161q19 14 37.5 -1t37.5 -64q20 -51 16 -76t-24 -33l-256 -91l216 -94q18 -6 13.5 -28.5 t-42.5 -72.5q-39 -50 -59.5 -61.5t-35.5 2.5l-168 158l-11 -251q-1 -21 -23.5 -32t-79.5 -11q-58 0 -78.5 11t-12.5 32l90 251l-223 -158q-20 -14 -39.5 0t-38.5 63q-20 51 -16 75.5z" />
<glyph unicode="+" d="M68 524q0 11 3.5 35.5t11 50t20.5 45t31 19.5h313l68 338q5 21 29 32.5t84 11.5t80.5 -11.5t15.5 -32.5l-68 -338h313q28 0 28 -42q0 -11 -3.5 -36.5t-12 -52t-21.5 -47t-32 -20.5h-311l-69 -339q-4 -20 -28 -31t-84 -11q-59 0 -80 11t-17 31l69 339h-310q-14 0 -22 11 t-8 37z" />
<glyph unicode="," horiz-adv-x="528" d="M-119 -280q-12 12 6 40l176 276l30 148q7 34 18 55t28.5 32t43.5 14.5t64 3.5q36 0 60 -3.5t37.5 -12t19 -21.5t5.5 -31q0 -75 -30.5 -147.5t-88.5 -136.5l-172 -192q-18 -20 -46 -28.5t-79 -8.5q-60 0 -72 12z" />
<glyph unicode="-" horiz-adv-x="627" d="M59 445q0 13 3.5 39.5t11.5 53.5t22.5 47t36.5 20h416q19 0 26.5 -11.5t7.5 -32.5q0 -11 -4 -37.5t-13 -54.5t-23 -49t-35 -21h-416q-18 0 -25.5 10.5t-7.5 35.5z" />
<glyph unicode="." horiz-adv-x="547" d="M53 85q0 12 2 28.5t5.5 35.5t9 38t13.5 36q7 16 17.5 29.5t28 23.5t43 15t64.5 5q40 0 64.5 -7t38 -19.5t18.5 -31t5 -40.5q0 -12 -1.5 -28t-5.5 -35t-9.5 -38t-13.5 -37q-7 -17 -17.5 -30t-27.5 -23t-43 -15t-64 -5q-74 0 -100.5 24t-26.5 74z" />
<glyph unicode="/" horiz-adv-x="889" d="M-143.5 -266q0.5 12 9.5 29l934 1679q14 25 44 35t95 10q43 0 69.5 -4t39 -12t12.5 -20.5t-9 -29.5l-933 -1680q-14 -25 -45.5 -34.5t-94.5 -9.5q-44 0 -70.5 4t-39 12.5t-12 20.5z" />
<glyph unicode="0" horiz-adv-x="1038" d="M62 370q0 49 6 115.5t19.5 140.5t34 152.5t49.5 152t67 138.5t86 113q61 61 148.5 98t208.5 37q103 0 173.5 -28t113.5 -79t61.5 -123.5t18.5 -160.5q0 -51 -6 -118t-19 -141.5t-33.5 -153t-49.5 -152t-67 -138t-86 -111.5q-62 -62 -148.5 -98.5t-209.5 -36.5 q-100 0 -169.5 27t-113.5 77.5t-64 123.5t-20 165zM323 372q0 -97 33.5 -141.5t108.5 -44.5q42 0 75.5 14.5t59.5 40.5q31 31 57 85t47 119.5t36.5 136.5t26 136.5t15.5 119t5 84.5q0 97 -33 142t-109 45q-42 0 -75.5 -14.5t-59.5 -41.5q-31 -32 -57 -86t-46.5 -119.5 t-36.5 -136.5t-26.5 -136t-15.5 -119t-5 -84z" />
<glyph unicode="1" horiz-adv-x="1038" d="M70 44q0 10 3.5 36.5t12 53.5t21.5 48t32 21h240l166 831l-232 -115q-40 -20 -52.5 -11.5t-12.5 37.5q0 13 3 37t9.5 49t18 47t28.5 32l317 180q7 4 15 6.5t20.5 4t32.5 2t51 0.5q39 0 62 -1.5t34 -5t13.5 -9.5t0.5 -15l-213 -1069h213q25 0 25 -42q0 -11 -3.5 -37.5 t-11.5 -54t-20.5 -48.5t-30.5 -21h-715q-27 0 -27 44z" />
<glyph unicode="2" horiz-adv-x="1038" d="M10 54q0 15 2.5 40.5t12 55.5t27.5 61.5t49 58.5l305 267q92 80 147 145t84.5 117t38.5 92t9 70q0 19 -6 40t-21 38.5t-41.5 29t-67.5 11.5q-53 0 -101 -15.5t-87 -34t-66.5 -34t-39.5 -15.5q-13 0 -18.5 12t-5.5 33q0 12 2.5 36.5t8.5 52t16 53t24 39.5q12 12 47.5 31 t85 36.5t110 30t123.5 12.5q105 0 175 -26.5t111 -68t58 -92t17 -98.5q0 -66 -18 -132.5t-68.5 -144.5t-140 -172.5t-232.5 -214.5l-184 -155h493q18 0 25 -15t7 -35q0 -12 -4 -38.5t-12 -54.5t-21.5 -49t-31.5 -21h-744q-40 0 -54 13t-14 41z" />
<glyph unicode="3" horiz-adv-x="1038" d="M19 111q0 12 3 38.5t9.5 53.5t17 47.5t24.5 20.5q11 0 33 -13t56.5 -29t82.5 -29t111 -13q70 0 122 19.5t86 51t50.5 71.5t16.5 81q0 33 -11.5 61t-38.5 48.5t-72 32.5t-112 12h-123q-20 0 -28.5 8.5t-8.5 29.5q0 12 4 37.5t12 51.5t21.5 46t33.5 20h112q67 0 120 18.5 t89.5 50t56 73t19.5 88.5q0 55 -34 88.5t-114 33.5q-52 0 -100.5 -16t-88.5 -35t-69 -35t-41 -16t-17.5 10.5t-5.5 28.5q0 9 2.5 30.5t8 46.5t14.5 48t22 35t46.5 31t82.5 37t109 30.5t126 12.5q90 0 156.5 -19.5t110 -55t64.5 -86t21 -112.5q0 -65 -20.5 -124.5t-59 -108.5 t-94 -85t-125.5 -53v-3q64 -7 109 -31.5t73 -59t40.5 -75.5t12.5 -81q0 -47 -12 -98t-39 -100.5t-71 -94.5t-107 -79t-147.5 -54t-192.5 -20q-97 0 -178.5 20.5t-135.5 52.5q-18 11 -25 25t-7 36z" />
<glyph unicode="4" horiz-adv-x="1038" d="M10 315q0 13 4.5 43.5t13.5 66.5t21.5 71t28.5 56l546 713q7 9 21.5 15.5t38 11t58 6.5t81.5 2q51 0 86.5 -2.5t56.5 -8t29 -13.5t6 -19l-156 -779h114q26 0 26 -46q0 -13 -4.5 -40.5t-13 -55t-21 -48t-29.5 -20.5h-115l-47 -234q-2 -10 -9.5 -17.5t-23 -12.5t-40.5 -7.5 t-62 -2.5q-74 0 -98 10t-20 30l46 234h-493q-26 0 -35.5 10.5t-9.5 36.5zM254 478h337l116 586h-2z" />
<glyph unicode="5" horiz-adv-x="1038" d="M25 88q0 7 1.5 22.5t4.5 35t8 39.5t11.5 37t15 28t19.5 11q10 0 30 -11.5t51.5 -25.5t76.5 -25.5t105 -11.5q76 0 133.5 21t96.5 57.5t59 86.5t20 107q0 28 -10 54t-34.5 45.5t-67.5 31t-109 11.5t-117 -6t-93 -6q-30 0 -39.5 14.5t-1.5 53.5l112 562q8 40 27 57.5 t53 17.5h613q28 0 28 -43q0 -14 -4.5 -44.5t-13.5 -61t-22.5 -53.5t-32.5 -23h-460l-55 -277q35 3 61 5t57 2q105 0 180 -22.5t122 -63t69 -96t22 -121.5q0 -98 -35 -191t-108 -166t-184.5 -117.5t-264.5 -44.5q-43 0 -85.5 5t-81 13.5t-72 20t-58.5 24.5q-15 8 -21 18 t-6 30z" />
<glyph unicode="6" horiz-adv-x="1038" d="M83 341q0 35 4 95.5t16.5 136t34.5 159.5t57.5 167t86.5 158.5t121.5 133t162 91.5t208.5 34q72 0 129.5 -10t100.5 -26q23 -9 31.5 -20.5t8.5 -30.5q0 -9 -3 -34.5t-10 -52.5t-18.5 -47.5t-27.5 -20.5q-12 0 -29.5 6.5t-43 14t-60 14t-81.5 6.5q-81 0 -143 -29.5 t-107.5 -80t-76 -117t-48.5 -140.5q52 29 118 48t148 19q85 0 145 -22.5t98 -61.5t55 -90.5t17 -108.5q0 -48 -10 -108t-34 -121.5t-64.5 -120t-100.5 -104.5t-142.5 -73.5t-190.5 -27.5q-97 0 -164 26t-109 73.5t-60.5 114.5t-18.5 150zM338 348q0 -92 35.5 -130.5 t103.5 -38.5q63 0 108 33t74 81t42.5 102t13.5 96q0 57 -32.5 90.5t-105.5 33.5q-57 0 -112 -18.5t-104 -47.5q-13 -63 -18 -112.5t-5 -88.5z" />
<glyph unicode="7" horiz-adv-x="1038" d="M106.5 28.5q0.5 11.5 11.5 28.5l659 1009h-537q-26 0 -26 46q0 12 4 42t13 61t22.5 55t33.5 24h770q29 0 39 -10.5t10 -34.5q0 -14 -3 -39.5t-10.5 -56.5t-20.5 -65t-33 -66l-623 -986q-8 -13 -20 -21.5t-31 -13t-47 -6t-67 -1.5q-53 0 -84.5 3.5t-46 11.5t-14 19.5z" />
<glyph unicode="8" horiz-adv-x="1038" d="M27 264q0 130 87.5 228.5t243.5 172.5q-85 52 -123.5 115.5t-38.5 141.5q0 43 11.5 89.5t36 90.5t63 83t93 68.5t125.5 46.5t161 17q107 0 177 -24t111.5 -61.5t58 -85t16.5 -93.5q0 -67 -22.5 -124t-61.5 -104t-92 -85.5t-114 -68.5q105 -64 151 -133t46 -154 q0 -36 -9.5 -80.5t-33 -90t-62.5 -88t-98 -75.5t-140.5 -53t-189.5 -20q-100 0 -174.5 21t-123.5 59t-73.5 90.5t-24.5 116.5zM289 293q0 -25 8.5 -47.5t28 -39t52 -26t81.5 -9.5q61 0 105 16t72.5 43.5t42 63t13.5 74.5q0 25 -7.5 47.5t-25 45.5t-47 46.5t-74.5 49.5 q-73 -34 -121 -66t-76.5 -64t-40 -65t-11.5 -69zM450 943q0 -24 4.5 -44.5t18.5 -40t39 -40t66 -44.5q106 50 160.5 108.5t54.5 134.5q0 20 -7 39.5t-23 34.5t-43 24.5t-66 9.5q-56 0 -94.5 -17t-63 -43.5t-35.5 -58.5t-11 -63z" />
<glyph unicode="9" horiz-adv-x="1038" d="M38 69q0 9 3 34.5t10 52.5t18.5 48t27.5 21q13 0 33 -7t48.5 -15.5t66 -15.5t85.5 -7q86 0 150 29t110.5 78.5t77 116t49.5 142.5q-51 -29 -117 -48t-148 -19q-86 0 -145.5 22.5t-97 61.5t-54.5 90.5t-17 108.5q0 48 10 108t34 121.5t64 120t100 104.5t142.5 73.5 t190.5 27.5q97 0 164 -26t109 -73.5t61 -115t19 -149.5q0 -35 -4 -96t-16.5 -136t-35 -159.5t-59 -167t-89.5 -158t-126.5 -133.5t-169.5 -92t-218 -34q-78 0 -136 13t-100 29q-23 9 -31.5 20t-8.5 30zM399 803q0 -58 32.5 -91.5t105.5 -33.5q58 0 112.5 18.5t103.5 47.5 q24 126 24 202q0 92 -36 131t-104 39q-63 0 -108 -33t-74 -81t-42.5 -102.5t-13.5 -96.5z" />
<glyph unicode=":" horiz-adv-x="565" d="M87 65.5q-1 28.5 7 71.5q8 42 20 71t31.5 47t48 26t69.5 8t67 -8t38.5 -26t14 -47t-6.5 -71t-20.5 -70.5t-32.5 -46t-49 -25.5t-69 -8q-41 0 -66.5 7.5t-38 25t-13.5 46zM217 720.5q-1 28.5 8 69.5q9 42 21 71.5t31.5 47.5t48 26t69.5 8q40 0 65.5 -8t38.5 -26 t14.5 -47.5t-7.5 -71.5q-8 -41 -20.5 -69.5t-32.5 -46.5t-48.5 -26t-68.5 -8q-41 0 -66.5 8t-38.5 26t-14 46.5z" />
<glyph unicode=";" horiz-adv-x="565" d="M-96 -260.5q3 9.5 12 23.5l174 273l30 148q7 34 17 55t26.5 32t42 14.5t63.5 3.5q36 0 59.5 -3.5t37.5 -12t19.5 -21.5t5.5 -31q0 -75 -32 -148t-90 -136l-171 -188q-18 -20 -44.5 -28.5t-76.5 -8.5q-30 0 -46.5 3t-23 9t-3.5 15.5zM217 720q-1 29 8 71q9 45 21.5 74 t32 46.5t48 24.5t69.5 7t66.5 -8.5t38.5 -26.5t13.5 -47t-7.5 -70q-9 -41 -21.5 -70t-32 -47t-48 -26t-69.5 -8t-66.5 7.5t-38.5 25.5t-14 47z" />
<glyph unicode="&#x3c;" d="M83 513q0 18 3.5 44.5t11.5 53.5t20 48.5t29 29.5l834 377q24 11 34.5 2.5t10.5 -36.5q0 -26 -6 -57.5t-16.5 -60t-25 -50.5t-30.5 -29l-623 -263l512 -266q31 -16 31 -50q0 -20 -4.5 -53.5t-13.5 -63.5t-23.5 -48t-33.5 -7l-689 381q-10 5 -15.5 16t-5.5 32z" />
<glyph unicode="=" d="M58 324q0 12 3.5 36.5t11.5 49t21.5 43t33.5 18.5h763q31 0 31 -43q0 -11 -3 -35.5t-11 -50t-21.5 -44.5t-34.5 -19h-762q-15 0 -23.5 10t-8.5 35zM139 728q0 12 3.5 36.5t11.5 48.5t21 42.5t33 18.5h763q32 0 32 -42q0 -11 -3 -35.5t-11 -50t-21.5 -45t-34.5 -19.5h-762 q-15 0 -23.5 10.5t-8.5 35.5z" />
<glyph unicode="&#x3e;" d="M37 121q0 26 5.5 57.5t16 60t25 50.5t31.5 29l623 263l-512 266q-32 17 -32 50q0 21 4.5 54.5t14 63.5t23.5 48t34 7l689 -382q10 -5 15.5 -16t5.5 -32q0 -18 -4 -44.5t-12 -53.5t-20 -49t-29 -29l-834 -377q-24 -11 -34 -2t-10 36z" />
<glyph unicode="?" horiz-adv-x="949" d="M212 69q0 16 3 39.5t10 48.5t16.5 47.5t23.5 36.5q22 22 51.5 30.5t71.5 8.5q39 0 62.5 -6.5t36.5 -18t17.5 -27.5t4.5 -34t-3.5 -42t-10.5 -48.5t-17 -46t-22 -34.5q-20 -20 -49 -29t-75 -9q-37 0 -60 5.5t-36.5 16.5t-18.5 26.5t-5 35.5zM258 1157q0 10 2.5 31.5 t7.5 44.5t12.5 44t18.5 32q12 12 42 25.5t70 24.5t85 18t88 7q113 0 188 -29.5t119.5 -77.5t63 -108t18.5 -120q0 -78 -22.5 -153t-71 -135.5t-124.5 -101.5t-183 -51l-46 -191q-9 -36 -117 -36q-65 0 -88.5 7t-19.5 29l37 236q10 63 35 84t67 21h8q72 0 121.5 24.5 t79.5 61.5t43 81.5t13 84.5q0 37 -11 69t-33.5 55.5t-56.5 36.5t-80 13q-54 0 -95 -11.5t-71 -25t-50 -24.5t-31 -11q-10 0 -14.5 10.5t-4.5 34.5z" />
<glyph unicode="@" horiz-adv-x="1840" d="M112 278q0 61 9.5 138.5t31.5 163.5t59.5 176t93 174.5t131.5 159.5t176 130.5t225.5 88t280.5 32.5q164 0 284 -35t198 -99.5t116 -156t38 -203.5q0 -58 -10.5 -132t-34.5 -151.5t-62.5 -151.5t-95 -132t-132 -93.5t-173.5 -35.5q-100 0 -156.5 47t-58.5 127 q-31 -43 -70 -75.5t-81 -54.5t-85.5 -33t-82.5 -11q-72 0 -115 23.5t-66 58.5t-30.5 77t-7.5 80q0 50 11 113t34.5 128t60 127.5t86.5 111t114 78t144 29.5q34 0 63 -7t54.5 -22.5t49 -40t46.5 -59.5l24 79q5 18 26.5 27t73.5 9q54 0 71 -9t11 -27l-136 -431 q-26 -85 -13.5 -122.5t66.5 -37.5q42 0 77 24.5t63 64.5t49 92t35 107t21 108t7 97q0 67 -20.5 126t-71 103t-136.5 69t-216 25q-127 0 -226.5 -29t-176.5 -78.5t-133 -114.5t-95 -136.5t-63.5 -145t-38 -140.5t-18.5 -122t-5 -90q0 -74 18 -140t68.5 -115.5t139.5 -78 t232 -28.5q81 0 145.5 9t111 20t76 20t41.5 9q15 0 20 -9.5t5 -25.5q0 -14 -3.5 -35.5t-10 -44t-15 -41.5t-17.5 -29q-9 -9 -42.5 -20t-85 -20.5t-116.5 -15.5t-137 -6q-130 0 -228.5 19.5t-170.5 55t-120.5 84.5t-77.5 108.5t-41 126.5t-12 139zM719 438q0 -51 17.5 -75.5 t55.5 -24.5q29 0 66 21t72.5 56t66 81t45.5 97l29 95q-23 51 -52.5 77t-69.5 26q-39 0 -71 -19t-57.5 -49.5t-44.5 -69t-31.5 -77.5t-19 -75.5t-6.5 -62.5z" />
<glyph unicode="A" horiz-adv-x="1241" d="M-58 44q7 21 26 56l628 1148q10 18 20 28t28.5 15.5t49.5 7t83 1.5q59 0 93.5 -1.5t53 -7t24.5 -16.5t9 -30l169 -1147q5 -33 5 -53q-1 -25 -15 -35t-44 -13t-85 -3q-38 0 -61.5 1.5t-36.5 5.5t-18 12t-7 22l-35 260h-486l-134 -254q-8 -14 -17 -23.5t-26 -14.5t-44.5 -7 t-71.5 -2q-46 0 -71.5 3.5t-34.5 14.5q-5 6 -5 16q0 7 3 16zM443 497h364l-74 550h-1z" />
<glyph unicode="B" horiz-adv-x="1148" d="M64 83l226 1128q9 45 36 64t63 19h311q204 0 305.5 -64t101.5 -200q0 -59 -16.5 -111.5t-48 -96t-76 -77t-99.5 -53.5q44 -8 81 -28t63.5 -51t41 -73.5t14.5 -95.5q0 -74 -29 -150.5t-98 -143.5q-68 -67 -176.5 -108.5t-271.5 -41.5h-359q-72 0 -72 59q0 11 3 24z M345 201h186q69 0 118.5 20t81 52t46.5 73.5t15 84.5q0 64 -47 101t-152 37h-175zM457 761h148q63 0 107.5 20.5t72 53t39.5 71.5q12 36 12 70v5q-1 55 -39 85.5t-129 30.5h-143z" />
<glyph unicode="C" horiz-adv-x="1062" d="M96 452q0 93 19 193.5t57.5 196.5t97.5 182t139.5 150.5t183 102.5t227.5 38q70 0 132.5 -14.5t108.5 -38.5q47 -24 65.5 -43.5t18.5 -49.5q0 -14 -2.5 -33t-7.5 -42q-10 -48 -24 -76t-32 -28q-14 0 -31.5 16t-46.5 35.5t-74 36t-112 16.5q-74 0 -135 -29t-109 -78 t-84 -112t-59.5 -131t-35 -135.5t-11.5 -125.5q0 -142 68 -211.5t189 -69.5q71 0 121.5 15t86 33t59.5 33t42 15q13 0 17.5 -9.5t4.5 -26.5q0 -8 -2.5 -27.5t-7 -43.5t-11 -48.5t-14.5 -41.5q-6 -14 -17 -25.5t-43 -28.5q-47 -26 -127 -47t-179 -21q-109 0 -196.5 29 t-148.5 88t-94 148t-33 208z" />
<glyph unicode="D" horiz-adv-x="1291" d="M62 43q-1 7 -1 15q0 11 3 25l226 1128q9 45 35.5 64t63.5 19h312q154 0 257.5 -30t172.5 -89q139 -118 139 -349q0 -60 -7.5 -127t-25 -136.5t-47 -138t-73.5 -131.5t-104.5 -116.5t-139.5 -93.5q-79 -39 -178 -61t-236 -22h-329q-17 0 -31 4t-23.5 13.5t-13.5 25.5z M351 208h138q78 0 138 14.5t107.5 41t83.5 62.5t66 80q60 88 85 190t25 199q0 63 -17 117t-55 93q-19 19 -43 34.5t-55 26.5t-70 16.5t-89 5.5h-137z" />
<glyph unicode="E" horiz-adv-x="999" d="M64 83l226 1128q9 45 36 64t60 19h644q26 0 26 -38q0 -9 -3 -36.5t-11 -56.5t-21 -52t-32 -23h-462l-64 -316h392q26 0 26 -38q0 -11 -3.5 -37.5t-11 -54.5t-20 -49.5t-31.5 -21.5h-391l-74 -365h468q24 0 24 -41q0 -11 -3 -38t-11 -55t-21 -50t-32 -22h-650 q-32 0 -51 20q-13 13 -13 37q0 12 3 26z" />
<glyph unicode="F" horiz-adv-x="940" d="M56 37l234 1174q9 45 36 64t60 19h606q17 0 21.5 -11t4.5 -31q0 -9 -3.5 -37.5t-11.5 -58.5t-21 -53.5t-32 -23.5h-423l-70 -348h398q14 0 20 -11t6 -29q0 -10 -4 -38t-12.5 -57.5t-21.5 -52.5t-32 -23h-395l-96 -483q-2 -11 -10 -19t-24.5 -13t-42.5 -8t-64 -3 t-62.5 2.5t-38.5 7.5q-16 6 -20 14q-3 6 -3 13q0 3 1 6z" />
<glyph unicode="G" horiz-adv-x="1305" d="M93 473q0 107 23.5 211.5t70 198t115 173t158.5 137.5t201.5 90.5t243.5 32.5q54 0 104.5 -6.5t94.5 -17t80 -24t62 -27.5q25 -14 38 -23t18.5 -18t6.5 -19t3 -25q0 -15 -4 -42.5t-11.5 -55t-18.5 -47.5t-26 -20t-42 17t-70 38t-105 38t-147 17q-84 0 -155.5 -24.5 t-130 -67t-103 -100t-74.5 -123.5t-45.5 -137t-15.5 -140q0 -77 22 -135t63.5 -97t100 -59t132.5 -20q49 0 96.5 10t89.5 30l60 299h-244q-26 0 -26 40q0 15 4 42t12 53t20 45t29 19h437q33 0 47 -22t6 -62l-104 -518q-7 -35 -26 -57q-11 -12 -50.5 -28.5t-97.5 -32.5 t-129.5 -27t-144.5 -11q-279 0 -423.5 127t-144.5 368z" />
<glyph unicode="H" horiz-adv-x="1292" d="M55 35l245 1224q2 21 32.5 31t106.5 10q38 0 63 -2.5t39 -7.5t18.5 -13t2.5 -18l-95 -476h485l94 476q2 10 10 18t24 13t42 7.5t64 2.5t63 -2.5t39 -7.5t18 -13q3 -6 4 -12q0 -3 -1 -6l-245 -1224q-2 -11 -10 -18.5t-24 -12.5t-42 -7.5t-64 -2.5q-75 0 -101.5 10.5 t-20.5 30.5l104 524h-484l-104 -524q-2 -11 -10 -18.5t-24.5 -12.5t-42.5 -7.5t-63 -2.5q-76 0 -102 10q-22 9 -22 24q0 3 1 7z" />
<glyph unicode="I" horiz-adv-x="546" d="M55 35l245 1224q2 21 34 31t106 10q38 0 62.5 -2.5t39 -7.5t18.5 -13q3 -6 4 -12q0 -3 -1 -6l-244 -1224q-2 -11 -10 -18.5t-24.5 -12.5t-42.5 -7.5t-64 -2.5q-76 0 -102 10q-22 9 -22 24q0 3 1 7z" />
<glyph unicode="J" horiz-adv-x="678" d="M-75 58q0 12 4.5 43t13 63.5t19.5 57.5t24 25q12 0 22.5 -6.5t24 -14t32 -13.5t47.5 -6q60 0 92 35t49 120l181 898q2 10 9.5 17.5t24 12.5t42.5 7.5t64 2.5q74 0 102 -9q23 -8 23 -25q0 -3 -1 -6l-183 -916q-17 -83 -46 -150t-75.5 -114.5t-112 -73.5t-154.5 -26 q-48 0 -90 7t-69 19q-28 12 -35.5 22.5t-7.5 29.5z" />
<glyph unicode="K" horiz-adv-x="1120" d="M56 36l244 1223q2 21 33 31t107 10q38 0 62.5 -2.5t39 -7.5t19 -13t2.5 -18l-110 -553l480 549q10 12 22 20.5t29.5 14t43.5 8t65 2.5q40 0 65.5 -2.5t39.5 -8t19.5 -13.5t5.5 -18q0 -18 -12.5 -38t-42.5 -52l-458 -485l272 -577q9 -20 12.5 -34.5t3.5 -26.5 q0 -14 -6.5 -23.5t-22.5 -15.5t-43.5 -9t-69.5 -3t-68 2.5t-41 7.5t-22 14t-11 21l-274 613l-121 -616q-4 -21 -34.5 -31.5t-105.5 -10.5q-38 0 -62.5 2.5t-38.5 7.5q-16 5 -20 13q-3 6 -3 13q0 3 1 6z" />
<glyph unicode="L" horiz-adv-x="866" d="M64 83l236 1176q2 21 33 31t107 10q38 0 63 -2.5t39 -7.5t18.5 -13t2.5 -18l-208 -1042h408q14 0 19.5 -11t5.5 -29q0 -11 -3.5 -39.5t-12 -59.5t-21.5 -54.5t-32 -23.5h-593q-33 0 -52 19q-13 13 -13 38q0 12 3 26z" />
<glyph unicode="M" horiz-adv-x="1790" d="M55 35l230 1153q11 51 42 78.5t78 27.5h164q44 0 74 -8t49 -26t30 -46.5t18 -69.5l125 -770h5l444 770q22 38 42.5 66.5t44 47t53 27.5t70.5 9h186q52 0 72 -27q14 -18 14 -47q0 -14 -3 -31l-230 -1154q-3 -10 -9.5 -17.5t-20.5 -13t-38 -8t-63 -2.5t-63 2.5t-37 7.5 t-16.5 12.5t-1.5 18.5l210 1053h-2l-587 -1052q-14 -24 -47.5 -33t-96.5 -9q-66 0 -94 11.5t-29 28.5l-152 1055h-2l-211 -1054q-2 -11 -8.5 -18.5t-21 -12.5t-39 -7.5t-62.5 -2.5t-61.5 2.5t-36.5 7.5q-13 4 -17 12q-3 5 -3 12q0 3 1 7z" />
<glyph unicode="N" horiz-adv-x="1344" d="M55 36l233 1164q10 48 41.5 71t71.5 23h137q33 0 56 -7.5t39.5 -24t29 -43t24.5 -63.5l193 -583q19 -57 34.5 -111.5t32.5 -109.5h2q11 72 24.5 148.5t27.5 148.5l123 610q4 20 30.5 29.5t95.5 9.5q71 0 93 -10q19 -8 19 -23q0 -3 -1 -6l-234 -1167q-10 -48 -43 -71 t-72 -23h-112q-35 0 -58 7t-39 25t-29 49t-29 79l-191 578q-22 67 -40.5 135t-35.5 135h-2q-10 -79 -23 -155t-29 -154l-132 -661q-4 -20 -32 -31t-97 -11q-70 0 -92 11q-17 9 -17 23q0 4 1 8z" />
<glyph unicode="O" horiz-adv-x="1369" d="M95 428q0 94 16.5 196.5t53 201t95 188t142 157t194.5 107t252 39.5q121 0 213.5 -27.5t155.5 -84t95.5 -142.5t32.5 -202q0 -88 -16 -188t-51.5 -198.5t-93 -188.5t-141 -158.5t-195.5 -109.5t-255 -41q-242 0 -370 110t-128 341zM373 457q0 -62 13.5 -111t44 -82.5 t79 -51.5t119.5 -18q86 0 152 33t114.5 86.5t81.5 122t53 140t28.5 139.5t8.5 121q0 61 -13.5 110.5t-43.5 83.5t-78.5 52.5t-118.5 18.5q-87 0 -153 -33.5t-115 -88t-82 -123.5t-53 -140.5t-28.5 -139.5t-8.5 -119z" />
<glyph unicode="P" horiz-adv-x="1090" d="M55 35l233 1165q10 48 39 71t74 23h283q52 0 93 -3.5t81 -11.5q123 -24 192.5 -99t69.5 -203q0 -86 -29 -177t-97 -171q-33 -39 -77 -72t-100.5 -57t-126 -37.5t-154.5 -13.5h-135l-83 -414q-2 -11 -10.5 -18.5t-25 -12.5t-42.5 -7.5t-64 -2.5q-37 0 -61 2.5t-39 7.5 q-14 4 -18 12q-3 5 -4 13q0 3 1 6zM442 652h120q83 0 135.5 28.5t84.5 72.5q32 46 46.5 96.5t14.5 97.5q0 48 -23 83t-71 49q-21 7 -47 9.5t-58 2.5h-116z" />
<glyph unicode="Q" horiz-adv-x="1387" d="M95 428q0 94 16.5 196.5t53 201t95 188t142 157t194 107t252.5 39.5q241 0 369 -112t128 -344q0 -87 -15 -183.5t-49 -192t-89 -185t-135 -162.5q34 -36 65.5 -60.5t58.5 -41t48.5 -25.5t35.5 -14q15 -5 23 -9.5t11.5 -10.5t4 -13t0.5 -17q0 -14 -4.5 -43.5t-13.5 -59.5 t-22 -52.5t-31 -22.5q-15 0 -57 13t-97.5 43t-116 79.5t-111.5 121.5q-54 -24 -117 -36.5t-141 -12.5q-242 0 -370 110t-128 341zM373 457q0 -62 13.5 -111t44 -82.5t79 -51.5t118.5 -18q86 0 152 33t114.5 86.5t82 122t53.5 140t28.5 139.5t8.5 121q0 61 -13.5 110.5 t-43.5 83.5t-78.5 52.5t-118.5 18.5q-87 0 -153 -33.5t-115 -88t-82 -123.5t-53 -140.5t-28.5 -139.5t-8.5 -119z" />
<glyph unicode="R" horiz-adv-x="1153" d="M55 35l236 1176q9 45 36 64t63 19h347q91 0 164.5 -17t125.5 -52t80 -88t28 -125q0 -63 -17.5 -126.5t-55.5 -119.5t-98.5 -101t-147.5 -72q48 -19 81 -75t53 -155l53 -263q9 -44 9 -69q0 -10 -6.5 -17t-23.5 -11.5t-46.5 -6.5t-74.5 -2q-43 0 -68 2.5t-38.5 8 t-18.5 14.5t-7 21l-50 287q-9 50 -22.5 88t-34.5 63.5t-51 38t-72 12.5h-82l-99 -494q-2 -11 -10 -18.5t-24.5 -12.5t-42.5 -7.5t-64 -2.5q-75 0 -101 10q-22 8 -22 24q0 3 1 7zM456 726h125q75 0 127 21.5t84 55t46.5 76t14.5 84.5q0 28 -9.5 52t-30.5 41.5t-54.5 27 t-80.5 9.5h-149z" />
<glyph unicode="S" horiz-adv-x="953" d="M-1 121q0 13 4 40.5t12 56t19.5 50t26.5 21.5q17 0 40.5 -15.5t58 -34.5t83 -34.5t115.5 -15.5q58 0 103 15t75 41t45.5 61t15.5 75q0 37 -18 65t-47.5 51.5t-67 44.5t-76.5 44.5t-76.5 52t-67 66t-47.5 86.5t-18 114q0 90 36 166t100 130.5t153 85t196 30.5 q74 0 138 -15.5t102 -36.5q19 -11 29.5 -18.5t16 -15t7 -16t2.5 -20.5q0 -12 -3.5 -38.5t-10.5 -54t-17.5 -48.5t-24.5 -21t-35 12.5t-51.5 27t-71.5 27t-93 12.5q-53 0 -91 -15t-62 -39.5t-35.5 -55t-11.5 -61.5q0 -48 31.5 -81.5t78.5 -63.5t102.5 -61t102.5 -73 t78.5 -100.5t31.5 -142.5q0 -94 -38 -174.5t-107.5 -140t-168 -93.5t-218.5 -34q-66 0 -121 9.5t-97 26.5q-32 13 -56.5 23.5t-40.5 22.5t-23.5 26.5t-7.5 35.5z" />
<glyph unicode="T" horiz-adv-x="1014" d="M149 1120q0 12 3.5 40.5t12 58t21.5 52.5t32 23h912q25 0 25 -42q0 -10 -3.5 -38.5t-12 -58.5t-21.5 -53t-32 -23h-325l-208 -1043q-3 -10 -11 -18t-24.5 -13t-42 -8t-64.5 -3q-38 0 -62.5 3t-38.5 8t-18.5 13t-2.5 18l208 1043h-322q-15 0 -20.5 11t-5.5 30z" />
<glyph unicode="U" horiz-adv-x="1337" d="M144 490l154 768q2 10 9.5 18t23.5 13t42 8t65 3q76 0 101.5 -11t21.5 -31l-154 -768q-10 -54 -11 -97q0 -19 2 -36q6 -56 33 -92.5t72.5 -54t107.5 -17.5q129 0 215.5 76t114.5 215l155 774q2 10 9.5 18t23 13t41.5 8t64 3q75 0 100 -11q22 -9 22 -26q0 -3 -1 -5 l-156 -781q-25 -124 -78 -217.5t-132 -156.5t-181.5 -94.5t-226.5 -31.5q-263 0 -375 129q-77 89 -78 237q0 67 16 147z" />
<glyph unicode="V" horiz-adv-x="1211" d="M180 1262q2 16 14.5 24.5t40.5 11t77 2.5t76.5 -2t42 -7.5t18.5 -15.5t6 -26l110 -996h2l503 1000q7 14 16 23t25.5 14.5t44 7.5t72.5 2q48 0 75 -3t36 -14q5 -6 5 -16q0 -7 -3 -17q-7 -22 -26 -57l-613 -1147q-9 -17 -19 -27.5t-29 -16t-50.5 -7t-82.5 -1.5 q-59 0 -93.5 1.5t-53 7t-24.5 16.5t-9 30l-158 1169q-3 20 -3 34v10z" />
<glyph unicode="W" horiz-adv-x="1857" d="M199 1206q-1 14 -1 26q0 15 2 25q2 19 16 28.5t42 12t78 2.5q44 0 69.5 -2.5t39 -9t18 -17.5t4.5 -29l26 -987h2l437 986q8 19 17.5 30.5t26.5 18t45 8.5t73 2q46 0 73 -2t41 -8.5t18 -18.5t5 -32l50 -984h2l425 998q6 14 14.5 23t25 14.5t44 7.5t71.5 2t69 -4 q24 -2 33 -14q5 -7 5 -18q0 -7 -2 -15q-6 -21 -22 -56l-524 -1128q-11 -24 -24.5 -38t-35 -21.5t-54.5 -9.5t-84 -2q-54 0 -87.5 2t-52 8.5t-25.5 19.5t-8 34l-47 829h-2l-359 -822q-11 -24 -22 -38.5t-30.5 -21.5t-52 -9t-84.5 -2q-60 0 -96 2t-55 9.5t-26 22t-8 40.5z" />
<glyph unicode="X" horiz-adv-x="1128" d="M-48 12q-5 6 -5 14q1 8 5 18q10 20 35 55l427 570l-181 526q-12 35 -13.5 55.5t12.5 31.5t46 14.5t88 3.5q42 0 67 -2t39 -7t19.5 -14t10.5 -23l137 -422l302 427q8 12 17 20t25.5 12.5t43 6.5t70.5 2q54 0 85 -3.5t41 -14.5q5 -6 5 -14t-4 -18q-9 -21 -35 -55l-395 -528 l199 -565q13 -36 15 -57.5t-12.5 -32.5t-47 -14.5t-89.5 -3.5q-41 0 -65 2t-37.5 6.5t-19 12.5t-9.5 20l-157 470l-332 -470q-9 -12 -18.5 -20t-27 -12.5t-45.5 -6.5t-74 -2q-53 0 -82.5 3.5t-39.5 14.5z" />
<glyph unicode="Y" horiz-adv-x="1064" d="M179 1252v6q0 16 10 26q12 10 42 13t84 3q42 0 66.5 -1.5t38 -6.5t19.5 -14.5t10 -24.5l87 -311q16 -57 27 -107t20 -105h2q56 108 122 210l207 316q8 13 17 21.5t25 13.5t43 7t71 2q58 0 88.5 -3.5t39.5 -14.5q4 -6 4 -13q0 -9 -5 -19q-10 -21 -33 -54l-496 -705 l-90 -456q-2 -11 -10.5 -18.5t-25 -12.5t-42.5 -7.5t-64 -2.5t-63 2.5t-38.5 7.5t-18 12.5t-2.5 18.5l90 456l-212 705q-11 35 -13 56z" />
<glyph unicode="Z" horiz-adv-x="979" d="M-27 63q0 8 2 22t5 30t6.5 31t6.5 26q4 11 9 22t14 25t23.5 33t36.5 46l646 787h-486q-32 0 -32 43q0 10 3 37.5t11.5 56t22.5 50.5t37 22h718q28 0 45.5 -14t17.5 -42q0 -8 -1.5 -21t-4.5 -28.5t-7 -31.5t-8 -31q-3 -12 -8 -24t-14 -26.5t-23 -33.5t-36 -46l-643 -785 h532q14 0 19.5 -10t5.5 -30q0 -12 -3 -40t-10.5 -57.5t-20.5 -51.5t-32 -22h-763q-36 0 -52.5 18t-16.5 45z" />
<glyph unicode="[" horiz-adv-x="665" d="M12 -254l318 1586q9 45 35.5 64t59.5 19h309q22 0 22 -35q0 -10 -3 -34t-10 -48.5t-18 -43.5t-27 -19h-152l-279 -1393h151q24 0 24 -37q0 -11 -3.5 -34.5t-10.5 -47.5t-18.5 -42.5t-26.5 -18.5h-311q-32 0 -50.5 19.5t-9.5 64.5z" />
<glyph unicode="\" horiz-adv-x="870" d="M221.5 1437q1.5 15 13.5 22.5t37.5 9.5t68.5 2q40 0 63.5 -2t35.5 -6.5t16 -11.5t6 -18l258 -1651q4 -26 2.5 -40.5t-14 -22.5t-37.5 -10t-67 -2q-40 0 -63.5 1.5t-36 6t-17 12t-6.5 18.5l-257 1651q-4 26 -2.5 41z" />
<glyph unicode="]" horiz-adv-x="665" d="M-62 -299q0 10 3 33.5t10.5 47.5t18.5 42t28 18h150l279 1393h-150q-14 0 -19.5 9.5t-5.5 27.5q0 11 3 35t10 48t18.5 42t29.5 18h310q32 0 50.5 -19.5t9.5 -63.5l-318 -1586q-9 -45 -35 -64.5t-59 -19.5h-309q-24 0 -24 39z" />
<glyph unicode="^" d="M50 551q6 17 24 45l421 656q17 26 58 39t121 13t116.5 -13.5t42.5 -38.5l162 -656q7 -28 7 -45t-12 -26t-38 -11.5t-71 -2.5q-39 0 -64 2.5t-39.5 8t-21 14t-9.5 20.5l-112 541l-5 -1l-320 -540q-8 -12 -18.5 -21t-28 -14t-44 -7.5t-65.5 -2.5q-44 0 -68.5 2.5t-33 11.5 t-2.5 26z" />
<glyph unicode="_" d="M-161 -325q0 10 3.5 34t11 49t20.5 44t32 19h949q16 0 23 -11t7 -30q0 -9 -3.5 -33t-11 -49t-20 -44t-31.5 -19h-950q-17 0 -23.5 11t-6.5 29z" />
<glyph unicode="`" horiz-adv-x="615" d="M263.5 1371.5q-0.5 9.5 11.5 17t39 11.5t73 4q33 0 55.5 -2t37.5 -6.5t24 -12t16 -19.5l134 -229q8 -14 9.5 -23.5t-7 -16t-28.5 -9.5t-55 -3q-29 0 -48 1.5t-31.5 5.5t-21 11t-16.5 17l-183 232q-9 12 -9.5 21.5z" />
<glyph unicode="a" horiz-adv-x="1081" d="M62 317q0 64 12 138t37 148t64 142.5t93.5 121.5t125 84.5t159.5 31.5q84 0 147.5 -34.5t111.5 -100.5l16 79q5 21 32 30t88 9q60 0 82 -10q18 -8 18 -23q0 -3 -1 -6l-179 -894q-5 -21 -32 -30t-88 -9t-82.5 8.5t-16.5 30.5l28 143q-15 -32 -48 -67.5t-78 -64.5 t-99.5 -48t-112.5 -19q-80 0 -133 28t-85 75.5t-45.5 109t-13.5 127.5zM321 341q0 -30 4.5 -57t16.5 -48t32 -33.5t51 -12.5q44 0 90 26.5t85.5 72t70.5 106t45 129.5l28 135q-35 55 -77 82.5t-99 27.5q-42 0 -77 -20t-62.5 -53.5t-47.5 -77.5t-33.5 -91.5t-20 -95.5 t-6.5 -90z" />
<glyph unicode="b" horiz-adv-x="1081" d="M40 34l263 1315q2 10 9.5 18t23 13.5t40 8.5t61.5 3q36 0 59.5 -3t36.5 -8.5t17.5 -13.5t2.5 -18l-71 -358q-5 -23 -11 -48.5t-13.5 -50.5t-15 -48.5t-14.5 -41.5q18 32 51.5 64.5t76.5 58.5t92.5 42t99.5 16q85 0 138.5 -32t84 -81.5t42 -109.5t11.5 -117 q0 -66 -12 -141t-37 -149t-64.5 -142t-93.5 -120t-124.5 -83t-158.5 -31q-166 0 -260 133l-15 -76q-5 -21 -32 -30.5t-88 -9.5q-59 0 -81 10q-18 8 -19 24q0 3 1 6zM343 298q35 -55 77 -81.5t99 -26.5q40 0 74 19t61.5 51.5t48 75.5t34.5 90.5t21 97t7 94.5q0 25 -3.5 52 t-15 49t-31.5 36t-53 14q-44 0 -89.5 -27t-85.5 -72.5t-71 -106.5t-45 -130z" />
<glyph unicode="c" horiz-adv-x="843" d="M59 320q0 61 11.5 134t37.5 146.5t67.5 142.5t101.5 122t139.5 85t181.5 32q60 0 114 -13.5t90 -33.5q19 -11 30 -19.5t17 -16.5t7.5 -15.5t1.5 -16.5q0 -23 -5 -52t-14.5 -55t-23 -43.5t-29.5 -17.5q-15 0 -29 12.5t-34.5 27t-51.5 27t-80 12.5q-53 0 -93.5 -23 t-71 -59.5t-51 -83t-33 -94t-18 -91.5t-5.5 -75q0 -81 35.5 -123t111.5 -42q56 0 96 14.5t68.5 31.5t49 31.5t37.5 14.5q19 0 19 -35q0 -17 -3.5 -42t-10.5 -51.5t-16.5 -49.5t-21.5 -35q-15 -14 -43 -29.5t-66 -28.5t-82.5 -21.5t-92.5 -8.5q-172 0 -256.5 86t-84.5 256z " />
<glyph unicode="d" horiz-adv-x="1081" d="M62 320q0 65 12 139.5t37.5 148t64.5 141.5t93.5 120t125 83t158.5 31q80 0 139.5 -31.5t94.5 -76.5l95 471q2 10 9 18t22 13.5t40 8.5t62 3t60.5 -3t36.5 -8.5t17 -13.5q3 -5 3 -12q0 -3 -1 -6l-262 -1313q-5 -21 -32 -30t-88 -9t-82 8.5t-17 30.5l27 143 q-15 -33 -48 -68t-78 -64t-99.5 -48t-112.5 -19q-85 0 -139 31.5t-84.5 81.5t-42 110.5t-11.5 119.5zM321 343q0 -76 25 -114.5t79 -38.5q44 0 90 26t85.5 71t70.5 105.5t45 129.5l28 136q-35 55 -77 83t-99 28q-41 0 -75.5 -19.5t-62 -52.5t-48 -76t-34 -90.5t-20.5 -96 t-7 -91.5z" />
<glyph unicode="e" horiz-adv-x="1006" d="M59 313q0 68 12.5 144t40.5 150.5t72 142.5t106.5 119.5t144.5 82.5t187 31q91 0 156.5 -21.5t108 -57t62.5 -81t20 -93.5q0 -72 -32.5 -130t-101 -99t-174 -63t-251.5 -22h-92q-4 -23 -6 -45.5t-2 -41.5q0 -81 41.5 -122t135.5 -41q66 0 118.5 9.5t92 21t65.5 21t38 9.5 q22 0 22 -29q0 -17 -3 -39t-8.5 -43.5t-14 -40.5t-19.5 -29q-12 -11 -44 -23.5t-77.5 -22.5t-101 -16.5t-113.5 -6.5q-191 0 -287 81t-96 255zM354 577h84q79 0 133.5 10.5t88 28.5t48 42.5t14.5 52.5q0 40 -31.5 66.5t-91.5 26.5q-50 0 -89.5 -18t-69.5 -48.5t-51.5 -72 t-34.5 -88.5z" />
<glyph unicode="f" horiz-adv-x="648" d="M-182 -308q0 9 3.5 34t10 51.5t16 46.5t22.5 20q6 0 12 -1t13 -2.5t16.5 -2.5t24.5 -1q32 0 55.5 9.5t40.5 29.5t29 51.5t21 76.5l151 752h-112q-12 0 -18.5 8.5t-6.5 32.5q0 15 3.5 42.5t11.5 54t21 46.5t32 20h110l19 99q32 170 123 255.5t247 85.5q26 0 51.5 -2.5 t47 -7t37.5 -10.5t22 -12q11 -10 11 -36q0 -9 -3 -34t-9 -51.5t-15.5 -47t-21.5 -20.5q-13 0 -37 9.5t-61 9.5q-32 0 -55.5 -9t-40.5 -28.5t-28.5 -50.5t-20.5 -74l-15 -76h162q15 0 21 -9.5t6 -30.5q0 -15 -4 -42.5t-12.5 -54.5t-21 -47t-29.5 -20h-164l-157 -784 q-33 -166 -121 -251.5t-246 -85.5q-52 0 -87 8t-45 16q-9 10 -9 33z" />
<glyph unicode="g" horiz-adv-x="1081" d="M54 -271q0 10 3 35t10.5 51t20 46.5t30.5 20.5q12 0 29.5 -8.5t46.5 -18.5t72 -18.5t106 -8.5q103 0 162 34t75 115q13 66 26 109.5t24 71.5q-18 -33 -51.5 -65.5t-76.5 -58t-92.5 -41.5t-99.5 -16q-77 0 -129.5 26t-85.5 72t-47.5 108t-14.5 134q0 66 12 140.5 t37.5 148.5t64.5 142t93.5 120.5t125 83.5t158.5 31q84 0 147.5 -34.5t111.5 -100.5l16 79q5 21 32 30t88 9q60 0 82 -10q18 -8 18 -23q0 -3 -1 -6l-187 -929q-18 -90 -56 -158t-100.5 -113.5t-150.5 -68.5t-206 -23q-85 0 -152.5 13t-112.5 35q-16 8 -22 18t-6 28zM321 340 q0 -69 24 -109.5t80 -40.5q44 0 90 26.5t85.5 72t70.5 106.5t45 130l28 135q-35 55 -77 82.5t-99 27.5q-42 0 -76.5 -20t-62 -53.5t-48 -77.5t-34 -92t-20 -96.5t-6.5 -90.5z" />
<glyph unicode="h" horiz-adv-x="1080" d="M40 34l263 1315q2 10 9.5 18t23 13.5t40 8.5t61.5 3t60.5 -3t36.5 -8.5t17 -13.5t2 -18l-71 -362q-5 -22 -11 -47t-13.5 -49.5t-15 -47.5t-14.5 -41q19 31 52 63.5t75.5 58.5t92 42.5t101.5 16.5q67 0 114.5 -19t77.5 -53t43.5 -81t13.5 -103q0 -36 -4 -71.5t-11 -70.5 l-110 -551q-2 -10 -9.5 -17.5t-23 -12.5t-40.5 -7.5t-62 -2.5q-72 0 -96 10t-20 30l107 535q5 21 7.5 47.5t2.5 47.5q0 45 -19 73t-64 28q-41 0 -85.5 -26t-84 -71t-70.5 -105t-44 -127l-81 -402q-4 -20 -32.5 -30t-101.5 -10t-97 10q-20 9 -21 24q0 3 1 6z" />
<glyph unicode="i" horiz-adv-x="503" d="M40 34l177 890q4 20 32.5 31t101.5 11q37 0 60.5 -3t37 -8.5t17.5 -13t2 -17.5l-177 -890q-4 -20 -32.5 -30t-101.5 -10t-97 10q-20 9 -21 24q0 3 1 6zM253 1163v11q0 22 6 52q7 36 19 61t32 41t49.5 23t71.5 7t68.5 -7t40.5 -23q12 -16 14 -41q0 -4 1 -9q0 -22 -6 -52 q-7 -38 -19 -63t-32 -40.5t-49.5 -22t-71.5 -6.5t-68.5 6.5t-40 22t-15.5 40.5z" />
<glyph unicode="j" horiz-adv-x="523" d="M-187 -309q0 11 3.5 37t10.5 52.5t17 47t24 20.5q13 0 21.5 -2.5t33.5 -2.5q49 0 80 33t48 120l186 928q4 20 32.5 31t101.5 11q37 0 60.5 -3t36.5 -8.5t17.5 -13t2.5 -17.5l-188 -937q-17 -85 -45 -150.5t-70 -110.5t-101 -68t-138 -23q-49 0 -82.5 7.5t-41.5 14.5 q-5 6 -7 13t-2 21zM272 1163v11q0 22 6 52q7 36 19 61t32 41t49.5 23t71.5 7q43 0 69.5 -7t40 -23t14.5 -41q1 -4 1 -9q0 -22 -6 -52q-8 -38 -20 -63t-31.5 -40.5t-48.5 -22t-72 -6.5q-42 0 -68.5 6.5t-40.5 22t-16 40.5z" />
<glyph unicode="k" horiz-adv-x="983" d="M39 33l264 1316q2 10 9.5 18t23 13.5t40 8.5t61.5 3t60.5 -3t36.5 -8.5t17 -13.5t2 -18l-156 -783l334 357q11 12 22.5 20t29 13t43 7.5t63.5 2.5t62.5 -2t38.5 -6.5t19.5 -11.5t5.5 -16q0 -16 -12.5 -38.5t-45.5 -53.5l-315 -297l205 -430q11 -23 14.5 -41.5t3.5 -28.5 q0 -12 -6.5 -21t-22 -15t-42 -8.5t-66.5 -2.5t-64.5 2t-38.5 7t-20 13t-9 20l-211 470l-94 -472q-3 -10 -10.5 -17.5t-23 -12.5t-40 -7.5t-61.5 -2.5t-60.5 2.5t-36.5 7t-17 12.5q-3 5 -4 11q0 3 1 6z" />
<glyph unicode="l" horiz-adv-x="503" d="M40 34l263 1315q2 10 9.5 18t23 13.5t40 8.5t61.5 3t60.5 -3t36.5 -8.5t17 -13.5q3 -5 2 -12v-6l-262 -1315q-4 -20 -32 -30t-101 -10q-74 0 -98 10q-21 9 -21 24q0 3 1 6z" />
<glyph unicode="m" horiz-adv-x="1646" d="M40 34l179 893q4 20 28.5 29.5t86.5 9.5q61 0 81 -9.5t16 -29.5l-29 -147q21 35 56 71t79.5 65.5t97 48t108.5 18.5q59 0 101 -15.5t69.5 -43t42 -64.5t18.5 -80q23 36 58.5 72t80 65t96.5 47.5t107 18.5q70 0 117.5 -19.5t76.5 -54t42 -81t13 -100.5q0 -35 -4 -70.5 t-12 -72.5l-110 -551q-2 -10 -9.5 -17.5t-23 -12.5t-40.5 -7.5t-62 -2.5q-72 0 -97 10t-19 30l107 535q5 23 7.5 45.5t2.5 45.5q0 48 -17.5 76.5t-62.5 28.5q-39 0 -82.5 -26t-82.5 -70.5t-70 -104t-44 -126.5l-81 -404q-2 -10 -9.5 -17.5t-23 -12.5t-40.5 -7.5t-62 -2.5 q-72 0 -96 10t-20 30l106 535q5 23 8 47.5t3 47.5q0 44 -18 72.5t-62 28.5q-39 0 -82.5 -26t-82.5 -70.5t-70 -104t-44 -126.5l-81 -404q-4 -20 -32.5 -30t-101.5 -10t-97 10q-20 9 -21 24q0 3 1 6z" />
<glyph unicode="n" horiz-adv-x="1080" d="M40 34l179 893q4 20 28.5 29.5t86.5 9.5q61 0 81 -9.5t16 -29.5l-29 -147q21 35 56.5 71t80.5 65.5t98.5 48t111.5 18.5q70 0 117.5 -20.5t77 -55.5t42.5 -81.5t13 -98.5q0 -35 -4 -70t-12 -72l-111 -551q-2 -10 -9.5 -17.5t-23 -12.5t-40 -7.5t-61.5 -2.5t-60.5 2.5 t-36.5 7.5t-17.5 12.5t-2.5 17.5l108 535q5 24 7.5 49t2.5 44q0 45 -19 74t-64 29q-41 0 -85 -26t-84 -70.5t-71 -104t-44 -126.5l-81 -404q-4 -20 -32.5 -30t-101.5 -10t-97 10q-20 9 -21 24q0 3 1 6z" />
<glyph unicode="o" horiz-adv-x="1080" d="M60 334q0 72 13.5 148t42.5 148t74.5 136.5t108.5 112.5t145.5 76t185.5 28q200 0 297 -92.5t97 -264.5q0 -72 -13.5 -148t-42.5 -148t-74.5 -136.5t-108.5 -112.5t-145.5 -76t-185.5 -28q-200 0 -297 92.5t-97 264.5zM320 353q0 -85 36.5 -131t124.5 -46q50 0 90 19.5 t71.5 53t54.5 77.5t38 92t22 97t7 94q0 84 -36.5 130t-124.5 46q-50 0 -90 -19.5t-71.5 -52.5t-54.5 -76.5t-38 -91.5t-22 -97.5t-7 -94.5z" />
<glyph unicode="p" horiz-adv-x="1081" d="M-31 -320l250 1247q5 21 31 30t89 9q61 0 82 -9.5t17 -29.5l-28 -145q15 33 48 68.5t78 65t99.5 48.5t112.5 19q76 0 129 -26.5t85.5 -72.5t47 -108t14.5 -133q0 -65 -12 -140t-37 -149t-64 -142t-93.5 -120.5t-125 -83.5t-158.5 -31q-81 0 -139.5 30.5t-95.5 75.5 l-79 -403q-2 -10 -9.5 -18t-23 -13.5t-40.5 -8.5t-62 -3q-36 0 -59.5 3t-36.5 8.5t-17 13.5q-4 6 -4 12q0 3 1 6zM343 300q35 -55 77 -82.5t99 -27.5q42 0 76 20t61.5 53.5t48 77.5t34 92t20 96.5t6.5 91.5q0 70 -23 109.5t-80 39.5q-44 0 -89.5 -26.5t-85.5 -72t-71 -106.5 t-45 -129z" />
<glyph unicode="q" horiz-adv-x="1081" d="M62 315q0 64 11.5 138t36.5 148t64 143t93.5 122t125.5 85t160 32q84 0 147.5 -34.5t111.5 -100.5l16 79q5 21 32 30.5t88 9.5q60 0 82 -10q18 -8 18 -24q0 -3 -1 -6l-249 -1247q-2 -10 -9.5 -18t-23 -13.5t-40.5 -8.5t-62 -3q-72 0 -96 11.5t-20 31.5l58 289 q4 22 10.5 47t14 50t15 48.5t14.5 41.5q-18 -32 -51.5 -64t-76.5 -57.5t-92.5 -41.5t-99.5 -16q-74 0 -126.5 25t-86 69.5t-49 106.5t-15.5 137zM321 340q0 -78 26.5 -114t77.5 -36q44 0 90 26.5t85.5 72t70.5 106.5t45 130l28 135q-35 55 -77 82.5t-99 27.5q-44 0 -79 -21 t-62.5 -56t-47.5 -79.5t-33 -92.5t-19 -95t-6 -86z" />
<glyph unicode="r" horiz-adv-x="721" d="M40 34l178 893q4 20 29.5 29.5t86.5 9.5t81 -9.5t16 -29.5l-28 -142q24 43 55.5 79t67 62.5t73.5 41.5t75 15q31 0 59.5 -7t40.5 -17q6 -6 6 -19q0 -6 -2 -24.5t-6 -42.5t-10 -50t-13.5 -47.5t-17 -35.5t-20.5 -14q-9 0 -18 3.5t-20 7t-24 7t-30 3.5q-34 0 -72.5 -25.5 t-73.5 -68.5t-62.5 -99.5t-39.5 -118.5l-80 -401q-4 -20 -32.5 -30t-101.5 -10t-97 10q-20 9 -21 24q0 3 1 6z" />
<glyph unicode="s" horiz-adv-x="807" d="M2 88q0 13 4 38t10.5 50t16.5 43.5t22 18.5q14 0 31 -12t44 -27t66.5 -27t98.5 -12q41 0 71.5 9.5t50.5 26t29.5 39t9.5 47.5q0 34 -24.5 56.5t-61.5 41.5t-80.5 39t-80.5 49t-61.5 72t-24.5 108q0 71 27.5 132t79 106t125.5 71t168 26q42 0 81 -5.5t71.5 -14.5t55.5 -20 t33 -22q11 -11 11 -34q0 -12 -3.5 -35.5t-10.5 -47.5t-16.5 -41.5t-21.5 -17.5q-13 0 -30.5 9.5t-42.5 20.5t-58.5 20.5t-78.5 9.5q-71 0 -108 -33.5t-37 -81.5q0 -31 25.5 -52t63 -39.5t82 -38.5t82 -50t63 -73t25.5 -108q0 -76 -29 -140.5t-84.5 -111.5t-135 -73.5 t-179.5 -26.5q-49 0 -92 7t-77 17.5t-58.5 23t-36.5 23.5q-8 8 -11.5 17t-3.5 23z" />
<glyph unicode="t" horiz-adv-x="710" d="M94 797q0 17 3.5 44.5t11.5 54t21 45.5t31 19h107l40 199q2 10 9.5 18t23 13.5t40 8t61.5 2.5q36 0 60 -2.5t37.5 -8t17.5 -13.5t2 -18l-40 -199h193q17 0 23 -11t6 -32q0 -15 -4.5 -42t-13 -53.5t-21 -46t-29.5 -19.5h-195l-84 -419q-3 -15 -5.5 -35.5t-2.5 -33.5 q0 -40 18.5 -58.5t60.5 -18.5q24 0 41 3.5t29.5 8t21.5 8t17 3.5q19 0 19 -32q0 -19 -4 -43t-10.5 -46.5t-14.5 -41t-17 -27.5t-27.5 -17t-42.5 -14t-52 -9.5t-56 -3.5q-120 0 -182 52t-62 171q0 10 1.5 25t3.5 31t4.5 32t5.5 30l87 435h-108q-13 0 -19 8.5t-6 32.5z" />
<glyph unicode="u" horiz-adv-x="1080" d="M87 232q0 34 4 69.5t12 72.5l110 553q4 20 32.5 29.5t101.5 9.5t97 -9.5t20 -29.5l-106 -536q-5 -22 -7.5 -46t-2.5 -46q0 -49 18.5 -77t63.5 -28q41 0 86 26.5t85 73t71.5 110t46.5 137.5l76 386q4 20 33.5 29.5t100.5 9.5q73 0 97 -10q20 -8 21 -23q0 -3 -1 -6 l-179 -894q-4 -20 -28.5 -29.5t-86.5 -9.5q-61 0 -81.5 9.5t-14.5 29.5l27 145q-20 -35 -55 -70.5t-80.5 -64.5t-98.5 -47.5t-109 -18.5q-70 0 -118.5 19t-78.5 53t-43 81t-13 102z" />
<glyph unicode="v" horiz-adv-x="961" d="M110 906q0 18 4.5 29.5t18 18.5t39 9.5t68.5 2.5q40 0 63 -2t35 -7t16 -13.5t6 -20.5l76 -655v-25l5 9q45 81 86 159t78 159t70.5 168t62.5 185q4 12 12 20.5t24 13.5t41.5 7t63.5 2q37 0 60.5 -2t36 -6t17 -10t4.5 -15q0 -25 -12 -61q-75 -217 -181 -430.5t-252 -405.5 q-11 -14 -25 -22t-33.5 -12.5t-46.5 -6t-63 -1.5q-54 0 -86 2.5t-49 8.5t-23 16.5t-8 26.5l-105 802q-2 16 -2.5 30t-0.5 26z" />
<glyph unicode="w" horiz-adv-x="1526" d="M124 901q0 18 4 30.5t18 20t40.5 11t72.5 3.5q39 0 62 -2t35 -7t16 -13.5t5 -20.5l43 -656l-1 -12l6 12l294 656q6 12 13.5 20.5t21.5 13.5t37 7t59 2q37 0 60 -2.5t36 -7t18 -12t6 -17.5l52 -658l1 -11l6 11q36 65 73.5 143t73.5 163t68.5 173.5t58.5 174.5q2 13 9.5 21 t24 13t42 7t63.5 2q37 0 60 -2t35.5 -6t16.5 -10t4 -15q0 -15 -4 -32t-8 -29q-75 -217 -179 -430.5t-240 -405.5q-20 -28 -59 -35t-106 -7q-43 0 -69 2.5t-40.5 8.5t-20.5 16.5t-7 26.5l-46 550l-246 -548q-8 -17 -17.5 -28t-27.5 -17t-49 -8.5t-80 -2.5q-48 0 -78 2.5 t-47 8.5t-23.5 16.5t-7.5 26.5l-77 807q-1 10 -1.5 23t-0.5 23z" />
<glyph unicode="x" horiz-adv-x="941" d="M-43 50l339 444l-149 412q-6 18 -4.5 29.5t15.5 18.5t42.5 9.5t75.5 2.5q41 0 64.5 -1t35.5 -4.5t17 -10t8 -16.5l104 -298l215 298q6 8 13 14t21.5 10t39 6t65.5 2q46 0 74 -2q29 -2 41 -8q11 -5 11 -15q-1 -1 -1 -2q-2 -11 -14 -28l-310 -415l160 -444q6 -17 3 -28 t-18.5 -17.5t-45 -9.5t-75.5 -3q-42 0 -66 2t-37 6t-17.5 11t-6.5 16l-108 315l-226 -316q-6 -9 -14 -15t-24.5 -10.5t-45.5 -6.5t-77 -2q-44 0 -70 2q-26 4 -38 10q-11 6 -11 15q0 11 14 29z" />
<glyph unicode="y" horiz-adv-x="963" d="M35 -299l227 299l-147 858q-2 13 -4 27t-2 24q0 18 6.5 29t22 17t41 8.5t63.5 2.5q41 0 64.5 -1.5t35.5 -6.5t16.5 -14.5t6.5 -25.5l92 -625h2q100 150 166.5 308t114.5 326q2 10 9 17.5t23 12t43.5 7t70.5 2.5q64 0 88 -8t24 -29q0 -28 -12 -62q-34 -92 -74 -189.5 t-91 -202t-115.5 -215.5t-148.5 -230l-244 -346q-17 -25 -56.5 -36t-116.5 -11q-43 0 -69.5 3.5t-38.5 11.5q-11 7 -11 18q0 13 14 31z" />
<glyph unicode="z" horiz-adv-x="814" d="M-13 47q0 8 2 21.5t4.5 28t6 28t6.5 21.5q3 11 7 21t10.5 21t16 24t23.5 30l426 516h-304q-14 0 -21.5 10t-7.5 35q0 15 3.5 41t12 52t21.5 45t32 19h551q21 0 28.5 -9.5t7.5 -26.5q0 -7 -2 -22t-5 -32t-6.5 -33t-5.5 -25q-6 -26 -19.5 -46.5t-36.5 -48.5l-422 -515h340 q28 0 28 -42q0 -13 -3.5 -39.5t-12 -53.5t-21.5 -47t-31 -20h-589q-39 0 -39 47z" />
<glyph unicode="{" horiz-adv-x="704" d="M69 518q0 13 3 32.5t8 39.5t11.5 37.5t14.5 26.5t22 12t32 7.5t38.5 14.5t43.5 33q27 28 46 70.5t30 94.5l38 192q18 91 44 158.5t66 112.5t96.5 67t134.5 22q16 0 33.5 -1.5t32 -3.5t25.5 -5.5t15 -7.5q6 -6 8 -15.5t2 -18.5q0 -17 -4.5 -41t-13 -46.5t-20.5 -38 t-28 -15.5h-30q-27 0 -47 -8.5t-35 -30.5t-27 -58.5t-23 -93.5l-33 -169q-12 -59 -33.5 -111.5t-54.5 -94.5t-78 -72t-104 -43q42 -10 71 -32.5t47 -52t26 -64t8 -68.5q0 -24 -2.5 -50t-7.5 -49l-43 -213q-7 -33 -10 -60.5t-3 -48.5q0 -39 13.5 -55.5t40.5 -16.5h39 q22 0 30 -10t8 -27q0 -8 -3 -26.5t-8 -39.5t-12 -40t-16 -28q-10 -10 -40.5 -16t-72.5 -6q-61 0 -102 15.5t-66 44t-36 69.5t-11 93q0 31 4 74.5t15 95.5l41 203q4 17 6.5 37.5t2.5 37.5q0 57 -24.5 94t-81.5 49q-16 4 -21 15t-5 29z" />
<glyph unicode="|" horiz-adv-x="973" d="M210 -323l345 1726q4 20 32 31.5t96 11.5t90.5 -11.5t18.5 -31.5l-346 -1726q-2 -11 -9.5 -18.5t-22 -13t-38 -8t-57.5 -2.5q-68 0 -91.5 11t-17.5 31z" />
<glyph unicode="}" horiz-adv-x="704" d="M-40 -286q0 16 4 40t12.5 46t20.5 38t28 16h30q27 0 47 8.5t35 30.5t27 58.5t23 93.5l42 213q12 58 33 110.5t54 94.5t78.5 72t104.5 43q-43 10 -72 32t-47 52t-25.5 64.5t-7.5 69.5q0 25 2.5 50.5t7.5 48.5l34 170q7 32 10 59.5t3 48.5q0 39 -13 55.5t-40 16.5h-39 q-23 0 -30.5 10t-7.5 27q0 9 2.5 27.5t7.5 39t12.5 39.5t16.5 28q10 10 40 16t72 6q61 0 102 -15.5t66 -44t36 -69.5t11 -92q0 -31 -4 -75t-15 -96l-33 -159q-4 -17 -6 -38t-2 -38q0 -55 24.5 -93t81.5 -50q16 -3 21.5 -14.5t5.5 -29.5q0 -12 -3 -31.5t-8 -40t-12 -38.5 t-15 -26t-22 -11t-32 -8t-39 -15t-43 -33q-26 -28 -46.5 -70t-30.5 -94l-46 -235q-18 -91 -44 -159t-65.5 -113t-96 -67t-134.5 -22q-34 0 -66 4.5t-40 14.5q-6 5 -8 15t-2 19z" />
<glyph unicode="~" d="M143 819q0 78 21 141.5t59.5 109.5t93.5 71t123 25q58 0 98.5 -15t70 -37t50.5 -48.5t40 -48.5t39.5 -37t48.5 -15q49 0 76 39.5t31 108.5q1 17 24.5 24.5t68.5 7.5q27 0 44.5 -2.5t27.5 -7.5t14 -12.5t4 -16.5q0 -78 -23 -142.5t-62.5 -110t-93.5 -70.5t-117 -25 q-60 0 -100.5 15t-69 37.5t-49 48.5t-39 48.5t-39.5 37.5t-51 15q-51 0 -77.5 -40.5t-30.5 -104.5q-1 -35 -94 -35q-53 0 -70.5 10.5t-17.5 28.5z" />
<glyph unicode="&#xa1;" horiz-adv-x="667" d="M39 -141l207 908q5 20 31 31.5t88 11.5q32 0 52.5 -3t32 -8.5t15 -13.5t1.5 -18l-156 -908q-4 -27 -36 -39.5t-110 -12.5q-40 0 -65.5 3t-39.5 9.5t-18.5 16.5t-1.5 23zM265 997q0 18 3.5 42t10.5 48.5t17 46t23 34.5q19 19 48.5 28.5t75.5 9.5q36 0 59.5 -5.5t37 -16.5 t18.5 -26.5t5 -35.5q0 -16 -3 -39.5t-10 -48.5t-17 -47.5t-24 -36.5q-22 -22 -51 -30.5t-71 -8.5q-39 0 -62.5 6.5t-37 18t-18 27.5t-4.5 34z" />
<glyph unicode="&#xa2;" d="M188 495q0 48 8.5 110t28.5 127.5t53 130.5t82.5 120t116.5 94.5t156 54.5l26 134q4 21 28 31.5t84 10.5t80 -10.5t15 -31.5l-27 -134q42 -7 76.5 -22.5t64.5 -39.5q14 -12 21 -23t7 -30q0 -11 -3.5 -37.5t-12 -54.5t-22 -49t-32.5 -21q-14 0 -29.5 13.5t-38 29t-55.5 29 t-81 13.5q-55 0 -97.5 -22t-74.5 -58t-53.5 -81.5t-34.5 -92t-19 -90t-6 -75.5q0 -79 36 -125t125 -46q51 0 89 14.5t68 32t52.5 32t42.5 14.5q18 0 18 -37q0 -12 -2.5 -36t-8.5 -51t-15 -52t-21 -37q-28 -28 -79.5 -48.5t-108.5 -30.5l-27 -136q-2 -11 -8.5 -18.5 t-19.5 -12t-33.5 -7t-50.5 -2.5q-59 0 -80.5 10t-15.5 30l29 137q-68 14 -116 45.5t-78 76t-43.5 100.5t-13.5 121z" />
<glyph unicode="&#xa3;" horiz-adv-x="1038" d="M-4 44q0 12 4.5 38.5t13 53.5t21 47t28.5 20h107l71 356h-106q-14 0 -20.5 11t-6.5 30q0 10 3.5 35.5t11.5 52.5t20.5 48t30.5 21h106l23 115q24 118 66 202t102.5 137.5t139 78.5t176.5 25q39 0 77.5 -6t73 -16.5t62.5 -25.5t47 -34q9 -9 14 -20t5 -26q0 -10 -3 -36.5 t-10 -54t-19 -49t-29 -21.5q-16 0 -32 13t-39 28t-55.5 28t-81.5 13q-97 0 -154.5 -65.5t-83.5 -194.5l-18 -91h269q15 0 21 -12.5t6 -29.5q0 -11 -4 -36.5t-12 -52t-20.5 -47t-29.5 -20.5h-269l-72 -356h436q15 0 21 -11.5t6 -28.5q0 -10 -3.5 -36.5t-11.5 -54.5t-21 -50 t-31 -22h-802q-12 0 -20 10.5t-8 33.5z" />
<glyph unicode="&#xa4;" d="M-48.5 23.5q-15.5 20.5 30.5 72.5l177 200q-20 32 -31 74.5t-11 93.5q0 55 10.5 110.5t30 107.5t48 97.5t64.5 80.5l-98 204q-12 26 -14 43t9.5 26.5t38 13.5t70.5 4q38 0 60.5 -1.5t35 -5.5t17.5 -11t9 -17l60 -160q28 13 70 21t87 8q42 0 76 -6.5t58 -20.5l122 160 q8 10 17 17t24 11t39.5 5.5t62.5 1.5q88 0 104.5 -20.5t-30.5 -73.5l-182 -206q25 -39 31 -82.5t6 -76.5q0 -110 -38 -214t-118 -183l98 -200q13 -27 15.5 -44t-9 -26.5t-38 -13.5t-70.5 -4q-38 0 -61 2t-36 6t-18 11t-8 17l-60 159q-30 -13 -68.5 -21t-83.5 -8 q-40 0 -73.5 5.5t-54.5 16.5l-122 -159q-8 -10 -17 -17t-24 -11t-39 -5.5t-62 -1.5q-89 0 -104.5 20.5zM346 502q0 -72 35.5 -109.5t105.5 -37.5q63 0 106.5 29t70.5 73.5t39 98t12 102.5q0 30 -7.5 57t-23.5 47.5t-42 32t-62 11.5q-68 0 -113 -32.5t-72 -79.5t-38 -99.5 t-11 -92.5z" />
<glyph unicode="&#xa5;" horiz-adv-x="1038" d="M49 172q0 8 3.5 30.5t10.5 46t17.5 41.5t25.5 18h250l24 126h-250q-20 0 -20 38q0 9 3.5 31.5t10 45.5t17 40.5t24.5 17.5h250l8 35l-212 554q-14 36 -18 56.5t7.5 31t41.5 13.5t84 3q43 0 68 -1.5t38.5 -6t19 -12.5t10.5 -21l135 -398l291 398q10 14 21 22.5t28 12.5 t45 5t73 1q48 0 74.5 -2.5t33.5 -12.5t-4.5 -31t-40.5 -58l-432 -554l-7 -35h249q12 0 17.5 -10t5.5 -26q0 -10 -3.5 -32.5t-11 -46t-18 -41t-25.5 -17.5h-249l-24 -126h249q12 0 17 -10t5 -24q0 -9 -3 -32t-10 -47t-18 -42.5t-26 -18.5h-250l-19 -102q-2 -11 -9.5 -18 t-24 -11.5t-42.5 -6.5t-64 -2q-39 0 -64 2t-39 6.5t-18.5 11.5t-2.5 18l20 102h-250q-22 0 -22 38z" />
<glyph unicode="&#xa6;" d="M230 -339l130 648q2 10 9 17.5t21.5 13t37.5 8.5t58 3q69 0 91 -11.5t18 -30.5l-129 -648q-3 -10 -10 -18t-21.5 -13t-37.5 -8t-58 -3q-68 0 -91.5 11t-17.5 31zM452 771l129 643q4 20 31.5 31t95.5 11q69 0 91 -11t18 -31l-129 -643q-3 -10 -10 -18t-21 -13.5t-37 -8.5 t-58 -3q-69 0 -91.5 11.5t-18.5 31.5z" />
<glyph unicode="&#xa7;" d="M57 -91q0 11 3.5 35t10.5 48t18 42.5t26 18.5q14 0 33 -12.5t47.5 -28t68 -28t94.5 -12.5q43 0 74.5 11t51.5 29.5t30 43.5t10 52q0 28 -18 50t-47 40.5t-66.5 36t-77 37t-77 43.5t-66.5 55.5t-47 72.5t-18 96q0 58 18.5 109t51 93.5t75.5 76t92 57.5q-24 30 -34.5 62 t-10.5 71q0 37 8.5 77.5t27.5 79t50.5 73t76.5 60.5t106 41.5t139 15.5q43 0 81.5 -6t70 -15t53.5 -20t33 -21q13 -13 13 -40q0 -8 -3 -31.5t-9.5 -48.5t-17 -44.5t-24.5 -19.5q-11 0 -27.5 10.5t-42 23.5t-60.5 23.5t-83 10.5q-35 0 -62 -10t-46 -26.5t-29 -39.5t-10 -48 q0 -42 31 -70t77 -51.5t100 -48t100 -59t77 -84t31 -123.5q0 -53 -16.5 -102.5t-47.5 -92.5t-74 -79t-95 -62q24 -31 36 -67t12 -67q0 -32 -8.5 -71t-28 -78.5t-52 -76.5t-81 -65.5t-114.5 -46t-152 -17.5q-49 0 -89 6t-72 16t-56.5 22.5t-43.5 25.5q-11 8 -16 18.5t-5 28.5 zM353 577q0 -38 22 -62t55.5 -42t73 -34t74.5 -39q29 12 54.5 29.5t44 40t29 50t10.5 58.5q0 38 -22 62t-56 42t-73.5 33.5t-73.5 38.5q-61 -24 -99.5 -70.5t-38.5 -106.5z" />
<glyph unicode="&#xa8;" horiz-adv-x="849" d="M250.5 1163.5q-2.5 23.5 4.5 61.5q6 37 17.5 61t29.5 38t43.5 19t59.5 5t57 -5t36 -19t15.5 -38t-4.5 -61t-18.5 -61t-29 -37.5t-42.5 -19t-60 -5.5t-58 5t-35.5 19t-15 37.5zM641.5 1163.5q-2.5 23.5 4.5 61.5q6 37 17.5 61t29.5 38t43 19t59 5t57.5 -5t36.5 -19 t15.5 -38t-4.5 -61q-7 -38 -18.5 -61.5t-29 -37.5t-43 -19t-60.5 -5q-34 0 -57 5t-35.5 19t-15 37.5z" />
<glyph unicode="&#xa9;" horiz-adv-x="1709" d="M186 495q0 59 7 129t24 144.5t46.5 150.5t74 146t106.5 131t144.5 106.5t187.5 71.5t236 26q170 0 285 -41t185 -112t100 -166t30 -202q0 -78 -13 -175.5t-47 -197.5t-93 -195.5t-151 -169.5t-220.5 -119t-301.5 -45q-175 0 -290.5 42.5t-184.5 114t-97 165.5t-28 196z M366 522q0 -78 17 -148t66 -123.5t136 -84.5t228 -31q134 0 232.5 37t167 97t111 137t66.5 157.5t32.5 158t8.5 138.5q0 78 -18 147.5t-67.5 121.5t-136.5 82.5t-224 30.5q-139 0 -239.5 -39t-169 -101.5t-110 -141.5t-64 -159t-29.5 -153.5t-7 -125.5zM524 548 q0 52 9.5 114.5t31.5 126t57.5 122.5t87.5 105t121.5 74t159.5 28q76 0 130.5 -16.5t88.5 -42.5q22 -17 22 -41q0 -20 -4.5 -44.5t-13 -46t-20 -36t-25.5 -14.5t-27 11t-32 24t-47 24t-71 11q-49 0 -86 -20t-64 -52t-45.5 -73t-29.5 -82t-16 -79.5t-5 -66.5 q0 -72 31.5 -108.5t100.5 -36.5q50 0 86 12.5t61.5 27t43 27t32.5 12.5q19 0 19 -29q0 -14 -3 -35t-8.5 -43t-13.5 -41t-17 -27q-15 -14 -40.5 -28.5t-58.5 -26t-72.5 -18.5t-82.5 -7q-151 0 -225.5 74.5t-74.5 220.5z" />
<glyph unicode="&#xaa;" horiz-adv-x="903" d="M101 364q0 10 3 32.5t10 45t19.5 39.5t32.5 17h586q17 0 23.5 -9t6.5 -28q0 -9 -3 -31.5t-10.5 -45.5t-20 -40.5t-31.5 -17.5h-586q-18 0 -24 9t-6 29zM173 855q0 45 8.5 96.5t27 102.5t47.5 97.5t69.5 82t93.5 57t119 21.5q60 0 108 -22t83 -70l10 50q3 16 28 22.5 t79 6.5q52 0 70.5 -6.5t15.5 -22.5l-124 -620q-3 -16 -26.5 -23.5t-80.5 -7.5q-51 0 -68.5 7.5t-15.5 23.5l15 94q-11 -23 -35 -47t-57 -43.5t-73.5 -32.5t-84.5 -13q-59 0 -99 19.5t-64.5 53.5t-35 78.5t-10.5 95.5zM395 866q0 -36 13.5 -62t55.5 -26q27 0 58.5 19t60 51.5 t51 75.5t31.5 92l11 58q-23 33 -52 51.5t-66 18.5q-42 0 -72.5 -27t-51 -68t-30 -90t-9.5 -93z" />
<glyph unicode="&#xab;" horiz-adv-x="1103" d="M102 531.5q2 21.5 20 43.5l283 347q7 9 15.5 15.5t22 10t33.5 5.5t49 2q73 0 92 -14.5t0 -40.5l-278 -388l123 -370q3 -13 1.5 -23.5t-12.5 -17.5t-33 -11t-60 -4q-29 0 -46 2t-27 6t-14.5 10t-8.5 15l-151 365q-11 26 -9 47.5zM514 530.5q2 20.5 21 43.5l270 328 q9 9 17.5 14.5t21.5 9.5t32 5.5t49 1.5q73 0 92 -13.5t1 -38.5l-270 -368l127 -356q3 -12 1.5 -20.5t-12.5 -14.5t-33 -9t-59 -3q-28 0 -45 1.5t-27 4.5t-14.5 8.5t-8.5 13.5l-153 346q-12 26 -10 46.5z" />
<glyph unicode="&#xac;" d="M64 532q0 11 3.5 36t12 51t21.5 45.5t32 19.5h758q45 0 62.5 -20t7.5 -68l-65 -319q-2 -11 -8.5 -19t-19 -13.5t-32.5 -8.5t-50 -3q-57 0 -77.5 11.5t-15.5 32.5l44 214h-646q-27 0 -27 41z" />
<glyph unicode="&#xad;" horiz-adv-x="627" d="M59 445q0 13 3.5 39.5t11.5 53.5t22.5 47t36.5 20h416q19 0 26.5 -11.5t7.5 -32.5q0 -11 -4 -37.5t-13 -54.5t-23 -49t-35 -21h-416q-18 0 -25.5 10.5t-7.5 35.5z" />
<glyph unicode="&#xae;" horiz-adv-x="1038" d="M212 972q0 99 37.5 182t100 142t143.5 92t167 33q90 0 161 -28.5t120.5 -78t75.5 -116.5t26 -145q0 -98 -37.5 -180t-100 -141t-143 -91.5t-165.5 -32.5q-92 0 -163.5 29.5t-120.5 79.5t-75 116t-26 139zM331 987q0 -64 19 -115t54.5 -87t86.5 -55t116 -19t123 24.5 t101 68.5t68 105t25 133q0 60 -17 110.5t-51.5 87.5t-85.5 57.5t-119 20.5q-65 0 -123.5 -24.5t-102 -69t-69 -105t-25.5 -132.5zM421 838l68 343q5 27 21.5 42t45.5 15h113q81 0 122.5 -26.5t41.5 -83.5q0 -27 -9.5 -48t-25 -36.5t-36.5 -26.5t-44 -17q23 -8 39 -26t21 -52 l10 -65q2 -14 1 -22t-8.5 -12.5t-23 -5.5t-40.5 -1q-40 0 -52.5 6t-13.5 20l-5 64q-2 32 -13.5 46t-34.5 14h-26l-25 -128q-2 -13 -16 -17.5t-51 -4.5q-39 0 -50 5t-9 17zM589 1053h33q23 0 37.5 5t23 13.5t11.5 19.5t3 22q0 14 -10.5 24t-42.5 10h-36z" />
<glyph unicode="&#xaf;" horiz-adv-x="799" d="M248 1179q0 10 3 33.5t10.5 48t21 43.5t35.5 19h511q16 0 22 -10.5t6 -28.5q0 -9 -3 -33t-10.5 -48.5t-20 -43.5t-31.5 -19h-511q-17 0 -25 9t-8 30z" />
<glyph unicode="&#xb0;" horiz-adv-x="701" d="M203 1099q0 63 23 115t63 89.5t93.5 58t114.5 20.5q62 0 110.5 -18.5t82 -51t51 -75.5t17.5 -92q0 -63 -22.5 -115t-62.5 -89.5t-93.5 -58t-114.5 -20.5q-63 0 -111.5 18.5t-82 50.5t-51 75t-17.5 93zM375 1112q0 -45 26 -74t74 -29q22 0 42 9t35.5 25t24.5 39t9 52 q0 42 -26 71t-75 29q-22 0 -42 -9t-35 -25t-24 -38.5t-9 -49.5z" />
<glyph unicode="&#xb1;" d="M4 42q0 17 4 43t12 50t20 41.5t28 17.5h774q27 0 27 -39q0 -17 -4.5 -43t-12.5 -51t-21 -43t-29 -18h-769q-11 0 -20 10.5t-9 31.5zM121 709q0 12 3.5 35.5t11 47t20 41t29.5 17.5h302l66 329q4 19 28 30t81 11t75 -11t14 -30l-66 -329h305q25 0 25 -42q0 -12 -4 -36.5 t-12.5 -49t-21 -43t-29.5 -18.5h-300l-66 -328q-3 -9 -9 -16.5t-18 -12.5t-31.5 -8t-48.5 -3q-56 0 -76 11t-16 29l66 328h-301q-27 0 -27 48z" />
<glyph unicode="&#xb2;" horiz-adv-x="692" d="M122 753q0 12 3 31t10.5 40.5t21 43.5t34.5 40l178 146q43 35 72 65.5t46 57t24.5 49.5t7.5 44q0 28 -16.5 46t-54.5 18q-34 0 -62 -9t-50.5 -19.5t-39 -19.5t-28.5 -9q-10 0 -14.5 6t-4.5 24q0 10 2.5 28.5t7.5 39t11.5 38t14.5 25.5q13 13 40.5 25.5t62 22.5t72.5 16.5 t72 6.5q69 0 115.5 -16t74.5 -42t40 -58.5t12 -65.5q0 -44 -14.5 -86.5t-48 -88.5t-87.5 -98t-133 -113l-90 -70h287q9 0 14 -9t5 -24q0 -9 -2.5 -29t-8 -41t-15 -37t-22.5 -16h-486q-31 0 -41 8.5t-10 29.5z" />
<glyph unicode="&#xb3;" horiz-adv-x="688" d="M120 776q0 7 3 26.5t8.5 39.5t13.5 35.5t19 15.5q9 0 21 -6.5t31.5 -14t47 -14t67.5 -6.5q71 0 112.5 29t41.5 80q0 16 -6.5 30.5t-23 25t-44.5 16.5t-71 6h-61q-14 0 -19.5 7.5t-5.5 21.5q0 11 3 30t9.5 37.5t16 32t22.5 13.5h61q80 0 123 29t43 83q0 11 -3 22.5 t-12 20.5t-25 14.5t-42 5.5q-33 0 -62 -8.5t-53.5 -18.5t-43 -18.5t-29.5 -8.5q-15 0 -15 26q0 8 2.5 24t7 33.5t11.5 34t15 24.5q10 10 32.5 21t54.5 21t71.5 16.5t81.5 6.5q66 0 111.5 -14.5t73.5 -38t40.5 -54.5t12.5 -64q0 -47 -15 -84t-40.5 -65t-59.5 -46t-71 -27v-2 q39 -5 66.5 -19.5t45.5 -35t26.5 -44.5t8.5 -48q0 -52 -22.5 -100.5t-69 -86t-117.5 -60t-169 -22.5q-57 0 -110 9.5t-91 29.5q-12 6 -17.5 14t-5.5 25z" />
<glyph unicode="&#xb4;" horiz-adv-x="616" d="M253.5 1111q2.5 10 11.5 24l152 229q8 12 18 19.5t25.5 12t38.5 6.5t56 2q46 0 72.5 -4.5t37.5 -12t9 -17.5t-11 -20l-204 -232q-8 -9 -16.5 -16t-21 -11t-31.5 -6t-48 -2q-35 0 -55 3t-28 9t-5.5 16z" />
<glyph unicode="&#xb5;" horiz-adv-x="1134" d="M-31 -320l249 1247q2 10 9.5 17.5t23 12t40.5 7t62 2.5q73 0 96.5 -9.5t19.5 -29.5l-109 -542q-9 -43 -10.5 -78t7 -60t27 -38.5t50.5 -13.5q41 0 85.5 26t85 71.5t72 107.5t45.5 134l78 393q2 10 9.5 17.5t23 12t40.5 7t62 2.5q73 0 97 -9.5t20 -29.5l-124 -616 q-14 -68 -4 -95t49 -27q26 0 42.5 4.5t28.5 4.5q7 0 11 -4t4 -15q0 -7 -2.5 -29t-8.5 -48.5t-15.5 -52.5t-23.5 -41q-7 -6 -20.5 -11.5t-31.5 -9.5t-38 -6.5t-40 -2.5q-102 0 -150.5 51t-40.5 148q-21 -36 -55.5 -71t-76.5 -62t-87.5 -44t-88.5 -17q-45 0 -71.5 15.5 t-34.5 35.5l-24 -200l-30 -154q-2 -10 -9.5 -18t-23 -13.5t-40 -8.5t-61.5 -3t-60.5 3t-36.5 8.5t-17.5 13.5t-2.5 18z" />
<glyph unicode="&#xb6;" horiz-adv-x="1224" d="M163 820q0 55 12 111.5t38.5 109.5t68.5 99t101 80t136.5 54t175.5 20h478q29 0 41.5 -17t6.5 -46l-287 -1434q-3 -16 -25 -24.5t-78 -8.5q-55 0 -73 8.5t-15 24.5l265 1322h-176l-264 -1322q-3 -16 -24.5 -24.5t-77.5 -8.5q-55 0 -73.5 8.5t-15.5 24.5l142 708 q-89 0 -156 22t-111.5 63t-66.5 99.5t-22 130.5z" />
<glyph unicode="&#xb7;" horiz-adv-x="548" d="M143 531q0 19 4.5 45t12 51.5t18 47.5t22.5 34q19 17 48.5 28.5t81.5 11.5q37 0 61 -5.5t38 -17t20 -28.5t6 -40q0 -21 -4 -47t-11.5 -50.5t-18 -46.5t-24.5 -36q-21 -21 -55 -29t-73 -8q-36 0 -60.5 6t-39 17.5t-20.5 28t-6 38.5z" />
<glyph unicode="&#xb8;" horiz-adv-x="621" d="M-50 -304q0 10 2.5 28t8.5 36t16.5 31.5t27.5 13.5h114q28 0 49 13.5t21 42.5q0 10 -1.5 23t-4.5 26l-23 90h199l16 -66q6 -25 10.5 -47t4.5 -44q0 -54 -17.5 -93.5t-50 -65t-77 -37.5t-98.5 -12q-58 0 -106 9t-71 20q-11 5 -15.5 12t-4.5 20z" />
<glyph unicode="&#xb9;" horiz-adv-x="517" d="M192 1264q0 12 2 30t7.5 36.5t13.5 34.5t20 22l196 105q6 4 12.5 6t17 3t26 1.5t39.5 0.5q30 0 47 -1.5t25 -4.5t10 -7.5t2 -9.5l-149 -743q-2 -8 -7 -13t-17 -8.5t-32 -5t-51 -1.5q-59 0 -79 6.5t-17 21.5l113 562l-130 -56q-30 -13 -39.5 -5.5t-9.5 26.5z" />
<glyph unicode="&#xba;" horiz-adv-x="891" d="M111 364q0 10 3 32.5t10.5 45t20 39.5t32.5 17h552q17 0 23 -9t6 -28q0 -9 -3 -31.5t-10 -45.5t-19.5 -40.5t-31.5 -17.5h-553q-17 0 -23.5 9t-6.5 29zM174 863q0 45 8 96t27.5 101.5t51.5 96.5t80 81t113.5 56t151.5 21q87 0 144.5 -22.5t91.5 -59t47.5 -82t13.5 -91.5 q0 -80 -23 -160.5t-74 -145.5t-133 -105.5t-199 -40.5q-90 0 -148 22.5t-92 59t-47 82t-13 91.5zM400 881q0 -22 4.5 -41.5t16 -34t31 -23t48.5 -8.5q52 0 86 28.5t54.5 70t28.5 88t8 81.5q0 22 -5 42t-16.5 34t-31 22.5t-48.5 8.5q-35 0 -62 -14.5t-46.5 -37.5t-32.5 -52.5 t-21 -59t-11 -57t-3 -47.5z" />
<glyph unicode="&#xbb;" horiz-adv-x="1103" d="M104 160l270 368l-127 356q-4 12 -2.5 20.5t12.5 14.5t33 9t59 3q30 0 47 -1t27 -4t14 -8.5t8 -14.5l153 -347q11 -25 9.5 -45.5t-20.5 -43.5l-271 -328q-14 -18 -38.5 -24.5t-80.5 -6.5q-72 0 -92 13t-1 39zM504 141l278 388l-122 370q-4 13 -2 23.5t13 17.5t33.5 11 t59.5 4q29 0 46 -2t27 -5.5t14.5 -10t8.5 -15.5l151 -366q11 -26 9 -47.5t-20 -43.5l-283 -346q-7 -9 -16 -15.5t-22.5 -10t-33 -5.5t-48.5 -2q-74 0 -92.5 14.5t-0.5 40.5z" />
<glyph unicode="&#xbc;" horiz-adv-x="1347" d="M-13 -18q-13 16 13 44l1175 1263q11 12 22.5 19.5t27 12.5t36 7t50.5 2q66 0 79 -16t-13 -44l-1175 -1263q-11 -12 -22.5 -19.5t-27 -12.5t-36.5 -7t-50 -2q-66 0 -79 16zM181 1084q0 12 2.5 29.5t8.5 34.5t14.5 31.5t20.5 20.5l192 98q8 5 27.5 6.5t70.5 1.5 q30 0 47.5 -1t26 -3t10.5 -5.5t1 -7.5l-125 -622q-2 -7 -7 -12t-17 -8t-32 -4.5t-51 -1.5q-60 0 -80.5 6t-17.5 20l91 453l-133 -57q-29 -13 -39 -6t-10 27zM622 148q0 11 3 31t9.5 42.5t16 44.5t21.5 37l273 328q8 10 41.5 16t105.5 6q80 0 110 -8t28 -20l-75 -375h63 q17 0 17 -30q0 -8 -2.5 -25t-7.5 -34.5t-13.5 -31t-20.5 -13.5h-63l-20 -97q-2 -13 -26 -19t-82 -6q-56 0 -74 6t-16 19l20 97h-277q-18 0 -24.5 6.5t-6.5 25.5zM796 250h160l50 250h-2z" />
<glyph unicode="&#xbd;" horiz-adv-x="1415" d="M-13 -18q-13 16 13 44l1175 1263q11 12 22.5 19.5t27 12.5t36 7t50.5 2q66 0 79 -16t-13 -44l-1175 -1263q-11 -12 -22.5 -19.5t-27 -12.5t-36.5 -7t-50 -2q-66 0 -79 16zM181 1084q0 12 2.5 29.5t8.5 34.5t14.5 31.5t20.5 20.5l192 98q8 5 27.5 6.5t70.5 1.5 q30 0 47.5 -1t26 -3t10.5 -5.5t1 -7.5l-125 -622q-2 -7 -7 -12t-17 -8t-32 -4.5t-51 -1.5q-60 0 -80.5 6t-17.5 20l91 453l-133 -57q-29 -13 -39 -6t-10 27zM729 39q0 12 2.5 29t8.5 35.5t17.5 36t29.5 31.5l159 119q38 28 64 51.5t41.5 43.5t22.5 39t7 39q0 17 -15.5 33 t-51.5 16q-29 0 -53.5 -7t-44.5 -16t-35.5 -16t-24.5 -7q-20 0 -20 33q0 10 2 27t7 34.5t13.5 33t20.5 21.5q48 24 103 36.5t112 12.5q66 0 110 -14.5t70 -38t36.5 -52t10.5 -56.5q0 -43 -15 -78.5t-46 -71t-80 -73.5t-116 -87l-69 -50h256q11 0 15 -9.5t4 -22.5 q0 -10 -2.5 -28.5t-8 -37t-13.5 -32t-20 -13.5h-444q-30 0 -41.5 8t-11.5 31z" />
<glyph unicode="&#xbe;" horiz-adv-x="1437" d="M75 -18q-13 16 13 44l1175 1263q11 12 22.5 19.5t27 12.5t36 7t50.5 2q66 0 79 -16t-13 -44l-1175 -1263q-11 -12 -22.5 -19.5t-27 -12.5t-36.5 -7t-50 -2q-66 0 -79 16zM107 707q0 8 2 24.5t6.5 33t11 29t16.5 12.5q7 0 19.5 -6.5t32.5 -14t48 -14t67 -6.5 q66 0 99.5 23.5t33.5 65.5q0 13 -5 24t-19.5 19t-39.5 12.5t-64 4.5h-64q-26 0 -26 25q0 7 2 23.5t7.5 33t14 29t21.5 12.5h67q69 0 108 25t39 65q0 8 -3 17t-11.5 16.5t-24 12t-40.5 4.5q-32 0 -59 -7.5t-49 -16t-38 -16t-25 -7.5q-8 0 -13 6t-5 23q0 12 2.5 27t7 29 t10.5 25.5t14 16.5q32 22 91.5 38t135.5 16q121 0 177 -42.5t56 -112.5q0 -63 -42 -110.5t-127 -65.5q39 -3 65.5 -15.5t42 -30t22.5 -38.5t7 -41q0 -42 -18.5 -82.5t-59.5 -72t-107 -51t-161 -19.5q-60 0 -110 10t-88 27q-15 7 -21 15t-6 25zM712 148q0 11 3 31t9.5 42.5 t16 44.5t21.5 37l273 328q8 10 41.5 16t105.5 6q80 0 110 -8t28 -20l-75 -375h63q17 0 17 -30q0 -8 -2.5 -25t-7.5 -34.5t-13.5 -31t-20.5 -13.5h-63l-20 -97q-2 -13 -26 -19t-82 -6q-56 0 -74 6t-16 19l20 97h-277q-18 0 -24.5 6.5t-6.5 25.5zM886 250h160l50 250h-2z" />
<glyph unicode="&#xbf;" horiz-adv-x="949" d="M27 143q0 78 22.5 153t71 135.5t124.5 101.5t183 51l46 191q9 36 117 36q65 0 88.5 -7t19.5 -29l-37 -236q-10 -63 -35 -84t-67 -21h-8q-72 0 -121.5 -24.5t-79.5 -61.5t-43 -81.5t-13 -84.5q0 -37 11 -69t33.5 -55.5t56.5 -36.5t80 -13q54 0 95 11.5t71 25t50 24.5 t31 11q10 0 14.5 -10.5t4.5 -34.5q0 -10 -2.5 -31.5t-7.5 -44.5t-12.5 -44t-18.5 -32q-12 -12 -42 -25.5t-70 -24.5t-85 -18t-88 -7q-113 0 -188 29.5t-119.5 77.5t-63 108t-18.5 120zM491 998q0 18 3.5 42t10.5 48.5t17 46t22 34.5q20 20 49 29t75 9q37 0 60 -5.5 t36.5 -16.5t18.5 -26.5t5 -35.5q0 -16 -3 -39.5t-10 -48.5t-16.5 -47.5t-23.5 -36.5q-22 -22 -51.5 -30.5t-71.5 -8.5q-39 0 -62.5 6.5t-36.5 18t-17.5 27.5t-4.5 34z" />
<glyph unicode="&#xc0;" horiz-adv-x="1241" d="M-58 44q7 21 26 56l628 1148q10 18 20 28t28.5 15.5t49.5 7t83 1.5q59 0 93.5 -1.5t53 -7t24.5 -16.5t9 -30l169 -1147q5 -36 4.5 -57t-14 -31.5t-44 -13t-85.5 -2.5q-38 0 -61.5 1.5t-36.5 5.5t-18 12t-7 22l-35 260h-486l-134 -254q-8 -14 -17 -23.5t-26 -14.5 t-44.5 -7t-71.5 -2q-46 0 -71.5 3.5t-34.5 14.5t-2 32zM443 497h364l-74 550h-1zM449 1646q-4 12 6 21.5t36 15.5t71 6q37 0 61.5 -1.5t42 -6.5t30 -14t24.5 -24l171 -204q23 -28 6.5 -40.5t-83.5 -12.5q-31 0 -52 2t-36 6t-25 11t-20 16l-214 200q-14 13 -18 25z" />
<glyph unicode="&#xc1;" horiz-adv-x="1241" d="M-58 44q7 21 26 56l628 1148q10 18 20 28t28.5 15.5t49.5 7t83 1.5q59 0 93.5 -1.5t53 -7t24.5 -16.5t9 -30l169 -1147q5 -36 4.5 -57t-14 -31.5t-44 -13t-85.5 -2.5q-38 0 -61.5 1.5t-36.5 5.5t-18 12t-7 22l-35 260h-486l-134 -254q-8 -14 -17 -23.5t-26 -14.5 t-44.5 -7t-71.5 -2q-46 0 -71.5 3.5t-34.5 14.5t-2 32zM443 497h364l-74 550h-1zM700.5 1398.5q-15.5 12.5 10.5 40.5l189 204q13 14 26 23t31 14t43 7t61 2q47 0 72 -6t34 -15.5t3.5 -21.5t-20.5 -25l-231 -200q-10 -9 -20.5 -15.5t-25.5 -11t-36.5 -6.5t-52.5 -2 q-68 0 -83.5 12.5z" />
<glyph unicode="&#xc2;" horiz-adv-x="1241" d="M-58 44q7 21 26 56l628 1148q10 18 20 28t28.5 15.5t49.5 7t83 1.5q59 0 93.5 -1.5t53 -7t24.5 -16.5t9 -30l169 -1147q5 -36 4.5 -57t-14 -31.5t-44 -13t-85.5 -2.5q-38 0 -61.5 1.5t-36.5 5.5t-18 12t-7 22l-35 260h-486l-134 -254q-8 -14 -17 -23.5t-26 -14.5 t-44.5 -7t-71.5 -2q-46 0 -71.5 3.5t-34.5 14.5t-2 32zM443 497h364l-74 550h-1zM460 1396.5q-13 10.5 17 37.5l238 214q14 12 28 20t32.5 12.5t42.5 6.5t57 2q32 0 53.5 -1t36 -5t25 -12.5t20.5 -22.5l155 -214q20 -28 2 -38t-87 -10q-42 0 -66.5 1.5t-39 5t-21 9.5 t-12.5 15l-90 137l-149 -134q-11 -10 -21.5 -16.5t-27.5 -10.5t-43 -5.5t-68 -1.5q-69 0 -82 10.5z" />
<glyph unicode="&#xc3;" horiz-adv-x="1241" d="M-58 44q7 21 26 56l628 1148q10 18 20 28t28.5 15.5t49.5 7t83 1.5q59 0 93.5 -1.5t53 -7t24.5 -16.5t9 -30l169 -1147q5 -36 4.5 -57t-14 -31.5t-44 -13t-85.5 -2.5q-38 0 -61.5 1.5t-36.5 5.5t-18 12t-7 22l-35 260h-486l-134 -254q-8 -14 -17 -23.5t-26 -14.5 t-44.5 -7t-71.5 -2q-46 0 -71.5 3.5t-34.5 14.5t-2 32zM443 497h364l-74 550h-1zM462 1417q0 9 2.5 31t11.5 49t25 56.5t42.5 53.5t65.5 39.5t93 15.5q53 0 91 -15.5t69 -34.5t57.5 -34.5t56.5 -15.5t48.5 16t23.5 58q2 16 19.5 21t62.5 5q44 0 58 -6.5t14 -19.5 q0 -5 -1.5 -25t-9 -47.5t-22.5 -58t-41.5 -56.5t-66.5 -43t-97 -17q-53 0 -91.5 15.5t-69.5 34t-57.5 34t-56.5 15.5q-65 0 -71 -73q-4 -15 -20.5 -20.5t-61.5 -5.5q-44 0 -59 6t-15 22z" />
<glyph unicode="&#xc4;" horiz-adv-x="1241" d="M-58 44q7 21 26 56l628 1148q10 18 20 28t28.5 15.5t49.5 7t83 1.5q59 0 93.5 -1.5t53 -7t24.5 -16.5t9 -30l169 -1147q5 -36 4.5 -57t-14 -31.5t-44 -13t-85.5 -2.5q-38 0 -61.5 1.5t-36.5 5.5t-18 12t-7 22l-35 260h-486l-134 -254q-8 -14 -17 -23.5t-26 -14.5 t-44.5 -7t-71.5 -2q-46 0 -71.5 3.5t-34.5 14.5t-2 32zM443 497h364l-74 550h-1zM483 1470q-2 23 4 58q7 37 17.5 62t28.5 39.5t44 20.5t64 6q36 0 59.5 -6t36.5 -20.5t16 -39.5t-4 -62q-6 -35 -17.5 -58t-29.5 -37t-44 -19.5t-62 -5.5q-38 0 -62 5.5t-36.5 19.5t-14.5 37z M919 1470q-2 23 4 58q7 37 17.5 62t28.5 39.5t44 20.5t64 6q36 0 60 -6t37 -20.5t15.5 -39.5t-3.5 -62q-6 -35 -17 -58t-30 -37t-45 -19.5t-62 -5.5q-38 0 -62 5.5t-36.5 19.5t-14.5 37z" />
<glyph unicode="&#xc5;" horiz-adv-x="1241" d="M-58 44q7 21 26 56l628 1148q10 18 20 28t28.5 15.5t49.5 7t83 1.5q59 0 93.5 -1.5t53 -7t24.5 -16.5t9 -30l169 -1147q5 -36 4.5 -57t-14 -31.5t-44 -13t-85.5 -2.5q-38 0 -61.5 1.5t-36.5 5.5t-18 12t-7 22l-35 260h-486l-134 -254q-8 -14 -17 -23.5t-26 -14.5 t-44.5 -7t-71.5 -2q-46 0 -71.5 3.5t-34.5 14.5t-2 32zM443 497h364l-74 550h-1zM601 1519q0 41 14 83t45.5 75.5t82.5 54.5t126 21q58 0 98.5 -13t65.5 -36t36.5 -53.5t11.5 -64.5q0 -44 -14.5 -85.5t-47 -74t-83.5 -52t-123 -19.5q-58 0 -98 12.5t-65.5 34.5t-37 52 t-11.5 65zM756 1537q0 -14 3.5 -26.5t12.5 -22t23.5 -15.5t36.5 -6q48 0 71.5 29.5t23.5 71.5q0 28 -17 50t-61 22q-25 0 -42.5 -8.5t-29 -23t-16.5 -33t-5 -38.5z" />
<glyph unicode="&#xc6;" horiz-adv-x="1588" d="M-128.5 13q-7.5 11 2 32t33.5 55l796 1140q12 17 23.5 27.5t31 16.5t50.5 8t82 2h726q26 0 26 -39q0 -11 -3.5 -38.5t-11.5 -56t-20.5 -50.5t-31.5 -22h-454l-63 -317h383q26 0 26 -41q0 -12 -3.5 -39t-12 -54t-21 -48t-30.5 -21h-384l-72 -362h458q27 0 27 -42 q0 -11 -4 -38t-12 -55t-20.5 -49.5t-29.5 -21.5h-641q-35 0 -53 19.5t-9 63.5l40 198h-389l-167 -240q-10 -14 -20.5 -23t-28.5 -14.5t-46.5 -7.5t-73.5 -2t-70.5 4t-33 15zM433 482h307l120 606h-3z" />
<glyph unicode="&#xc7;" horiz-adv-x="1062" d="M98 452q0 93 19 193.5t57.5 196.5t97.5 182t139.5 150.5t183 102.5t227.5 38q70 0 132.5 -14.5t108.5 -38.5q47 -24 65 -43.5t18 -49.5q0 -29 -9 -75q-9 -48 -23.5 -76t-32.5 -28q-14 0 -31.5 16t-46.5 35.5t-74 36t-112 16.5q-74 0 -135 -29t-109 -78t-84 -112 t-59.5 -131t-35 -135.5t-11.5 -125.5q0 -142 68 -211.5t189 -69.5q70 0 121 15t87 33t59.5 33t39.5 15q14 0 19 -9.5t5 -26.5q0 -7 -1.5 -21t-4.5 -32t-7.5 -38t-9.5 -38q-5 -17 -11.5 -31.5t-17.5 -25.5q-8 -8 -30 -21.5t-57.5 -28t-84.5 -27t-110 -17.5l13 -48 q7 -25 10.5 -47t3.5 -44q0 -54 -17.5 -93.5t-49.5 -65t-76.5 -37.5t-98.5 -12q-59 0 -106.5 9t-71.5 20q-11 5 -15 12t-4 20q0 10 2.5 28t8.5 36t16.5 31.5t26.5 13.5h114q29 0 49.5 13.5t20.5 42.5q0 10 -1.5 23t-4.5 26l-21 82q-90 18 -154.5 59t-105 101t-59.5 136 t-19 164z" />
<glyph unicode="&#xc8;" horiz-adv-x="999" d="M64 83l226 1128q9 45 36 64t60 19h644q26 0 26 -38q0 -9 -3 -36.5t-11 -56.5t-21 -52t-32 -23h-462l-64 -316h392q26 0 26 -38q0 -11 -3.5 -37.5t-11 -54.5t-20 -49.5t-31.5 -21.5h-391l-74 -365h468q24 0 24 -41q0 -11 -3 -38t-11 -55t-21 -50t-32 -22h-650 q-32 0 -51 19.5t-10 63.5zM360 1646q-4 12 6 21.5t36 15.5t71 6q37 0 61.5 -1.5t42 -6.5t30 -14t24.5 -24l171 -204q23 -28 6.5 -40.5t-83.5 -12.5q-31 0 -52 2t-36 6t-25 11t-20 16l-214 200q-14 13 -18 25z" />
<glyph unicode="&#xc9;" horiz-adv-x="999" d="M64 83l226 1128q9 45 36 64t60 19h644q26 0 26 -38q0 -9 -3 -36.5t-11 -56.5t-21 -52t-32 -23h-462l-64 -316h392q26 0 26 -38q0 -11 -3.5 -37.5t-11 -54.5t-20 -49.5t-31.5 -21.5h-391l-74 -365h468q24 0 24 -41q0 -11 -3 -38t-11 -55t-21 -50t-32 -22h-650 q-32 0 -51 19.5t-10 63.5zM597.5 1398.5q-15.5 12.5 10.5 40.5l189 204q13 14 26 23t31 14t43 7t61 2q47 0 72 -6t34 -15.5t3.5 -21.5t-20.5 -25l-231 -200q-10 -9 -20.5 -15.5t-25.5 -11t-36.5 -6.5t-52.5 -2q-68 0 -83.5 12.5z" />
<glyph unicode="&#xca;" horiz-adv-x="999" d="M64 83l226 1128q9 45 36 64t60 19h644q26 0 26 -38q0 -9 -3 -36.5t-11 -56.5t-21 -52t-32 -23h-462l-64 -316h392q26 0 26 -38q0 -11 -3.5 -37.5t-11 -54.5t-20 -49.5t-31.5 -21.5h-391l-74 -365h468q24 0 24 -41q0 -11 -3 -38t-11 -55t-21 -50t-32 -22h-650 q-32 0 -51 19.5t-10 63.5zM351 1396.5q-13 10.5 17 37.5l238 214q14 12 28 20t32.5 12.5t42.5 6.5t57 2q32 0 53.5 -1t36 -5t25 -12.5t20.5 -22.5l155 -214q20 -28 2 -38t-87 -10q-42 0 -66.5 1.5t-39 5t-21 9.5t-12.5 15l-90 137l-149 -134q-11 -10 -21.5 -16.5 t-27.5 -10.5t-43 -5.5t-68 -1.5q-69 0 -82 10.5z" />
<glyph unicode="&#xcb;" horiz-adv-x="999" d="M64 83l226 1128q9 45 36 64t60 19h644q26 0 26 -38q0 -9 -3 -36.5t-11 -56.5t-21 -52t-32 -23h-462l-64 -316h392q26 0 26 -38q0 -11 -3.5 -37.5t-11 -54.5t-20 -49.5t-31.5 -21.5h-391l-74 -365h468q24 0 24 -41q0 -11 -3 -38t-11 -55t-21 -50t-32 -22h-650 q-32 0 -51 19.5t-10 63.5zM375 1470q-2 23 4 58q7 37 17.5 62t28.5 39.5t44 20.5t64 6q36 0 59.5 -6t36.5 -20.5t16 -39.5t-4 -62q-6 -35 -17.5 -58t-29.5 -37t-44 -19.5t-62 -5.5q-38 0 -62 5.5t-36.5 19.5t-14.5 37zM811 1470q-2 23 4 58q7 37 17.5 62t28.5 39.5t44 20.5 t64 6q36 0 60 -6t37 -20.5t15.5 -39.5t-3.5 -62q-6 -35 -17 -58t-30 -37t-45 -19.5t-62 -5.5q-38 0 -62 5.5t-36.5 19.5t-14.5 37z" />
<glyph unicode="&#xcc;" horiz-adv-x="546" d="M55 35l245 1224q2 21 34 31t106 10q38 0 62.5 -2.5t39 -7.5t19 -13t2.5 -18l-244 -1224q-2 -11 -10 -18.5t-24.5 -12.5t-42.5 -7.5t-64 -2.5q-76 0 -102.5 10.5t-20.5 30.5zM111 1646q-4 12 6 21.5t36 15.5t71 6q37 0 61.5 -1.5t42 -6.5t30 -14t24.5 -24l171 -204 q23 -28 6.5 -40.5t-83.5 -12.5q-31 0 -52 2t-36 6t-25 11t-20 16l-214 200q-14 13 -18 25z" />
<glyph unicode="&#xcd;" horiz-adv-x="546" d="M55 35l245 1224q2 21 34 31t106 10q38 0 62.5 -2.5t39 -7.5t19 -13t2.5 -18l-244 -1224q-2 -11 -10 -18.5t-24.5 -12.5t-42.5 -7.5t-64 -2.5q-76 0 -102.5 10.5t-20.5 30.5zM345.5 1398.5q-15.5 12.5 10.5 40.5l189 204q13 14 26 23t31 14t43 7t61 2q47 0 72 -6t34 -15.5 t3.5 -21.5t-20.5 -25l-231 -200q-10 -9 -20.5 -15.5t-25.5 -11t-36.5 -6.5t-52.5 -2q-68 0 -83.5 12.5z" />
<glyph unicode="&#xce;" horiz-adv-x="546" d="M55 35l245 1224q2 21 34 31t106 10q38 0 62.5 -2.5t39 -7.5t19 -13t2.5 -18l-244 -1224q-2 -11 -10 -18.5t-24.5 -12.5t-42.5 -7.5t-64 -2.5q-76 0 -102.5 10.5t-20.5 30.5zM107 1396.5q-13 10.5 17 37.5l238 214q14 12 28 20t32.5 12.5t42.5 6.5t57 2q32 0 53.5 -1 t36 -5t25 -12.5t20.5 -22.5l155 -214q20 -28 2 -38t-87 -10q-42 0 -66.5 1.5t-39 5t-21 9.5t-12.5 15l-90 137l-149 -134q-11 -10 -21.5 -16.5t-27.5 -10.5t-43 -5.5t-68 -1.5q-69 0 -82 10.5z" />
<glyph unicode="&#xcf;" horiz-adv-x="546" d="M55 35l245 1224q2 21 34 31t106 10q38 0 62.5 -2.5t39 -7.5t19 -13t2.5 -18l-244 -1224q-2 -11 -10 -18.5t-24.5 -12.5t-42.5 -7.5t-64 -2.5q-76 0 -102.5 10.5t-20.5 30.5zM133 1470q-2 23 4 58q7 37 17.5 62t28.5 39.5t44 20.5t64 6q36 0 59.5 -6t36.5 -20.5t16 -39.5 t-4 -62q-6 -35 -17.5 -58t-29.5 -37t-44 -19.5t-62 -5.5q-38 0 -62 5.5t-36.5 19.5t-14.5 37zM569 1470q-2 23 4 58q7 37 17.5 62t28.5 39.5t44 20.5t64 6q36 0 60 -6t37 -20.5t15.5 -39.5t-3.5 -62q-6 -35 -17 -58t-30 -37t-45 -19.5t-62 -5.5q-38 0 -62 5.5t-36.5 19.5 t-14.5 37z" />
<glyph unicode="&#xd0;" horiz-adv-x="1309" d="M47 608q0 13 3.5 40t11.5 54.5t20.5 48t30.5 20.5h107l89 440q9 45 34.5 64t62.5 19h314q153 0 257 -30.5t173 -90.5q139 -119 139 -347q0 -67 -9 -137.5t-28.5 -140t-50.5 -137.5t-76 -130q-58 -82 -148 -146q-44 -31 -95 -56t-112 -42.5t-133.5 -27t-157.5 -9.5h-333 q-35 0 -53.5 19t-9.5 64l97 485h-106q-27 0 -27 40zM370 208h137q78 0 138.5 14.5t107.5 41t83.5 63t66.5 80.5t50.5 92t34 98t19.5 100t6 98q0 64 -17.5 118t-55.5 93t-98 60.5t-159 21.5h-138l-63 -317h196q17 0 22 -11t5 -30q0 -14 -4 -41t-12 -54t-20.5 -47t-29.5 -20 h-197z" />
<glyph unicode="&#xd1;" horiz-adv-x="1344" d="M55 36l233 1164q10 48 41.5 71t71.5 23h137q33 0 56 -7.5t39.5 -24t29 -43t24.5 -63.5l193 -583q19 -57 34.5 -111.5t32.5 -109.5h2q11 72 24.5 148.5t27.5 148.5l123 610q4 20 30.5 29.5t95.5 9.5q71 0 93 -9.5t18 -29.5l-234 -1167q-10 -48 -43 -71t-72 -23h-112 q-35 0 -58 7t-39 25t-29 49t-29 79l-191 578q-22 67 -40.5 135t-35.5 135h-2q-10 -79 -23 -155t-29 -154l-132 -661q-4 -20 -32 -31t-97 -11q-70 0 -92 11t-16 31zM507 1417q0 9 2.5 31t11.5 49t25 56.5t42.5 53.5t65.5 39.5t93 15.5q53 0 91 -15.5t69 -34.5t57.5 -34.5 t56.5 -15.5t48.5 16t23.5 58q2 16 19.5 21t62.5 5q44 0 58 -6.5t14 -19.5q0 -5 -1.5 -25t-9 -47.5t-22.5 -58t-41.5 -56.5t-66.5 -43t-97 -17q-53 0 -91.5 15.5t-69.5 34t-57.5 34t-56.5 15.5q-65 0 -71 -73q-4 -15 -20.5 -20.5t-61.5 -5.5q-44 0 -59 6t-15 22z" />
<glyph unicode="&#xd2;" horiz-adv-x="1369" d="M95 428q0 94 16.5 196.5t53 201t95 188t142 157t194.5 107t252 39.5q121 0 213.5 -27.5t155.5 -84t95.5 -142.5t32.5 -202q0 -88 -16 -188t-51.5 -198.5t-93 -188.5t-141 -158.5t-195.5 -109.5t-255 -41q-242 0 -370 110t-128 341zM373 457q0 -62 13.5 -111t44 -82.5 t79 -51.5t119.5 -18q86 0 152 33t114.5 86.5t81.5 122t53 140t28.5 139.5t8.5 121q0 61 -13.5 110.5t-43.5 83.5t-78.5 52.5t-118.5 18.5q-87 0 -153 -33.5t-115 -88t-82 -123.5t-53 -140.5t-28.5 -139.5t-8.5 -119zM517 1646q-4 12 6 21.5t36 15.5t71 6q37 0 61.5 -1.5 t42 -6.5t30 -14t24.5 -24l171 -204q23 -28 6.5 -40.5t-83.5 -12.5q-31 0 -52 2t-36 6t-25 11t-20 16l-214 200q-14 13 -18 25z" />
<glyph unicode="&#xd3;" horiz-adv-x="1369" d="M95 428q0 94 16.5 196.5t53 201t95 188t142 157t194.5 107t252 39.5q121 0 213.5 -27.5t155.5 -84t95.5 -142.5t32.5 -202q0 -88 -16 -188t-51.5 -198.5t-93 -188.5t-141 -158.5t-195.5 -109.5t-255 -41q-242 0 -370 110t-128 341zM373 457q0 -62 13.5 -111t44 -82.5 t79 -51.5t119.5 -18q86 0 152 33t114.5 86.5t81.5 122t53 140t28.5 139.5t8.5 121q0 61 -13.5 110.5t-43.5 83.5t-78.5 52.5t-118.5 18.5q-87 0 -153 -33.5t-115 -88t-82 -123.5t-53 -140.5t-28.5 -139.5t-8.5 -119zM735.5 1398.5q-15.5 12.5 10.5 40.5l189 204q13 14 26 23 t31 14t43 7t61 2q47 0 72 -6t34 -15.5t3.5 -21.5t-20.5 -25l-231 -200q-10 -9 -20.5 -15.5t-25.5 -11t-36.5 -6.5t-52.5 -2q-68 0 -83.5 12.5z" />
<glyph unicode="&#xd4;" horiz-adv-x="1369" d="M95 428q0 94 16.5 196.5t53 201t95 188t142 157t194.5 107t252 39.5q121 0 213.5 -27.5t155.5 -84t95.5 -142.5t32.5 -202q0 -88 -16 -188t-51.5 -198.5t-93 -188.5t-141 -158.5t-195.5 -109.5t-255 -41q-242 0 -370 110t-128 341zM373 457q0 -62 13.5 -111t44 -82.5 t79 -51.5t119.5 -18q86 0 152 33t114.5 86.5t81.5 122t53 140t28.5 139.5t8.5 121q0 61 -13.5 110.5t-43.5 83.5t-78.5 52.5t-118.5 18.5q-87 0 -153 -33.5t-115 -88t-82 -123.5t-53 -140.5t-28.5 -139.5t-8.5 -119zM512 1396.5q-13 10.5 17 37.5l238 214q14 12 28 20 t32.5 12.5t42.5 6.5t57 2q32 0 53.5 -1t36 -5t25 -12.5t20.5 -22.5l155 -214q20 -28 2 -38t-87 -10q-42 0 -66.5 1.5t-39 5t-21 9.5t-12.5 15l-90 137l-149 -134q-11 -10 -21.5 -16.5t-27.5 -10.5t-43 -5.5t-68 -1.5q-69 0 -82 10.5z" />
<glyph unicode="&#xd5;" horiz-adv-x="1369" d="M95 428q0 94 16.5 196.5t53 201t95 188t142 157t194.5 107t252 39.5q121 0 213.5 -27.5t155.5 -84t95.5 -142.5t32.5 -202q0 -88 -16 -188t-51.5 -198.5t-93 -188.5t-141 -158.5t-195.5 -109.5t-255 -41q-242 0 -370 110t-128 341zM373 457q0 -62 13.5 -111t44 -82.5 t79 -51.5t119.5 -18q86 0 152 33t114.5 86.5t81.5 122t53 140t28.5 139.5t8.5 121q0 61 -13.5 110.5t-43.5 83.5t-78.5 52.5t-118.5 18.5q-87 0 -153 -33.5t-115 -88t-82 -123.5t-53 -140.5t-28.5 -139.5t-8.5 -119zM523 1417q0 9 2.5 31t11.5 49t25 56.5t42.5 53.5 t65.5 39.5t93 15.5q53 0 91 -15.5t69 -34.5t57.5 -34.5t56.5 -15.5t48.5 16t23.5 58q2 16 19.5 21t62.5 5q44 0 58 -6.5t14 -19.5q0 -5 -1.5 -25t-9 -47.5t-22.5 -58t-41.5 -56.5t-66.5 -43t-97 -17q-53 0 -91.5 15.5t-69.5 34t-57.5 34t-56.5 15.5q-65 0 -71 -73 q-4 -15 -20.5 -20.5t-61.5 -5.5q-44 0 -59 6t-15 22z" />
<glyph unicode="&#xd6;" horiz-adv-x="1369" d="M95 428q0 94 16.5 196.5t53 201t95 188t142 157t194.5 107t252 39.5q121 0 213.5 -27.5t155.5 -84t95.5 -142.5t32.5 -202q0 -88 -16 -188t-51.5 -198.5t-93 -188.5t-141 -158.5t-195.5 -109.5t-255 -41q-242 0 -370 110t-128 341zM373 457q0 -62 13.5 -111t44 -82.5 t79 -51.5t119.5 -18q86 0 152 33t114.5 86.5t81.5 122t53 140t28.5 139.5t8.5 121q0 61 -13.5 110.5t-43.5 83.5t-78.5 52.5t-118.5 18.5q-87 0 -153 -33.5t-115 -88t-82 -123.5t-53 -140.5t-28.5 -139.5t-8.5 -119zM549 1470q-2 23 4 58q7 37 17.5 62t28.5 39.5t44 20.5 t64 6q36 0 59.5 -6t36.5 -20.5t16 -39.5t-4 -62q-6 -35 -17.5 -58t-29.5 -37t-44 -19.5t-62 -5.5q-38 0 -62 5.5t-36.5 19.5t-14.5 37zM985 1470q-2 23 4 58q7 37 17.5 62t28.5 39.5t44 20.5t64 6q36 0 60 -6t37 -20.5t15.5 -39.5t-3.5 -62q-6 -35 -17 -58t-30 -37 t-45 -19.5t-62 -5.5q-38 0 -62 5.5t-36.5 19.5t-14.5 37z" />
<glyph unicode="&#xd7;" d="M44.5 259.5q-1.5 27.5 18.5 43.5l337 279l-222 277q-12 14 -3.5 38t50.5 59q46 38 68.5 44.5t35.5 -9.5l223 -280l331 276q20 16 48 12t56 -38q31 -38 33 -65t-18 -44l-336 -279l220 -277q12 -16 3.5 -39t-50.5 -58q-45 -39 -68.5 -45.5t-36.5 9.5l-221 280l-332 -275 q-20 -16 -48 -12.5t-56 38.5q-31 38 -32.5 65.5z" />
<glyph unicode="&#xd8;" horiz-adv-x="1387" d="M44 -188.5q1 10.5 10 23.5l173 250q-63 55 -97.5 139t-34.5 204q0 80 13.5 177t46.5 196t89 192t141 165t202.5 115.5t274.5 43.5q52 0 102 -7.5t89 -21.5l131 191q12 17 40.5 24t85.5 7q38 0 60 -4.5t31.5 -12t8 -18t-10.5 -23.5l-169 -245q64 -54 98.5 -138.5 t34.5 -202.5q0 -80 -13.5 -177t-47 -196t-89.5 -192t-141 -165t-202.5 -115.5t-272.5 -43.5q-61 0 -108.5 6.5t-83.5 20.5l-135 -196q-10 -17 -39.5 -24t-83.5 -7q-39 0 -61.5 4.5t-32.5 12t-9 18zM362 447q0 -37 7.5 -70t24.5 -58l532 771q-22 10 -48.5 14.5t-56.5 4.5 q-97 0 -168.5 -37t-122.5 -96t-83.5 -133t-51.5 -147.5t-26 -139.5t-7 -109zM532 204q44 -19 104 -19q73 0 131 21.5t104 58t80.5 84.5t59.5 102t41 110.5t25.5 109.5t13.5 98.5t4 78.5q0 36 -7 69t-25 58z" />
<glyph unicode="&#xd9;" horiz-adv-x="1337" d="M144 490l154 768q2 10 9.5 18t23.5 13t42 8t65 3q76 0 101.5 -11t21.5 -31l-154 -768q-15 -77 -8.5 -133t33 -92.5t72 -54t107.5 -17.5q129 0 215.5 76t114.5 215l155 774q2 10 9.5 18t23 13t41.5 8t64 3q75 0 100 -11t21 -31l-156 -781q-25 -124 -78 -217.5t-132 -156.5 t-181.5 -94.5t-226.5 -31.5q-263 0 -375.5 129t-61.5 384zM480 1646q-4 12 6 21.5t36 15.5t71 6q37 0 61.5 -1.5t42 -6.5t30 -14t24.5 -24l171 -204q23 -28 6.5 -40.5t-83.5 -12.5q-31 0 -52 2t-36 6t-25 11t-20 16l-214 200q-14 13 -18 25z" />
<glyph unicode="&#xda;" horiz-adv-x="1337" d="M144 490l154 768q2 10 9.5 18t23.5 13t42 8t65 3q76 0 101.5 -11t21.5 -31l-154 -768q-15 -77 -8.5 -133t33 -92.5t72 -54t107.5 -17.5q129 0 215.5 76t114.5 215l155 774q2 10 9.5 18t23 13t41.5 8t64 3q75 0 100 -11t21 -31l-156 -781q-25 -124 -78 -217.5t-132 -156.5 t-181.5 -94.5t-226.5 -31.5q-263 0 -375.5 129t-61.5 384zM738.5 1398.5q-15.5 12.5 10.5 40.5l189 204q13 14 26 23t31 14t43 7t61 2q47 0 72 -6t34 -15.5t3.5 -21.5t-20.5 -25l-231 -200q-10 -9 -20.5 -15.5t-25.5 -11t-36.5 -6.5t-52.5 -2q-68 0 -83.5 12.5z" />
<glyph unicode="&#xdb;" horiz-adv-x="1337" d="M144 490l154 768q2 10 9.5 18t23.5 13t42 8t65 3q76 0 101.5 -11t21.5 -31l-154 -768q-15 -77 -8.5 -133t33 -92.5t72 -54t107.5 -17.5q129 0 215.5 76t114.5 215l155 774q2 10 9.5 18t23 13t41.5 8t64 3q75 0 100 -11t21 -31l-156 -781q-25 -124 -78 -217.5t-132 -156.5 t-181.5 -94.5t-226.5 -31.5q-263 0 -375.5 129t-61.5 384zM488 1396.5q-13 10.5 17 37.5l238 214q14 12 28 20t32.5 12.5t42.5 6.5t57 2q32 0 53.5 -1t36 -5t25 -12.5t20.5 -22.5l155 -214q20 -28 2 -38t-87 -10q-42 0 -66.5 1.5t-39 5t-21 9.5t-12.5 15l-90 137l-149 -134 q-11 -10 -21.5 -16.5t-27.5 -10.5t-43 -5.5t-68 -1.5q-69 0 -82 10.5z" />
<glyph unicode="&#xdc;" horiz-adv-x="1337" d="M144 490l154 768q2 10 9.5 18t23.5 13t42 8t65 3q76 0 101.5 -11t21.5 -31l-154 -768q-15 -77 -8.5 -133t33 -92.5t72 -54t107.5 -17.5q129 0 215.5 76t114.5 215l155 774q2 10 9.5 18t23 13t41.5 8t64 3q75 0 100 -11t21 -31l-156 -781q-25 -124 -78 -217.5t-132 -156.5 t-181.5 -94.5t-226.5 -31.5q-263 0 -375.5 129t-61.5 384zM517 1470q-2 23 4 58q7 37 17.5 62t28.5 39.5t44 20.5t64 6q36 0 59.5 -6t36.5 -20.5t16 -39.5t-4 -62q-6 -35 -17.5 -58t-29.5 -37t-44 -19.5t-62 -5.5q-38 0 -62 5.5t-36.5 19.5t-14.5 37zM953 1470q-2 23 4 58 q7 37 17.5 62t28.5 39.5t44 20.5t64 6q36 0 60 -6t37 -20.5t15.5 -39.5t-3.5 -62q-6 -35 -17 -58t-30 -37t-45 -19.5t-62 -5.5q-38 0 -62 5.5t-36.5 19.5t-14.5 37z" />
<glyph unicode="&#xdd;" horiz-adv-x="1064" d="M179 1252q-2 21 10 31.5t42 13.5t84 3q42 0 66.5 -1.5t38 -6.5t19.5 -14.5t10 -24.5l87 -311q16 -57 27 -107t20 -105h2q56 108 122 210l207 316q8 13 17 21.5t25 13.5t43 7t71 2q58 0 88.5 -3.5t39.5 -15t-1 -32t-33 -53.5l-496 -705l-90 -456q-2 -11 -10.5 -18.5 t-25 -12.5t-42.5 -7.5t-64 -2.5t-63 2.5t-38.5 7.5t-18 12.5t-2.5 18.5l90 456l-212 705q-11 35 -13 56zM648.5 1398.5q-15.5 12.5 10.5 40.5l189 204q13 14 26 23t31 14t43 7t61 2q47 0 72 -6t34 -15.5t3.5 -21.5t-20.5 -25l-231 -200q-10 -9 -20.5 -15.5t-25.5 -11 t-36.5 -6.5t-52.5 -2q-68 0 -83.5 12.5z" />
<glyph unicode="&#xde;" horiz-adv-x="1090" d="M53 30l247 1232q4 20 33.5 30t105.5 10q38 0 62.5 -2.5t39 -7.5t19.5 -12.5t3 -17.5l-34 -175h115q54 0 95 -3.5t80 -11.5q68 -14 117.5 -43t81 -68t46.5 -86.5t15 -96.5q0 -90 -29 -183t-97 -173q-33 -39 -77 -72t-101 -57t-128 -37.5t-158 -13.5h-130l-43 -212 q-2 -11 -10 -18t-24.5 -12t-42.5 -7t-63 -2q-77 0 -102.5 9t-20.5 30zM400 446h124q42 0 75.5 8t60.5 22.5t47.5 33.5t35.5 41q31 45 44.5 94.5t13.5 88.5q0 51 -22 87t-73 52q-22 7 -49.5 9.5t-62.5 2.5h-106z" />
<glyph unicode="&#xdf;" horiz-adv-x="1136" d="M-203 -314q0 12 3.5 38t10.5 53t17 47t24 20q12 0 23 -2.5t38 -2.5q25 0 43.5 7.5t32.5 24t24 44t18 66.5l200 1011q19 95 58 170.5t100 128.5t143.5 81t188.5 28q102 0 173 -23.5t116 -62t65 -87.5t20 -101q0 -71 -22 -119t-54.5 -81.5t-70.5 -57.5t-70.5 -47.5 t-54.5 -50.5t-22 -67q0 -28 18.5 -51t46 -45t59.5 -46.5t59.5 -56t46 -73.5t18.5 -99q0 -81 -31 -147t-85 -112t-127.5 -71t-159.5 -25q-72 0 -127 14t-75 36q-6 7 -10.5 16t-4.5 23q0 13 4 38.5t12 50.5t19.5 43.5t25.5 18.5q10 0 22 -7.5t30 -16t44 -16t64 -7.5 q30 0 55.5 8.5t44 25t29.5 40.5t11 54q0 36 -18 61.5t-45.5 47t-59 43.5t-59 51t-45.5 68.5t-18 96.5q0 67 21.5 112t53.5 78t70 57t70 49t53.5 54.5t21.5 72.5q0 20 -7 40t-23 36.5t-42 27t-63 10.5q-49 0 -86 -16.5t-63.5 -47t-44 -73t-27.5 -94.5l-198 -995 q-16 -80 -42 -143.5t-67 -107.5t-101 -67.5t-145 -23.5q-44 0 -78 6.5t-43 15.5q-8 8 -8 29z" />
<glyph unicode="&#xe0;" horiz-adv-x="1081" d="M62 317q0 64 12 138t37 148t64 142.5t93.5 121.5t125 84.5t159.5 31.5q84 0 147.5 -34.5t111.5 -100.5l16 79q5 21 32 30t88 9q60 0 81.5 -9.5t17.5 -29.5l-179 -894q-5 -21 -32 -30t-88 -9t-82.5 8.5t-16.5 30.5l28 143q-15 -32 -48 -67.5t-78 -64.5t-99.5 -48 t-112.5 -19q-80 0 -133 28t-85 75.5t-45.5 109t-13.5 127.5zM321 341q0 -30 4.5 -57t16.5 -48t32 -33.5t51 -12.5q44 0 90 26.5t85.5 72t70.5 106t45 129.5l28 135q-35 55 -77 82.5t-99 27.5q-42 0 -77 -20t-62.5 -53.5t-47.5 -77.5t-33.5 -91.5t-20 -95.5t-6.5 -90z M388.5 1371.5q-0.5 9.5 11.5 17t39 11.5t73 4q33 0 55.5 -2t37.5 -6.5t24 -12t16 -19.5l134 -229q8 -14 9.5 -23.5t-7 -16t-28.5 -9.5t-55 -3q-29 0 -48 1.5t-31.5 5.5t-21 11t-16.5 17l-183 232q-9 12 -9.5 21.5z" />
<glyph unicode="&#xe1;" horiz-adv-x="1081" d="M62 317q0 64 12 138t37 148t64 142.5t93.5 121.5t125 84.5t159.5 31.5q84 0 147.5 -34.5t111.5 -100.5l16 79q5 21 32 30t88 9q60 0 81.5 -9.5t17.5 -29.5l-179 -894q-5 -21 -32 -30t-88 -9t-82.5 8.5t-16.5 30.5l28 143q-15 -32 -48 -67.5t-78 -64.5t-99.5 -48 t-112.5 -19q-80 0 -133 28t-85 75.5t-45.5 109t-13.5 127.5zM321 341q0 -30 4.5 -57t16.5 -48t32 -33.5t51 -12.5q44 0 90 26.5t85.5 72t70.5 106t45 129.5l28 135q-35 55 -77 82.5t-99 27.5q-42 0 -77 -20t-62.5 -53.5t-47.5 -77.5t-33.5 -91.5t-20 -95.5t-6.5 -90z M551.5 1111q2.5 10 11.5 24l152 229q8 12 18 19.5t25.5 12t38.5 6.5t56 2q46 0 72.5 -4.5t37.5 -12t9 -17.5t-11 -20l-204 -232q-8 -9 -16.5 -16t-21 -11t-31.5 -6t-48 -2q-35 0 -55 3t-28 9t-5.5 16z" />
<glyph unicode="&#xe2;" horiz-adv-x="1081" d="M62 317q0 64 12 138t37 148t64 142.5t93.5 121.5t125 84.5t159.5 31.5q84 0 147.5 -34.5t111.5 -100.5l16 79q5 21 32 30t88 9q60 0 81.5 -9.5t17.5 -29.5l-179 -894q-5 -21 -32 -30t-88 -9t-82.5 8.5t-16.5 30.5l28 143q-15 -32 -48 -67.5t-78 -64.5t-99.5 -48 t-112.5 -19q-80 0 -133 28t-85 75.5t-45.5 109t-13.5 127.5zM321 341q0 -30 4.5 -57t16.5 -48t32 -33.5t51 -12.5q44 0 90 26.5t85.5 72t70.5 106t45 129.5l28 135q-35 55 -77 82.5t-99 27.5q-42 0 -77 -20t-62.5 -53.5t-47.5 -77.5t-33.5 -91.5t-20 -95.5t-6.5 -90z M384 1097.5q-6 7.5 1.5 20t24.5 31.5l202 223q16 18 46 25t92 7q31 0 52.5 -2t35.5 -6t22 -10t13 -14l112 -223q9 -19 12 -31.5t-5 -20t-29 -11t-60 -3.5q-32 0 -50 1.5t-27.5 5.5t-14.5 10.5t-10 17.5l-74 150l-134 -150q-9 -11 -18.5 -17.5t-22.5 -10.5t-32 -5.5t-49 -1.5 q-39 0 -60 3.5t-27 11z" />
<glyph unicode="&#xe3;" horiz-adv-x="1081" d="M62 317q0 64 12 138t37 148t64 142.5t93.5 121.5t125 84.5t159.5 31.5q84 0 147.5 -34.5t111.5 -100.5l16 79q5 21 32 30t88 9q60 0 81.5 -9.5t17.5 -29.5l-179 -894q-5 -21 -32 -30t-88 -9t-82.5 8.5t-16.5 30.5l28 143q-15 -32 -48 -67.5t-78 -64.5t-99.5 -48 t-112.5 -19q-80 0 -133 28t-85 75.5t-45.5 109t-13.5 127.5zM321 341q0 -30 4.5 -57t16.5 -48t32 -33.5t51 -12.5q44 0 90 26.5t85.5 72t70.5 106t45 129.5l28 135q-35 55 -77 82.5t-99 27.5q-42 0 -77 -20t-62.5 -53.5t-47.5 -77.5t-33.5 -91.5t-20 -95.5t-6.5 -90z M330 1115q0 6 2 27.5t9.5 50.5t22.5 61t41 59.5t65 45t94 17.5q56 0 95 -17.5t69 -39t55.5 -39t54.5 -17.5q30 0 48.5 21.5t23.5 63.5q2 17 18 22.5t61 5.5q46 0 59.5 -6.5t13.5 -22.5q0 -6 -2 -27.5t-9.5 -50.5t-23 -61.5t-41.5 -59.5t-64.5 -44.5t-93.5 -17.5 q-58 0 -97 17.5t-68.5 39t-54.5 39t-55 17.5q-33 0 -49 -23.5t-22 -61.5q-2 -9 -5.5 -14.5t-12.5 -8.5t-24 -4t-40 -1q-45 0 -57.5 6.5t-12.5 22.5z" />
<glyph unicode="&#xe4;" horiz-adv-x="1081" d="M62 317q0 64 12 138t37 148t64 142.5t93.5 121.5t125 84.5t159.5 31.5q84 0 147.5 -34.5t111.5 -100.5l16 79q5 21 32 30t88 9q60 0 81.5 -9.5t17.5 -29.5l-179 -894q-5 -21 -32 -30t-88 -9t-82.5 8.5t-16.5 30.5l28 143q-15 -32 -48 -67.5t-78 -64.5t-99.5 -48 t-112.5 -19q-80 0 -133 28t-85 75.5t-45.5 109t-13.5 127.5zM321 341q0 -30 4.5 -57t16.5 -48t32 -33.5t51 -12.5q44 0 90 26.5t85.5 72t70.5 106t45 129.5l28 135q-35 55 -77 82.5t-99 27.5q-42 0 -77 -20t-62.5 -53.5t-47.5 -77.5t-33.5 -91.5t-20 -95.5t-6.5 -90z M366.5 1163.5q-2.5 23.5 4.5 61.5q6 37 17.5 61t29.5 38t43.5 19t59.5 5t57 -5t36 -19t15.5 -38t-4.5 -61t-18.5 -61t-29 -37.5t-42.5 -19t-60 -5.5t-58 5t-35.5 19t-15 37.5zM757.5 1163.5q-2.5 23.5 4.5 61.5q6 37 17.5 61t29.5 38t43 19t59 5t57.5 -5t36.5 -19t15.5 -38 t-4.5 -61q-7 -38 -18.5 -61.5t-29 -37.5t-43 -19t-60.5 -5q-34 0 -57 5t-35.5 19t-15 37.5z" />
<glyph unicode="&#xe5;" horiz-adv-x="1081" d="M62 317q0 64 12 138t37 148t64 142.5t93.5 121.5t125 84.5t159.5 31.5q84 0 147.5 -34.5t111.5 -100.5l16 79q5 21 32 30t88 9q60 0 81.5 -9.5t17.5 -29.5l-179 -894q-5 -21 -32 -30t-88 -9t-82.5 8.5t-16.5 30.5l28 143q-15 -32 -48 -67.5t-78 -64.5t-99.5 -48 t-112.5 -19q-80 0 -133 28t-85 75.5t-45.5 109t-13.5 127.5zM321 341q0 -30 4.5 -57t16.5 -48t32 -33.5t51 -12.5q44 0 90 26.5t85.5 72t70.5 106t45 129.5l28 135q-35 55 -77 82.5t-99 27.5q-42 0 -77 -20t-62.5 -53.5t-47.5 -77.5t-33.5 -91.5t-20 -95.5t-6.5 -90z M462 1228q0 46 14.5 87.5t46.5 73t81.5 50t120.5 18.5q58 0 98 -12.5t65 -34t36 -51t11 -63.5q0 -48 -15.5 -89.5t-47.5 -72.5t-82 -49t-120 -18q-57 0 -97 12t-64.5 33.5t-35.5 51t-11 64.5zM614 1244q0 -26 16 -46.5t60 -20.5q42 0 67 25.5t25 76.5q0 27 -16.5 47.5 t-59.5 20.5q-45 0 -68.5 -26t-23.5 -77z" />
<glyph unicode="&#xe6;" horiz-adv-x="1564" d="M28 215q0 97 41 165.5t111.5 112t163.5 63t198 19.5h118l12 52q10 42 8 73t-18.5 52t-48.5 31t-83 10q-62 0 -114 -14.5t-92 -32t-67.5 -32t-41.5 -14.5q-32 0 -32 60q0 13 2 30.5t6.5 35t11.5 33.5t16 25q17 18 55.5 35.5t88 31.5t105.5 23t107 9q61 0 108 -9t81.5 -26 t58 -41t37.5 -53q62 60 144 94.5t176 34.5q91 0 157 -21.5t108 -57t62 -81t20 -94.5q0 -71 -32 -129t-99.5 -99.5t-173.5 -64t-254 -22.5h-92q-4 -24 -6 -45t-2 -40q0 -81 42 -122t138 -41q63 0 115 9.5t92 21t66 21t38 9.5q22 0 22 -25q0 -21 -3.5 -44t-9.5 -45t-14 -39.5 t-18 -27.5q-11 -11 -43 -23t-77.5 -22.5t-100.5 -17t-111 -6.5q-130 0 -211 41.5t-119 115.5q-86 -84 -175.5 -120.5t-186.5 -36.5q-74 0 -127.5 19t-88.5 51.5t-51.5 75.5t-16.5 92zM277 248q0 -45 28 -68.5t79 -23.5q59 0 114 27.5t122 94.5q-2 7 -2.5 16t-0.5 18 q0 25 2.5 52t7.5 50h-99q-71 0 -119.5 -13.5t-77.5 -36.5t-41.5 -53t-12.5 -63zM909 576h88q81 0 135.5 10.5t87.5 29t46.5 43t13.5 52.5q0 39 -29 66t-94 27q-50 0 -90.5 -18t-71.5 -49t-52.5 -72.5t-33.5 -88.5z" />
<glyph unicode="&#xe7;" horiz-adv-x="843" d="M59 320q0 61 11.5 134t37.5 146.5t67.5 142.5t101.5 122t139.5 85t181.5 32q60 0 114 -13.5t90 -33.5q19 -11 30 -19.5t17 -16.5t7.5 -15.5t1.5 -16.5q0 -23 -5 -52t-14.5 -55t-23 -43.5t-29.5 -17.5q-15 0 -29 12.5t-34.5 27t-51.5 27t-80 12.5q-53 0 -93.5 -23 t-71 -59.5t-51 -83t-33 -94t-18 -91.5t-5.5 -75q0 -81 35.5 -123t111.5 -42q56 0 96 14.5t68.5 31.5t49 31.5t37.5 14.5q19 0 19 -35q0 -13 -2.5 -30.5t-6.5 -37t-9.5 -39.5t-11.5 -36q-8 -22 -21.5 -35t-44.5 -31t-73.5 -32t-90.5 -19l12 -50q6 -25 10.5 -47t4.5 -44 q0 -54 -17.5 -93.5t-49.5 -65t-76.5 -37.5t-98.5 -12q-60 0 -106.5 9t-71.5 20q-11 6 -15 12.5t-4 19.5q0 10 2.5 28t8.5 36t16.5 31.5t26.5 13.5h114q29 0 49.5 13.5t20.5 42.5q0 10 -1.5 23t-4.5 26l-21 83q-103 26 -159.5 107t-56.5 220z" />
<glyph unicode="&#xe8;" horiz-adv-x="1006" d="M59 313q0 68 12.5 144t40.5 150.5t72 142.5t106.5 119.5t144.5 82.5t187 31q91 0 156.5 -21.5t108 -57t62.5 -81t20 -93.5q0 -72 -32.5 -130t-101 -99t-174 -63t-251.5 -22h-92q-4 -23 -6 -45.5t-2 -41.5q0 -81 41.5 -122t135.5 -41q66 0 118.5 9.5t92 21t65.5 21t38 9.5 q22 0 22 -29q0 -17 -3 -39t-8.5 -43.5t-14 -40.5t-19.5 -29q-12 -11 -44 -23.5t-77.5 -22.5t-101 -16.5t-113.5 -6.5q-191 0 -287 81t-96 255zM354 577h84q79 0 133.5 10.5t88 28.5t48 42.5t14.5 52.5q0 40 -31.5 66.5t-91.5 26.5q-50 0 -89.5 -18t-69.5 -48.5t-51.5 -72 t-34.5 -88.5zM367.5 1371.5q-0.5 9.5 11.5 17t39 11.5t73 4q33 0 55.5 -2t37.5 -6.5t24 -12t16 -19.5l134 -229q8 -14 9.5 -23.5t-7 -16t-28.5 -9.5t-55 -3q-29 0 -48 1.5t-31.5 5.5t-21 11t-16.5 17l-183 232q-9 12 -9.5 21.5z" />
<glyph unicode="&#xe9;" horiz-adv-x="1006" d="M59 313q0 68 12.5 144t40.5 150.5t72 142.5t106.5 119.5t144.5 82.5t187 31q91 0 156.5 -21.5t108 -57t62.5 -81t20 -93.5q0 -72 -32.5 -130t-101 -99t-174 -63t-251.5 -22h-92q-4 -23 -6 -45.5t-2 -41.5q0 -81 41.5 -122t135.5 -41q66 0 118.5 9.5t92 21t65.5 21t38 9.5 q22 0 22 -29q0 -17 -3 -39t-8.5 -43.5t-14 -40.5t-19.5 -29q-12 -11 -44 -23.5t-77.5 -22.5t-101 -16.5t-113.5 -6.5q-191 0 -287 81t-96 255zM354 577h84q79 0 133.5 10.5t88 28.5t48 42.5t14.5 52.5q0 40 -31.5 66.5t-91.5 26.5q-50 0 -89.5 -18t-69.5 -48.5t-51.5 -72 t-34.5 -88.5zM530.5 1111q2.5 10 11.5 24l152 229q8 12 18 19.5t25.5 12t38.5 6.5t56 2q46 0 72.5 -4.5t37.5 -12t9 -17.5t-11 -20l-204 -232q-8 -9 -16.5 -16t-21 -11t-31.5 -6t-48 -2q-35 0 -55 3t-28 9t-5.5 16z" />
<glyph unicode="&#xea;" horiz-adv-x="1006" d="M59 313q0 68 12.5 144t40.5 150.5t72 142.5t106.5 119.5t144.5 82.5t187 31q91 0 156.5 -21.5t108 -57t62.5 -81t20 -93.5q0 -72 -32.5 -130t-101 -99t-174 -63t-251.5 -22h-92q-4 -23 -6 -45.5t-2 -41.5q0 -81 41.5 -122t135.5 -41q66 0 118.5 9.5t92 21t65.5 21t38 9.5 q22 0 22 -29q0 -17 -3 -39t-8.5 -43.5t-14 -40.5t-19.5 -29q-12 -11 -44 -23.5t-77.5 -22.5t-101 -16.5t-113.5 -6.5q-191 0 -287 81t-96 255zM331 1097.5q-6 7.5 1.5 20t24.5 31.5l202 223q16 18 46 25t92 7q31 0 52.5 -2t35.5 -6t22 -10t13 -14l112 -223q9 -19 12 -31.5 t-5 -20t-29 -11t-60 -3.5q-32 0 -50 1.5t-27.5 5.5t-14.5 10.5t-10 17.5l-74 150l-134 -150q-9 -11 -18.5 -17.5t-22.5 -10.5t-32 -5.5t-49 -1.5q-39 0 -60 3.5t-27 11zM354 577h84q79 0 133.5 10.5t88 28.5t48 42.5t14.5 52.5q0 40 -31.5 66.5t-91.5 26.5q-50 0 -89.5 -18 t-69.5 -48.5t-51.5 -72t-34.5 -88.5z" />
<glyph unicode="&#xeb;" horiz-adv-x="1006" d="M59 313q0 68 12.5 144t40.5 150.5t72 142.5t106.5 119.5t144.5 82.5t187 31q91 0 156.5 -21.5t108 -57t62.5 -81t20 -93.5q0 -72 -32.5 -130t-101 -99t-174 -63t-251.5 -22h-92q-4 -23 -6 -45.5t-2 -41.5q0 -81 41.5 -122t135.5 -41q66 0 118.5 9.5t92 21t65.5 21t38 9.5 q22 0 22 -29q0 -17 -3 -39t-8.5 -43.5t-14 -40.5t-19.5 -29q-12 -11 -44 -23.5t-77.5 -22.5t-101 -16.5t-113.5 -6.5q-191 0 -287 81t-96 255zM328.5 1163.5q-2.5 23.5 4.5 61.5q6 37 17.5 61t29.5 38t43.5 19t59.5 5t57 -5t36 -19t15.5 -38t-4.5 -61t-18.5 -61t-29 -37.5 t-42.5 -19t-60 -5.5t-58 5t-35.5 19t-15 37.5zM354 577h84q79 0 133.5 10.5t88 28.5t48 42.5t14.5 52.5q0 40 -31.5 66.5t-91.5 26.5q-50 0 -89.5 -18t-69.5 -48.5t-51.5 -72t-34.5 -88.5zM719.5 1163.5q-2.5 23.5 4.5 61.5q6 37 17.5 61t29.5 38t43 19t59 5t57.5 -5 t36.5 -19t15.5 -38t-4.5 -61q-7 -38 -18.5 -61.5t-29 -37.5t-43 -19t-60.5 -5q-34 0 -57 5t-35.5 19t-15 37.5z" />
<glyph unicode="&#xec;" horiz-adv-x="503" d="M40 34l178 892q2 10 9.5 17.5t23 12.5t40 7.5t61.5 2.5q74 0 97.5 -10t19.5 -30l-178 -892q-4 -20 -32.5 -30t-101.5 -10q-74 0 -97.5 10t-19.5 30zM76.5 1371.5q-0.5 9.5 11.5 17t39 11.5t73 4q33 0 55.5 -2t37.5 -6.5t24 -12t16 -19.5l134 -229q8 -14 9.5 -23.5t-7 -16 t-28.5 -9.5t-55 -3q-29 0 -48 1.5t-31.5 5.5t-21 11t-16.5 17l-183 232q-9 12 -9.5 21.5z" />
<glyph unicode="&#xed;" horiz-adv-x="503" d="M40 34l178 892q2 10 9.5 17.5t23 12.5t40 7.5t61.5 2.5q74 0 97.5 -10t19.5 -30l-178 -892q-4 -20 -32.5 -30t-101.5 -10q-74 0 -97.5 10t-19.5 30zM259.5 1111q2.5 10 11.5 24l152 229q8 12 18 19.5t25.5 12t38.5 6.5t56 2q46 0 72.5 -4.5t37.5 -12t9 -17.5t-11 -20 l-204 -232q-8 -9 -16.5 -16t-21 -11t-31.5 -6t-48 -2q-35 0 -55 3t-28 9t-5.5 16z" />
<glyph unicode="&#xee;" horiz-adv-x="503" d="M40 34l178 892q2 10 9.5 17.5t23 12.5t40 7.5t61.5 2.5q74 0 97.5 -10t19.5 -30l-178 -892q-4 -20 -32.5 -30t-101.5 -10q-74 0 -97.5 10t-19.5 30zM69 1097.5q-6 7.5 1.5 20t24.5 31.5l202 223q16 18 46 25t92 7q31 0 52.5 -2t35.5 -6t22 -10t13 -14l112 -223 q9 -19 12 -31.5t-5 -20t-29 -11t-60 -3.5q-32 0 -50 1.5t-27.5 5.5t-14.5 10.5t-10 17.5l-74 150l-134 -150q-9 -11 -18.5 -17.5t-22.5 -10.5t-32 -5.5t-49 -1.5q-39 0 -60 3.5t-27 11z" />
<glyph unicode="&#xef;" horiz-adv-x="503" d="M40 34l178 892q2 10 9.5 17.5t23 12.5t40 7.5t61.5 2.5q74 0 97.5 -10t19.5 -30l-178 -892q-4 -20 -32.5 -30t-101.5 -10q-74 0 -97.5 10t-19.5 30zM105 1164q-2 24 6 61t19.5 61t29 38t41.5 19t57 5t54.5 -5t33 -19t13 -38t-6.5 -61q-8 -38 -19 -61.5t-28 -37.5 t-40.5 -19t-55.5 -5q-33 0 -55.5 5.5t-34.5 19t-14 37.5zM441 1163.5q-2 23.5 6 61.5q7 37 19 61t29.5 38t42 19t56.5 5q33 0 55 -5t33.5 -19t13 -38t-6.5 -61t-19 -61t-28 -37.5t-41 -19t-57 -5.5t-55 5t-34 19t-14 37.5z" />
<glyph unicode="&#xf0;" horiz-adv-x="1099" d="M61 320q0 65 12 139.5t37 148t64 141.5t93.5 120t125.5 83t160 31q72 0 127.5 -25.5t97.5 -90.5q-8 26 -16 55.5t-18.5 61t-25.5 65t-37 68.5l-273 -63q-22 -5 -29.5 1t-7.5 25q0 12 3 32.5t10 41.5t19 37.5t30 20.5l161 37l-65 93q-8 11 -9.5 20.5t10 16.5t39 11t77.5 4 q37 0 63 -2t44.5 -6.5t30.5 -12t20 -17.5l33 -52l262 60q25 6 34.5 -3.5t9.5 -27.5q0 -11 -2.5 -30t-9.5 -38.5t-18 -35.5t-29 -20l-159 -37q53 -100 77 -195.5t24 -187.5q0 -82 -10.5 -174t-36.5 -182.5t-70 -172.5t-110.5 -145t-158.5 -100.5t-214 -37.5q-102 0 -171.5 25 t-112.5 70t-62 108t-19 140zM321 364q0 -90 34.5 -132t101.5 -42q50 0 90.5 18.5t72 48.5t54 69.5t36.5 81t21 83t7 75.5q0 95 -41 149t-121 54q-44 0 -80 -19t-64 -50.5t-49 -73t-35 -86.5t-20.5 -90.5t-6.5 -85.5z" />
<glyph unicode="&#xf1;" horiz-adv-x="1080" d="M40 34l179 893q4 20 28.5 29.5t86.5 9.5q61 0 81 -9.5t16 -29.5l-29 -147q21 35 56.5 71t80.5 65.5t98.5 48t111.5 18.5q70 0 117.5 -20.5t77 -55.5t42.5 -81.5t13 -98.5q0 -35 -4 -70t-12 -72l-111 -551q-2 -10 -9.5 -17.5t-23 -12.5t-40 -7.5t-61.5 -2.5t-60.5 2.5 t-36.5 7.5t-17.5 12.5t-2.5 17.5l108 535q5 24 7.5 49t2.5 44q0 45 -19 74t-64 29q-41 0 -85 -26t-84 -70.5t-71 -104t-44 -126.5l-81 -404q-4 -20 -32.5 -30t-101.5 -10q-74 0 -97.5 10t-19.5 30zM303 1115q0 6 2 27.5t9.5 50.5t22.5 61t41 59.5t65 45t94 17.5 q56 0 95 -17.5t69 -39t55.5 -39t54.5 -17.5q30 0 48.5 21.5t23.5 63.5q2 17 18 22.5t61 5.5q46 0 59.5 -6.5t13.5 -22.5q0 -6 -2 -27.5t-9.5 -50.5t-23 -61.5t-41.5 -59.5t-64.5 -44.5t-93.5 -17.5q-58 0 -97 17.5t-68.5 39t-54.5 39t-55 17.5q-33 0 -49 -23.5t-22 -61.5 q-2 -9 -5.5 -14.5t-12.5 -8.5t-24 -4t-40 -1q-45 0 -57.5 6.5t-12.5 22.5z" />
<glyph unicode="&#xf2;" horiz-adv-x="1080" d="M60 334q0 72 13.5 148t42.5 148t74.5 136.5t108.5 112.5t145.5 76t185.5 28q200 0 297 -92.5t97 -264.5q0 -72 -13.5 -148t-42.5 -148t-74.5 -136.5t-108.5 -112.5t-145.5 -76t-185.5 -28q-200 0 -297 92.5t-97 264.5zM320 353q0 -85 36.5 -131t124.5 -46q50 0 90 19.5 t71.5 53t54.5 77.5t38 92t22 97t7 94q0 84 -36.5 130t-124.5 46q-50 0 -90 -19.5t-71.5 -52.5t-54.5 -76.5t-38 -91.5t-22 -97.5t-7 -94.5zM368.5 1371.5q-0.5 9.5 11.5 17t39 11.5t73 4q33 0 55.5 -2t37.5 -6.5t24 -12t16 -19.5l134 -229q8 -14 9.5 -23.5t-7 -16 t-28.5 -9.5t-55 -3q-29 0 -48 1.5t-31.5 5.5t-21 11t-16.5 17l-183 232q-9 12 -9.5 21.5z" />
<glyph unicode="&#xf3;" horiz-adv-x="1080" d="M60 334q0 72 13.5 148t42.5 148t74.5 136.5t108.5 112.5t145.5 76t185.5 28q200 0 297 -92.5t97 -264.5q0 -72 -13.5 -148t-42.5 -148t-74.5 -136.5t-108.5 -112.5t-145.5 -76t-185.5 -28q-200 0 -297 92.5t-97 264.5zM320 353q0 -85 36.5 -131t124.5 -46q50 0 90 19.5 t71.5 53t54.5 77.5t38 92t22 97t7 94q0 84 -36.5 130t-124.5 46q-50 0 -90 -19.5t-71.5 -52.5t-54.5 -76.5t-38 -91.5t-22 -97.5t-7 -94.5zM563.5 1111q2.5 10 11.5 24l152 229q8 12 18 19.5t25.5 12t38.5 6.5t56 2q46 0 72.5 -4.5t37.5 -12t9 -17.5t-11 -20l-204 -232 q-8 -9 -16.5 -16t-21 -11t-31.5 -6t-48 -2q-35 0 -55 3t-28 9t-5.5 16z" />
<glyph unicode="&#xf4;" horiz-adv-x="1080" d="M60 334q0 72 13.5 148t42.5 148t74.5 136.5t108.5 112.5t145.5 76t185.5 28q200 0 297 -92.5t97 -264.5q0 -72 -13.5 -148t-42.5 -148t-74.5 -136.5t-108.5 -112.5t-145.5 -76t-185.5 -28q-200 0 -297 92.5t-97 264.5zM320 353q0 -85 36.5 -131t124.5 -46q50 0 90 19.5 t71.5 53t54.5 77.5t38 92t22 97t7 94q0 84 -36.5 130t-124.5 46q-50 0 -90 -19.5t-71.5 -52.5t-54.5 -76.5t-38 -91.5t-22 -97.5t-7 -94.5zM357 1097.5q-6 7.5 1.5 20t24.5 31.5l202 223q16 18 46 25t92 7q31 0 52.5 -2t35.5 -6t22 -10t13 -14l112 -223q9 -19 12 -31.5 t-5 -20t-29 -11t-60 -3.5q-32 0 -50 1.5t-27.5 5.5t-14.5 10.5t-10 17.5l-74 150l-134 -150q-9 -11 -18.5 -17.5t-22.5 -10.5t-32 -5.5t-49 -1.5q-39 0 -60 3.5t-27 11z" />
<glyph unicode="&#xf5;" horiz-adv-x="1080" d="M60 334q0 72 13.5 148t42.5 148t74.5 136.5t108.5 112.5t145.5 76t185.5 28q200 0 297 -92.5t97 -264.5q0 -72 -13.5 -148t-42.5 -148t-74.5 -136.5t-108.5 -112.5t-145.5 -76t-185.5 -28q-200 0 -297 92.5t-97 264.5zM313 1115q0 6 2 27.5t9.5 50.5t22.5 61t41 59.5 t65 45t94 17.5q56 0 95 -17.5t69 -39t55.5 -39t54.5 -17.5q30 0 48.5 21.5t23.5 63.5q2 17 18 22.5t61 5.5q46 0 59.5 -6.5t13.5 -22.5q0 -6 -2 -27.5t-9.5 -50.5t-23 -61.5t-41.5 -59.5t-64.5 -44.5t-93.5 -17.5q-58 0 -97 17.5t-68.5 39t-54.5 39t-55 17.5 q-33 0 -49 -23.5t-22 -61.5q-2 -9 -5.5 -14.5t-12.5 -8.5t-24 -4t-40 -1q-45 0 -57.5 6.5t-12.5 22.5zM320 353q0 -85 36.5 -131t124.5 -46q50 0 90 19.5t71.5 53t54.5 77.5t38 92t22 97t7 94q0 84 -36.5 130t-124.5 46q-50 0 -90 -19.5t-71.5 -52.5t-54.5 -76.5t-38 -91.5 t-22 -97.5t-7 -94.5z" />
<glyph unicode="&#xf6;" horiz-adv-x="1080" d="M60 334q0 72 13.5 148t42.5 148t74.5 136.5t108.5 112.5t145.5 76t185.5 28q200 0 297 -92.5t97 -264.5q0 -72 -13.5 -148t-42.5 -148t-74.5 -136.5t-108.5 -112.5t-145.5 -76t-185.5 -28q-200 0 -297 92.5t-97 264.5zM320 353q0 -85 36.5 -131t124.5 -46q50 0 90 19.5 t71.5 53t54.5 77.5t38 92t22 97t7 94q0 84 -36.5 130t-124.5 46q-50 0 -90 -19.5t-71.5 -52.5t-54.5 -76.5t-38 -91.5t-22 -97.5t-7 -94.5zM359.5 1163.5q-2.5 23.5 4.5 61.5q6 37 17.5 61t29.5 38t43.5 19t59.5 5t57 -5t36 -19t15.5 -38t-4.5 -61t-18.5 -61t-29 -37.5 t-42.5 -19t-60 -5.5t-58 5t-35.5 19t-15 37.5zM750.5 1163.5q-2.5 23.5 4.5 61.5q6 37 17.5 61t29.5 38t43 19t59 5t57.5 -5t36.5 -19t15.5 -38t-4.5 -61q-7 -38 -18.5 -61.5t-29 -37.5t-43 -19t-60.5 -5q-34 0 -57 5t-35.5 19t-15 37.5z" />
<glyph unicode="&#xf7;" d="M48 518q0 11 4 36.5t11.5 51.5t19.5 46t28 20h869q25 0 25 -41q0 -11 -3.5 -36t-11.5 -50.5t-20 -45.5t-28 -20h-869q-25 0 -25 39zM298 122.5q-1 28.5 7 69.5q9 43 21.5 72.5t32.5 47.5t50 26t72 8q41 0 67.5 -8t40 -26t15 -47.5t-7.5 -72.5q-8 -41 -21 -69.5t-33.5 -46 t-50 -25.5t-71.5 -8t-68.5 8t-39.5 25.5t-14 46zM450 884.5q-1 28.5 7 69.5q9 43 21.5 72.5t33 47.5t50.5 26t72 8q41 0 67 -8t39 -26t14.5 -47.5t-7.5 -72.5q-8 -41 -21 -69.5t-33.5 -46.5t-50 -26t-70.5 -8q-42 0 -68.5 8t-39.5 26t-14 46.5z" />
<glyph unicode="&#xf8;" horiz-adv-x="1114" d="M46 -128l127 185q-58 46 -85.5 116t-27.5 161q0 72 13.5 148t43 148t76 136.5t112 112.5t150.5 76t193 28q34 0 70 -3t71 -13l91 134q19 29 107 29q60 0 78 -12t1 -36l-122 -178q60 -48 87.5 -116.5t27.5 -161.5q0 -72 -13.5 -148t-43 -148t-75.5 -136.5t-111 -112.5 t-150.5 -76t-193.5 -28q-45 0 -83 4t-61 12l-94 -139q-11 -16 -37 -22.5t-71 -6.5q-61 0 -78.5 12t-1.5 35zM299 359q0 -60 25 -87l353 521q-13 4 -31 6t-34 2q-57 0 -102.5 -21.5t-80.5 -57t-59.5 -81t-40 -95t-23 -98t-7.5 -89.5zM441 168q12 -4 28.5 -6.5t37.5 -2.5 q58 0 104 21.5t80.5 57t59 81.5t40 95t22.5 97.5t7 89.5q0 24 -5.5 47t-19.5 42z" />
<glyph unicode="&#xf9;" horiz-adv-x="1080" d="M87 232q0 34 4 69.5t12 72.5l110 553q4 20 32.5 29.5t101.5 9.5t97 -9.5t20 -29.5l-106 -536q-5 -22 -7.5 -46t-2.5 -46q0 -49 18.5 -77t63.5 -28q41 0 86 26.5t85 73t71.5 110t46.5 137.5l76 386q4 20 33.5 29.5t100.5 9.5q74 0 97.5 -9.5t19.5 -29.5l-179 -894 q-4 -20 -28.5 -29.5t-86.5 -9.5q-61 0 -81.5 9.5t-14.5 29.5l27 145q-20 -35 -55 -70.5t-80.5 -64.5t-98.5 -47.5t-109 -18.5q-70 0 -118.5 19t-78.5 53t-43 81t-13 102zM339.5 1371.5q-0.5 9.5 11.5 17t39 11.5t73 4q33 0 55.5 -2t37.5 -6.5t24 -12t16 -19.5l134 -229 q8 -14 9.5 -23.5t-7 -16t-28.5 -9.5t-55 -3q-29 0 -48 1.5t-31.5 5.5t-21 11t-16.5 17l-183 232q-9 12 -9.5 21.5z" />
<glyph unicode="&#xfa;" horiz-adv-x="1080" d="M87 232q0 34 4 69.5t12 72.5l110 553q4 20 32.5 29.5t101.5 9.5t97 -9.5t20 -29.5l-106 -536q-5 -22 -7.5 -46t-2.5 -46q0 -49 18.5 -77t63.5 -28q41 0 86 26.5t85 73t71.5 110t46.5 137.5l76 386q4 20 33.5 29.5t100.5 9.5q74 0 97.5 -9.5t19.5 -29.5l-179 -894 q-4 -20 -28.5 -29.5t-86.5 -9.5q-61 0 -81.5 9.5t-14.5 29.5l27 145q-20 -35 -55 -70.5t-80.5 -64.5t-98.5 -47.5t-109 -18.5q-70 0 -118.5 19t-78.5 53t-43 81t-13 102zM558.5 1111q2.5 10 11.5 24l152 229q8 12 18 19.5t25.5 12t38.5 6.5t56 2q46 0 72.5 -4.5t37.5 -12 t9 -17.5t-11 -20l-204 -232q-8 -9 -16.5 -16t-21 -11t-31.5 -6t-48 -2q-35 0 -55 3t-28 9t-5.5 16z" />
<glyph unicode="&#xfb;" horiz-adv-x="1080" d="M87 232q0 34 4 69.5t12 72.5l110 553q4 20 32.5 29.5t101.5 9.5t97 -9.5t20 -29.5l-106 -536q-5 -22 -7.5 -46t-2.5 -46q0 -49 18.5 -77t63.5 -28q41 0 86 26.5t85 73t71.5 110t46.5 137.5l76 386q4 20 33.5 29.5t100.5 9.5q74 0 97.5 -9.5t19.5 -29.5l-179 -894 q-4 -20 -28.5 -29.5t-86.5 -9.5q-61 0 -81.5 9.5t-14.5 29.5l27 145q-20 -35 -55 -70.5t-80.5 -64.5t-98.5 -47.5t-109 -18.5q-70 0 -118.5 19t-78.5 53t-43 81t-13 102zM352 1097.5q-6 7.5 1.5 20t24.5 31.5l202 223q16 18 46 25t92 7q31 0 52.5 -2t35.5 -6t22 -10t13 -14 l112 -223q9 -19 12 -31.5t-5 -20t-29 -11t-60 -3.5q-32 0 -50 1.5t-27.5 5.5t-14.5 10.5t-10 17.5l-74 150l-134 -150q-9 -11 -18.5 -17.5t-22.5 -10.5t-32 -5.5t-49 -1.5q-39 0 -60 3.5t-27 11z" />
<glyph unicode="&#xfc;" horiz-adv-x="1080" d="M87 232q0 34 4 69.5t12 72.5l110 553q4 20 32.5 29.5t101.5 9.5t97 -9.5t20 -29.5l-106 -536q-5 -22 -7.5 -46t-2.5 -46q0 -49 18.5 -77t63.5 -28q41 0 86 26.5t85 73t71.5 110t46.5 137.5l76 386q4 20 33.5 29.5t100.5 9.5q74 0 97.5 -9.5t19.5 -29.5l-179 -894 q-4 -20 -28.5 -29.5t-86.5 -9.5q-61 0 -81.5 9.5t-14.5 29.5l27 145q-20 -35 -55 -70.5t-80.5 -64.5t-98.5 -47.5t-109 -18.5q-70 0 -118.5 19t-78.5 53t-43 81t-13 102zM345.5 1163.5q-2.5 23.5 4.5 61.5q6 37 17.5 61t29.5 38t43.5 19t59.5 5t57 -5t36 -19t15.5 -38 t-4.5 -61t-18.5 -61t-29 -37.5t-42.5 -19t-60 -5.5t-58 5t-35.5 19t-15 37.5zM736.5 1163.5q-2.5 23.5 4.5 61.5q6 37 17.5 61t29.5 38t43 19t59 5t57.5 -5t36.5 -19t15.5 -38t-4.5 -61q-7 -38 -18.5 -61.5t-29 -37.5t-43 -19t-60.5 -5q-34 0 -57 5t-35.5 19t-15 37.5z" />
<glyph unicode="&#xfd;" horiz-adv-x="963" d="M21 -328q1 12 14 29l227 299l-147 858q-2 13 -4 27t-2 24q0 18 6.5 29t22 17t41 8.5t63.5 2.5q41 0 64.5 -1.5t35.5 -6.5t16.5 -14.5t6.5 -25.5l92 -625h2q100 150 166.5 308t114.5 326q2 10 9 17.5t23 12t43.5 7t70.5 2.5q64 0 88 -8t24 -29q0 -28 -12 -62 q-34 -92 -74 -189.5t-91 -202t-115.5 -215.5t-148.5 -230l-244 -346q-17 -25 -56.5 -36t-116.5 -11q-43 0 -69.5 3.5t-38.5 11.5t-11 20zM480.5 1111q2.5 10 11.5 24l152 229q8 12 18 19.5t25.5 12t38.5 6.5t56 2q46 0 72.5 -4.5t37.5 -12t9 -17.5t-11 -20l-204 -232 q-8 -9 -16.5 -16t-21 -11t-31.5 -6t-48 -2q-35 0 -55 3t-28 9t-5.5 16z" />
<glyph unicode="&#xfe;" horiz-adv-x="1081" d="M-31 -320l334 1669q4 20 33.5 31.5t100.5 11.5q38 0 61.5 -3t36 -9t16.5 -14t2 -18l-71 -357q-8 -42 -22 -91t-32 -98q17 30 49 62t74.5 58.5t93 43.5t103.5 17q76 0 129 -26.5t85.5 -72.5t47 -108t14.5 -133q0 -65 -12 -140t-37 -149t-64 -142t-93.5 -120.5t-125 -83.5 t-158.5 -31q-81 0 -139.5 30.5t-95.5 75.5l-79 -403q-2 -10 -9.5 -18t-23 -13.5t-40.5 -8.5t-62 -3q-36 0 -59.5 3t-36.5 8.5t-17.5 13.5t-2.5 18zM343 300q35 -55 77 -82.5t99 -27.5q42 0 76 20t61.5 53.5t48 77.5t34 92t20 96.5t6.5 91.5q0 70 -23 109.5t-80 39.5 q-44 0 -90 -27t-86 -73t-70.5 -106.5t-44.5 -127.5z" />
<glyph unicode="&#xff;" horiz-adv-x="963" d="M21 -328q1 12 14 29l227 299l-147 858q-2 13 -4 27t-2 24q0 18 6.5 29t22 17t41 8.5t63.5 2.5q41 0 64.5 -1.5t35.5 -6.5t16.5 -14.5t6.5 -25.5l92 -625h2q100 150 166.5 308t114.5 326q2 10 9 17.5t23 12t43.5 7t70.5 2.5q64 0 88 -8t24 -29q0 -28 -12 -62 q-34 -92 -74 -189.5t-91 -202t-115.5 -215.5t-148.5 -230l-244 -346q-17 -25 -56.5 -36t-116.5 -11q-43 0 -69.5 3.5t-38.5 11.5t-11 20zM279.5 1163.5q-2.5 23.5 4.5 61.5q6 37 17.5 61t29.5 38t43.5 19t59.5 5t57 -5t36 -19t15.5 -38t-4.5 -61t-18.5 -61t-29 -37.5 t-42.5 -19t-60 -5.5t-58 5t-35.5 19t-15 37.5zM670.5 1163.5q-2.5 23.5 4.5 61.5q6 37 17.5 61t29.5 38t43 19t59 5t57.5 -5t36.5 -19t15.5 -38t-4.5 -61q-7 -38 -18.5 -61.5t-29 -37.5t-43 -19t-60.5 -5q-34 0 -57 5t-35.5 19t-15 37.5z" />
<glyph unicode="&#x152;" horiz-adv-x="1790" d="M95 423q0 99 17 203.5t54 204t96 188t143.5 154.5t196.5 105t254 39q39 0 77.5 -4t73.5 -10.5t65 -16.5t51 -22q12 17 28.5 23.5t35.5 6.5h632q16 0 21 -11.5t5 -30.5q0 -10 -3.5 -37t-11.5 -55t-21 -50t-31 -22h-462l-63 -317h390q15 0 21 -10.5t6 -30.5 q0 -11 -3.5 -37.5t-11.5 -54t-21 -49t-31 -21.5h-391l-72 -362h466q15 0 20 -11.5t5 -29.5q0 -9 -3.5 -36t-11 -55.5t-20 -51t-30.5 -22.5h-634q-20 0 -36 8.5t-18 29.5q-127 -61 -281 -61q-151 0 -248.5 38t-153.5 100t-78 142.5t-22 165.5zM373 458q0 -136 61.5 -200 t196.5 -64q66 0 131 18.5t131 63.5l151 754q-48 35 -102.5 53t-123.5 18q-91 0 -159.5 -35t-118 -91.5t-82 -127t-51.5 -142t-26.5 -137t-7.5 -110.5z" />
<glyph unicode="&#x153;" horiz-adv-x="1673" d="M60 335q0 72 13.5 148t43 148t75 136t109.5 112t146.5 76t186.5 28q115 0 194 -40.5t115 -116.5q54 71 139.5 114t206.5 43q91 0 156.5 -21t108 -56.5t62.5 -81t20 -94.5q0 -71 -32 -128.5t-100 -99t-174 -64t-253 -22.5h-92q-5 -24 -7 -46t-2 -41q0 -81 42 -122t136 -41 q65 0 118 9.5t93 21t66 21t37 9.5q22 0 22 -25q0 -20 -3 -43t-8.5 -44.5t-14 -40t-19.5 -28.5q-12 -11 -43.5 -23.5t-76.5 -22.5t-100.5 -16.5t-115.5 -6.5q-111 0 -189.5 33t-119.5 116q-62 -72 -151.5 -110.5t-198.5 -38.5q-197 0 -293.5 92.5t-96.5 265.5zM320 353 q0 -83 36.5 -130.5t124.5 -47.5q50 0 90 19.5t71.5 52.5t54.5 76.5t38 91.5t22 97.5t7 94.5q0 41 -8.5 74t-28 56t-50 35.5t-74.5 12.5q-50 0 -90 -19.5t-71.5 -52.5t-54.5 -76.5t-38 -91.5t-22 -97.5t-7 -94.5zM1021 577h85q80 0 134.5 11t87.5 29t47 42.5t14 51.5 q0 40 -31.5 66.5t-92.5 26.5q-49 0 -88.5 -18t-69.5 -48.5t-51.5 -72t-34.5 -88.5z" />
<glyph unicode="&#x178;" horiz-adv-x="1064" d="M179 1252q-2 21 10 31.5t42 13.5t84 3q42 0 66.5 -1.5t38 -6.5t19.5 -14.5t10 -24.5l87 -311q16 -57 27 -107t20 -105h2q56 108 122 210l207 316q8 13 17 21.5t25 13.5t43 7t71 2q58 0 88.5 -3.5t39.5 -15t-1 -32t-33 -53.5l-496 -705l-90 -456q-2 -11 -10.5 -18.5 t-25 -12.5t-42.5 -7.5t-64 -2.5t-63 2.5t-38.5 7.5t-18 12.5t-2.5 18.5l90 456l-212 705q-11 35 -13 56zM413 1470q-2 23 4 58q7 37 17.5 62t28.5 39.5t44 20.5t64 6q36 0 59.5 -6t36.5 -20.5t16 -39.5t-4 -62q-6 -35 -17.5 -58t-29.5 -37t-44 -19.5t-62 -5.5q-38 0 -62 5.5 t-36.5 19.5t-14.5 37zM849 1470q-2 23 4 58q7 37 17.5 62t28.5 39.5t44 20.5t64 6q36 0 60 -6t37 -20.5t15.5 -39.5t-3.5 -62q-6 -35 -17 -58t-30 -37t-45 -19.5t-62 -5.5q-38 0 -62 5.5t-36.5 19.5t-14.5 37z" />
<glyph unicode="&#x2c6;" horiz-adv-x="822" d="M234 1097.5q-6 7.5 1.5 20t24.5 31.5l202 223q16 18 46 25t92 7q31 0 52.5 -2t35.5 -6t22 -10t13 -14l112 -223q9 -19 12 -31.5t-5 -20t-29 -11t-60 -3.5q-32 0 -50 1.5t-27.5 5.5t-14.5 10.5t-10 17.5l-74 150l-134 -150q-9 -11 -18.5 -17.5t-22.5 -10.5t-32 -5.5 t-49 -1.5q-39 0 -60 3.5t-27 11z" />
<glyph unicode="&#x2dc;" horiz-adv-x="910" d="M241 1115q0 6 2 27.5t9.5 50.5t22.5 61t41 59.5t65 45t94 17.5q56 0 95 -17.5t69 -39t55.5 -39t54.5 -17.5q30 0 48.5 21.5t23.5 63.5q2 17 18 22.5t61 5.5q46 0 59.5 -6.5t13.5 -22.5q0 -6 -2 -27.5t-9.5 -50.5t-23 -61.5t-41.5 -59.5t-64.5 -44.5t-93.5 -17.5 q-58 0 -97 17.5t-68.5 39t-54.5 39t-55 17.5q-33 0 -49 -23.5t-22 -61.5q-2 -9 -5.5 -14.5t-12.5 -8.5t-24 -4t-40 -1q-45 0 -57.5 6.5t-12.5 22.5z" />
<glyph unicode="&#x2000;" horiz-adv-x="876" />
<glyph unicode="&#x2001;" horiz-adv-x="1753" />
<glyph unicode="&#x2002;" horiz-adv-x="876" />
<glyph unicode="&#x2003;" horiz-adv-x="1753" />
<glyph unicode="&#x2004;" horiz-adv-x="584" />
<glyph unicode="&#x2005;" horiz-adv-x="438" />
<glyph unicode="&#x2006;" horiz-adv-x="292" />
<glyph unicode="&#x2007;" horiz-adv-x="292" />
<glyph unicode="&#x2008;" horiz-adv-x="219" />
<glyph unicode="&#x2009;" horiz-adv-x="350" />
<glyph unicode="&#x200a;" horiz-adv-x="97" />
<glyph unicode="&#x2010;" horiz-adv-x="627" d="M59 445q0 13 3.5 39.5t11.5 53.5t22.5 47t36.5 20h416q19 0 26.5 -11.5t7.5 -32.5q0 -11 -4 -37.5t-13 -54.5t-23 -49t-35 -21h-416q-18 0 -25.5 10.5t-7.5 35.5z" />
<glyph unicode="&#x2011;" horiz-adv-x="627" d="M59 445q0 13 3.5 39.5t11.5 53.5t22.5 47t36.5 20h416q19 0 26.5 -11.5t7.5 -32.5q0 -11 -4 -37.5t-13 -54.5t-23 -49t-35 -21h-416q-18 0 -25.5 10.5t-7.5 35.5z" />
<glyph unicode="&#x2012;" horiz-adv-x="627" d="M59 445q0 13 3.5 39.5t11.5 53.5t22.5 47t36.5 20h416q19 0 26.5 -11.5t7.5 -32.5q0 -11 -4 -37.5t-13 -54.5t-23 -49t-35 -21h-416q-18 0 -25.5 10.5t-7.5 35.5z" />
<glyph unicode="&#x2013;" d="M1 510q0 12 3.5 38.5t12 53.5t23 48t36.5 21h947q16 0 24.5 -9.5t8.5 -32.5q0 -12 -3.5 -39t-12 -54.5t-23 -48.5t-35.5 -21h-947q-34 0 -34 44z" />
<glyph unicode="&#x2014;" horiz-adv-x="1854" d="M144 513q0 12 3.5 38.5t12.5 53t23.5 47t36.5 20.5h1498q33 0 33 -41q0 -12 -3.5 -39t-12 -55t-23 -49.5t-36.5 -21.5h-1497q-20 0 -27.5 11t-7.5 36z" />
<glyph unicode="&#x2018;" horiz-adv-x="528" d="M196 887q0 75 31 146t88 137l170 193q17 20 45 28.5t79 8.5q59 0 71.5 -12t-5.5 -40l-176 -276l-30 -148q-7 -35 -17.5 -55.5t-28 -31.5t-43 -14.5t-63.5 -3.5q-36 0 -59.5 3.5t-37 12t-19 21.5t-5.5 31z" />
<glyph unicode="&#x2019;" horiz-adv-x="528" d="M104 830q-13 11 5 40l176 276l30 148q7 34 17.5 55t28 32.5t43 15t63.5 3.5q36 0 59.5 -3.5t37.5 -12t19.5 -21.5t5.5 -32q0 -73 -31 -146t-88 -137l-171 -192q-18 -20 -46 -28.5t-78 -8.5q-58 0 -71 11z" />
<glyph unicode="&#x201a;" horiz-adv-x="528" d="M-119 -280q-12 12 6 40l176 276l30 148q7 34 18 55t28.5 32t43.5 14.5t64 3.5q36 0 60 -3.5t37.5 -12t19 -21.5t5.5 -31q0 -75 -30.5 -147.5t-88.5 -136.5l-172 -192q-18 -20 -46 -28.5t-79 -8.5q-60 0 -72 12z" />
<glyph unicode="&#x201c;" horiz-adv-x="891" d="M188 893q2 72 31.5 144t83.5 135l165 191q17 20 42.5 28.5t71.5 8.5q54 0 65 -12t-6 -40l-171 -272l-30 -146q-7 -34 -17 -54.5t-26.5 -31.5t-40.5 -14.5t-58 -3.5t-55.5 3.5t-33.5 11.5t-16.5 21t-4.5 31zM581 893q2 72 32 144t84 135l164 191q17 20 42.5 28.5t71.5 8.5 q54 0 65.5 -12t-5.5 -40l-172 -272l-30 -146q-7 -34 -17 -54.5t-26.5 -31.5t-40.5 -14.5t-58 -3.5t-55.5 3.5t-33.5 11.5t-16.5 21t-4.5 31z" />
<glyph unicode="&#x201d;" horiz-adv-x="891" d="M108.5 838q-11.5 12 6.5 40l172 272l30 146q7 34 17 54.5t26.5 31.5t40 14.5t58.5 3.5q33 0 54.5 -3.5t34 -12t17 -21.5t4.5 -31q-1 -72 -31 -143.5t-85 -134.5l-164 -191q-17 -20 -42.5 -28.5t-71.5 -8.5q-55 0 -66.5 12zM502.5 837.5q-11.5 11.5 6.5 40.5l172 272 l29 146q7 34 17 54.5t26.5 31.5t40 14.5t58.5 3.5q34 0 55.5 -3.5t34 -12t16.5 -21.5t4 -31q-2 -72 -32 -143t-84 -135l-163 -191q-17 -20 -43 -28.5t-72 -8.5q-54 0 -65.5 11.5z" />
<glyph unicode="&#x201e;" horiz-adv-x="891" d="M-113 -278q-12 11 6 40l171 273l30 146q7 34 17 54.5t26.5 31.5t40 14.5t58.5 3.5q34 0 55.5 -3.5t33.5 -12t16.5 -21.5t4.5 -31q-1 -72 -30.5 -144t-84.5 -135l-165 -190q-17 -20 -42.5 -28.5t-71.5 -8.5q-53 0 -65 11zM280 -277.5q-11 11.5 6 39.5l172 273l29 146 q7 34 17 54.5t26 31.5t40 14.5t59 3.5q34 0 55.5 -3.5t33.5 -12t16.5 -21.5t4.5 -31q-2 -72 -31 -144t-84 -135l-164 -190q-18 -20 -43.5 -28.5t-70.5 -8.5q-55 0 -66 11.5z" />
<glyph unicode="&#x2022;" d="M183 623q0 82 31 151.5t83 120.5t120 79.5t143 28.5t138 -27.5t108.5 -74.5t71.5 -109t26 -130q0 -81 -31 -151t-83 -121t-120.5 -80t-143.5 -29t-138 28t-108.5 75t-71 109t-25.5 130z" />
<glyph unicode="&#x2026;" horiz-adv-x="1456" d="M51 84q0 12 2 28t6 34t9.5 36.5t12.5 34.5t17 29.5t26.5 23t41 14.5t60.5 5q38 0 61.5 -6.5t37 -19t18 -30.5t4.5 -40t-7 -61t-22 -73q-7 -16 -16.5 -29t-26 -22.5t-41 -14.5t-61.5 -5q-35 0 -58.5 6t-37.5 18t-20 30t-6 42zM515 84q0 12 2 28t5.5 34t9 36.5t12.5 34.5 t17 29.5t26.5 23t41 14.5t60.5 5q38 0 62 -6.5t37 -19t17.5 -30.5t4.5 -40q0 -11 -1.5 -27t-5 -34t-9 -37.5t-12.5 -35.5t-17 -29t-26.5 -22.5t-41.5 -14.5t-61 -5q-35 0 -58.5 6t-37.5 18t-19.5 30t-5.5 42zM978 84q0 12 2 28t5.5 34t9 36.5t12.5 34.5t16.5 29.5t26 23 t41.5 14.5t62 5q38 0 61.5 -6.5t36.5 -19t17.5 -30.5t4.5 -40q0 -11 -1.5 -27t-5 -34t-9 -37.5t-12.5 -35.5t-17 -29t-26.5 -22.5t-41 -14.5t-61.5 -5q-35 0 -58.5 6t-37.5 18t-19.5 30t-5.5 42z" />
<glyph unicode="&#x202f;" horiz-adv-x="350" />
<glyph unicode="&#x2039;" horiz-adv-x="705" d="M101 530.5q3 21.5 21 44.5l282 347q7 9 16 15.5t22.5 10t33.5 5.5t49 2q75 0 92.5 -15t-1.5 -40l-279 -385l124 -373q4 -13 2.5 -23.5t-13 -17.5t-33.5 -11t-59 -4q-29 0 -46 2t-27.5 5.5t-15.5 10t-9 15.5l-151 365q-11 25 -8 46.5z" />
<glyph unicode="&#x203a;" horiz-adv-x="705" d="M110.5 100.5q-18.5 14.5 0.5 40.5l278 386l-122 372q-4 13 -2 23.5t13 17.5t33.5 11t59.5 4q29 0 46 -2t27 -6t14.5 -10t8.5 -15l151 -366q9 -22 9 -43.5t-21 -47.5l-282 -346q-7 -9 -16 -15.5t-22.5 -10t-33 -5.5t-48.5 -2q-75 0 -93.5 14.5z" />
<glyph unicode="&#x205f;" horiz-adv-x="438" />
<glyph unicode="&#x20ac;" horiz-adv-x="1038" d="M33 443q0 10 2.5 32t8 44t14.5 38.5t22 16.5h92q5 34 12.5 71.5t15.5 69.5h-91q-9 0 -13.5 6.5t-4.5 24.5q0 10 3.5 32.5t11 45.5t18.5 40.5t27 17.5h95q40 96 93 175.5t123.5 137t159.5 89t202 31.5q82 0 153 -19t120 -55q17 -13 22.5 -26t5.5 -32q0 -11 -3 -37.5 t-9.5 -53.5t-17.5 -48t-26 -21q-14 0 -33 13.5t-48 30t-69.5 30t-97.5 13.5q-111 0 -184.5 -61t-115.5 -167h271q12 0 17 -7.5t5 -27.5q0 -10 -2.5 -31.5t-9 -44t-16.5 -39.5t-25 -17h-297q-10 -32 -17.5 -69.5t-13.5 -71.5h300q22 0 22 -34q0 -10 -3.5 -32t-11 -44.5 t-19.5 -40t-29 -17.5h-275q0 -55 10 -96t34 -68t64 -40.5t100 -13.5q64 0 113.5 14t85.5 30.5t60.5 30.5t39.5 14q11 0 17 -8t6 -29q0 -22 -3.5 -47t-10.5 -49t-17 -44.5t-23 -33.5q-17 -17 -47.5 -32.5t-71.5 -27.5t-90.5 -19.5t-103.5 -7.5q-110 0 -190 29t-132.5 84 t-78 134t-25.5 180h-100q-11 0 -16 8.5t-5 28.5z" />
<glyph unicode="&#x2122;" horiz-adv-x="1475" d="M197 1163.5q-4 14.5 4 56.5q8 43 18.5 58.5t21.5 15.5h422q11 0 14.5 -15.5t-3.5 -58.5q-7 -42 -18.5 -56.5t-21.5 -14.5h-124l-84 -416q-2 -10 -20.5 -17t-70.5 -7t-69.5 7t-13.5 17l83 416h-122q-12 0 -16 14.5zM665 733l102 506q11 55 61 55h118q42 0 59 -22t23 -67 l38 -280l155 280q23 41 48.5 65t63.5 24h125q54 0 43 -55l-102 -506q-2 -10 -18 -17t-61 -7t-60 7t-11 17l83 416h-2l-221 -419q-6 -12 -26 -16.5t-58 -4.5q-37 0 -53 5t-18 16l-53 419h-2l-84 -416q-2 -10 -17.5 -17t-61.5 -7q-24 0 -38.5 2t-22 5t-9.5 7.5t-1 9.5z" />
<glyph unicode="&#x25fc;" horiz-adv-x="965" d="M0 0v965h965v-965h-965z" />
<glyph unicode="&#xfb01;" horiz-adv-x="1135" d="M-182 -308q0 9 3.5 34t10 51.5t16 46.5t22.5 20q6 0 12 -1t13 -2.5t16.5 -2.5t24.5 -1q32 0 55.5 9.5t40.5 29.5t29 51.5t21 76.5l151 752h-112q-12 0 -18.5 8.5t-6.5 32.5q0 15 3.5 42.5t11.5 54t21 46.5t32 20h110l19 97q33 171 122 258t245 87q54 0 94.5 -9.5 t50.5 -20.5q10 -10 10 -34q0 -9 -3.5 -34.5t-9.5 -51.5t-15.5 -46.5t-21.5 -20.5q-7 0 -14.5 2.5t-17.5 5t-23.5 5t-31.5 2.5q-30 0 -52.5 -8.5t-38.5 -28t-27.5 -50t-19.5 -74.5l-15 -79h505q76 0 63 -69l-171 -857q-2 -10 -9.5 -17.5t-23 -12.5t-40.5 -7.5t-62 -2.5 q-72 0 -96 10t-20 30l144 722h-331l-158 -784q-34 -166 -121.5 -251.5t-245.5 -85.5q-52 0 -87 8t-45 16q-9 10 -9 33zM888.5 1163q-1.5 25 5.5 63q7 36 18.5 61t31 41t48.5 23t71 7t68.5 -7t40 -23t14.5 -41t-6 -61q-8 -38 -19.5 -63t-30.5 -40.5t-48 -22t-72 -6.5 q-42 0 -68.5 6.5t-39 22t-14 40.5z" />
<glyph unicode="&#xfb02;" horiz-adv-x="1135" d="M-182 -308q0 9 3.5 34t10 51.5t16 46.5t22.5 20q6 0 12 -1t13 -2.5t16.5 -2.5t24.5 -1q32 0 55.5 9.5t40.5 29.5t29 51.5t21 76.5l151 752h-112q-12 0 -18.5 8.5t-6.5 32.5q0 15 3.5 42.5t11.5 54t21 46.5t32 20h110l19 98q16 85 48 149t82.5 107t122.5 64.5t170 21.5 q27 0 60 -2.5t63.5 -7t54 -10.5t31.5 -13q4 -5 6 -8t4 -9q2 9 9 16.5t22 13t39.5 9t62.5 3.5q36 0 59.5 -3t37 -8.5t18 -13.5t2.5 -18l-263 -1313q-5 -21 -34 -31.5t-92 -10.5q-77 0 -103 11t-22 31l231 1156q-7 -13 -24 -13q-14 0 -49 9.5t-102 9.5q-47 0 -79 -9t-53 -28.5 t-33.5 -50.5t-21.5 -74l-15 -76h148q26 0 26 -40q0 -15 -4 -42.5t-12.5 -54.5t-21 -47t-29.5 -20h-149l-157 -784q-33 -166 -121 -251.5t-246 -85.5q-52 0 -87 8t-45 16q-9 10 -9 33z" />
<glyph unicode="&#xfb03;" horiz-adv-x="1718" d="M-182 -308q0 9 3.5 34t10 51.5t16 46.5t22.5 20q6 0 12 -1t13 -2.5t16.5 -2.5t24.5 -1q32 0 55.5 9.5t40.5 29.5t29 51.5t21 76.5l151 752h-112q-12 0 -18.5 8.5t-6.5 32.5q0 15 3.5 42.5t11.5 54t21 46.5t32 20h110l17 86q34 169 124 256t247 87q26 0 51.5 -2.5t47 -7 t37 -10.5t21.5 -12q11 -10 11 -36q0 -9 -3 -34.5t-9 -51.5t-15.5 -46.5t-21.5 -20.5q-13 0 -37 9.5t-61 9.5q-32 0 -55.5 -9t-40.5 -28.5t-28.5 -50.5t-20.5 -74l-13 -65h332l19 97q33 170 121.5 257.5t246.5 87.5q53 0 94 -9.5t52 -20.5q9 -10 9 -34q0 -9 -3 -34t-9 -51.5 t-15 -46.5t-21 -20q-14 0 -34 7t-56 7q-30 0 -52.5 -9t-39 -28.5t-28 -50t-19.5 -73.5l-15 -79h506q38 0 54.5 -16.5t8.5 -52.5l-171 -857q-2 -10 -9.5 -17.5t-23 -12.5t-40.5 -7.5t-62 -2.5t-60.5 2.5t-36.5 7.5t-17 12.5t-2 17.5l144 722h-332l-152 -756 q-17 -86 -47.5 -151.5t-75.5 -110t-107 -67.5t-142 -23q-60 0 -100 8t-51 20q-10 9 -10 31q0 11 3 37t9.5 53t16.5 47.5t23 20.5q15 0 34.5 -7t53.5 -7q64 0 96.5 37.5t49.5 124.5l148 743h-332l-157 -784q-33 -166 -121 -251.5t-246 -85.5q-52 0 -87 8t-45 16q-9 10 -9 33z M1469.5 1163q-1.5 25 6.5 63q7 36 18.5 61t31 41t49 23t72.5 7q42 0 68 -7t39.5 -23t14.5 -41t-6 -61q-8 -38 -19.5 -63t-31 -40.5t-48.5 -22t-71 -6.5t-68.5 6.5t-40 22t-15 40.5z" />
<glyph unicode="&#xfb04;" horiz-adv-x="1718" d="M-182 -308q0 9 3.5 34t10 51.5t16 46.5t22.5 20q6 0 12 -1t13 -2.5t16.5 -2.5t24.5 -1q32 0 55.5 9t40.5 29t29 52t21 77l151 752h-112q-12 0 -18.5 8.5t-6.5 32.5q0 15 3.5 42.5t11.5 54t21 46.5t32 20h110l17 86q34 169 124 256t247 87q26 0 51.5 -2.5t47 -7t37 -10.5 t21.5 -12q11 -10 11 -36q0 -9 -3 -34.5t-9 -51.5t-15.5 -46.5t-21.5 -20.5q-13 0 -37 9.5t-61 9.5q-32 0 -55.5 -9t-40.5 -28.5t-28.5 -50.5t-20.5 -74l-13 -65h332l19 98q16 85 46.5 149.5t81 107.5t123 65t173.5 22q27 0 60 -2.5t63.5 -7t54 -10.5t30.5 -13q8 -8 9 -19 q2 9 9 16.5t22.5 13t40.5 9t62 3.5q36 0 59.5 -3t36.5 -8.5t17.5 -13.5t2.5 -18l-262 -1315q-5 -21 -34.5 -30.5t-92.5 -9.5q-39 0 -64 2.5t-39 7.5t-18.5 12.5t-2.5 17.5l232 1161q-7 -13 -24 -13q-8 0 -20 3t-30 6t-43 6t-59 3q-47 0 -79.5 -9t-53.5 -28t-34 -50t-21 -74 l-15 -79h149q26 0 26 -40q0 -15 -4 -42.5t-12.5 -54.5t-21 -47t-28.5 -20h-150l-151 -756q-17 -86 -47.5 -151.5t-75.5 -110t-107 -67.5t-142 -23q-60 0 -100 8t-51 20q-10 9 -10 31q0 11 3 37t9.5 53t16 47.5t23.5 20.5q15 0 34.5 -7t53.5 -7q64 0 96.5 37.5t49.5 124.5 l147 743h-332l-157 -784q-33 -166 -121 -251.5t-246 -85.5q-52 0 -87 8t-45 16q-9 10 -9 33z" />
</font>
</defs>
</svg>
