<?xml version="1.0" standalone="no"?>
<!DOCTYPE svg PUBLIC "-//W3C//DTD SVG 1.1//EN" "http://www.w3.org/Graphics/SVG/1.1/DTD/svg11.dtd" >
<svg xmlns="http://www.w3.org/2000/svg">
<metadata></metadata>
<defs>
<font id="calibribold" horiz-adv-x="1020" >
<font-face units-per-em="2048" ascent="1536" descent="-512" />
<missing-glyph horiz-adv-x="463" />
<glyph horiz-adv-x="0" />
<glyph unicode="&#xd;" horiz-adv-x="463" />
<glyph horiz-adv-x="0" />
<glyph horiz-adv-x="0" />
<glyph unicode="&#x9;" horiz-adv-x="463" />
<glyph unicode=" "  horiz-adv-x="463" />
<glyph unicode="&#x09;" horiz-adv-x="463" />
<glyph unicode="&#xa0;" horiz-adv-x="463" />
<glyph unicode="!" horiz-adv-x="667" d="M230 131q0 42 6.5 70.5t22.5 46t43.5 25t68.5 7.5t68 -7.5t43.5 -25t23 -46t6.5 -70.5q0 -41 -6.5 -69t-23 -45t-43.5 -24.5t-68 -7.5t-68.5 7.5t-43.5 24.5t-22.5 45t-6.5 69zM235 1332q0 13 6 23t21.5 16.5t41.5 9.5t67 3q79 0 108 -13.5t28 -38.5l-26 -908 q0 -10 -5.5 -18t-18 -13.5t-33.5 -8.5t-53 -3t-53 3t-33.5 8.5t-18 13.5t-5.5 18z" />
<glyph unicode="&#x22;" horiz-adv-x="898" d="M122 1357q-1 21 25 31.5t89 10.5q65 0 90 -10.5t24 -31.5l-24 -447q-1 -20 -19.5 -31t-70.5 -11q-54 0 -72 11t-19 31zM502 1357q-2 21 24.5 31.5t90.5 10.5q65 0 89.5 -10.5t23.5 -31.5l-23 -447q-1 -20 -20 -31t-70 -11q-53 0 -71.5 11t-19.5 31z" />
<glyph unicode="#" d="M28 428q0 49 11 68t28 19h116l34 285h-101q-17 0 -27.5 18.5t-10.5 66.5t11 67t28 19h120l36 292q0 9 5 15.5t17 11.5t32 7.5t51 2.5q32 0 50.5 -2.5t28.5 -7.5t12.5 -11.5t2.5 -14.5l-37 -293h224l34 292q1 8 6 15t16.5 12t31.5 7.5t52 2.5q31 0 50 -2.5t29 -7.5 t12.5 -11.5t1.5 -14.5l-35 -293h96q17 0 27.5 -19.5t10.5 -65.5q0 -48 -11 -67t-28 -19h-114l-34 -285h98q17 0 27.5 -19.5t10.5 -65.5q0 -49 -11 -68t-28 -19h-119l-37 -313q-1 -9 -6 -16t-16 -11.5t-30.5 -6.5t-49.5 -2q-32 0 -51.5 2t-30 6.5t-13.5 11.5t-2 16l38 313 h-224l-37 -313q-1 -9 -5.5 -15.5t-15.5 -11t-30.5 -7t-51.5 -2.5q-30 0 -49.5 2t-30 6.5t-14 11.5t-1.5 16l36 313h-95q-17 0 -27.5 18.5t-10.5 66.5zM381 515h223l35 285h-224z" />
<glyph unicode="$" horiz-adv-x="1038" d="M82 187q0 34 2 56t7 34t12 16.5t18 4.5q13 0 38 -15t64 -33t94.5 -33t130.5 -15q118 0 174.5 43.5t56.5 115.5q0 47 -25 78.5t-65.5 55t-92 42t-105.5 40t-106 49t-92.5 68.5t-65 99.5t-24.5 141.5q0 75 25 136.5t72 107t115.5 74.5t155.5 39l20 201q1 7 4.5 13t13 10.5 t25.5 6.5t42 2q33 0 52.5 -3t30 -9t14 -14.5t3.5 -19.5l-20 -189q28 -4 58.5 -11.5t58.5 -16.5t49 -19t30 -20q16 -15 20.5 -38t4.5 -70q0 -32 -2 -51.5t-5.5 -30t-8.5 -14t-12 -3.5q-13 0 -38 13t-61.5 28t-84 28t-104.5 13q-104 0 -149 -38t-45 -98q0 -47 25 -78.5t66 -55 t93.5 -42.5t107.5 -40t107.5 -48.5t93.5 -68t66 -98t25 -138.5q0 -86 -30.5 -155t-86.5 -119t-135 -80t-175 -38l-21 -214q-1 -8 -4.5 -14t-13 -10t-26 -6.5t-41.5 -2.5q-62 0 -82.5 11.5t-15.5 34.5l21 203q-65 9 -117 25t-87 35q-16 9 -26.5 16.5t-17 20.5t-9 33.5 t-2.5 53.5z" />
<glyph unicode="%" horiz-adv-x="1493" d="M57 968q0 75 17 137.5t53.5 108.5t94 71.5t138.5 25.5q89 0 146.5 -27t90.5 -73t46 -107t13 -128q0 -78 -17.5 -142t-54.5 -109.5t-94.5 -70t-137.5 -24.5q-86 0 -142.5 25t-90.5 69.5t-48 106.5t-14 137zM177.5 -18.5q-15.5 15.5 5.5 44.5l922 1263q9 12 18.5 19.5 t23 12.5t33.5 7t50 2q66 0 80.5 -16t-5.5 -44l-922 -1263q-9 -12 -18.5 -19.5t-23.5 -12.5t-34 -7t-49 -2q-65 0 -80.5 15.5zM255 974q0 -62 7 -101.5t20 -62t32 -31t44 -8.5q57 0 78.5 47t21.5 151q0 110 -24 156t-79 46q-51 0 -75.5 -44.5t-24.5 -152.5zM837 321 q0 75 17 137.5t53.5 108.5t94 71.5t138.5 25.5q89 0 146.5 -27t90.5 -73t46 -107t13 -128q0 -78 -17.5 -142t-54.5 -109.5t-94.5 -70t-137.5 -24.5q-86 0 -142.5 25t-90.5 69.5t-48 106.5t-14 137zM1035 327q0 -62 7 -101.5t20 -62t32 -31t44 -8.5q57 0 78.5 47t21.5 151 q0 110 -24 156t-79 46q-51 0 -75.5 -44.5t-24.5 -152.5z" />
<glyph unicode="&#x26;" horiz-adv-x="1443" d="M82 361q0 113 65.5 199t194.5 162q-72 93 -106.5 164t-34.5 137q0 70 25 131.5t78 107t135 71.5t197 26q105 0 181 -19.5t125.5 -56.5t73 -90.5t23.5 -120.5q0 -60 -20.5 -111t-62 -97t-103.5 -88.5t-145 -85.5q27 -31 60 -65.5t68.5 -69.5t72 -68.5t70.5 -62.5 q13 20 23.5 46t18 55t12 59t4.5 59v31q0 11 4 19t16.5 13t35.5 7.5t61 2.5q35 0 58 -1.5t36.5 -6.5t19 -13.5t5.5 -21.5v-32q0 -99 -28 -192.5t-77 -168.5q35 -27 60.5 -45t43.5 -28.5t30 -14.5t20 -4h21t15 -7t9 -25t3 -53q0 -37 -2 -58t-5 -31q-5 -13 -24 -23.5t-64 -10.5 q-21 0 -45 5.5t-55 20.5t-72 41t-95 66q-95 -65 -201 -100t-237 -35q-99 0 -187.5 22.5t-155 69.5t-106 119.5t-39.5 171.5zM354 375q0 -43 15.5 -79t46 -62t75 -40.5t102.5 -14.5q60 0 117.5 20.5t101.5 52.5q-45 36 -90.5 76t-89 81.5t-82.5 82t-70 76.5 q-69 -44 -97.5 -93t-28.5 -100zM466 1036q0 -43 26.5 -90.5t74.5 -111.5q59 32 98.5 59t63.5 52.5t34 50.5t10 53q0 48 -37 81.5t-113 33.5q-83 0 -120 -36.5t-37 -91.5z" />
<glyph unicode="'" horiz-adv-x="478" d="M122 1357q-1 21 26.5 31.5t90.5 10.5q65 0 91 -10t25 -32l-23 -447q-1 -22 -21.5 -32t-71.5 -10q-54 0 -73.5 11t-20.5 31z" />
<glyph unicode="(" horiz-adv-x="638" d="M107 538q0 225 53.5 438.5t159.5 424.5q2 5 7.5 9t18 7t33 5t52.5 2q73 0 94 -14.5t10 -41.5q-84 -197 -127 -402.5t-43 -425.5t44 -425.5t125 -404.5q6 -16 6 -27.5t-10.5 -19.5t-33.5 -12t-63 -4q-57 0 -81.5 7.5t-31.5 21.5q-107 209 -160 423t-53 439z" />
<glyph unicode=")" horiz-adv-x="638" d="M97 -317q0 12 6 27q83 198 126.5 404t43.5 426t-43.5 425.5t-127.5 402.5q-6 13 -4 23.5t14 18t35 11t60 3.5q31 0 51 -2t32.5 -5t18.5 -7t9 -9q104 -210 158 -424.5t54 -438.5q0 -226 -52 -439t-160 -423q-7 -14 -31.5 -21.5t-81.5 -7.5q-40 0 -63.5 4t-34 12t-10.5 20z " />
<glyph unicode="*" d="M135 907.5q-1 23.5 18 31.5l238 92l-238 92q-19 8 -18 31t30 74q29 50 48.5 62.5t36.5 -0.5l199 -159l-40 251q-5 20 17 31.5t80 11.5t80 -11.5t17 -31.5l-40 -251l199 159q17 14 36 1t49 -64q29 -49 30.5 -72.5t-18.5 -31.5l-237 -92l237 -92q20 -8 18.5 -31t-30.5 -74 q-29 -50 -49 -62.5t-36 0.5l-199 159l40 -251q4 -22 -17.5 -32.5t-79.5 -10.5t-79.5 10.5t-17.5 32.5l40 251l-199 -159q-16 -12 -35.5 0.5t-49.5 62.5q-29 49 -30 72.5z" />
<glyph unicode="+" d="M52 575q0 56 11.5 77.5t28.5 21.5h313v338q0 21 22.5 32.5t82.5 11.5t82 -11.5t22 -32.5v-338h314q17 0 28.5 -21.5t11.5 -77.5t-12 -77.5t-31 -21.5h-311v-339q0 -20 -22 -31t-82 -11q-59 0 -82 11t-23 31v339h-310q-17 0 -30 21.5t-13 77.5z" />
<glyph unicode="," horiz-adv-x="528" d="M23.5 -269q-0.5 8 4.5 19l122 276v158q0 34 8 55t25 32t43 14.5t63 3.5q35 0 60 -3.5t41.5 -14.5t24 -32t7.5 -55q0 -39 -4 -71.5t-13 -62t-23.5 -57t-34.5 -56.5l-134 -192q-7 -10 -15 -17t-20.5 -11.5t-30 -6.5t-42.5 -2q-29 0 -46.5 2.5t-26 7.5t-9 13z" />
<glyph unicode="-" horiz-adv-x="627" d="M59 503q0 57 11 79.5t36 22.5h416q24 0 35 -22t11 -80t-11 -81t-35 -23h-416q-25 0 -36 23.5t-11 80.5z" />
<glyph unicode="." horiz-adv-x="547" d="M125 138q0 94 32 126q34 32 118 32q83 0 115 -32t32 -120q0 -94 -33 -125q-32 -32 -116 -32q-85 0 -116 31q-32 32 -32 120z" />
<glyph unicode="/" horiz-adv-x="880" d="M4 -266.5q-2 12.5 4 29.5l598 1679q4 12 12 21t22.5 14t36.5 7.5t54 2.5q42 0 68 -4t39 -12.5t15 -21t-4 -28.5l-597 -1680q-5 -12 -13 -20.5t-22.5 -14t-36.5 -7.5t-54 -2q-41 0 -67 4t-39.5 12t-15.5 20.5z" />
<glyph unicode="0" horiz-adv-x="1038" d="M57 642q0 155 25.5 280t82 212.5t147 135t220.5 47.5q134 0 221 -45.5t138 -131t71 -209t20 -279.5q0 -155 -25 -280t-81.5 -213t-147 -135t-221.5 -47q-133 0 -220 45.5t-138 131t-71.5 209t-20.5 279.5zM322 655q0 -138 11 -228.5t34.5 -144t60.5 -75t89 -21.5 q59 0 97.5 28t61.5 84.5t32 141.5t9 199q0 138 -11.5 228.5t-35.5 144.5t-61 75.5t-88 21.5q-59 0 -97.5 -28.5t-61 -85.5t-31.5 -142t-9 -198z" />
<glyph unicode="1" horiz-adv-x="1038" d="M148 1011q0 24 1 39.5t5 26t11 18t19 15.5l278 180q5 4 12 6.5t19.5 4t32.5 2t50 0.5q38 0 61 -1.5t35.5 -5t16.5 -9.5t4 -15v-1069h211q19 0 29.5 -23t10.5 -80t-11.5 -78.5t-28.5 -21.5h-714q-16 0 -27.5 21.5t-11.5 78.5t10.5 80t28.5 23h241v842l-208 -115 q-44 -25 -59.5 -9t-15.5 90z" />
<glyph unicode="2" horiz-adv-x="1038" d="M88 110q0 33 3 56.5t11 42t20.5 36t32.5 38.5l224 240q66 70 107.5 127.5t64.5 105.5t31.5 88t8.5 75q0 33 -10.5 62.5t-31 51.5t-51.5 34.5t-73 12.5q-59 0 -104.5 -15.5t-80 -33.5t-57.5 -33.5t-36 -15.5q-17 0 -26 26t-9 95q0 23 1 38.5t4 27t9 21t17 19.5 q13 12 46.5 30.5t82 36t108 29.5t123.5 12q101 0 176.5 -25.5t125.5 -71t74.5 -107.5t24.5 -135q0 -63 -13 -123.5t-51 -130t-107 -155.5t-181 -201l-151 -155h510q21 0 33 -24.5t12 -81.5q0 -59 -10 -83t-31 -24h-744q-23 0 -38.5 4t-25.5 16t-14.5 33.5t-4.5 56.5z" />
<glyph unicode="3" horiz-adv-x="1038" d="M85 187q0 48 8 66.5t24 18.5q10 0 34.5 -13.5t62.5 -29t89 -29t116 -13.5q110 0 168.5 49.5t58.5 131.5q0 89 -69.5 142.5t-210.5 53.5h-112q-13 0 -22 3.5t-15 14.5t-8.5 30t-2.5 51q0 29 2.5 47t8 28.5t14 14.5t20.5 4h113q117 0 179 51.5t62 139.5q0 33 -10.5 62.5 t-32.5 51t-56 34t-80 12.5q-52 0 -98 -15.5t-82.5 -34.5t-62 -34.5t-37.5 -15.5q-8 0 -14 3.5t-10 13.5t-6 29t-2 49q0 25 1 41t4 27.5t8 19.5t14 17q11 10 42 28.5t77.5 36.5t108 31t133.5 13q189 0 289 -85t100 -239q0 -119 -58.5 -201t-173.5 -110v-3q68 -8 122 -34.5 t91.5 -66t57.5 -91t20 -108.5q0 -97 -37 -172t-103 -126t-158 -77.5t-201 -26.5q-67 0 -124.5 10t-102 24t-73 28t-38.5 23q-17 15 -22.5 41.5t-5.5 83.5z" />
<glyph unicode="4" horiz-adv-x="1038" d="M36 386q0 32 1 55.5t5 43t10 36t17 35.5l402 709q5 9 17 15.5t33.5 11t54.5 6.5t80 2q103 0 144.5 -10.5t41.5 -32.5v-779h115q16 0 27.5 -24.5t11.5 -81.5q0 -51 -10.5 -77.5t-28.5 -26.5h-115v-234q0 -20 -27 -30t-101 -10q-37 0 -61 2.5t-38.5 7.5t-20 12.5t-5.5 17.5 v234h-495q-14 0 -25 3.5t-18.5 16t-11 36t-3.5 62.5zM246 478h343v595h-2z" />
<glyph unicode="5" horiz-adv-x="1038" d="M96 160q0 57 8.5 79t24.5 22q10 0 30.5 -11.5t54 -25.5t82 -25.5t114.5 -11.5q58 0 105.5 12.5t80.5 38.5t51 66t18 96q0 48 -15 85.5t-47 63t-83 39t-124 13.5q-58 0 -105.5 -6t-89.5 -6q-29 0 -41.5 14.5t-12.5 53.5v562q0 40 15.5 57.5t49.5 17.5h613q20 0 30.5 -25 t10.5 -86q0 -60 -10.5 -87t-30.5 -27h-460v-277q35 4 69.5 5t72.5 1q211 0 324 -96t113 -282q0 -105 -36.5 -187.5t-103 -139t-160 -86.5t-207.5 -30q-60 0 -114 8t-96.5 19t-70.5 22.5t-37 18.5q-8 7 -12.5 16.5t-6.5 22.5t-3 31.5t-1 44.5z" />
<glyph unicode="6" horiz-adv-x="1038" d="M84 596q0 76 7.5 159t29.5 163t60 152.5t100 127t149.5 86.5t207.5 32q38 0 76.5 -4.5t71 -12t55.5 -16t31 -15.5q15 -11 19 -31t4 -58q0 -62 -7 -83.5t-28 -21.5q-12 0 -31 6.5t-46 14t-63.5 14t-84.5 6.5q-81 0 -137 -30t-91 -81.5t-51 -119.5t-17 -144q45 29 112 52 t156 23q98 0 168 -27t114.5 -77t65.5 -121t21 -158q0 -98 -30 -181.5t-88 -144t-143 -95t-196 -34.5q-135 0 -220 45.5t-133 127.5t-65 195.5t-17 250.5zM344 548q0 -107 12 -178t35.5 -113.5t59 -60t82.5 -17.5q46 0 80.5 17.5t57.5 48t35 72t12 90.5q0 101 -38.5 154.5 t-132.5 53.5q-56 0 -108 -19t-95 -48z" />
<glyph unicode="7" horiz-adv-x="1038" d="M81 1181q0 61 11 87t31 26h769q18 0 30 -3.5t19.5 -15.5t10.5 -34t3 -58q0 -29 -2 -50.5t-5.5 -40t-9.5 -35t-14 -35.5l-426 -987q-6 -13 -15.5 -21t-26.5 -12.5t-43.5 -6t-65.5 -1.5q-53 0 -84 3.5t-45.5 11t-15.5 19t7 28.5l458 1010h-544q-21 0 -31.5 27.5t-10.5 87.5 z" />
<glyph unicode="8" horiz-adv-x="1038" d="M61 312q0 112 65 193.5t193 147.5q-51 28 -92 60.5t-69.5 71t-44 84.5t-15.5 100q0 78 27.5 142t82 109.5t136.5 71t190 25.5q106 0 183 -23t126 -65t72.5 -100.5t23.5 -129.5q0 -94 -58.5 -176t-162.5 -140q61 -32 109 -68t81 -77t50.5 -88.5t17.5 -102.5 q0 -178 -119.5 -274t-351.5 -96q-221 0 -332.5 86t-111.5 249zM320 331q0 -78 50.5 -119t150.5 -41q99 0 147 41.5t48 116.5q0 37 -13 67.5t-39 57.5t-65.5 52t-93.5 51q-92 -50 -138.5 -102.5t-46.5 -123.5zM351 980q0 -33 10.5 -59.5t32.5 -50.5t57 -47t83 -49 q73 43 112.5 92t39.5 109q0 71 -41.5 110.5t-127.5 39.5q-85 0 -125.5 -38t-40.5 -107z" />
<glyph unicode="9" horiz-adv-x="1038" d="M66 872q0 97 29 178.5t86 141t142 92.5t197 33q135 0 220.5 -47t134 -129t66.5 -193.5t18 -241.5q0 -79 -8 -163.5t-30.5 -165.5t-61.5 -154t-102 -127.5t-152.5 -86.5t-211.5 -32q-32 0 -64.5 3.5t-61.5 9.5t-54 13t-43 14q-17 7 -28 14.5t-17 19t-8.5 29t-2.5 44.5 q0 33 2 53t6 31t10.5 14.5t15.5 3.5q12 0 34 -7t53.5 -16t71.5 -16t89 -7q84 0 142 30t94 81t53 118t19 141q-46 -29 -110.5 -50.5t-149.5 -21.5q-103 0 -175 27t-117 78t-65.5 124t-20.5 165zM324 891q0 -108 39.5 -160.5t133.5 -52.5q58 0 109.5 17.5t91.5 46.5 q0 107 -12 179t-36 115t-60 61t-84 18q-47 0 -81 -16.5t-56.5 -46.5t-33.5 -71t-11 -90z" />
<glyph unicode=":" horiz-adv-x="565" d="M160 137q0 43 6.5 72t22.5 47t43 25.5t68 7.5q40 0 67.5 -7.5t44 -25.5t23.5 -47t7 -72q0 -42 -7 -70.5t-23.5 -46.5t-44 -25.5t-67.5 -7.5q-41 0 -68 7.5t-43 25.5t-22.5 46.5t-6.5 70.5zM160 790q0 43 6.5 72t22.5 47t43 26t68 8q40 0 67.5 -8t44 -26t23.5 -47t7 -72 q0 -42 -7 -70.5t-23.5 -46t-44 -25t-67.5 -7.5q-41 0 -68 7.5t-43 25t-22.5 46t-6.5 70.5z" />
<glyph unicode=";" horiz-adv-x="565" d="M54.5 -265q-0.5 8 4.5 19l117 272v158q0 34 8 55t24.5 32t42.5 14.5t61 3.5q34 0 58.5 -3.5t40.5 -14.5t23.5 -32t7.5 -55q0 -40 -4 -72.5t-12.5 -61.5t-22.5 -56.5t-34 -56.5l-130 -188q-7 -10 -15.5 -17t-20.5 -11.5t-29 -6.5t-41 -2q-28 0 -44.5 2.5t-25 7.5t-9 13z M160 790q0 43 6.5 72t22.5 47t43 26t68 8q40 0 67.5 -8t44 -26t23.5 -47t7 -72q0 -42 -7 -70.5t-23.5 -46t-44 -25t-67.5 -7.5q-41 0 -68 7.5t-43 25t-22.5 46t-6.5 70.5z" />
<glyph unicode="&#x3c;" d="M68 578q0 54 6.5 77.5t21.5 31.5l766 380q29 14 41 -5.5t12 -79.5q0 -41 -1.5 -65.5t-5.5 -38t-11 -19.5t-19 -12l-576 -270l565 -262q15 -7 24.5 -14t14.5 -21.5t7 -39t2 -66.5q0 -37 -3 -58t-9.5 -30t-16.5 -8t-24 8l-767 382q-15 8 -21 33.5t-6 76.5z" />
<glyph unicode="=" d="M83 375q0 51 10.5 73.5t33.5 22.5h763q23 0 33.5 -22.5t10.5 -73.5q0 -54 -11.5 -75t-32.5 -21h-763q-21 0 -32.5 21t-11.5 75zM83 779q0 51 10.5 73t33.5 22h763q23 0 33.5 -22t10.5 -73q0 -54 -11.5 -75.5t-32.5 -21.5h-763q-21 0 -32.5 21.5t-11.5 75.5z" />
<glyph unicode="&#x3e;" d="M102 171q0 40 1.5 64.5t5.5 38.5t11.5 20.5t18.5 11.5l576 270l-565 262q-16 7 -25.5 14.5t-14.5 21.5t-6.5 38.5t-1.5 66.5q0 37 3 58t9 30t16 8t24 -8l768 -383q13 -6 20.5 -32t7.5 -77q0 -52 -7.5 -76.5t-21.5 -31.5l-767 -380q-29 -14 -40.5 5t-11.5 79z" />
<glyph unicode="?" horiz-adv-x="949" d="M115 1231q0 27 1 41.5t5.5 24t15.5 16.5t32 18q41 20 108.5 36.5t145.5 16.5q118 0 202 -32.5t137.5 -87t78.5 -126.5t25 -150q0 -82 -23.5 -148t-66 -114t-102 -77t-131.5 -37l-8 -195q-2 -36 -108 -36q-67 0 -91.5 7t-25.5 29l-9 236q-2 63 17.5 84t64.5 21h14 q53 0 91.5 16.5t63 45t36.5 66.5t12 81q0 48 -13.5 88t-41 68.5t-69 44.5t-97.5 16q-51 0 -90 -10t-67 -22t-46.5 -22t-28.5 -10q-7 0 -13 4.5t-10.5 16.5t-7 33.5t-1.5 56.5zM287 131q0 42 6.5 70.5t23 46t43.5 25t69 7.5q41 0 68 -7.5t43.5 -25t23 -46t6.5 -70.5 q0 -41 -6.5 -69t-23 -45t-43.5 -24.5t-68 -7.5q-42 0 -69 7.5t-43.5 24.5t-23 45t-6.5 69z" />
<glyph unicode="@" horiz-adv-x="1840" d="M120 379q0 109 20.5 223t65 221t115.5 201.5t171 164.5t231 111t297 41q183 0 313.5 -41t214.5 -116t123.5 -180.5t39.5 -234.5q0 -73 -10.5 -147.5t-32.5 -143t-57 -128.5t-84.5 -104t-114.5 -69.5t-147 -25.5q-100 0 -159 37.5t-79 109.5q-78 -80 -150.5 -113.5 t-145.5 -33.5q-71 0 -117 24.5t-73 65t-37.5 91.5t-10.5 105q0 47 7.5 105.5t25 118.5t46.5 116.5t71.5 101t100.5 71.5t133 27q34 0 63 -7t56 -22t52.5 -39.5t53.5 -58.5l17 77q4 18 24.5 27t72.5 9q53 0 71 -9.5t15 -26.5l-86 -447q-14 -75 4.5 -109t72.5 -34 q36 0 64.5 19t50 51.5t36.5 75t24.5 89t14 94.5t4.5 91q0 80 -22 151.5t-77.5 125.5t-150.5 86t-240 32q-131 0 -230.5 -34t-172 -91t-121.5 -132.5t-78 -159.5t-41.5 -171t-12.5 -166q0 -109 24 -195t83 -146t157 -91.5t247 -31.5q77 0 140.5 8.5t111 19t77.5 19.5t41 9 q14 0 20 -17.5t6 -69.5q0 -43 -4.5 -62.5t-16.5 -30.5q-6 -6 -38 -16.5t-84 -21.5t-122.5 -19t-154.5 -8q-190 0 -324 44t-219.5 126t-125 199.5t-39.5 264.5zM715 467q0 -60 22 -95t74 -35q20 0 40 6.5t42.5 21.5t48 38t56.5 56l41 221q-30 55 -62 83t-74 28 q-35 0 -62.5 -16.5t-48.5 -44t-35.5 -62t-24 -70.5t-13.5 -70.5t-4 -60.5z" />
<glyph unicode="A" horiz-adv-x="1241" d="M26 44q4 21 15 56l399 1148q6 17 14 27.5t25.5 16t48.5 7t82 1.5q59 0 93.5 -1.5t54 -7t28 -16.5t15.5 -30l400 -1147q13 -36 16 -57q1 -4 1 -8q0 -15 -10 -23q-12 -10 -39.5 -13t-76.5 -3q-50 0 -79 1.5t-44 6t-21 12.5t-10 21l-87 260h-486l-82 -253q-5 -14 -11 -23.5 t-21 -15t-41 -7.5t-69 -2q-46 0 -72 4q-27 3 -37 14q-8 8 -7 22q0 5 1 10zM423 497h367l-183 550h-1z" />
<glyph unicode="B" horiz-adv-x="1148" d="M141 83v1128q0 45 22.5 64t55.5 19h325q120 0 201.5 -20t138.5 -61t87 -102t30 -146q0 -94 -46.5 -164t-133.5 -102q54 -10 101 -35t81.5 -64.5t54.5 -92.5t20 -119q0 -104 -41 -177.5t-111 -120.5t-159 -68.5t-204 -21.5h-344q-33 0 -55.5 19t-22.5 64zM399 201h190 q55 0 92.5 11.5t64.5 33.5q28 23 43.5 56.5t15.5 76.5q0 92 -59 140q-29 24 -74 37t-117 13h-156v-368zM399 761h147q57 0 91 13.5t56 36.5q23 24 34 55.5t11 66.5q0 80 -48 121q-24 21 -60.5 32t-97.5 11h-133v-336z" />
<glyph unicode="C" horiz-adv-x="1084" d="M79 630q0 165 44 293t123 215t189.5 132t243.5 45q54 0 104 -9.5t92 -23.5q43 -15 77 -33.5t47 -32.5q14 -13 19 -22t8 -23t4.5 -33t1.5 -47q0 -60 -9 -85t-28 -25q-15 0 -38 17.5t-59 39t-87 39t-121 17.5q-77 0 -137.5 -31.5t-102.5 -90t-64.5 -142t-22.5 -186.5 q0 -114 23.5 -197.5t67 -137.5t105 -80.5t138.5 -26.5q69 0 120.5 16.5t88 36t59.5 36t37 16.5q9 0 15.5 -4t10.5 -16t6 -33.5t2 -57.5q0 -26 -1 -43t-4 -30t-9 -22.5t-16 -19.5q-12 -12 -42.5 -29.5t-76.5 -33.5t-104.5 -27.5t-126.5 -11.5q-134 0 -240.5 41t-181.5 122.5 t-115 203.5t-40 284z" />
<glyph unicode="D" horiz-adv-x="1291" d="M141 83v1128q0 45 22.5 64t55.5 19h332q87 0 159.5 -10.5t133.5 -30.5t111.5 -50t91.5 -70q83 -80 126 -196t43 -271q0 -179 -46 -304.5t-134 -206.5t-211.5 -118t-296.5 -37h-309q-33 0 -55.5 19t-22.5 64zM403 208h137q106 0 182 28t125 84.5t72.5 140.5t24.5 196v8 q0 87 -21 163q-22 78 -70 137q-24 29 -53.5 52t-68 38.5t-87 24t-108.5 8.5h-133v-880z" />
<glyph unicode="E" horiz-adv-x="999" d="M141 83v1128q0 45 22.5 64t55.5 19h646q18 0 28 -22.5t10 -81.5q0 -57 -10 -79.5t-28 -22.5h-462v-316h391q19 0 29 -22t10 -79t-10 -78.5t-29 -21.5h-391v-365h466q19 0 29 -23t10 -80t-10 -80t-29 -23h-650q-33 0 -55.5 19t-22.5 64z" />
<glyph unicode="F" horiz-adv-x="940" d="M141 38v1173q0 45 22.5 64t55.5 19h609q18 0 28.5 -23.5t10.5 -84.5q0 -60 -10.5 -83.5t-28.5 -23.5h-423v-348h397q18 0 28.5 -22t10.5 -82t-10.5 -83.5t-28.5 -23.5h-397v-482q0 -11 -6 -19t-21 -13.5t-40.5 -8.5t-64.5 -3q-76 0 -104 11.5t-28 32.5z" />
<glyph unicode="G" horiz-adv-x="1305" d="M73 633q0 159 48 285.5t136 215t212.5 135.5t277.5 47q126 0 218 -23t141 -52q25 -15 39.5 -25.5t21.5 -24.5t9 -36.5t3 -61.5v-18q0 -46 -9 -65q-10 -23 -27 -23q-13 0 -42 18t-77 39t-114.5 39t-154.5 18q-94 0 -170 -32.5t-130 -92t-83 -143t-29 -184.5 q0 -111 29.5 -195.5t82.5 -141.5t127.5 -86t164.5 -29q45 0 87.5 10t79.5 30v300h-245q-18 0 -28 22.5t-10 76.5q0 56 10 78t28 22h437q32 0 51 -22t19 -62v-515q0 -24 -6.5 -41t-22.5 -30t-41.5 -23.5t-63.5 -20.5q-72 -20 -151 -32t-158 -12q-155 0 -277.5 44.5 t-207.5 129t-130 206t-45 275.5z" />
<glyph unicode="H" horiz-adv-x="1292" d="M141 36v1222q0 20 28 31t104 11q39 0 64 -3t40 -8t21 -13t6 -18v-475h484v475q0 10 6 18t21 13t40.5 8t64.5 3q75 0 103 -11t28 -31v-1222q0 -20 -28 -31t-103 -11q-39 0 -64.5 3t-40.5 8t-21 13t-6 18v523h-484v-523q0 -10 -6 -18t-21 -13t-40 -8t-64 -3q-76 0 -104 11 t-28 31z" />
<glyph unicode="I" horiz-adv-x="546" d="M141 36v1222q0 20 28.5 31t103.5 11q38 0 63.5 -3t40.5 -8t21.5 -13t6.5 -18v-1222q0 -10 -6.5 -18t-21.5 -13t-40.5 -8t-63.5 -3q-76 0 -104 11t-28 31z" />
<glyph unicode="J" horiz-adv-x="678" d="M3 129q0 35 1.5 58t5 36.5t10 19t16.5 5.5t21.5 -6.5t26.5 -14t35 -13.5t47 -6t47.5 7.5t34 26t20.5 50t7 79.5v889q0 10 6 17.5t21 12.5t40.5 7.5t64.5 2.5q75 0 103.5 -10t28.5 -30v-900q0 -89 -17 -159t-56 -119.5t-103 -75.5t-158 -26q-30 0 -59.5 4.5t-54.5 11.5 t-42.5 15t-23.5 14q-6 7 -10.5 14t-7 18.5t-3.5 28.5t-1 43z" />
<glyph unicode="K" horiz-adv-x="1120" d="M141 38v1219q0 21 28 32t104 11q39 0 64 -3t40 -8t21 -13.5t6 -18.5v-551l379 550q7 13 16.5 21.5t26 13.5t42 7t63.5 2q40 0 66 -3t41.5 -8.5t21.5 -13.5t6 -18q0 -9 -1.5 -17.5t-6 -19t-13 -24t-22.5 -31.5l-355 -465l387 -585q11 -21 17 -33.5t9 -21t4 -13t1 -8.5 q0 -11 -6 -19.5t-21 -14t-41.5 -8.5t-68.5 -3q-49 0 -76.5 3t-42.5 8.5t-21.5 13.5t-13.5 19l-391 614v-614q0 -11 -6 -19t-21 -13.5t-40 -8.5t-64 -3q-76 0 -104 11.5t-28 32.5z" />
<glyph unicode="L" horiz-adv-x="866" d="M141 83v1175q0 20 28 31t104 11q38 0 63.5 -3t40.5 -8t21.5 -13t6.5 -18v-1041h407q20 0 30 -23.5t10 -83.5t-10 -85t-30 -25h-593q-33 0 -55.5 19t-22.5 64z" />
<glyph unicode="M" horiz-adv-x="1790" d="M141 36v1153q0 51 27 78t72 27h172q46 0 78 -8t55 -25.5t39.5 -46t31.5 -69.5l280 -771h4l290 769q16 42 31.5 70.5t35.5 46.5t46.5 26t64.5 8h177q54 0 79 -27t25 -78v-1153q0 -10 -5.5 -18t-20 -13t-38.5 -8t-61 -3q-72 0 -98 11t-26 31v1053h-2l-375 -1052 q-5 -13 -14 -21.5t-24.5 -13t-39 -6.5t-57.5 -2q-68 0 -97 11t-37 32l-362 1052h-2v-1053q0 -10 -6 -18t-20 -13t-38.5 -8t-60.5 -3t-60 3t-38.5 8t-20 13t-5.5 18z" />
<glyph unicode="N" horiz-adv-x="1349" d="M141 37v1163q0 48 27.5 71t67.5 23h141q37 0 63 -6.5t46.5 -22.5t38 -41.5t38.5 -64.5l252 -473q45 -85 85 -167t76 -162h1q-3 70 -4.5 146t-1.5 145v607q0 10 6 18t20 13.5t37.5 8.5t58.5 3t57.5 -3t35 -8.5t17.5 -13.5t5 -18v-1163q0 -48 -29.5 -71t-69.5 -23h-112 q-35 0 -60 7.5t-46 26t-41.5 50t-46.5 80.5l-322 605q-29 54 -57.5 116t-51.5 122h-2q4 -72 6 -143.5t2 -147.5v-677q0 -10 -5.5 -18t-19 -13.5t-36.5 -8.5t-59 -3q-35 0 -58 3t-36 8.5t-18 13.5t-5 18z" />
<glyph unicode="O" horiz-adv-x="1385" d="M80 639q0 157 40 282.5t118.5 213.5t195.5 135t271 47q147 0 259.5 -39t188 -120t114 -204.5t38.5 -291.5q0 -161 -40 -288t-119 -215.5t-195.5 -135t-269.5 -46.5q-151 0 -263.5 39.5t-187.5 120.5t-112.5 206t-37.5 296zM356 652q0 -106 15.5 -190.5t54 -144 t102.5 -91.5t161 -32t162 36t104.5 98t56.5 144.5t17 175.5q0 102 -16 185.5t-54.5 143t-102.5 92t-160 32.5q-97 0 -162 -36t-104.5 -97.5t-56.5 -143t-17 -172.5z" />
<glyph unicode="P" horiz-adv-x="1090" d="M141 36v1164q0 48 24.5 71t64.5 23h305q23 0 45 -1t42 -3q42 -4 99.5 -15t117.5 -42q91 -47 140 -130q48 -81 48 -197q0 -221 -132 -340q-130 -117 -383 -117h-108v-413q0 -10 -6.5 -18t-21.5 -13t-40.5 -8t-63.5 -3t-63.5 3t-40.5 8t-21 13t-6 18zM404 652h118 q62 0 105.5 17t71 47.5t40 73t13.5 92.5v5q0 64 -24 107q-24 44 -59 65t-73 26.5t-80 5.5h-112v-439z" />
<glyph unicode="Q" horiz-adv-x="1405" d="M80 640q0 157 40 282.5t118.5 213t195.5 134.5t271 47q145 0 256.5 -39t188 -119.5t116 -203.5t39.5 -291q0 -174 -44.5 -305t-127.5 -214q64 -54 110.5 -82t79 -42t53 -20t31.5 -18t15 -35t5 -71q0 -36 -3.5 -58t-9.5 -34t-13.5 -15.5t-14.5 -3.5q-33 0 -86.5 17.5 t-116 51.5t-127 82.5t-118.5 111.5q-46 -21 -111 -36.5t-146 -15.5q-151 0 -263.5 38.5t-187.5 119.5t-112.5 206.5t-37.5 298.5zM356 654q0 -107 15.5 -192t54 -144.5t102.5 -91.5t161 -32t162 36t104.5 98t56.5 145t17 177q0 101 -16 184t-54.5 142.5t-102.5 92t-160 32.5 q-97 0 -162 -36t-104.5 -97t-56.5 -142.5t-17 -171.5z" />
<glyph unicode="R" horiz-adv-x="1153" d="M141 36v1175q0 45 22.5 64t55.5 19h335q51 0 84 -1.5t60 -5.5q78 -11 140.5 -38t106 -70.5t66.5 -103.5t23 -136q0 -131 -65 -215t-186 -122q59 -29 102 -83.5t82 -146.5l109 -255q17 -38 21 -55.5t4 -27.5q0 -11 -4 -18.5t-19 -12.5t-44 -7t-79 -2q-42 0 -67 2.5 t-39 7.5t-20 13.5t-11 20.5l-116 289q-20 49 -40 87t-45 63.5t-56.5 38.5t-74.5 13h-82v-493q0 -10 -6.5 -18t-21.5 -13t-40.5 -8t-63.5 -3t-63.5 3t-40.5 8t-21 13t-6 18zM404 726h134q112 0 168 51.5t56 134.5q0 64 -29 108t-95 62q-20 5 -45.5 8t-70.5 3h-118v-367z" />
<glyph unicode="S" horiz-adv-x="968" d="M63 185q0 62 8.5 86t29.5 24q14 0 39.5 -16.5t65.5 -36.5t95.5 -36.5t128.5 -16.5q97 0 151 44t54 121q0 44 -23.5 75.5t-62.5 56t-88 46t-101 45.5t-101 54.5t-88 73t-62.5 101t-23.5 138.5q0 94 34 164t93 116.5t138 69.5t169 23q46 0 92 -7t86 -19t71 -27t41 -25 q9 -9 13.5 -16.5t6.5 -19t3 -28.5t1 -44v-14q0 -46 -6 -68q-7 -25 -28 -25q-11 0 -35 13.5t-59 30t-81 30.5t-101 14q-43 0 -75 -10.5t-53.5 -29.5t-32 -44t-10.5 -55q0 -44 24 -75t63 -55.5t89 -46t102 -46t102 -54.5t89 -72.5t63 -99.5t24 -136q0 -102 -38 -179 t-103 -128.5t-152 -77.5t-186 -26q-50 0 -95 6.5t-83.5 16.5t-69 22.5t-52.5 24.5q-21 12 -34 22t-20 24t-9.5 35.5t-2.5 56.5z" />
<glyph unicode="T" horiz-adv-x="1014" d="M12 1186q0 61 9.5 84.5t29.5 23.5h912q19 0 29 -23.5t10 -84.5q0 -58 -10 -82.5t-29 -24.5h-324v-1043q0 -20 -28 -31t-104 -11t-104 11t-28 31v1043h-324q-20 0 -29.5 24.5t-9.5 82.5z" />
<glyph unicode="U" horiz-adv-x="1337" d="M140 471v787q0 10 6 18t21 13t40.5 8t64.5 3q75 0 103 -11t28 -31v-764q0 -77 19 -133.5t54.5 -93.5t85 -55.5t110.5 -18.5t110.5 19t83.5 55.5t52.5 90t18.5 121.5v779q0 10 6 18t21 13t40.5 8t63.5 3q75 0 102 -11t27 -31v-776q0 -119 -35 -213t-103 -159t-168 -99 t-230 -34q-122 0 -219 30.5t-164 92t-102.5 154.5t-35.5 217z" />
<glyph unicode="V" horiz-adv-x="1211" d="M24 1253q-1 4 -1 8q0 15 11 23q13 10 43 13t84 3q46 0 72 -2t40 -7t19.5 -15t10.5 -25l315 -998h1l309 993q5 16 11 26.5t20.5 16.5t41 8.5t73.5 2.5q46 0 72 -4q24 -3 34 -14q7 -8 7 -21q-1 -5 -1 -11q-4 -21 -15 -56l-386 -1148q-6 -17 -14 -27.5t-26 -16t-48.5 -7 t-80.5 -1.5q-60 0 -95 1.5t-54.5 7.5t-28 17t-14.5 29l-385 1147q-12 36 -15 57z" />
<glyph unicode="W" horiz-adv-x="1856" d="M43 1257q0 17 12 27q13 10 41.5 13t79.5 3q47 0 74 -1.5t41 -7t19 -16.5t9 -29l227 -991h1l236 984q4 19 11 31t22 18.5t42 9t72 2.5q48 0 76 -2t43.5 -8.5t22.5 -18.5t12 -32l244 -984h2l227 988q4 17 9 28t18.5 17.5t39.5 9t73 2.5q43 0 68.5 -3t36.5 -13q10 -9 10 -27 v-5q-2 -22 -12 -59l-297 -1126q-6 -24 -17 -38.5t-31.5 -22t-53.5 -10t-84 -2.5q-57 0 -91 2.5t-54 10.5t-29 22t-15 38l-207 820h-2l-196 -820q-6 -23 -14.5 -37.5t-28 -22.5t-53 -10.5t-88.5 -2.5q-58 0 -92.5 2.5t-54.5 10t-29 22t-15 38.5l-294 1129q-11 43 -11 61z" />
<glyph unicode="X" horiz-adv-x="1128" d="M38 43q6 21 26 56l310 565l-288 531q-20 36 -26 57t5.5 31.5t43 13.5t88.5 3q47 0 74.5 -2t43 -6.5t22.5 -12.5t13 -20l227 -428l221 428q6 12 12.5 20t21 12.5t40 6.5t70.5 2q51 0 80 -3t40.5 -14t6 -32t-24.5 -56l-288 -528l307 -568q19 -35 25 -55q2 -6 1 -12 q0 -12 -8 -20q-12 -11 -44 -14.5t-88 -3.5q-46 0 -73.5 2t-43 6.5t-22.5 12.5t-12 20l-243 467l-242 -467q-6 -12 -13 -20t-22.5 -12.5t-42.5 -6.5t-73 -2q-51 0 -80 3q-30 3 -40 14q-6 7 -6 17q0 7 2 15z" />
<glyph unicode="Y" horiz-adv-x="1064" d="M22 1254q-2 7 -2 12q0 12 8 18q11 11 42 13.5t86 2.5q46 0 73.5 -2t43.5 -7.5t24 -14.5t14 -23l144 -318q21 -46 41.5 -96.5t41.5 -107.5h2q19 54 38.5 105.5t39.5 96.5l142 316q5 16 12 26t22.5 15.5t41.5 7.5t69 2q57 0 88.5 -2.5t42.5 -13.5q8 -6 8 -18q0 -6 -2 -13 q-6 -21 -24 -57l-354 -705v-455q0 -20 -28 -31t-104 -11q-39 0 -64.5 3t-40.5 8t-21 13t-6 18v455l-354 705q-18 37 -24 58z" />
<glyph unicode="Z" horiz-adv-x="979" d="M51 90v44q0 21 2.5 37t8.5 33t17 37t29 48l502 796h-498q-24 0 -34.5 23t-10.5 80q0 61 10.5 83.5t34.5 22.5h715q42 0 61 -21t19 -59v-49q0 -27 -2.5 -46.5t-9 -38t-17.5 -38t-28 -46.5l-494 -785h541q19 0 29 -23.5t10 -83.5q0 -59 -10 -81.5t-29 -22.5h-763 q-40 0 -61.5 22.5t-21.5 67.5z" />
<glyph unicode="[" horiz-adv-x="665" d="M157 -254v1586q0 44 22 63.5t55 19.5h309q17 0 26 -19.5t9 -70.5t-9 -70.5t-26 -19.5h-151v-1393h151q17 0 26 -19t9 -71q0 -51 -9 -70.5t-26 -19.5h-309q-33 0 -55 19.5t-22 64.5z" />
<glyph unicode="\" horiz-adv-x="880" d="M29 1437q-1 15 10.5 22.5t36.5 9.5t69 2q40 0 64.5 -2t38.5 -6.5t20 -11.5t10 -18l588 -1651q9 -25 10 -40t-10.5 -22.5t-37 -10t-69.5 -2.5q-41 0 -65.5 1.5t-38.5 6t-20 12t-10 18.5l-586 1651q-9 26 -10 41z" />
<glyph unicode="]" horiz-adv-x="665" d="M87 -248q0 52 9.5 71t25.5 19h152v1393h-152q-17 0 -26 19.5t-9 70.5t9.5 70.5t25.5 19.5h310q33 0 55.5 -19.5t22.5 -63.5v-1586q0 -45 -22.5 -64.5t-55.5 -19.5h-310q-17 0 -26 19.5t-9 70.5z" />
<glyph unicode="^" d="M34 550.5q3 16.5 15 45.5l288 656q11 26 50 39t119 13t119 -13.5t50 -38.5l293 -656q13 -29 16 -45.5t-7.5 -25.5t-36 -11.5t-69.5 -2.5q-39 0 -64.5 2.5t-42 8t-25 14t-13.5 20.5l-221 541l-5 -1l-212 -540q-5 -12 -13.5 -20.5t-24.5 -14t-41.5 -8t-64.5 -2.5 q-43 0 -68 2.5t-35 11.5t-7 25.5z" />
<glyph unicode="_" d="M-7 -273q0 51 9.5 72.5t32.5 21.5h950q22 0 31.5 -21t9.5 -72t-9.5 -72t-31.5 -21h-950q-23 0 -32.5 20.5t-9.5 71.5z" />
<glyph unicode="`" horiz-adv-x="615" d="M102 1371.5q-1 9.5 11 17t38.5 11.5t72.5 4q33 0 55.5 -2t37.5 -6.5t24.5 -12t17.5 -19.5l143 -229q9 -14 10.5 -24t-6.5 -16t-28 -9t-54 -3q-29 0 -48 2t-32 6t-21.5 10.5t-16.5 16.5l-193 232q-10 12 -11 21.5z" />
<glyph unicode="a" horiz-adv-x="1011" d="M71 267q0 157 121.5 230.5t359.5 73.5h87v54q0 42 -8.5 73.5t-28 52.5t-52 31t-80.5 10q-63 0 -113 -14t-87.5 -31t-63.5 -31t-41 -14q-22 0 -34 27q-11 25 -11 67v7q1 23 2.5 38.5t8.5 27.5t21.5 22.5t40.5 24.5q26 13 59.5 25t72 21.5t81 15t86.5 5.5 q105 0 179.5 -20.5t122.5 -63t70 -109t22 -159.5v-600q0 -21 -22 -29t-83 -8q-33 0 -53 2t-30.5 6t-14.5 11t-5 18v71q-55 -60 -125 -92.5t-157 -32.5q-71 0 -130.5 18.5t-103 55t-67.5 90.5t-24 126zM317 275q0 -57 35.5 -88.5t98.5 -31.5q54 0 98 27t90 79v152h-96 q-122 0 -174 -36t-52 -102z" />
<glyph unicode="b" horiz-adv-x="1099" d="M126 34v1315q0 10 6 18t20.5 13.5t38.5 8.5t61 3t61 -3t38.5 -8.5t20.5 -13.5t6 -18v-493q68 68 135.5 97.5t146.5 29.5q99 0 168 -39.5t112.5 -106.5t63.5 -156.5t20 -188.5q0 -119 -26 -214t-75 -162t-120.5 -103t-162.5 -36q-45 0 -84 8.5t-74.5 27.5t-70 48t-70.5 70 v-97q0 -22 -23.5 -31t-84.5 -9q-62 0 -84.5 9t-22.5 31zM378 330q54 -69 101.5 -104t101.5 -35q48 0 82.5 25t56.5 65t32.5 91t10.5 102q0 57 -8.5 110t-29 94t-54.5 65.5t-85 24.5q-25 0 -49 -7t-49.5 -23.5t-52.5 -44t-57 -67.5v-296z" />
<glyph unicode="c" horiz-adv-x="857" d="M72 463q0 133 33.5 230.5t93.5 161.5t142 95t180 32q39 0 78 -7.5t72.5 -19.5t59.5 -26t38 -26q10 -9 15.5 -18t8 -20.5t3.5 -28.5t1 -43v-17q0 -44 -9 -64q-11 -24 -27 -24q-17 0 -36 14t-45 31t-62 31t-86 14q-99 0 -150.5 -75t-51.5 -222q0 -146 51 -219.5t154 -73.5 q51 0 89 15.5t66 34.5t47 34.5t32 15.5q17 0 24.5 -23.5t7.5 -88.5q0 -26 -1.5 -43.5t-4.5 -29.5q-2 -12 -5.5 -19.5t-15.5 -19.5q-12 -11 -41 -27.5t-66 -29.5t-80.5 -21t-89.5 -8q-104 0 -183 32.5t-133 94.5t-81.5 152t-27.5 206z" />
<glyph unicode="d" horiz-adv-x="1099" d="M75 468q0 118 25.5 213.5t75 162.5t122 103t167.5 36q75 0 136 -30t121 -90v483q0 10 5.5 18t20 13.5t38.5 8.5t61 3t61 -3t38 -8.5t20 -13.5t6 -18v-1312q0 -22 -22 -31t-83 -9q-62 0 -85 9t-23 31v99q-69 -75 -144 -115.5t-168 -40.5q-102 0 -172.5 39.5t-115 106.5 t-64.5 156.5t-20 188.5zM331 485q0 -56 8.5 -109t29.5 -94.5t55.5 -66.5t85.5 -25q26 0 50.5 7.5t50 24.5t52.5 44.5t59 67.5v296q-54 69 -103.5 104.5t-103.5 35.5q-50 0 -84.5 -25t-57 -65t-32.5 -91.5t-10 -103.5z" />
<glyph unicode="e" horiz-adv-x="1031" d="M74 470q0 120 31 215t90 161t143 101.5t191 35.5q112 0 191.5 -33t130.5 -91.5t75 -138.5t24 -174v-40q0 -46 -20.5 -68t-56.5 -22h-543q0 -58 13.5 -104t43 -78.5t76 -49.5t111.5 -17q66 0 116 9.5t86.5 21t60.5 21t39 9.5q18 0 25 -16t7 -67q0 -44 -4 -63.5t-17 -33.5 q-6 -7 -35 -19t-74 -23.5t-103.5 -20t-123.5 -8.5q-239 0 -358 121t-119 372zM330 578h376v13q0 97 -42 153q-45 60 -141 61q-48 0 -83.5 -18t-59 -48.5t-36 -72t-14.5 -88.5z" />
<glyph unicode="f" horiz-adv-x="648" d="M25 858q0 59 9.5 80.5t29.5 21.5h111v75q0 182 74.5 273.5t238.5 91.5q31 0 57.5 -4t47 -9t33.5 -11.5t18 -10.5q11 -10 15.5 -33t4.5 -66q0 -29 -2 -46.5t-6 -27t-9 -13t-11 -3.5q-7 0 -15.5 3.5t-21 7.5t-29.5 7.5t-40 3.5q-54 0 -79 -35t-25 -121v-82h163 q19 0 29 -21.5t10 -80.5q0 -55 -10 -78.5t-29 -23.5h-163v-722q0 -10 -6 -17.5t-20.5 -12.5t-38.5 -7.5t-61 -2.5t-61 2.5t-38.5 7.5t-20 12.5t-5.5 17.5v722h-112q-19 0 -28.5 23.5t-9.5 78.5z" />
<glyph unicode="g" horiz-adv-x="971" d="M27 -123q0 66 33 120.5t96 100.5q-43 23 -66.5 62t-23.5 87q0 60 27 108t70 87q-35 35 -56 84t-21 122q0 78 27.5 139.5t76.5 104t117 65t150 22.5q42 0 80.5 -5t71.5 -14h283q17 0 27.5 -22t10.5 -74q0 -48 -11 -71t-27 -23h-105q22 -24 31.5 -54.5t9.5 -63.5 q0 -78 -26 -138.5t-74.5 -102t-117 -63t-152.5 -21.5q-43 0 -82 10.5t-60 24.5q-12 -13 -21.5 -31t-9.5 -40q0 -29 25.5 -47.5t71.5 -20.5l217 -8q153 -5 236 -72.5t83 -188.5q0 -66 -29 -124.5t-87 -101.5t-145.5 -68t-204.5 -25q-114 0 -194.5 18t-132 50t-75 76.5 t-23.5 97.5zM270 -91q0 -51 50 -76.5t143 -25.5q57 0 96 11.5t63 30.5t34 43t10 49q0 45 -36 69t-99 26l-179 5q-26 -19 -42 -36t-25 -33.5t-12 -32t-3 -30.5zM306 649q0 -69 39.5 -108t111.5 -39q37 0 65.5 12t47 33t28 48.5t9.5 57.5q0 72 -40 112t-113 40 q-38 0 -65.5 -12.5t-46 -34t-27.5 -50t-9 -59.5z" />
<glyph unicode="h" horiz-adv-x="1099" d="M126 34v1315q0 10 6 18t20.5 13.5t38.5 8.5t61 3t61 -3t38.5 -8.5t20.5 -13.5t6 -18v-493q130 127 273 127q91 0 153.5 -30t100.5 -82q39 -52 56 -121.5t17 -168.5v-547q0 -10 -6 -17.5t-20 -12.5t-38.5 -7.5t-60.5 -2.5q-37 0 -61.5 2.5t-38.5 7.5t-20 12.5t-6 17.5v509 q0 65 -9.5 102t-27.5 63q-37 56 -113 56q-48 0 -96.5 -35t-102.5 -102v-593q0 -10 -6 -17.5t-20.5 -12.5t-38.5 -7.5t-61 -2.5t-61 2.5t-38.5 7.5t-20.5 12.5t-6 17.5z" />
<glyph unicode="i" horiz-adv-x="503" d="M107 1223q0 76 30 105q31 30 116 30q83 0 114 -29q30 -29 30 -101q0 -77 -31 -105q-32 -29 -115 -29q-86 0 -115 28q-29 29 -29 101zM126 34v890q0 10 6 17.5t20.5 13t38.5 8.5t61 3t61 -3t38.5 -8.5t20.5 -13t6 -17.5v-890q0 -10 -6 -17.5t-20.5 -12.5t-38.5 -7.5 t-61 -2.5t-61 2.5t-38.5 7.5t-20.5 12.5t-6 17.5z" />
<glyph unicode="j" horiz-adv-x="523" d="M-37 -249q0 56 7 76.5t22 20.5q5 0 20.5 -2.5t33.5 -2.5q53 0 76 34q6 9 10.5 19.5t7.5 25.5t4.5 36t1.5 51v915q0 10 5.5 17.5t20 13t38.5 8.5t61 3t61 -3t38.5 -8.5t20.5 -13t6 -17.5v-920q0 -105 -18.5 -170t-54.5 -109q-74 -90 -220 -90q-65 0 -94.5 10.5t-35.5 21.5 q-8 14 -9.5 32.5t-1.5 51.5zM126 1223q0 77 31 105q31 30 115 30q85 0 114 -29q30 -29 30 -101q0 -77 -31 -105q-31 -29 -115 -29q-85 0 -114 28q-30 28 -30 101z" />
<glyph unicode="k" horiz-adv-x="983" d="M126 34v1315q0 10 6 18t20.5 13.5t38.5 8.5t61 3t61 -3t38.5 -8.5t20.5 -13.5t6 -18v-783l264 355q9 12 19 20.5t26 14t40.5 8t62.5 2.5t63 -2.5t40 -7.5t21.5 -13t6.5 -18q0 -15 -7 -32.5t-23 -35.5l-261 -296l302 -467q13 -20 18 -34.5t5 -26.5q0 -10 -5.5 -17.5 t-20 -12t-39.5 -7t-65 -2.5q-41 0 -66.5 2t-41.5 6.5t-25 13t-17 20.5l-297 470v-472q0 -10 -6 -17.5t-20.5 -12.5t-38.5 -7.5t-61 -2.5t-61 2.5t-38.5 7.5t-20.5 12.5t-6 17.5z" />
<glyph unicode="l" horiz-adv-x="503" d="M126 34v1315q0 10 6 18t20.5 13.5t38.5 8.5t61 3t61 -3t38.5 -8.5t20.5 -13.5t6 -18v-1315q0 -10 -6 -17.5t-20.5 -12.5t-38.5 -7.5t-61 -2.5t-61 2.5t-38.5 7.5t-20.5 12.5t-6 17.5z" />
<glyph unicode="m" horiz-adv-x="1666" d="M126 34v892q0 20 23 30t85 10q32 0 53 -2.5t33 -7.5t16.5 -12.5t4.5 -17.5v-103q75 81 147.5 120.5t153.5 39.5q110 0 177.5 -44.5t101.5 -118.5q80 86 154.5 124.5t151.5 38.5q89 0 150 -30t98.5 -81.5t53.5 -120.5t16 -146v-571q0 -10 -6 -17.5t-20 -12.5t-38 -7.5 t-61 -2.5q-38 0 -62 2.5t-38.5 7.5t-20 12.5t-5.5 17.5v529q0 90 -34.5 145.5t-107.5 55.5q-45 0 -91 -35t-100 -102v-593q0 -20 -26.5 -30t-98.5 -10q-37 0 -61 2.5t-38.5 7.5t-20.5 12.5t-6 17.5v529q0 90 -34 145.5t-107 55.5q-46 0 -91.5 -35t-99.5 -102v-593 q0 -10 -6 -17.5t-20.5 -12.5t-38.5 -7.5t-61 -2.5t-61 2.5t-38.5 7.5t-20.5 12.5t-6 17.5z" />
<glyph unicode="n" horiz-adv-x="1099" d="M126 34v892q0 20 23 30t85 10q32 0 53 -2.5t33 -7.5t16.5 -12.5t4.5 -17.5v-103q75 81 150.5 120.5t159.5 39.5q91 0 153 -30t101 -82q38 -51 55.5 -120t17.5 -166v-551q0 -10 -6 -17.5t-20 -12.5t-38.5 -7.5t-60.5 -2.5q-37 0 -61.5 2.5t-38.5 7.5t-20 12.5t-6 17.5v509 q0 65 -9.5 102t-27.5 63q-37 56 -113 56q-48 0 -96.5 -35t-102.5 -102v-593q0 -10 -6 -17.5t-20.5 -12.5t-38.5 -7.5t-61 -2.5t-61 2.5t-38.5 7.5t-20.5 12.5t-6 17.5z" />
<glyph unicode="o" horiz-adv-x="1101" d="M72 471q0 114 30.5 208.5t91.5 162t152.5 104.5t214.5 37q120 0 208 -32.5t145.5 -95.5t85.5 -155t28 -211q0 -114 -30 -208.5t-91 -162t-153 -104.5t-215 -37q-119 0 -207 33t-146 96t-86 155t-28 210zM331 482q0 -66 10.5 -122t35.5 -96.5t67 -63t104 -22.5 q115 0 168 80t53 221q0 66 -10.5 121.5t-35.5 96.5t-66.5 64t-104.5 23q-113 0 -167 -80.5t-54 -221.5z" />
<glyph unicode="p" horiz-adv-x="1099" d="M126 -320v1246q0 20 22.5 30t84.5 10q61 0 83.5 -10t22.5 -30v-105q39 40 76.5 70.5t76.5 50.5t80.5 30.5t88.5 10.5q98 0 167 -38.5t112.5 -105.5t63.5 -156t20 -190q0 -119 -25.5 -214.5t-74.5 -162.5t-122 -103t-167 -36q-38 0 -71 7.5t-63.5 23t-60.5 38.5t-62 54 v-420q0 -10 -6 -18t-20.5 -13.5t-38.5 -8.5t-61 -3t-61 3t-38.5 8.5t-20.5 13.5t-6 18zM378 331q54 -67 101.5 -103.5t99.5 -36.5q49 0 83.5 25t56.5 65.5t32.5 91.5t10.5 102q0 57 -8.5 109.5t-29 93.5t-54 65.5t-83.5 24.5q-25 0 -49.5 -7.5t-50 -24.5t-52.5 -44t-57 -67 v-294z" />
<glyph unicode="q" horiz-adv-x="1099" d="M75 468q0 118 26 213.5t76 162.5t123.5 103t168.5 36q38 0 71.5 -8t67 -26t70.5 -47.5t81 -72.5v97q0 20 23 30t85 10q61 0 83 -10t22 -30v-1246q0 -10 -6 -18t-20 -13.5t-38 -8.5t-61 -3t-61 3t-38.5 8.5t-20 13.5t-5.5 18v424q-37 -33 -70.5 -57t-67.5 -39.5t-70 -23 t-76 -7.5q-98 0 -167 39.5t-112.5 106.5t-63.5 156.5t-20 188.5zM331 485q0 -56 8.5 -109.5t29.5 -94.5t55.5 -66t85.5 -25q26 0 50.5 7.5t50 24.5t52.5 44.5t59 67.5v296q-54 69 -103.5 104.5t-103.5 35.5q-50 0 -84.5 -25t-57 -65t-32.5 -91.5t-10 -103.5z" />
<glyph unicode="r" horiz-adv-x="728" d="M126 34v892q0 20 23 30t85 10q32 0 53 -2.5t33 -7.5t16.5 -12.5t4.5 -17.5v-111q35 50 65.5 82.5t59 51.5t56 26.5t56.5 7.5q12 0 28 -2t31 -5t27 -7.5t18 -9.5q5 -5 8.5 -10.5t5.5 -17t2.5 -32.5t0.5 -56q0 -36 -2 -59t-6 -36t-10.5 -18t-16.5 -5q-8 0 -18 3.5 t-22.5 7.5t-27.5 7.5t-33 3.5q-42 0 -86 -34.5t-99 -122.5v-556q0 -10 -6 -17.5t-20.5 -12.5t-38.5 -7.5t-61 -2.5t-61 2.5t-38.5 7.5t-20.5 12.5t-6 17.5z" />
<glyph unicode="s" horiz-adv-x="817" d="M73 149v12q-1 47 7 63q8 18 26 17q11 0 32.5 -12.5t53.5 -28t74.5 -28t96.5 -12.5q67 0 106.5 27t39.5 79q0 31 -18.5 52t-49 37t-69 30t-79 31t-79 39t-69 54.5t-49 77t-18.5 107.5q0 64 25 117.5t72 91.5t114.5 59t151.5 21q43 0 82 -6t70.5 -15t54 -19.5t31.5 -18.5 q17 -12 21 -32.5t4 -64.5q0 -54 -6.5 -71t-23.5 -17q-9 0 -28 10.5t-47.5 22.5t-66 22.5t-85.5 10.5q-69 0 -100.5 -27t-31.5 -68q0 -31 19 -51.5t49.5 -37t70 -30.5t81 -30.5t81 -38.5t70 -54t49.5 -76t19 -106q0 -77 -29 -134.5t-80.5 -96.5t-122 -58.5t-154.5 -19.5 q-75 0 -138.5 15.5t-98.5 34.5q-17 9 -28 16.5t-17.5 19.5t-9 32t-3.5 54z" />
<glyph unicode="t" horiz-adv-x="710" d="M23 858q0 59 10 80.5t30 21.5h106v199q0 10 5.5 18t20 13.5t38.5 8t61 2.5t61.5 -2.5t38.5 -8t20 -13.5t6 -18v-199h194q20 0 30 -21.5t10 -80.5q0 -55 -10 -78.5t-29 -23.5h-195v-419q0 -73 22.5 -109.5t82.5 -36.5q20 0 36 3.5t28.5 8t21.5 8t15 3.5q12 0 20 -17.5 t8 -74.5q0 -34 -2.5 -54.5t-8.5 -33t-15 -19t-21 -11.5q-26 -11 -65.5 -17.5t-81.5 -6.5q-151 0 -221 77.5t-70 241.5v457h-107q-19 0 -29 23.5t-10 78.5z" />
<glyph unicode="u" horiz-adv-x="1099" d="M121 380v546q0 10 5.5 17.5t20 12.5t38.5 7.5t61 2.5t61 -2.5t38.5 -7.5t20.5 -12.5t6 -17.5v-504q0 -35 2 -61t6.5 -46t11.5 -35.5t16 -28.5q18 -26 47 -40.5t67 -14.5q48 0 96.5 35t103.5 102v593q0 10 5.5 17.5t20 12.5t38.5 7.5t61 2.5t61 -2.5t38 -7.5t20 -12.5 t6 -17.5v-892q0 -20 -22.5 -30t-84.5 -10q-32 0 -53 2.5t-33 7.5t-17 12.5t-5 17.5v103q-148 -160 -309 -160q-93 0 -155 30t-101 82q-38 52 -54.5 120.5t-16.5 170.5z" />
<glyph unicode="v" horiz-adv-x="969" d="M22 927q0 10 5.5 17.5t19.5 12.5t38 7t62 2q41 0 66 -2t39.5 -7.5t20.5 -13.5t10 -20l203 -655l6 -25l6 25l200 655q4 12 10.5 20t20.5 13.5t37 7.5t61 2q37 0 60.5 -2t36.5 -7t18 -12.5t5 -17.5q0 -11 -2 -27.5t-11 -44.5l-268 -807q-6 -17 -14.5 -27.5t-27.5 -16.5 t-52.5 -8t-87.5 -2t-86.5 2.5t-51.5 8.5t-28 16.5t-14 26.5l-268 807q-11 33 -12.5 49t-1.5 23z" />
<glyph unicode="w" horiz-adv-x="1526" d="M35 928q0 10 5.5 17.5t20 12t38.5 6.5t62 2q41 0 65.5 -2t38 -7t19.5 -13.5t9 -20.5l177 -655l2 -12l2 12l166 655q3 12 9 20.5t19.5 13.5t37 7t60.5 2t60.5 -2.5t36.5 -7t18.5 -12t8.5 -17.5l178 -660l3 -11l2 12l170 655q2 12 8 20.5t20 13.5t37.5 7t61.5 2 q37 0 60.5 -2t37 -6.5t18.5 -12t5 -17.5q0 -11 -2.5 -27t-11.5 -46l-238 -807q-5 -17 -12.5 -27.5t-25 -16.5t-47.5 -8t-79 -2q-50 0 -80 2.5t-48 8.5t-26 16.5t-12 26.5l-150 542l-2 9l-2 -9l-138 -542q-4 -17 -12 -27.5t-25.5 -16.5t-48 -8t-80.5 -2t-80 2.5t-48 8.5 t-26 16.5t-12 26.5l-236 807q-8 29 -11 45.5t-3 27.5z" />
<glyph unicode="x" horiz-adv-x="941" d="M32 24q0 11 9 28l247 439l-228 412q-10 18 -10.5 30t12.5 19.5t42 10.5t78 3q44 0 70.5 -1.5t41.5 -5t22 -9.5t12 -16l159 -298l158 298q3 8 8.5 14t19 10t36.5 6t61 2q43 0 70 -2.5t39 -9t11 -19t-12 -32.5l-222 -405l245 -446q9 -16 9 -27q0 -13 -15 -19 q-14 -6 -43.5 -9t-77.5 -3q-45 0 -72.5 1.5t-43 5.5t-23 11t-11.5 17l-165 317l-165 -317q-4 -10 -11 -17t-22 -11t-40.5 -5.5t-67.5 -1.5q-44 0 -70 3t-38.5 9.5t-12.5 17.5z" />
<glyph unicode="y" horiz-adv-x="970" d="M21 921q0 17 12 27q13 10 41.5 13.5t75.5 4.5q43 0 67.5 -1.5t38.5 -7.5t21 -19t15 -35l210 -597h3l192 609q6 19 10.5 29t16 14.5t34 5.5t63.5 2h16q34 0 57 -4q27 -4 40.5 -14.5t13.5 -28.5q1 -1 1 -2q0 -17 -9 -43l-297 -874l-108 -316q-8 -25 -48 -36t-118 -11 q-40 0 -64 3.5t-36 11.5t-13 20t6 29l119 299q-13 6 -23.5 18.5t-15.5 26.5l-307 820q-14 38 -14 56z" />
<glyph unicode="z" horiz-adv-x="814" d="M69 77v46q0 18 2 32.5t6.5 28t12 27.5t18.5 31l334 516h-316q-19 0 -30.5 23.5t-11.5 77.5q0 58 10 79.5t32 21.5h545q27 0 40.5 -14t13.5 -57v-49q0 -20 -2 -35.5t-6 -29.5t-11.5 -28t-17.5 -30l-332 -515h352q9 0 17 -4t13.5 -15t8.5 -30.5t3 -49.5q0 -60 -11 -81.5 t-31 -21.5h-583q-27 0 -41.5 17.5t-14.5 59.5z" />
<glyph unicode="{" horiz-adv-x="704" d="M54 570q0 28 2 46t6.5 29t11.5 15.5t16 6.5q70 11 107 68t37 171v129q0 114 12.5 185.5t43.5 119.5q32 49 84 73.5t130 24.5q26 0 47 -2.5t43 -7.5q18 -2 28 -21t10 -70t-11.5 -70.5t-28.5 -20.5l-37 -1q-25 -1 -41.5 -9.5t-27.5 -30.5q-5 -11 -9 -24.5t-6 -33t-3 -47 t-1 -66.5v-124q0 -77 -11 -129t-36 -94q-24 -42 -63 -72.5t-96 -43.5q57 -13 95.5 -43t63.5 -73q24 -42 35.5 -94t11.5 -128v-168q0 -38 1 -65.5t3.5 -47t5.5 -33.5t8 -24q10 -22 24.5 -31.5t36.5 -9.5h37q29 0 39 -19.5t10 -72.5q0 -26 -2.5 -42.5t-7.5 -26.5t-12 -15 t-15 -7q-23 -6 -44 -8t-47 -2q-79 0 -131 25t-83 73q-31 47 -43.5 119t-12.5 186v172q0 63 -8 100t-25 65q-17 29 -43.5 47.5t-64.5 25.5q-20 3 -29.5 23t-9.5 73z" />
<glyph unicode="|" horiz-adv-x="973" d="M368 -323v1726q0 20 25 31.5t93 11.5q69 0 94 -11.5t25 -31.5v-1726q0 -21 -25 -31.5t-94 -10.5q-68 0 -93 10.5t-25 31.5z" />
<glyph unicode="}" horiz-adv-x="704" d="M105 -238q0 52 11.5 71t28.5 21h38q25 0 41 9t27 31q5 11 9 25t6.5 33.5t3.5 47t1 65.5v125q0 76 11 134.5t35 109.5t63.5 88.5t96.5 50.5q-112 25 -160 93q-12 17 -20.5 36t-14.5 43t-8.5 53.5t-2.5 68.5v167q0 38 -1 65.5t-3.5 47t-6 33.5t-7.5 25q-9 22 -24 30.5 t-37 9.5l-36 1q-15 0 -25 4.5t-16 15t-8 27.5t-2 44q0 51 10.5 70t28.5 21q23 6 44 8t46 2q79 0 131 -24.5t83 -72.5q15 -24 26 -53.5t17.5 -66.5t9.5 -83t3 -103v-172q0 -62 7.5 -92.5t24.5 -50.5q32 -39 109 -51q18 -3 28.5 -23.5t10.5 -71.5q0 -28 -2.5 -46t-7 -29 t-11 -16t-15.5 -6q-38 -5 -65 -29.5t-45 -61.5q-17 -36 -25.5 -81t-8.5 -112v-129q0 -114 -13 -185.5t-44 -119.5q-32 -48 -83.5 -73t-129.5 -25q-25 0 -46 2.5t-46 7.5q-15 4 -26 22t-11 69z" />
<glyph unicode="~" d="M57 822v27q0 81 20.5 140.5t57 98.5t86 58.5t107.5 19.5q43 0 76 -7.5t59 -21t47 -31t41 -38.5t36 -40t31 -33t31.5 -22t38.5 -8q49 0 71.5 39.5t22.5 108.5q0 17 24 24.5t67 7.5q55 0 75 -10.5t18 -32.5v-32q0 -80 -22.5 -138.5t-60 -97t-86.5 -57.5t-102 -19 q-44 0 -76.5 7.5t-58.5 21t-47 32t-41 39.5q-21 21 -37 40t-31 32.5t-31 21.5t-38 8q-50 0 -72 -40.5t-22 -104.5q0 -35 -92 -35q-55 0 -73.5 10.5t-18.5 31.5z" />
<glyph unicode="&#xa1;" horiz-adv-x="667" d="M155 1060q0 41 6.5 69t23 45t43.5 24.5t68 7.5t68.5 -7.5t43.5 -24.5t22.5 -45t6.5 -69q0 -42 -6.5 -70.5t-22.5 -46t-43.5 -25t-68.5 -7.5t-68 7.5t-43.5 25t-23 46t-6.5 70.5zM160 -141l26 908q0 10 5.5 18t18 13.5t33.5 8.5t53 3t53 -3t33.5 -8.5t18 -13.5t5.5 -18 l26 -908q0 -13 -6 -23t-21.5 -16.5t-41.5 -9.5t-67 -3q-79 0 -108 13.5t-28 38.5z" />
<glyph unicode="&#xa2;" d="M169 627q0 112 24 198t67.5 148.5t104.5 101t135 54.5v137q0 21 21 31.5t82 10.5t82.5 -10.5t21.5 -31.5v-132q22 -3 46.5 -10.5t46.5 -17.5t41 -21.5t31 -22.5q10 -10 16 -19t9 -21t3.5 -28t0.5 -38q0 -19 -2 -38t-7 -34.5t-14 -25t-22 -9.5q-16 0 -33.5 14t-43 31.5 t-61 31.5t-87.5 14q-43 0 -80 -16.5t-64.5 -52.5t-43 -92.5t-15.5 -135.5q0 -154 55.5 -223.5t157.5 -69.5q50 0 86.5 15.5t62.5 34.5t44.5 34.5t32.5 15.5q19 0 24 -33.5t5 -85.5q0 -32 -2.5 -52t-8 -32.5t-14.5 -20.5t-23 -17q-27 -18 -62 -33t-79 -23v-138q0 -20 -21 -30 t-82 -10t-82 10t-21 30v134q-164 26 -248 147.5t-84 330.5z" />
<glyph unicode="&#xa3;" horiz-adv-x="1038" d="M76 101q0 58 10.5 80t29.5 22h106v356h-106q-17 0 -28.5 20.5t-11.5 78.5q0 56 10.5 77.5t29.5 21.5h106v92q0 123 27 211t79 144.5t129 83.5t177 27q89 0 159 -25q34 -11 61 -26.5t40 -28.5q12 -12 18.5 -21.5t9.5 -22t4 -29.5t1 -44q1 -56 -10 -77.5t-27 -21.5 q-14 0 -31.5 14t-44 30.5t-62.5 30.5t-86 14q-100 0 -142 -64t-42 -185v-102h269q18 0 29 -21.5t11 -77.5q0 -58 -11.5 -78.5t-28.5 -20.5h-269v-356h436q18 0 29 -22t11 -80q0 -57 -11.5 -79t-28.5 -22h-802q-17 0 -28.5 22t-11.5 79z" />
<glyph unicode="&#xa4;" d="M38 1107q-5 17 4.5 27.5t35 14.5t69.5 4q38 0 61.5 -2t37.5 -6t21.5 -10.5t12.5 -16.5l86 -160q29 13 68 21t84 8q42 0 76.5 -6.5t62.5 -20.5l85 159q4 11 11 18t21.5 11t38.5 5.5t62 1.5q45 0 70.5 -4t34.5 -14.5t4 -27.5t-22 -44l-132 -207q37 -48 58.5 -116t21.5 -156 t-24 -157.5t-69 -120.5l135 -206q17 -27 22 -44.5t-4.5 -28t-35.5 -14.5t-70 -4q-38 0 -61.5 1.5t-38 5.5t-21.5 11t-12 17l-85 160q-29 -13 -65.5 -21t-81.5 -8q-40 0 -73.5 5.5t-57.5 16.5l-85 -159q-6 -11 -13 -17.5t-21 -10.5t-37.5 -5.5t-61.5 -1.5q-44 0 -70 4 t-35.5 13.5t-5 27t22.5 44.5l131 201q-42 49 -64.5 116t-22.5 158q0 93 23.5 164t65.5 120l-135 210q-17 27 -22 44zM331 589q0 -232 182 -232q44 0 76.5 16.5t53.5 46t31.5 69t10.5 85.5q0 52 -10 95t-32 74t-56 48t-82 17q-44 0 -76.5 -17t-54 -46.5t-32.5 -69.5t-11 -86z " />
<glyph unicode="&#xa5;" horiz-adv-x="1038" d="M36.5 1252.5q-7.5 20.5 3 31t40 13.5t83.5 3q43 0 69.5 -1.5t42.5 -5.5t24.5 -12.5t15.5 -21.5l110 -208q30 -57 55 -112t48 -109q24 54 49 109t55 112l110 208q7 14 14.5 22.5t22 12.5t40 5t69.5 1q48 0 75.5 -2.5t36.5 -13t1 -31t-29 -57.5l-321 -554v-36h250 q14 0 23 -19t9 -65q0 -49 -9.5 -69t-22.5 -20h-250v-125h250q14 0 23 -19t9 -67t-9.5 -68t-22.5 -20h-250v-102q0 -11 -6.5 -18t-21.5 -11.5t-40.5 -6.5t-63.5 -2t-63.5 2t-40.5 6.5t-21.5 11.5t-6.5 18v102h-249q-14 0 -23.5 20t-9.5 68t9.5 67t23.5 19h249v125h-249 q-14 0 -23.5 20t-9.5 69q0 46 9.5 65t23.5 19h249v36l-322 554q-21 36 -28.5 56.5z" />
<glyph unicode="&#xa6;" d="M391 309q0 20 24.5 31t93.5 11t93.5 -11t24.5 -31v-648q0 -20 -24.5 -31t-93.5 -11t-93.5 11t-24.5 31v648zM391 771v643q0 20 24.5 31t93.5 11t93.5 -11t24.5 -31v-643q0 -20 -24.5 -31.5t-93.5 -11.5t-93.5 11.5t-24.5 31.5z" />
<glyph unicode="&#xa7;" d="M86 585q0 43 13 83.5t36 76t55.5 65t71.5 50.5q-39 38 -59 87t-20 118t27 123t75 91t114 56.5t145 19.5q43 0 83 -7t72 -16.5t54 -19.5t30 -17q6 -5 10 -12t7 -17.5t4 -27t1 -40.5q0 -53 -7 -71t-23 -18q-11 0 -28.5 10.5t-44.5 23.5t-64.5 23.5t-87.5 10.5 q-35 0 -58.5 -8.5t-38.5 -22t-21.5 -30.5t-6.5 -35q0 -27 8 -47.5t26.5 -38.5t49 -34.5t76.5 -34.5l87 -35q64 -26 113.5 -55.5t83.5 -67.5t51 -86t17 -111q0 -90 -47.5 -161.5t-125.5 -115.5q40 -38 60 -85.5t20 -107.5q0 -77 -29 -134.5t-80.5 -96.5t-122 -58.5 t-153.5 -19.5q-56 0 -103.5 9.5t-83 22t-58 25t-29.5 18.5q-11 11 -15.5 30t-4.5 63q0 29 2 47t6 28.5t10 14t15 3.5q14 0 34.5 -12.5t51 -28t73 -28t99.5 -12.5q66 0 104.5 26.5t38.5 80.5q0 25 -8 44.5t-26.5 36.5t-49.5 33.5t-76 34.5l-88 35q-64 25 -113.5 55t-83 68 t-51 86.5t-17.5 112.5zM328 606q0 -51 31 -84t100 -61l78 -31q35 -13 61 -30q50 23 73.5 64t23.5 84q0 27 -7.5 47.5t-23.5 37.5t-40.5 31.5t-58.5 28.5l-78 33q-18 8 -33.5 14.5t-28.5 13.5q-51 -22 -74 -62.5t-23 -85.5z" />
<glyph unicode="&#xa8;" horiz-adv-x="849" d="M102 1222q0 72 27 99t100 27q75 0 101 -27q26 -26 26 -94q0 -70 -27 -98q-26 -27 -100 -27q-75 0 -101 26q-26 28 -26 94zM493 1222q0 71 26 99q27 27 101 27q75 0 101 -27q26 -26 26 -94q0 -70 -27 -98q-26 -27 -101 -27q-74 0 -100 26q-26 28 -26 94z" />
<glyph unicode="&#xa9;" horiz-adv-x="1709" d="M158 665q0 187 47 325t137 229t220.5 136t297.5 45q341 0 516.5 -175.5t175.5 -513.5q0 -186 -47 -324t-137 -229t-221 -136t-299 -45q-342 0 -516 173.5t-174 514.5zM339 678q0 -138 29 -240.5t91.5 -169.5t161 -100t237.5 -33q147 0 245.5 43t157.5 118.5t84 178.5 t25 222q0 131 -26.5 232.5t-87.5 171t-160.5 105.5t-244.5 36q-134 0 -230.5 -37t-159 -108.5t-92.5 -177t-30 -241.5zM495 674q0 115 29 199t80.5 138.5t122.5 81t155 26.5q36 0 70.5 -6.5t64 -16.5t51.5 -22.5t33 -24.5q10 -9 15 -16.5t7.5 -17.5t3 -23t0.5 -33 q0 -16 -1.5 -32t-6 -29t-12 -21t-19.5 -8q-15 0 -30 12t-36.5 27t-52 27t-76.5 12q-87 0 -133 -65t-46 -193q0 -131 43.5 -195t142.5 -64q43 0 74.5 13.5t55 30t40 30t29.5 13.5q12 0 18 -18.5t6 -73.5q0 -23 -0.5 -38t-3 -25.5t-7 -18t-11.5 -14.5q-10 -10 -32 -23t-53 -25 t-69.5 -20t-81.5 -8q-181 0 -275.5 108.5t-94.5 312.5z" />
<glyph unicode="&#xaa;" horiz-adv-x="852" d="M102 816q0 111 84.5 162t263.5 51h65v31q0 24 -5 42t-18.5 30t-36 18.5t-56.5 6.5q-44 0 -77 -9t-57.5 -20t-41.5 -20t-28 -9q-43 0 -43 90q0 23 4.5 38t15.5 23q5 4 26 14.5t54.5 21t78 19t98.5 8.5q77 0 132.5 -14.5t91 -45.5t52 -78t16.5 -112v-415q0 -14 -16.5 -21.5 t-67.5 -7.5q-27 0 -44.5 2t-27 6t-13 9.5t-3.5 13.5v41h-3q-34 -38 -84.5 -60.5t-116.5 -22.5q-115 0 -179 51.5t-64 156.5zM110 411q0 48 9.5 67.5t31.5 19.5h538q22 0 31.5 -19t9.5 -68q0 -46 -9.5 -65.5t-31.5 -19.5h-538q-22 0 -31.5 19.5t-9.5 65.5zM308 824 q0 -37 23.5 -56.5t65.5 -19.5q37 0 63 16t55 49v99h-58q-83 0 -116 -22.5t-33 -65.5z" />
<glyph unicode="&#xab;" horiz-adv-x="1103" d="M102 484q-26 42 4 91l213 347q6 9 12.5 15.5t18 10.5t30.5 5.5t49 1.5q36 0 58 -4t33 -11t12 -17t-6 -23l-195 -375l200 -383q7 -13 6.5 -23.5t-11 -17.5t-32.5 -11t-59 -4q-29 0 -47.5 2t-30.5 6t-19 10t-12 15zM501.5 526.5q0.5 21.5 17.5 47.5l206 328q6 9 12.5 14.5 t18 9.5t29.5 5.5t47 1.5q37 0 59.5 -3.5t33 -10t11.5 -16.5t-6 -22l-190 -355l203 -369q6 -12 5.5 -20.5t-11.5 -14.5t-33.5 -9t-58.5 -3q-29 0 -47.5 1.5t-30 4.5t-18.5 8.5t-12 13.5l-222 346q-14 21 -13.5 42.5z" />
<glyph unicode="&#xac;" d="M47 588q0 54 11.5 75t29.5 21h760q43 0 64.5 -20t21.5 -68v-319q0 -21 -22 -32.5t-79 -11.5q-58 0 -80 11.5t-22 32.5v214h-645q-20 0 -29.5 20.5t-9.5 76.5z" />
<glyph unicode="&#xad;" horiz-adv-x="627" d="M59 503q0 57 11 79.5t36 22.5h416q24 0 35 -22t11 -80t-11 -81t-35 -23h-416q-25 0 -36 23.5t-11 80.5z" />
<glyph unicode="&#xae;" horiz-adv-x="1038" d="M105 1014q0 85 32.5 159.5t88.5 129.5t132 86.5t163 31.5q90 0 165.5 -30t130.5 -84t85.5 -128.5t30.5 -162.5q0 -86 -32.5 -160.5t-88.5 -129.5t-132 -86.5t-163 -31.5q-89 0 -164.5 30t-130.5 84t-86 128.5t-31 163.5zM223 1018q0 -68 22 -124t61.5 -97t93.5 -63.5 t118 -22.5q67 0 122 23.5t94 64.5t60 95.5t21 117.5q0 67 -22 123.5t-61 97t-93.5 63t-118.5 22.5q-67 0 -121.5 -23.5t-93.5 -64.5t-60.5 -95.5t-21.5 -116.5zM347 839v342q0 27 13 42t41 15h128q35 0 66.5 -6t55 -20t37.5 -37.5t14 -57.5q0 -45 -25.5 -73t-68.5 -39 q26 -7 46.5 -25t32.5 -53l20 -59q5 -13 6 -21t1 -13q0 -10 -13 -14t-57 -4q-22 0 -35 1.5t-20.5 4.5t-11 8t-5.5 13l-17 66q-9 34 -22 45.5t-37 11.5h-24v-127q0 -13 -11.5 -18t-48.5 -5q-39 0 -52 5t-13 18zM472 1053h36q34 0 47 14t13 35q0 19 -12.5 32t-46.5 13h-37v-94z " />
<glyph unicode="&#xaf;" horiz-adv-x="799" d="M102 1231q0 51 10 71.5t34 20.5h510q23 0 32 -20t9 -72q0 -51 -9 -71t-32 -20h-510q-24 0 -34 20t-10 71z" />
<glyph unicode="&#xb0;" horiz-adv-x="701" d="M74 1117q0 55 21 103.5t58 84.5t88.5 56.5t112.5 20.5q62 0 112.5 -19t86 -52.5t55 -80.5t19.5 -103t-20.5 -104t-58 -84t-89 -56.5t-113.5 -20.5t-112 19t-85.5 52.5t-55 80.5t-19.5 103zM245 1123q0 -50 30 -82t77 -32q45 0 74 32.5t29 79.5q0 51 -30 82t-77 31 q-44 0 -73.5 -32t-29.5 -79z" />
<glyph unicode="&#xb1;" d="M69 756q0 54 11 74t28 20h302v329q0 19 21.5 30t78.5 11q56 0 77.5 -11t21.5 -30v-329h303q16 0 27.5 -20.5t11.5 -73.5q0 -52 -12 -73.5t-30 -21.5h-300v-328q0 -18 -21.5 -29t-77.5 -11q-57 0 -78.5 11t-21.5 29v328h-300q-17 0 -29 21.5t-12 73.5zM84 96q0 56 10 77 t28 21h778q17 0 27.5 -21t10.5 -77q0 -28 -3.5 -46.5t-9 -29.5t-13 -15.5t-15.5 -4.5h-772q-8 0 -15.5 4.5t-13 15.5t-9 29.5t-3.5 46.5z" />
<glyph unicode="&#xb2;" horiz-adv-x="692" d="M62 792q0 24 2.5 41t8.5 30.5t16 26t25 27.5l132 130q36 35 58 63t35 52t17.5 45.5t4.5 42.5q0 38 -24 61t-70 23q-31 0 -57 -9t-46.5 -19.5t-36 -19.5t-24.5 -9q-6 0 -11 4t-8.5 14t-5 27t-1.5 43q0 22 1.5 36t6.5 24t15 17.5t27 16.5q34 18 89.5 34t119.5 16 q68 0 118.5 -15.5t84.5 -44t50.5 -68t16.5 -87.5q0 -35 -7.5 -69.5t-31 -75t-68 -91.5t-118.5 -120l-72 -67h298q12 0 21 -18t9 -60t-6.5 -60t-21.5 -18h-486q-17 0 -29 2.5t-19 10.5t-10 23t-3 41z" />
<glyph unicode="&#xb3;" horiz-adv-x="688" d="M56 838q0 59 23 59q7 0 21.5 -7t37 -15.5t52.5 -15.5t67 -7q63 0 96.5 23t33.5 68q0 47 -37.5 71.5t-124.5 24.5h-61q-20 0 -27 14.5t-7 59.5q0 41 7.5 54.5t24.5 13.5h64q72 0 107 25.5t35 71.5q0 36 -24 57t-76 21q-33 0 -61.5 -8.5t-50.5 -18.5t-37.5 -18.5 t-23.5 -8.5q-13 0 -18 15t-5 54q0 17 0.5 28.5t2 19.5t5 13.5t8.5 10.5q7 7 28 18.5t52.5 22t72 18t87.5 7.5q67 0 116.5 -14.5t82 -41t48.5 -63t16 -80.5q0 -72 -36 -120.5t-111 -66.5v-2q41 -3 74.5 -18t57 -38.5t36.5 -54t13 -64.5q0 -64 -26.5 -110.5t-72 -77 t-107 -45.5t-131.5 -15q-46 0 -83.5 5.5t-65.5 13.5t-45 15.5t-21 12.5q-5 4 -8 10t-5 16t-3 26t-1 41z" />
<glyph unicode="&#xb4;" horiz-adv-x="616" d="M103.5 1111.5q1.5 9.5 9.5 23.5l143 229q7 11 16.5 19t25 12.5t38.5 6.5t56 2q46 0 72.5 -4t38 -11.5t10.5 -17.5t-10 -21l-194 -232q-8 -10 -16 -16.5t-20.5 -10.5t-31.5 -6t-48 -2q-35 0 -55 3t-28 9.5t-6.5 16z" />
<glyph unicode="&#xb5;" horiz-adv-x="1154" d="M126 -320v1246q0 10 6 17.5t20.5 12.5t38.5 7.5t61 2.5t61 -2.5t38.5 -7.5t20.5 -12.5t6 -17.5v-541q0 -88 38 -138.5t111 -50.5q49 0 97.5 34.5t102.5 101.5v594q0 10 6 17.5t20 12.5t38.5 7.5t61.5 2.5q36 0 60.5 -2.5t38.5 -7.5t20 -12.5t6 -17.5v-616 q0 -68 15.5 -94.5t56.5 -26.5q26 0 39.5 4.5t24.5 4.5q7 0 12 -3t8 -13t4.5 -27.5t1.5 -46.5q0 -34 -3 -54.5t-8.5 -32.5t-13 -17.5t-17.5 -8.5q-22 -8 -52.5 -12.5t-64.5 -4.5q-88 0 -145 34.5t-82 113.5q-66 -76 -130 -109t-127 -33q-46 0 -80.5 12t-56.5 39 q3 -25 6 -54.5t6 -60t4.5 -59.5t1.5 -53v-128q0 -10 -6 -18t-20.5 -13.5t-38.5 -8.5t-61 -3t-61 3t-38.5 8.5t-20.5 13.5t-6 18z" />
<glyph unicode="&#xb6;" horiz-adv-x="1224" d="M82 893q0 88 29.5 160.5t86.5 126.5t139.5 84t207.5 30h463q29 0 44.5 -17t15.5 -46v-1434q0 -16 -19.5 -24.5t-75.5 -8.5q-55 0 -75 8.5t-20 24.5v1322h-176v-1322q0 -16 -20 -24.5t-75 -8.5t-75 8.5t-20 24.5v708q-101 0 -181 25.5t-135.5 75t-84.5 122t-29 165.5z" />
<glyph unicode="&#xb7;" horiz-adv-x="548" d="M125 592q0 93 32 125q33 33 118 33q83 0 115 -32t32 -120q0 -93 -33 -126q-32 -32 -116 -32t-116 32t-32 120z" />
<glyph unicode="&#xb8;" horiz-adv-x="621" d="M102 -266q0 40 7.5 55.5t27.5 15.5h116q29 0 43.5 12.5t14.5 34.5q0 12 -5 27t-12 31l-41 90h202l30 -66q18 -39 26 -68t8 -56q0 -46 -17 -79t-46 -54.5t-68 -31.5t-84 -10q-33 0 -62.5 3.5t-53 8.5t-40 10.5t-23.5 8.5q-14 8 -18.5 22t-4.5 46z" />
<glyph unicode="&#xb9;" horiz-adv-x="517" d="M29 1311q0 19 1 31.5t4 21.5t8 15t14 11l172 104q5 2 11 4t16 3t25.5 1.5t40.5 0.5q30 0 47 -1.5t25.5 -4t11 -6.5t2.5 -8v-746q0 -8 -4.5 -13t-15.5 -8.5t-31 -5t-50 -1.5q-59 0 -80.5 6.5t-21.5 21.5v574l-120 -58q-33 -16 -44 -4t-11 62z" />
<glyph unicode="&#xba;" horiz-adv-x="891" d="M85 958q0 82 22.5 148t67.5 112.5t112.5 71.5t158.5 25q173 0 261.5 -92t88.5 -257q0 -82 -23.5 -148t-68.5 -112.5t-111.5 -72t-152.5 -25.5q-184 0 -269.5 89.5t-85.5 260.5zM122 411q0 48 10 67.5t32 19.5h552q22 0 31 -19t9 -68q0 -46 -9 -65.5t-31 -19.5h-552 q-22 0 -32 19.5t-10 65.5zM311 963q0 -43 6 -78t21 -59.5t39.5 -38t62.5 -13.5q64 0 97 42.5t33 141.5q0 42 -6.5 77t-21.5 60.5t-40 39.5t-62 14q-68 0 -98.5 -49t-30.5 -137z" />
<glyph unicode="&#xbb;" horiz-adv-x="1103" d="M152.5 904.5q0.5 8.5 11.5 14.5t33 9t59 3q30 0 48.5 -1t29.5 -4t17.5 -8.5t12.5 -14.5l221 -347q13 -20 13 -41.5t-17 -47.5l-205 -328q-6 -9 -12.5 -15t-18 -9.5t-30 -5t-47.5 -1.5q-73 0 -92 12.5t-5 39.5l190 355l-203 369q-6 12 -5.5 20.5zM562.5 922.5 q0.5 10.5 11 17.5t33 11t59.5 4q29 0 47.5 -2t30 -5.5t18 -10t12.5 -15.5l224 -366q13 -21 12.5 -43t-16.5 -48l-213 -346q-6 -9 -12.5 -15.5t-18.5 -10.5t-30.5 -5.5t-47.5 -1.5q-37 0 -59.5 4t-33.5 11t-11.5 17t6.5 23l195 375l-200 383q-7 13 -6.5 23.5z" />
<glyph unicode="&#xbc;" horiz-adv-x="1347" d="M56 1125q0 35 4.5 50t21.5 25l176 99q4 2 9 3.5t15 2t25.5 1t40.5 0.5q30 0 48 -1t27.5 -3.5t12 -5.5t2.5 -7v-622q0 -7 -4 -12t-15.5 -8t-31.5 -4.5t-51 -1.5q-61 0 -82.5 6t-21.5 20v462l-120 -56q-18 -8 -29 -10.5t-17 3.5t-8 20t-2 39zM85.5 -18.5 q-15.5 15.5 5.5 44.5l922 1263q9 12 18.5 19.5t23 12.5t33.5 7t50 2q66 0 80.5 -16t-5.5 -44l-922 -1263q-9 -12 -18.5 -19.5t-23.5 -12.5t-34 -7t-49 -2q-65 0 -80.5 15.5zM683 193q0 21 0.5 36t3 27t7 23t12.5 23l208 329q3 5 11.5 9t25 7t42 4.5t62.5 1.5q42 0 69.5 -2 t44 -5.5t23 -8.5t6.5 -11v-376h64q10 0 18 -15t8 -51q0 -68 -26 -68h-64v-97q0 -13 -21 -19t-79 -6q-56 0 -77 6t-21 19v97h-277q-11 0 -18.5 2t-12 10t-7 23.5t-2.5 41.5zM837 250h163v254h-2z" />
<glyph unicode="&#xbd;" horiz-adv-x="1415" d="M56 1125q0 35 4.5 50t21.5 25l176 99q4 2 9 3.5t15 2t25.5 1t40.5 0.5q30 0 48 -1t27.5 -3.5t12 -5.5t2.5 -7v-622q0 -7 -4 -12t-15.5 -8t-31.5 -4.5t-51 -1.5q-61 0 -82.5 6t-21.5 20v462l-120 -56q-18 -8 -29 -10.5t-17 3.5t-8 20t-2 39zM85.5 -18.5 q-15.5 15.5 5.5 44.5l922 1263q9 12 18.5 19.5t23 12.5t33.5 7t50 2q66 0 80.5 -16t-5.5 -44l-922 -1263q-9 -12 -18.5 -19.5t-23.5 -12.5t-34 -7t-49 -2q-65 0 -80.5 15.5zM813 81q0 18 1 31t5.5 24t13 21t23.5 23l126 110q29 25 49 45.5t32 38t17 34.5t5 37q0 29 -22 48 t-58 19q-30 0 -54 -7.5t-43.5 -16t-33.5 -16t-23 -7.5q-5 0 -9.5 3.5t-8 12.5t-5.5 24.5t-1 38.5q0 20 1 31.5t5.5 19t13 13.5t23.5 14q31 16 82.5 29t118.5 13q126 0 186.5 -51.5t60.5 -136.5q0 -30 -8.5 -60t-29.5 -62t-57 -68t-90 -79l-81 -64h262q30 0 30 -73 q0 -38 -6.5 -54t-18.5 -16h-445q-18 0 -30 2t-19 10.5t-9.5 24.5t-2.5 44z" />
<glyph unicode="&#xbe;" horiz-adv-x="1437" d="M59 755q0 32 5.5 42t15.5 10q9 0 22.5 -6.5t34 -14.5t49.5 -14.5t71 -6.5q63 0 89 21.5t26 50.5q0 18 -7 32.5t-24 24.5t-44.5 15t-68.5 5h-63q-20 0 -26.5 12t-6.5 51t6.5 49.5t23.5 10.5h68q64 0 95 20.5t31 55.5q0 27 -20.5 45.5t-71.5 18.5q-29 0 -55 -7.5t-47.5 -16 t-37 -16t-22.5 -7.5q-11 0 -17 12t-6 50q0 16 0.5 26t2 16.5t4.5 11t8 9.5q7 6 27.5 15.5t51.5 18.5t70.5 15.5t86.5 6.5q124 0 186 -43.5t62 -125.5q0 -57 -33.5 -98.5t-102.5 -57.5q85 -8 125.5 -48.5t40.5 -98.5q0 -50 -23 -89t-64.5 -65.5t-99.5 -40.5t-128 -14 q-62 0 -110.5 9t-77.5 22q-14 6 -23 12.5t-14 16.5t-7 25.5t-2 39.5zM172.5 -18.5q-15.5 15.5 5.5 44.5l922 1263q9 12 18.5 19.5t23 12.5t33.5 7t50 2q66 0 80.5 -16t-5.5 -44l-922 -1263q-9 -12 -18.5 -19.5t-23.5 -12.5t-34 -7t-49 -2q-65 0 -80.5 15.5zM773 193 q0 21 0.5 36t3 27t7 23t12.5 23l208 329q3 5 11.5 9t25 7t42 4.5t62.5 1.5q42 0 69.5 -2t44 -5.5t23 -8.5t6.5 -11v-376h64q10 0 18 -15t8 -51q0 -68 -26 -68h-64v-97q0 -13 -21 -19t-79 -6q-56 0 -77 6t-21 19v97h-277q-11 0 -18.5 2t-12 10t-7 23.5t-2.5 41.5zM927 250 h163v254h-2z" />
<glyph unicode="&#xbf;" horiz-adv-x="949" d="M83 204q0 82 23.5 148t66 114t102 77t131.5 37l8 195q2 36 108 36q67 0 91.5 -7t25.5 -29l9 -236q2 -63 -17.5 -84t-64.5 -21h-14q-53 0 -91.5 -16.5t-63 -45t-36.5 -66.5t-12 -81q0 -48 13.5 -88t41 -68.5t69 -44.5t97.5 -16q51 0 90 10t67 22t46.5 22t28.5 10 q7 0 13 -4.5t10.5 -16.5t7 -33.5t1.5 -56.5q0 -27 -1 -41.5t-5.5 -24t-15.5 -16.5t-32 -18q-41 -20 -108.5 -36.5t-145.5 -16.5q-118 0 -202 32.5t-137.5 87t-78.5 126.5t-25 150zM379 1061q0 41 6.5 69t23 45t43.5 24.5t68 7.5q42 0 69 -7.5t43.5 -24.5t23 -45t6.5 -69 q0 -42 -6.5 -70.5t-23 -46t-43.5 -25t-69 -7.5q-41 0 -68 7.5t-43.5 25t-23 46t-6.5 70.5z" />
<glyph unicode="&#xc0;" horiz-adv-x="1241" d="M25.5 44q3.5 21 15.5 56l399 1148q6 17 14 27.5t25.5 16t48.5 7t82 1.5q59 0 93.5 -1.5t54 -7t28 -16.5t15.5 -30l400 -1147q13 -36 16 -57t-8.5 -31.5t-39.5 -13t-77 -2.5q-50 0 -79 1.5t-44 6t-21 12.5t-10 21l-87 260h-486l-82 -253q-5 -14 -11 -23.5t-21 -15 t-41 -7.5t-69 -2q-46 0 -72 3.5t-36.5 14.5t-7 32zM249.5 1646.5q-4.5 12.5 4.5 22t34.5 15t71.5 5.5q37 0 61.5 -1.5t42 -6.5t30.5 -14t26 -24l180 -204q24 -27 8 -40t-84 -13q-31 0 -52 2t-36 6.5t-25.5 11t-20.5 15.5l-222 200q-14 13 -18.5 25.5zM423 497h367l-183 550 h-1z" />
<glyph unicode="&#xc1;" horiz-adv-x="1241" d="M25.5 44q3.5 21 15.5 56l399 1148q6 17 14 27.5t25.5 16t48.5 7t82 1.5q59 0 93.5 -1.5t54 -7t28 -16.5t15.5 -30l400 -1147q13 -36 16 -57t-8.5 -31.5t-39.5 -13t-77 -2.5q-50 0 -79 1.5t-44 6t-21 12.5t-10 21l-87 260h-486l-82 -253q-5 -14 -11 -23.5t-21 -15 t-41 -7.5t-69 -2q-46 0 -72 3.5t-36.5 14.5t-7 32zM423 497h367l-183 550h-1zM488 1398.5q-16 12.5 8 40.5l180 204q13 15 25.5 24t30 14t42 6.5t62.5 1.5q46 0 71.5 -6t34.5 -15.5t4.5 -21.5t-18.5 -25l-222 -200q-10 -9 -20.5 -15.5t-25.5 -11t-36 -6.5t-52 -2 q-68 0 -84 12.5z" />
<glyph unicode="&#xc2;" horiz-adv-x="1241" d="M25.5 44q3.5 21 15.5 56l399 1148q6 17 14 27.5t25.5 16t48.5 7t82 1.5q59 0 93.5 -1.5t54 -7t28 -16.5t15.5 -30l400 -1147q13 -36 16 -57t-8.5 -31.5t-39.5 -13t-77 -2.5q-50 0 -79 1.5t-44 6t-21 12.5t-10 21l-87 260h-486l-82 -253q-5 -14 -11 -23.5t-21 -15 t-41 -7.5t-69 -2q-46 0 -72 3.5t-36.5 14.5t-7 32zM270 1397q-16 11 8 37l195 214q12 13 25 21t30.5 12.5t41 6t56.5 1.5t54.5 -1t36.5 -5.5t27 -12.5t25 -22l198 -214q26 -29 9.5 -38.5t-85.5 -9.5q-42 0 -67.5 1.5t-41 5t-24 9.5t-16.5 15l-118 137l-122 -134 q-9 -10 -18 -16.5t-24 -10.5t-40 -5.5t-67 -1.5q-67 0 -83 11zM423 497h367l-183 550h-1z" />
<glyph unicode="&#xc3;" horiz-adv-x="1241" d="M25.5 44q3.5 21 15.5 56l399 1148q6 17 14 27.5t25.5 16t48.5 7t82 1.5q59 0 93.5 -1.5t54 -7t28 -16.5t15.5 -30l400 -1147q13 -36 16 -57t-8.5 -31.5t-39.5 -13t-77 -2.5q-50 0 -79 1.5t-44 6t-21 12.5t-10 21l-87 260h-486l-82 -253q-5 -14 -11 -23.5t-21 -15 t-41 -7.5t-69 -2q-46 0 -72 3.5t-36.5 14.5t-7 32zM267 1427q0 115 58 175t161 60q57 0 96.5 -15.5t70 -34.5t56.5 -34.5t56 -15.5q29 0 46 16t17 58q0 16 17 21t62 5t60.5 -7.5t15.5 -30.5q0 -115 -56.5 -175t-162.5 -60q-57 0 -96.5 15.5t-70.5 34t-56.5 34t-55.5 15.5 q-34 0 -48.5 -19t-14.5 -54q0 -17 -18.5 -21.5t-60.5 -4.5q-45 0 -60.5 7.5t-15.5 30.5zM423 497h367l-183 550h-1z" />
<glyph unicode="&#xc4;" horiz-adv-x="1241" d="M25.5 44q3.5 21 15.5 56l399 1148q6 17 14 27.5t25.5 16t48.5 7t82 1.5q59 0 93.5 -1.5t54 -7t28 -16.5t15.5 -30l400 -1147q13 -36 16 -57t-8.5 -31.5t-39.5 -13t-77 -2.5q-50 0 -79 1.5t-44 6t-21 12.5t-10 21l-87 260h-486l-82 -253q-5 -14 -11 -23.5t-21 -15 t-41 -7.5t-69 -2q-46 0 -72 3.5t-36.5 14.5t-7 32zM274 1530q0 71 28 98q28 28 104 28q77 0 104 -27t27 -95q0 -70 -28 -98q-27 -28 -104 -28q-39 0 -64 6.5t-40 20.5t-21 37.5t-6 57.5zM423 497h367l-183 550h-1zM711 1530q0 36 6 60t21 38.5t40.5 21t64.5 6.5 q77 0 104 -27q27 -26 27 -95q0 -70 -28 -98t-105 -28t-104 27q-26 28 -26 95z" />
<glyph unicode="&#xc5;" horiz-adv-x="1241" d="M25.5 44q3.5 21 15.5 56l399 1148q6 17 14 27.5t25.5 16t48.5 7t82 1.5q59 0 93.5 -1.5t54 -7t28 -16.5t15.5 -30l400 -1147q13 -36 16 -57t-8.5 -31.5t-39.5 -13t-77 -2.5q-50 0 -79 1.5t-44 6t-21 12.5t-10 21l-87 260h-486l-82 -253q-5 -14 -11 -23.5t-21 -15 t-41 -7.5t-69 -2q-46 0 -72 3.5t-36.5 14.5t-7 32zM386 1551q0 97 62.5 149.5t178.5 52.5q117 0 176 -49t59 -146t-63 -150t-180 -53q-118 0 -175.5 51t-57.5 145zM423 497h367l-183 550h-1zM539 1556q0 -42 19.5 -65t67.5 -23q42 0 62.5 23t20.5 62t-19.5 63t-67.5 24 q-42 0 -62.5 -22t-20.5 -62z" />
<glyph unicode="&#xc6;" horiz-adv-x="1588" d="M-45 29q0 11 5 27.5t19 43.5l570 1140q9 18 18.5 28.5t27.5 16t49 7.5t82 2h725q19 0 29 -22.5t10 -81.5q0 -57 -10 -79.5t-29 -22.5h-461v-317h390q20 0 30 -22t10 -79q0 -58 -10 -80t-30 -22h-390v-362h466q18 0 28 -23t10 -80t-10 -80t-28 -23h-649q-33 0 -55 19 t-22 64v198h-390l-118 -240q-7 -14 -15 -23t-23.5 -14.5t-42.5 -7.5t-72 -2q-65 0 -89.5 6t-24.5 29zM421 482h309v606h-5z" />
<glyph unicode="&#xc7;" horiz-adv-x="1084" d="M79 630q0 165 44 293t123 215t189.5 132t243.5 45q54 0 104 -9.5t92 -23.5q43 -15 77 -33.5t47 -32.5q14 -13 19 -22t8 -23t4.5 -33t1.5 -47q0 -60 -9 -85t-28 -25q-15 0 -38 17.5t-59 39t-87 39t-121 17.5q-77 0 -137.5 -31.5t-102.5 -90t-64.5 -142t-22.5 -186.5 q0 -114 23.5 -197.5t67 -137.5t105 -80.5t138.5 -26.5q68 0 119.5 16.5t88.5 36t61 36t36 16.5q9 0 15.5 -4t10.5 -16t6 -33.5t2 -57.5q0 -26 -1 -43t-4 -29.5t-9 -22.5t-16 -20q-11 -11 -42.5 -29t-69.5 -33t-76 -23.5t-72 -11.5l23 -50q18 -39 26.5 -68t8.5 -56 q0 -46 -17 -79t-46 -54.5t-68 -31.5t-84 -10q-33 0 -62.5 3.5t-53 8.5t-40 10.5t-23.5 8.5q-14 8 -18.5 22t-4.5 46q0 40 7.5 55.5t27.5 15.5h116q29 0 43.5 12.5t14.5 34.5q0 12 -5 27t-12 31l-34 77q-87 11 -167.5 48.5t-149.5 112.5q-69 76 -109 197.5t-40 284.5z" />
<glyph unicode="&#xc8;" horiz-adv-x="999" d="M141 83v1128q0 45 22.5 64t55.5 19h646q18 0 28 -22.5t10 -81.5q0 -57 -10 -79.5t-28 -22.5h-462v-316h391q19 0 29 -22t10 -79t-10 -78.5t-29 -21.5h-391v-365h466q19 0 29 -23t10 -80t-10 -80t-29 -23h-650q-33 0 -55.5 19t-22.5 64zM167.5 1646.5q-4.5 12.5 4.5 22 t34.5 15t71.5 5.5q37 0 61.5 -1.5t42 -6.5t30.5 -14t26 -24l180 -204q24 -27 8 -40t-84 -13q-31 0 -52 2t-36 6.5t-25.5 11t-20.5 15.5l-222 200q-14 13 -18.5 25.5z" />
<glyph unicode="&#xc9;" horiz-adv-x="999" d="M141 83v1128q0 45 22.5 64t55.5 19h646q18 0 28 -22.5t10 -81.5q0 -57 -10 -79.5t-28 -22.5h-462v-316h391q19 0 29 -22t10 -79t-10 -78.5t-29 -21.5h-391v-365h466q19 0 29 -23t10 -80t-10 -80t-29 -23h-650q-33 0 -55.5 19t-22.5 64zM412 1398.5q-16 12.5 8 40.5 l180 204q13 15 25.5 24t30 14t42 6.5t62.5 1.5q46 0 71.5 -6t34.5 -15.5t4.5 -21.5t-18.5 -25l-222 -200q-10 -9 -20.5 -15.5t-25.5 -11t-36 -6.5t-52 -2q-68 0 -84 12.5z" />
<glyph unicode="&#xca;" horiz-adv-x="999" d="M141 83v1128q0 45 22.5 64t55.5 19h646q18 0 28 -22.5t10 -81.5q0 -57 -10 -79.5t-28 -22.5h-462v-316h391q19 0 29 -22t10 -79t-10 -78.5t-29 -21.5h-391v-365h466q19 0 29 -23t10 -80t-10 -80t-29 -23h-650q-33 0 -55.5 19t-22.5 64zM171 1397q-16 11 8 37l195 214 q12 13 25 21t30.5 12.5t41 6t56.5 1.5t54.5 -1t36.5 -5.5t27 -12.5t25 -22l198 -214q26 -29 9.5 -38.5t-85.5 -9.5q-42 0 -67.5 1.5t-41 5t-24 9.5t-16.5 15l-118 137l-122 -134q-9 -10 -18 -16.5t-24 -10.5t-40 -5.5t-67 -1.5q-67 0 -83 11z" />
<glyph unicode="&#xcb;" horiz-adv-x="999" d="M141 83v1128q0 45 22.5 64t55.5 19h646q18 0 28 -22.5t10 -81.5q0 -57 -10 -79.5t-28 -22.5h-462v-316h391q19 0 29 -22t10 -79t-10 -78.5t-29 -21.5h-391v-365h466q19 0 29 -23t10 -80t-10 -80t-29 -23h-650q-33 0 -55.5 19t-22.5 64zM179 1530q0 71 28 98q28 28 104 28 q77 0 104 -27t27 -95q0 -70 -28 -98q-27 -28 -104 -28q-39 0 -64 6.5t-40 20.5t-21 37.5t-6 57.5zM616 1530q0 36 6 60t21 38.5t40.5 21t64.5 6.5q77 0 104 -27q27 -26 27 -95q0 -70 -28 -98t-105 -28t-104 27q-26 28 -26 95z" />
<glyph unicode="&#xcc;" horiz-adv-x="546" d="M-60.5 1646.5q-4.5 12.5 4.5 22t34.5 15t71.5 5.5q37 0 61.5 -1.5t42 -6.5t30.5 -14t26 -24l180 -204q24 -27 8 -40t-84 -13q-31 0 -52 2t-36 6.5t-25.5 11t-20.5 15.5l-222 200q-14 13 -18.5 25.5zM141 36v1222q0 20 28.5 31t103.5 11q38 0 63.5 -3t40.5 -8t21.5 -13 t6.5 -18v-1222q0 -10 -6.5 -18t-21.5 -13t-40.5 -8t-63.5 -3q-76 0 -104 11t-28 31z" />
<glyph unicode="&#xcd;" horiz-adv-x="546" d="M141 36v1222q0 20 28.5 31t103.5 11q38 0 63.5 -3t40.5 -8t21.5 -13t6.5 -18v-1222q0 -10 -6.5 -18t-21.5 -13t-40.5 -8t-63.5 -3q-76 0 -104 11t-28 31zM147 1398.5q-16 12.5 8 40.5l180 204q13 15 25.5 24t30 14t42 6.5t62.5 1.5q46 0 71.5 -6t34.5 -15.5t4.5 -21.5 t-18.5 -25l-222 -200q-10 -9 -20.5 -15.5t-25.5 -11t-36 -6.5t-52 -2q-68 0 -84 12.5z" />
<glyph unicode="&#xce;" horiz-adv-x="546" d="M-79 1397q-16 11 8 37l195 214q12 13 25 21t30.5 12.5t41 6t56.5 1.5t54.5 -1t36.5 -5.5t27 -12.5t25 -22l198 -214q26 -29 9.5 -38.5t-85.5 -9.5q-42 0 -67.5 1.5t-41 5t-24 9.5t-16.5 15l-118 137l-122 -134q-9 -10 -18 -16.5t-24 -10.5t-40 -5.5t-67 -1.5 q-67 0 -83 11zM141 36v1222q0 20 28.5 31t103.5 11q38 0 63.5 -3t40.5 -8t21.5 -13t6.5 -18v-1222q0 -10 -6.5 -18t-21.5 -13t-40.5 -8t-63.5 -3q-76 0 -104 11t-28 31z" />
<glyph unicode="&#xcf;" horiz-adv-x="546" d="M-75 1530q0 71 28 98q28 28 104 28q77 0 104 -27t27 -95q0 -70 -28 -98q-27 -28 -104 -28q-39 0 -64 6.5t-40 20.5t-21 37.5t-6 57.5zM141 36v1222q0 20 28.5 31t103.5 11q38 0 63.5 -3t40.5 -8t21.5 -13t6.5 -18v-1222q0 -10 -6.5 -18t-21.5 -13t-40.5 -8t-63.5 -3 q-76 0 -104 11t-28 31zM362 1530q0 36 6 60t21 38.5t40.5 21t64.5 6.5q77 0 104 -27q27 -26 27 -95q0 -70 -28 -98t-105 -28t-104 27q-26 28 -26 95z" />
<glyph unicode="&#xd0;" horiz-adv-x="1309" d="M15 670q0 58 10 79.5t29 21.5h106v440q0 45 22 64t55 19h333q172 0 292.5 -41t203.5 -120q83 -80 126 -196t43 -271q0 -179 -46.5 -304.5t-134.5 -206.5t-211.5 -118t-296.5 -37h-309q-33 0 -55 19t-22 64v485h-106q-9 0 -16.5 4.5t-12.5 16t-7.5 31.5t-2.5 50zM422 208 h137q109 0 182 27.5t122 84.5q99 112 99 337q0 93 -21 171.5t-69 136.5q-47 58 -122 90.5t-193 32.5h-135v-317h197q19 0 29 -22t10 -79q0 -58 -10 -80t-29 -22h-197v-360z" />
<glyph unicode="&#xd1;" horiz-adv-x="1349" d="M141 37v1163q0 48 27.5 71t67.5 23h141q37 0 63 -6.5t46.5 -22.5t38 -41.5t38.5 -64.5l252 -473q45 -85 85 -167t76 -162h1q-3 70 -4.5 146t-1.5 145v607q0 10 6 18t20 13.5t37.5 8.5t58.5 3t57.5 -3t35 -8.5t17.5 -13.5t5 -18v-1163q0 -48 -29.5 -71t-69.5 -23h-112 q-35 0 -60 7.5t-46 26t-41.5 50t-46.5 80.5l-322 605q-29 54 -57.5 116t-51.5 122h-2q4 -72 6 -143.5t2 -147.5v-677q0 -10 -5.5 -18t-19 -13.5t-36.5 -8.5t-59 -3q-35 0 -58 3t-36 8.5t-18 13.5t-5 18zM317 1427q0 115 58 175t161 60q57 0 96.5 -15.5t70 -34.5t56.5 -34.5 t56 -15.5q29 0 46 16t17 58q0 16 17 21t62 5t60.5 -7.5t15.5 -30.5q0 -115 -56.5 -175t-162.5 -60q-57 0 -96.5 15.5t-70.5 34t-56.5 34t-55.5 15.5q-34 0 -48.5 -19t-14.5 -54q0 -17 -18.5 -21.5t-60.5 -4.5q-45 0 -60.5 7.5t-15.5 30.5z" />
<glyph unicode="&#xd2;" horiz-adv-x="1385" d="M80 639q0 157 40 282.5t118.5 213.5t195.5 135t271 47q147 0 259.5 -39t188 -120t114 -204.5t38.5 -291.5q0 -161 -40 -288t-119 -215.5t-195.5 -135t-269.5 -46.5q-151 0 -263.5 39.5t-187.5 120.5t-112.5 206t-37.5 296zM345.5 1646.5q-4.5 12.5 4.5 22t34.5 15 t71.5 5.5q37 0 61.5 -1.5t42 -6.5t30.5 -14t26 -24l180 -204q24 -27 8 -40t-84 -13q-31 0 -52 2t-36 6.5t-25.5 11t-20.5 15.5l-222 200q-14 13 -18.5 25.5zM356 652q0 -106 15.5 -190.5t54 -144t102.5 -91.5t161 -32t162 36t104.5 98t56.5 144.5t17 175.5q0 102 -16 185.5 t-54.5 143t-102.5 92t-160 32.5q-97 0 -162 -36t-104.5 -97.5t-56.5 -143t-17 -172.5z" />
<glyph unicode="&#xd3;" horiz-adv-x="1385" d="M80 639q0 157 40 282.5t118.5 213.5t195.5 135t271 47q147 0 259.5 -39t188 -120t114 -204.5t38.5 -291.5q0 -161 -40 -288t-119 -215.5t-195.5 -135t-269.5 -46.5q-151 0 -263.5 39.5t-187.5 120.5t-112.5 206t-37.5 296zM356 652q0 -106 15.5 -190.5t54 -144 t102.5 -91.5t161 -32t162 36t104.5 98t56.5 144.5t17 175.5q0 102 -16 185.5t-54.5 143t-102.5 92t-160 32.5q-97 0 -162 -36t-104.5 -97.5t-56.5 -143t-17 -172.5zM570 1398.5q-16 12.5 8 40.5l180 204q13 15 25.5 24t30 14t42 6.5t62.5 1.5q46 0 71.5 -6t34.5 -15.5 t4.5 -21.5t-18.5 -25l-222 -200q-10 -9 -20.5 -15.5t-25.5 -11t-36 -6.5t-52 -2q-68 0 -84 12.5z" />
<glyph unicode="&#xd4;" horiz-adv-x="1385" d="M80 639q0 157 40 282.5t118.5 213.5t195.5 135t271 47q147 0 259.5 -39t188 -120t114 -204.5t38.5 -291.5q0 -161 -40 -288t-119 -215.5t-195.5 -135t-269.5 -46.5q-151 0 -263.5 39.5t-187.5 120.5t-112.5 206t-37.5 296zM341 1397q-16 11 8 37l195 214q12 13 25 21 t30.5 12.5t41 6t56.5 1.5t54.5 -1t36.5 -5.5t27 -12.5t25 -22l198 -214q26 -29 9.5 -38.5t-85.5 -9.5q-42 0 -67.5 1.5t-41 5t-24 9.5t-16.5 15l-118 137l-122 -134q-9 -10 -18 -16.5t-24 -10.5t-40 -5.5t-67 -1.5q-67 0 -83 11zM356 652q0 -106 15.5 -190.5t54 -144 t102.5 -91.5t161 -32t162 36t104.5 98t56.5 144.5t17 175.5q0 102 -16 185.5t-54.5 143t-102.5 92t-160 32.5q-97 0 -162 -36t-104.5 -97.5t-56.5 -143t-17 -172.5z" />
<glyph unicode="&#xd5;" horiz-adv-x="1385" d="M80 639q0 157 40 282.5t118.5 213.5t195.5 135t271 47q147 0 259.5 -39t188 -120t114 -204.5t38.5 -291.5q0 -161 -40 -288t-119 -215.5t-195.5 -135t-269.5 -46.5q-151 0 -263.5 39.5t-187.5 120.5t-112.5 206t-37.5 296zM338 1427q0 115 58 175t161 60q57 0 96.5 -15.5 t70 -34.5t56.5 -34.5t56 -15.5q29 0 46 16t17 58q0 16 17 21t62 5t60.5 -7.5t15.5 -30.5q0 -115 -56.5 -175t-162.5 -60q-57 0 -96.5 15.5t-70.5 34t-56.5 34t-55.5 15.5q-34 0 -48.5 -19t-14.5 -54q0 -17 -18.5 -21.5t-60.5 -4.5q-45 0 -60.5 7.5t-15.5 30.5zM356 652 q0 -106 15.5 -190.5t54 -144t102.5 -91.5t161 -32t162 36t104.5 98t56.5 144.5t17 175.5q0 102 -16 185.5t-54.5 143t-102.5 92t-160 32.5q-97 0 -162 -36t-104.5 -97.5t-56.5 -143t-17 -172.5z" />
<glyph unicode="&#xd6;" horiz-adv-x="1385" d="M80 639q0 157 40 282.5t118.5 213.5t195.5 135t271 47q147 0 259.5 -39t188 -120t114 -204.5t38.5 -291.5q0 -161 -40 -288t-119 -215.5t-195.5 -135t-269.5 -46.5q-151 0 -263.5 39.5t-187.5 120.5t-112.5 206t-37.5 296zM345 1530q0 71 28 98q28 28 104 28 q77 0 104 -27t27 -95q0 -70 -28 -98q-27 -28 -104 -28q-39 0 -64 6.5t-40 20.5t-21 37.5t-6 57.5zM356 652q0 -106 15.5 -190.5t54 -144t102.5 -91.5t161 -32t162 36t104.5 98t56.5 144.5t17 175.5q0 102 -16 185.5t-54.5 143t-102.5 92t-160 32.5q-97 0 -162 -36 t-104.5 -97.5t-56.5 -143t-17 -172.5zM782 1530q0 36 6 60t21 38.5t40.5 21t64.5 6.5q77 0 104 -27q27 -26 27 -95q0 -70 -28 -98t-105 -28t-104 27q-26 28 -26 95z" />
<glyph unicode="&#xd7;" d="M84 271q0 15 12 27l280 279l-277 278q-13 13 -13 30q0 18 13.5 39t32 39t38.5 29.5t34 11.5q15 0 27 -13l279 -280l277 277q13 13 31 13t39 -13.5t38.5 -32.5t29 -39t11.5 -32q0 -6 -2.5 -13.5t-9.5 -13.5l-281 -280l277 -276q13 -13 13 -31t-13.5 -39t-32 -38.5 t-38.5 -29.5t-33 -12q-15 0 -27 12l-279 280l-278 -276q-13 -13 -31 -13t-38.5 13.5t-38 32t-29 38.5t-11.5 33z" />
<glyph unicode="&#xd8;" horiz-adv-x="1394" d="M80 639q0 157 40 282.5t119.5 213.5t197 135t272.5 47q52 0 97 -6.5t93 -19.5l91 188q8 15 33.5 23t82.5 8q36 0 58 -4t32.5 -11.5t11.5 -17.5t-5 -23l-115 -236q112 -79 169 -215t57 -341q0 -161 -40.5 -288t-120 -215.5t-197 -135t-271.5 -46.5q-54 0 -102 6.5 t-87 18.5l-95 -194q-8 -16 -33 -23.5t-82 -7.5q-36 0 -58.5 4t-33.5 11.5t-11.5 17.5t5.5 23l118 241q-56 38 -98 91t-70.5 122.5t-43 157t-14.5 194.5zM347 651q0 -105 18.5 -189.5t63.5 -144.5l379 771q-24 10 -50.5 15t-60.5 5q-101 0 -168 -36.5t-107.5 -99 t-57.5 -145.5t-17 -176zM588 207q24 -9 50 -14t59 -5q100 0 167 35.5t108 98.5t58.5 148t17.5 184q0 100 -20 181t-63 142z" />
<glyph unicode="&#xd9;" horiz-adv-x="1337" d="M140 471v787q0 10 6 18t21 13t40.5 8t64.5 3q75 0 103 -11t28 -31v-764q0 -77 19 -133.5t54.5 -93.5t85 -55.5t110.5 -18.5t110.5 19t83.5 55.5t52.5 90t18.5 121.5v779q0 10 6 18t21 13t40.5 8t63.5 3q75 0 102 -11t27 -31v-776q0 -119 -35 -213t-103 -159t-168 -99 t-230 -34q-122 0 -219 30.5t-164 92t-102.5 154.5t-35.5 217zM309.5 1646.5q-4.5 12.5 4.5 22t34.5 15t71.5 5.5q37 0 61.5 -1.5t42 -6.5t30.5 -14t26 -24l180 -204q24 -27 8 -40t-84 -13q-31 0 -52 2t-36 6.5t-25.5 11t-20.5 15.5l-222 200q-14 13 -18.5 25.5z" />
<glyph unicode="&#xda;" horiz-adv-x="1337" d="M140 471v787q0 10 6 18t21 13t40.5 8t64.5 3q75 0 103 -11t28 -31v-764q0 -77 19 -133.5t54.5 -93.5t85 -55.5t110.5 -18.5t110.5 19t83.5 55.5t52.5 90t18.5 121.5v779q0 10 6 18t21 13t40.5 8t63.5 3q75 0 102 -11t27 -31v-776q0 -119 -35 -213t-103 -159t-168 -99 t-230 -34q-122 0 -219 30.5t-164 92t-102.5 154.5t-35.5 217zM553 1398.5q-16 12.5 8 40.5l180 204q13 15 25.5 24t30 14t42 6.5t62.5 1.5q46 0 71.5 -6t34.5 -15.5t4.5 -21.5t-18.5 -25l-222 -200q-10 -9 -20.5 -15.5t-25.5 -11t-36 -6.5t-52 -2q-68 0 -84 12.5z" />
<glyph unicode="&#xdb;" horiz-adv-x="1337" d="M140 471v787q0 10 6 18t21 13t40.5 8t64.5 3q75 0 103 -11t28 -31v-764q0 -77 19 -133.5t54.5 -93.5t85 -55.5t110.5 -18.5t110.5 19t83.5 55.5t52.5 90t18.5 121.5v779q0 10 6 18t21 13t40.5 8t63.5 3q75 0 102 -11t27 -31v-776q0 -119 -35 -213t-103 -159t-168 -99 t-230 -34q-122 0 -219 30.5t-164 92t-102.5 154.5t-35.5 217zM312 1397q-16 11 8 37l195 214q12 13 25 21t30.5 12.5t41 6t56.5 1.5t54.5 -1t36.5 -5.5t27 -12.5t25 -22l198 -214q26 -29 9.5 -38.5t-85.5 -9.5q-42 0 -67.5 1.5t-41 5t-24 9.5t-16.5 15l-118 137l-122 -134 q-9 -10 -18 -16.5t-24 -10.5t-40 -5.5t-67 -1.5q-67 0 -83 11z" />
<glyph unicode="&#xdc;" horiz-adv-x="1337" d="M140 471v787q0 10 6 18t21 13t40.5 8t64.5 3q75 0 103 -11t28 -31v-764q0 -77 19 -133.5t54.5 -93.5t85 -55.5t110.5 -18.5t110.5 19t83.5 55.5t52.5 90t18.5 121.5v779q0 10 6 18t21 13t40.5 8t63.5 3q75 0 102 -11t27 -31v-776q0 -119 -35 -213t-103 -159t-168 -99 t-230 -34q-122 0 -219 30.5t-164 92t-102.5 154.5t-35.5 217zM317 1530q0 71 28 98q28 28 104 28q77 0 104 -27t27 -95q0 -70 -28 -98q-27 -28 -104 -28q-39 0 -64 6.5t-40 20.5t-21 37.5t-6 57.5zM754 1530q0 36 6 60t21 38.5t40.5 21t64.5 6.5q77 0 104 -27q27 -26 27 -95 q0 -70 -28 -98t-105 -28t-104 27q-26 28 -26 95z" />
<glyph unicode="&#xdd;" horiz-adv-x="1064" d="M22 1253.5q-6 20.5 5.5 31t42.5 13t86 2.5q46 0 73.5 -2t43.5 -7.5t24 -14.5t14 -23l144 -318q21 -46 41.5 -96.5t41.5 -107.5h2q19 54 38.5 105.5t39.5 96.5l142 316q5 16 12 26t22.5 15.5t41.5 7.5t69 2q57 0 88.5 -2.5t43 -13t5.5 -31.5t-24 -57l-354 -705v-455 q0 -20 -28 -31t-104 -11q-39 0 -64.5 3t-40.5 8t-21 13t-6 18v455l-354 705q-18 37 -24 57.5zM451 1398.5q-16 12.5 8 40.5l180 204q13 15 25.5 24t30 14t42 6.5t62.5 1.5q46 0 71.5 -6t34.5 -15.5t4.5 -21.5t-18.5 -25l-222 -200q-10 -9 -20.5 -15.5t-25.5 -11t-36 -6.5 t-52 -2q-68 0 -84 12.5z" />
<glyph unicode="&#xde;" horiz-adv-x="1090" d="M141 30v1232q0 10 6 17.5t21 12.5t40.5 7.5t63.5 2.5t63.5 -2.5t40.5 -7.5t21.5 -12.5t6.5 -17.5v-175h131q46 0 88 -3.5t84 -11.5q74 -14 133.5 -45.5t101 -79t63.5 -111t22 -141.5q0 -109 -33.5 -193.5t-98 -142t-157.5 -87.5t-213 -30h-121v-212q0 -11 -6.5 -18 t-21.5 -12t-40.5 -7t-63.5 -2t-63.5 2t-40.5 7t-21 12t-6 18zM404 446h135q54 0 94 17t66.5 47.5t39.5 72.5t13 92q0 76 -33 126.5t-99 70.5q-23 8 -48.5 10t-53.5 2h-114v-438z" />
<glyph unicode="&#xdf;" horiz-adv-x="1136" d="M127 42v918q0 104 29 186t85.5 138.5t139 86t189.5 29.5q99 0 175.5 -25t128 -69.5t78 -106.5t26.5 -135q0 -49 -7.5 -95t-22.5 -82q-14 -36 -26.5 -46.5t-33.5 -10.5q-37 0 -62 -7.5t-40.5 -20.5t-22.5 -30.5t-7 -37.5q0 -40 24.5 -68.5t60.5 -53.5t79 -51t79 -61 t60.5 -84t24.5 -120q0 -67 -24 -125t-70.5 -100.5t-115 -67t-156.5 -24.5q-52 0 -96 10t-71 23q-13 6 -21 11.5t-13 16t-7 27.5t-2 47q0 52 9.5 72.5t26.5 20.5q12 0 25 -7t30.5 -15.5t41 -15.5t56.5 -7q66 0 99.5 33t33.5 80q0 39 -24 66.5t-60 52.5t-77.5 50.5t-77.5 61.5 t-60 86t-24 123q0 98 54.5 161.5t149.5 86.5q7 19 9.5 38.5t2.5 42.5q0 30 -9 57.5t-28.5 49.5t-50 35t-73.5 13q-50 0 -85 -16.5t-57 -47t-31.5 -74t-9.5 -96.5v-923q0 -12 -6 -21t-20 -15t-38.5 -9t-61.5 -3t-61 3t-38.5 9t-20.5 15t-6 21z" />
<glyph unicode="&#xe0;" horiz-adv-x="1011" d="M71 267q0 157 121.5 230.5t359.5 73.5h87v54q0 42 -8.5 73.5t-28 52.5t-52 31t-80.5 10q-63 0 -113 -14t-87.5 -31t-63.5 -31t-41 -14q-22 0 -34 27t-11 74q1 23 2.5 38.5t8.5 27.5t21.5 22.5t40.5 24.5q26 13 59.5 25t72 21.5t81 15t86.5 5.5q105 0 179.5 -20.5 t122.5 -63t70 -109t22 -159.5v-600q0 -21 -22 -29t-83 -8q-33 0 -53 2t-30.5 6t-14.5 11t-5 18v71q-55 -60 -125 -92.5t-157 -32.5q-71 0 -130.5 18.5t-103 55t-67.5 90.5t-24 126zM213 1371.5q-1 9.5 11 17t38.5 11.5t72.5 4q33 0 55.5 -2t37.5 -6.5t24.5 -12t17.5 -19.5 l143 -229q9 -14 10.5 -24t-6.5 -16t-28 -9t-54 -3q-29 0 -48 2t-32 6t-21.5 10.5t-16.5 16.5l-193 232q-10 12 -11 21.5zM317 275q0 -57 35.5 -88.5t98.5 -31.5q54 0 98 27t90 79v152h-96q-122 0 -174 -36t-52 -102z" />
<glyph unicode="&#xe1;" horiz-adv-x="1011" d="M71 267q0 157 121.5 230.5t359.5 73.5h87v54q0 42 -8.5 73.5t-28 52.5t-52 31t-80.5 10q-63 0 -113 -14t-87.5 -31t-63.5 -31t-41 -14q-22 0 -34 27t-11 74q1 23 2.5 38.5t8.5 27.5t21.5 22.5t40.5 24.5q26 13 59.5 25t72 21.5t81 15t86.5 5.5q105 0 179.5 -20.5 t122.5 -63t70 -109t22 -159.5v-600q0 -21 -22 -29t-83 -8q-33 0 -53 2t-30.5 6t-14.5 11t-5 18v71q-55 -60 -125 -92.5t-157 -32.5q-71 0 -130.5 18.5t-103 55t-67.5 90.5t-24 126zM317 275q0 -57 35.5 -88.5t98.5 -31.5q54 0 98 27t90 79v152h-96q-122 0 -174 -36t-52 -102 zM398.5 1111.5q1.5 9.5 9.5 23.5l143 229q7 11 16.5 19t25 12.5t38.5 6.5t56 2q46 0 72.5 -4t38 -11.5t10.5 -17.5t-10 -21l-194 -232q-8 -10 -16 -16.5t-20.5 -10.5t-31.5 -6t-48 -2q-35 0 -55 3t-28 9.5t-6.5 16z" />
<glyph unicode="&#xe2;" horiz-adv-x="1011" d="M71 267q0 157 121.5 230.5t359.5 73.5h87v54q0 42 -8.5 73.5t-28 52.5t-52 31t-80.5 10q-63 0 -113 -14t-87.5 -31t-63.5 -31t-41 -14q-22 0 -34 27t-11 74q1 23 2.5 38.5t8.5 27.5t21.5 22.5t40.5 24.5q26 13 59.5 25t72 21.5t81 15t86.5 5.5q105 0 179.5 -20.5 t122.5 -63t70 -109t22 -159.5v-600q0 -21 -22 -29t-83 -8q-33 0 -53 2t-30.5 6t-14.5 11t-5 18v71q-55 -60 -125 -92.5t-157 -32.5q-71 0 -130.5 18.5t-103 55t-67.5 90.5t-24 126zM208 1117q5 13 19 32l158 223q6 9 16 15t25 10t37 5.5t53 1.5q32 0 53.5 -2t36 -6t23.5 -10 t16 -14l157 -223q13 -19 18.5 -32t-1.5 -20.5t-28.5 -10.5t-60.5 -3q-32 0 -50.5 1.5t-29.5 5.5t-17.5 11t-13.5 17l-104 150l-104 -150q-8 -11 -15 -17.5t-18.5 -10.5t-30 -5.5t-48.5 -1.5q-40 0 -61 3t-28 10.5t-2 20.5zM317 275q0 -57 35.5 -88.5t98.5 -31.5q54 0 98 27 t90 79v152h-96q-122 0 -174 -36t-52 -102z" />
<glyph unicode="&#xe3;" horiz-adv-x="1011" d="M71 267q0 157 121.5 230.5t359.5 73.5h87v54q0 42 -8.5 73.5t-28 52.5t-52 31t-80.5 10q-63 0 -113 -14t-87.5 -31t-63.5 -31t-41 -14q-22 0 -34 27t-11 74q1 23 2.5 38.5t8.5 27.5t21.5 22.5t40.5 24.5q26 13 59.5 25t72 21.5t81 15t86.5 5.5q105 0 179.5 -20.5 t122.5 -63t70 -109t22 -159.5v-600q0 -21 -22 -29t-83 -8q-33 0 -53 2t-30.5 6t-14.5 11t-5 18v71q-55 -60 -125 -92.5t-157 -32.5q-71 0 -130.5 18.5t-103 55t-67.5 90.5t-24 126zM156 1127q0 117 55.5 183t160.5 66q57 0 96.5 -17.5t70 -39t56 -39t54.5 -17.5q62 0 62 85 q0 17 15 22.5t61 5.5q45 0 61.5 -7.5t16.5 -32.5q0 -121 -57 -185.5t-160 -64.5q-58 0 -97.5 17.5t-69.5 39t-55 39t-55 17.5q-33 0 -47 -23.5t-14 -61.5q0 -18 -15.5 -23t-63.5 -5q-42 0 -58.5 7.5t-16.5 33.5zM317 275q0 -57 35.5 -88.5t98.5 -31.5q54 0 98 27t90 79v152 h-96q-122 0 -174 -36t-52 -102z" />
<glyph unicode="&#xe4;" horiz-adv-x="1011" d="M71 267q0 157 121.5 230.5t359.5 73.5h87v54q0 42 -8.5 73.5t-28 52.5t-52 31t-80.5 10q-63 0 -113 -14t-87.5 -31t-63.5 -31t-41 -14q-22 0 -34 27t-11 74q1 23 2.5 38.5t8.5 27.5t21.5 22.5t40.5 24.5q26 13 59.5 25t72 21.5t81 15t86.5 5.5q105 0 179.5 -20.5 t122.5 -63t70 -109t22 -159.5v-600q0 -21 -22 -29t-83 -8q-33 0 -53 2t-30.5 6t-14.5 11t-5 18v71q-55 -60 -125 -92.5t-157 -32.5q-71 0 -130.5 18.5t-103 55t-67.5 90.5t-24 126zM189 1222q0 72 27 99t100 27q75 0 101 -27q26 -26 26 -94q0 -70 -27 -98q-26 -27 -100 -27 q-75 0 -101 26q-26 28 -26 94zM317 275q0 -57 35.5 -88.5t98.5 -31.5q54 0 98 27t90 79v152h-96q-122 0 -174 -36t-52 -102zM580 1222q0 71 26 99q27 27 101 27q75 0 101 -27q26 -26 26 -94q0 -70 -27 -98q-26 -27 -101 -27q-74 0 -100 26q-26 28 -26 94z" />
<glyph unicode="&#xe5;" horiz-adv-x="1011" d="M71 267q0 157 121.5 230.5t359.5 73.5h87v54q0 42 -8.5 73.5t-28 52.5t-52 31t-80.5 10q-63 0 -113 -14t-87.5 -31t-63.5 -31t-41 -14q-22 0 -34 27t-11 74q1 23 2.5 38.5t8.5 27.5t21.5 22.5t40.5 24.5q26 13 59.5 25t72 21.5t81 15t86.5 5.5q105 0 179.5 -20.5 t122.5 -63t70 -109t22 -159.5v-600q0 -21 -22 -29t-83 -8q-33 0 -53 2t-30.5 6t-14.5 11t-5 18v71q-55 -60 -125 -92.5t-157 -32.5q-71 0 -130.5 18.5t-103 55t-67.5 90.5t-24 126zM277 1259q0 95 61 146.5t176 51.5q114 0 172 -48.5t58 -142.5t-62 -146.5t-176 -52.5 q-117 0 -173 50t-56 142zM317 275q0 -57 35.5 -88.5t98.5 -31.5q54 0 98 27t90 79v152h-96q-122 0 -174 -36t-52 -102zM427 1264q0 -42 19.5 -64.5t65.5 -22.5q42 0 62 22.5t20 61.5t-20.5 62.5t-65.5 23.5q-40 0 -60.5 -22t-20.5 -61z" />
<glyph unicode="&#xe6;" horiz-adv-x="1587" d="M71 266q0 158 121.5 231.5t359.5 73.5h87v54q0 42 -8.5 73.5t-28 52.5t-52 31t-80.5 10q-63 0 -112.5 -14t-87.5 -31t-64.5 -31t-41.5 -14q-23 0 -34 27t-10 74q1 23 2.5 38.5t8.5 27.5t21.5 22.5t40.5 24.5q26 13 59.5 25t72 21.5t81 15t86.5 5.5q119 0 191.5 -32 t113.5 -92q48 60 124 92t175 32q106 0 183.5 -33t128 -91.5t74.5 -139t24 -174.5v-39q0 -46 -20.5 -68t-56.5 -22h-543q0 -58 13.5 -104t43.5 -78.5t77 -49.5t115 -17q64 0 113 9.5t85 21t60.5 21t38.5 9.5q17 0 25 -16t8 -67q0 -44 -4 -64t-17 -33q-7 -7 -36 -19 t-73.5 -23.5t-102 -20t-121.5 -8.5q-74 0 -132 10.5t-103.5 31t-80 49.5t-60.5 66q-66 -81 -154 -119t-185 -38q-71 0 -130.5 18.5t-103 55t-67.5 90.5t-24 125zM317 275q0 -57 35.5 -88.5t98.5 -31.5q54 0 102 30t102 94q-10 27 -14 64t-4 70h-94q-122 0 -174 -36t-52 -102 zM886 578h377q2 106 -43.5 166.5t-139.5 60.5q-49 0 -84.5 -18t-59.5 -48.5t-36 -72t-14 -88.5z" />
<glyph unicode="&#xe7;" horiz-adv-x="857" d="M72 463q0 133 33.5 230.5t93.5 161.5t142 95t180 32q39 0 78 -7.5t72.5 -19.5t59.5 -26t38 -26q10 -9 15.5 -18t8 -20.5t3.5 -28.5t1 -43q2 -58 -9 -81.5t-27 -23.5q-17 0 -36 14t-45 31t-62 31t-86 14q-99 0 -150.5 -75t-51.5 -222q0 -146 51 -219.5t154 -73.5 q51 0 89 15.5t66 34.5t47 34.5t32 15.5q17 0 24.5 -23.5t7.5 -88.5q0 -38 -3 -59.5t-9 -33.5q-3 -7 -15 -18.5t-42 -28.5t-71 -31.5t-89 -20.5l22 -50q17 -39 25.5 -68t8.5 -56q0 -46 -16.5 -79t-45.5 -54.5t-68 -31.5t-84 -10q-33 0 -62.5 3.5t-53 8.5t-40.5 10.5t-24 8.5 q-14 7 -18 21.5t-4 46.5q0 40 7.5 55.5t27.5 15.5h116q29 0 43 12.5t14 34.5q0 24 -16 58l-39 85q-148 38 -220.5 157.5t-72.5 310.5z" />
<glyph unicode="&#xe8;" horiz-adv-x="1031" d="M74 470q0 120 31 215t90 161t143 101.5t191 35.5q112 0 191.5 -33t130.5 -91.5t75 -138.5t24 -174v-40q0 -46 -20.5 -68t-56.5 -22h-543q0 -58 13.5 -104t43 -78.5t76 -49.5t111.5 -17q66 0 116 9.5t86.5 21t60.5 21t39 9.5q18 0 25 -16t7 -67q0 -44 -4 -63.5t-17 -33.5 q-6 -7 -35 -19t-74 -23.5t-103.5 -20t-123.5 -8.5q-239 0 -358 121t-119 372zM220 1371.5q-1 9.5 11 17t38.5 11.5t72.5 4q33 0 55.5 -2t37.5 -6.5t24.5 -12t17.5 -19.5l143 -229q9 -14 10.5 -24t-6.5 -16t-28 -9t-54 -3q-29 0 -48 2t-32 6t-21.5 10.5t-16.5 16.5l-193 232 q-10 12 -11 21.5zM330 578h376q3 106 -42 166.5t-141 60.5q-48 0 -83.5 -18t-59 -48.5t-36 -72t-14.5 -88.5z" />
<glyph unicode="&#xe9;" horiz-adv-x="1031" d="M74 470q0 120 31 215t90 161t143 101.5t191 35.5q112 0 191.5 -33t130.5 -91.5t75 -138.5t24 -174v-40q0 -46 -20.5 -68t-56.5 -22h-543q0 -58 13.5 -104t43 -78.5t76 -49.5t111.5 -17q66 0 116 9.5t86.5 21t60.5 21t39 9.5q18 0 25 -16t7 -67q0 -44 -4 -63.5t-17 -33.5 q-6 -7 -35 -19t-74 -23.5t-103.5 -20t-123.5 -8.5q-239 0 -358 121t-119 372zM330 578h376q3 106 -42 166.5t-141 60.5q-48 0 -83.5 -18t-59 -48.5t-36 -72t-14.5 -88.5zM412.5 1111.5q1.5 9.5 9.5 23.5l143 229q7 11 16.5 19t25 12.5t38.5 6.5t56 2q46 0 72.5 -4t38 -11.5 t10.5 -17.5t-10 -21l-194 -232q-8 -10 -16 -16.5t-20.5 -10.5t-31.5 -6t-48 -2q-35 0 -55 3t-28 9.5t-6.5 16z" />
<glyph unicode="&#xea;" horiz-adv-x="1031" d="M74 470q0 120 31 215t90 161t143 101.5t191 35.5q112 0 191.5 -33t130.5 -91.5t75 -138.5t24 -174v-40q0 -46 -20.5 -68t-56.5 -22h-543q0 -58 13.5 -104t43 -78.5t76 -49.5t111.5 -17q66 0 116 9.5t86.5 21t60.5 21t39 9.5q18 0 25 -16t7 -67q0 -44 -4 -63.5t-17 -33.5 q-6 -7 -35 -19t-74 -23.5t-103.5 -20t-123.5 -8.5q-239 0 -358 121t-119 372zM214 1117q5 13 19 32l158 223q6 9 16 15t25 10t37 5.5t53 1.5q32 0 53.5 -2t36 -6t23.5 -10t16 -14l157 -223q13 -19 18.5 -32t-1.5 -20.5t-28.5 -10.5t-60.5 -3q-32 0 -50.5 1.5t-29.5 5.5 t-17.5 11t-13.5 17l-104 150l-104 -150q-8 -11 -15 -17.5t-18.5 -10.5t-30 -5.5t-48.5 -1.5q-40 0 -61 3t-28 10.5t-2 20.5zM330 578h376q3 106 -42 166.5t-141 60.5q-48 0 -83.5 -18t-59 -48.5t-36 -72t-14.5 -88.5z" />
<glyph unicode="&#xeb;" horiz-adv-x="1031" d="M74 470q0 120 31 215t90 161t143 101.5t191 35.5q112 0 191.5 -33t130.5 -91.5t75 -138.5t24 -174v-40q0 -46 -20.5 -68t-56.5 -22h-543q0 -58 13.5 -104t43 -78.5t76 -49.5t111.5 -17q66 0 116 9.5t86.5 21t60.5 21t39 9.5q18 0 25 -16t7 -67q0 -44 -4 -63.5t-17 -33.5 q-6 -7 -35 -19t-74 -23.5t-103.5 -20t-123.5 -8.5q-239 0 -358 121t-119 372zM198 1222q0 72 27 99t100 27q75 0 101 -27q26 -26 26 -94q0 -70 -27 -98q-26 -27 -100 -27q-75 0 -101 26q-26 28 -26 94zM330 578h376q3 106 -42 166.5t-141 60.5q-48 0 -83.5 -18t-59 -48.5 t-36 -72t-14.5 -88.5zM589 1222q0 71 26 99q27 27 101 27q75 0 101 -27q26 -26 26 -94q0 -70 -27 -98q-26 -27 -101 -27q-74 0 -100 26q-26 28 -26 94z" />
<glyph unicode="&#xec;" horiz-adv-x="503" d="M-33 1371.5q-1 9.5 11 17t38.5 11.5t72.5 4q33 0 55.5 -2t37.5 -6.5t24.5 -12t17.5 -19.5l143 -229q9 -14 10.5 -24t-6.5 -16t-28 -9t-54 -3q-29 0 -48 2t-32 6t-21.5 10.5t-16.5 16.5l-193 232q-10 12 -11 21.5zM126 34v892q0 10 6 17.5t20.5 12.5t38.5 7.5t61 2.5 t61 -2.5t38.5 -7.5t20.5 -12.5t6 -17.5v-892q0 -10 -6 -17.5t-20.5 -12.5t-38.5 -7.5t-61 -2.5t-61 2.5t-38.5 7.5t-20.5 12.5t-6 17.5z" />
<glyph unicode="&#xed;" horiz-adv-x="503" d="M126 34v892q0 10 6 17.5t20.5 12.5t38.5 7.5t61 2.5t61 -2.5t38.5 -7.5t20.5 -12.5t6 -17.5v-892q0 -10 -6 -17.5t-20.5 -12.5t-38.5 -7.5t-61 -2.5t-61 2.5t-38.5 7.5t-20.5 12.5t-6 17.5zM129.5 1111.5q1.5 9.5 9.5 23.5l143 229q7 11 16.5 19t25 12.5t38.5 6.5t56 2 q46 0 72.5 -4t38 -11.5t10.5 -17.5t-10 -21l-194 -232q-8 -10 -16 -16.5t-20.5 -10.5t-31.5 -6t-48 -2q-35 0 -55 3t-28 9.5t-6.5 16z" />
<glyph unicode="&#xee;" horiz-adv-x="503" d="M-52 1117q5 13 19 32l158 223q6 9 16 15t25 10t37 5.5t53 1.5q32 0 53.5 -2t36 -6t23.5 -10t16 -14l157 -223q13 -19 18.5 -32t-1.5 -20.5t-28.5 -10.5t-60.5 -3q-32 0 -50.5 1.5t-29.5 5.5t-17.5 11t-13.5 17l-104 150l-104 -150q-8 -11 -15 -17.5t-18.5 -10.5t-30 -5.5 t-48.5 -1.5q-40 0 -61 3t-28 10.5t-2 20.5zM126 34v892q0 10 6 17.5t20.5 12.5t38.5 7.5t61 2.5t61 -2.5t38.5 -7.5t20.5 -12.5t6 -17.5v-892q0 -10 -6 -17.5t-20.5 -12.5t-38.5 -7.5t-61 -2.5t-61 2.5t-38.5 7.5t-20.5 12.5t-6 17.5z" />
<glyph unicode="&#xef;" horiz-adv-x="503" d="M-35 1222q0 36 6 60t20 38.5t37 21t58 6.5q36 0 59.5 -6t37.5 -20.5t19.5 -37.5t5.5 -57q0 -35 -6 -59t-20 -38.5t-37.5 -21t-58.5 -6.5q-70 0 -96 26q-25 26 -25 94zM126 34v892q0 10 6 17.5t20.5 12.5t38.5 7.5t61 2.5t61 -2.5t38.5 -7.5t20.5 -12.5t6 -17.5v-892 q0 -10 -6 -17.5t-20.5 -12.5t-38.5 -7.5t-61 -2.5t-61 2.5t-38.5 7.5t-20.5 12.5t-6 17.5zM302 1222q0 72 25 98q25 28 96 28q36 0 59 -6t37 -20.5t19.5 -37.5t5.5 -57q0 -35 -6 -59t-20 -38.5t-37.5 -21t-58.5 -6.5q-72 0 -96 26q-24 25 -24 94z" />
<glyph unicode="&#xf0;" horiz-adv-x="1099" d="M76 468q0 128 28 224.5t79 161t122.5 97t159.5 32.5q63 0 114.5 -22t107.5 -68q-18 48 -49 104t-86 122l-263 -64q-13 -3 -21.5 -1.5t-13.5 9t-7 22.5t-2 40q0 47 9 64t36 21l148 37q-9 10 -20.5 22.5t-24.5 25.5t-25.5 26t-22.5 24q-9 9 -11 18t10 16t41 11t82 4 q43 0 70 -2t44.5 -6t28 -10.5t21.5 -16.5l50 -55l247 59q12 3 20.5 2t14 -8t7.5 -22t2 -40q0 -47 -10 -64t-35 -23l-136 -33q54 -73 92 -142t61 -141t33.5 -149t10.5 -166q0 -300 -121 -450t-362 -150q-116 0 -197.5 34t-133 97.5t-75 154.5t-23.5 205zM332 485 q0 -60 9.5 -114t30.5 -94t55.5 -63.5t85.5 -23.5q109 0 163 83.5t54 265.5q0 27 -0.5 52.5t-2.5 41.5q-62 68 -112 102t-99 34q-47 0 -81.5 -22t-57 -60t-34 -90t-11.5 -112z" />
<glyph unicode="&#xf1;" horiz-adv-x="1099" d="M126 34v892q0 20 23 30t85 10q32 0 53 -2.5t33 -7.5t16.5 -12.5t4.5 -17.5v-103q75 81 150.5 120.5t159.5 39.5q91 0 153 -30t101 -82q38 -51 55.5 -120t17.5 -166v-551q0 -10 -6 -17.5t-20 -12.5t-38.5 -7.5t-60.5 -2.5q-37 0 -61.5 2.5t-38.5 7.5t-20 12.5t-6 17.5v509 q0 65 -9.5 102t-27.5 63q-37 56 -113 56q-48 0 -96.5 -35t-102.5 -102v-593q0 -10 -6 -17.5t-20.5 -12.5t-38.5 -7.5t-61 -2.5t-61 2.5t-38.5 7.5t-20.5 12.5t-6 17.5zM200 1127q0 117 55.5 183t160.5 66q57 0 96.5 -17.5t70 -39t56 -39t54.5 -17.5q62 0 62 85q0 17 15 22.5 t61 5.5q45 0 61.5 -7.5t16.5 -32.5q0 -121 -57 -185.5t-160 -64.5q-58 0 -97.5 17.5t-69.5 39t-55 39t-55 17.5q-33 0 -47 -23.5t-14 -61.5q0 -18 -15.5 -23t-63.5 -5q-42 0 -58.5 7.5t-16.5 33.5z" />
<glyph unicode="&#xf2;" horiz-adv-x="1101" d="M72 471q0 114 30.5 208.5t91.5 162t152.5 104.5t214.5 37q120 0 208 -32.5t145.5 -95.5t85.5 -155t28 -211q0 -114 -30 -208.5t-91 -162t-153 -104.5t-215 -37q-119 0 -207 33t-146 96t-86 155t-28 210zM256 1371.5q-1 9.5 11 17t38.5 11.5t72.5 4q33 0 55.5 -2 t37.5 -6.5t24.5 -12t17.5 -19.5l143 -229q9 -14 10.5 -24t-6.5 -16t-28 -9t-54 -3q-29 0 -48 2t-32 6t-21.5 10.5t-16.5 16.5l-193 232q-10 12 -11 21.5zM331 482q0 -66 10.5 -122t35.5 -96.5t67 -63t104 -22.5q115 0 168 80t53 221q0 66 -10.5 121.5t-35.5 96.5t-66.5 64 t-104.5 23q-113 0 -167 -80.5t-54 -221.5z" />
<glyph unicode="&#xf3;" horiz-adv-x="1101" d="M72 471q0 114 30.5 208.5t91.5 162t152.5 104.5t214.5 37q120 0 208 -32.5t145.5 -95.5t85.5 -155t28 -211q0 -114 -30 -208.5t-91 -162t-153 -104.5t-215 -37q-119 0 -207 33t-146 96t-86 155t-28 210zM331 482q0 -66 10.5 -122t35.5 -96.5t67 -63t104 -22.5 q115 0 168 80t53 221q0 66 -10.5 121.5t-35.5 96.5t-66.5 64t-104.5 23q-113 0 -167 -80.5t-54 -221.5zM446.5 1111.5q1.5 9.5 9.5 23.5l143 229q7 11 16.5 19t25 12.5t38.5 6.5t56 2q46 0 72.5 -4t38 -11.5t10.5 -17.5t-10 -21l-194 -232q-8 -10 -16 -16.5t-20.5 -10.5 t-31.5 -6t-48 -2q-35 0 -55 3t-28 9.5t-6.5 16z" />
<glyph unicode="&#xf4;" horiz-adv-x="1101" d="M72 471q0 114 30.5 208.5t91.5 162t152.5 104.5t214.5 37q120 0 208 -32.5t145.5 -95.5t85.5 -155t28 -211q0 -114 -30 -208.5t-91 -162t-153 -104.5t-215 -37q-119 0 -207 33t-146 96t-86 155t-28 210zM245 1117q5 13 19 32l158 223q6 9 16 15t25 10t37 5.5t53 1.5 q32 0 53.5 -2t36 -6t23.5 -10t16 -14l157 -223q13 -19 18.5 -32t-1.5 -20.5t-28.5 -10.5t-60.5 -3q-32 0 -50.5 1.5t-29.5 5.5t-17.5 11t-13.5 17l-104 150l-104 -150q-8 -11 -15 -17.5t-18.5 -10.5t-30 -5.5t-48.5 -1.5q-40 0 -61 3t-28 10.5t-2 20.5zM331 482 q0 -66 10.5 -122t35.5 -96.5t67 -63t104 -22.5q115 0 168 80t53 221q0 66 -10.5 121.5t-35.5 96.5t-66.5 64t-104.5 23q-113 0 -167 -80.5t-54 -221.5z" />
<glyph unicode="&#xf5;" horiz-adv-x="1101" d="M72 471q0 114 30.5 208.5t91.5 162t152.5 104.5t214.5 37q120 0 208 -32.5t145.5 -95.5t85.5 -155t28 -211q0 -114 -30 -208.5t-91 -162t-153 -104.5t-215 -37q-119 0 -207 33t-146 96t-86 155t-28 210zM198 1127q0 117 55.5 183t160.5 66q57 0 96.5 -17.5t70 -39t56 -39 t54.5 -17.5q62 0 62 85q0 17 15 22.5t61 5.5q45 0 61.5 -7.5t16.5 -32.5q0 -121 -57 -185.5t-160 -64.5q-58 0 -97.5 17.5t-69.5 39t-55 39t-55 17.5q-33 0 -47 -23.5t-14 -61.5q0 -18 -15.5 -23t-63.5 -5q-42 0 -58.5 7.5t-16.5 33.5zM331 482q0 -66 10.5 -122t35.5 -96.5 t67 -63t104 -22.5q115 0 168 80t53 221q0 66 -10.5 121.5t-35.5 96.5t-66.5 64t-104.5 23q-113 0 -167 -80.5t-54 -221.5z" />
<glyph unicode="&#xf6;" horiz-adv-x="1101" d="M72 471q0 114 30.5 208.5t91.5 162t152.5 104.5t214.5 37q120 0 208 -32.5t145.5 -95.5t85.5 -155t28 -211q0 -114 -30 -208.5t-91 -162t-153 -104.5t-215 -37q-119 0 -207 33t-146 96t-86 155t-28 210zM231 1222q0 72 27 99t100 27q75 0 101 -27q26 -26 26 -94 q0 -70 -27 -98q-26 -27 -100 -27q-75 0 -101 26q-26 28 -26 94zM331 482q0 -66 10.5 -122t35.5 -96.5t67 -63t104 -22.5q115 0 168 80t53 221q0 66 -10.5 121.5t-35.5 96.5t-66.5 64t-104.5 23q-113 0 -167 -80.5t-54 -221.5zM622 1222q0 71 26 99q27 27 101 27 q75 0 101 -27q26 -26 26 -94q0 -70 -27 -98q-26 -27 -101 -27q-74 0 -100 26q-26 28 -26 94z" />
<glyph unicode="&#xf7;" d="M34 576q0 54 8.5 75t27.5 21h869q17 0 27 -21t10 -75t-10 -75.5t-27 -21.5h-869q-19 0 -27.5 21.5t-8.5 75.5zM359 192q0 43 7 72.5t23.5 47.5t44.5 26t70 8t70 -8t45 -26t24 -47.5t7 -72.5q0 -41 -7 -69.5t-24 -46t-45 -25.5t-70 -8t-70 8t-44.5 25.5t-23.5 46t-7 69.5z M359 954q0 42 7 71.5t23.5 47.5t44.5 26.5t70 8.5t70 -8.5t45 -26.5t24 -47.5t7 -71.5q0 -41 -7 -69.5t-24 -46.5t-45 -26t-70 -8t-70 8t-44.5 26t-23.5 46.5t-7 69.5z" />
<glyph unicode="&#xf8;" horiz-adv-x="1114" d="M72 471q0 115 30.5 209t92.5 161.5t155 104.5t218 37q65 0 127 -14l63 132q8 16 30.5 22.5t67.5 6.5q60 0 78.5 -11t6.5 -36l-82 -172q94 -60 138.5 -170t44.5 -252q0 -114 -31 -208.5t-93 -162t-155 -104.5t-217 -37q-38 0 -69.5 4t-58.5 11l-66 -138q-8 -16 -31 -22.5 t-68 -6.5q-60 0 -77.5 11.5t-6.5 35.5l85 178q-47 30 -81.5 73.5t-57 97.5t-33 117.5t-10.5 132.5zM310 476q0 -60 12.5 -114t44.5 -91l249 521q-13 4 -30.5 6.5t-35.5 2.5q-121 0 -180.5 -84.5t-59.5 -240.5zM499 170q13 -5 30.5 -7.5t33.5 -2.5q121 0 181 84t60 242 q0 57 -12.5 111t-44.5 92z" />
<glyph unicode="&#xf9;" horiz-adv-x="1099" d="M121 380v546q0 10 5.5 17.5t20 12.5t38.5 7.5t61 2.5t61 -2.5t38.5 -7.5t20.5 -12.5t6 -17.5v-504q0 -35 2 -61t6.5 -46t11.5 -35.5t16 -28.5q18 -26 47 -40.5t67 -14.5q48 0 96.5 35t103.5 102v593q0 10 5.5 17.5t20 12.5t38.5 7.5t61 2.5t61 -2.5t38 -7.5t20 -12.5 t6 -17.5v-892q0 -20 -22.5 -30t-84.5 -10q-32 0 -53 2.5t-33 7.5t-17 12.5t-5 17.5v103q-148 -160 -309 -160q-93 0 -155 30t-101 82q-38 52 -54.5 120.5t-16.5 170.5zM234 1371.5q-1 9.5 11 17t38.5 11.5t72.5 4q33 0 55.5 -2t37.5 -6.5t24.5 -12t17.5 -19.5l143 -229 q9 -14 10.5 -24t-6.5 -16t-28 -9t-54 -3q-29 0 -48 2t-32 6t-21.5 10.5t-16.5 16.5l-193 232q-10 12 -11 21.5z" />
<glyph unicode="&#xfa;" horiz-adv-x="1099" d="M121 380v546q0 10 5.5 17.5t20 12.5t38.5 7.5t61 2.5t61 -2.5t38.5 -7.5t20.5 -12.5t6 -17.5v-504q0 -35 2 -61t6.5 -46t11.5 -35.5t16 -28.5q18 -26 47 -40.5t67 -14.5q48 0 96.5 35t103.5 102v593q0 10 5.5 17.5t20 12.5t38.5 7.5t61 2.5t61 -2.5t38 -7.5t20 -12.5 t6 -17.5v-892q0 -20 -22.5 -30t-84.5 -10q-32 0 -53 2.5t-33 7.5t-17 12.5t-5 17.5v103q-148 -160 -309 -160q-93 0 -155 30t-101 82q-38 52 -54.5 120.5t-16.5 170.5zM445.5 1111.5q1.5 9.5 9.5 23.5l143 229q7 11 16.5 19t25 12.5t38.5 6.5t56 2q46 0 72.5 -4t38 -11.5 t10.5 -17.5t-10 -21l-194 -232q-8 -10 -16 -16.5t-20.5 -10.5t-31.5 -6t-48 -2q-35 0 -55 3t-28 9.5t-6.5 16z" />
<glyph unicode="&#xfb;" horiz-adv-x="1099" d="M121 380v546q0 10 5.5 17.5t20 12.5t38.5 7.5t61 2.5t61 -2.5t38.5 -7.5t20.5 -12.5t6 -17.5v-504q0 -35 2 -61t6.5 -46t11.5 -35.5t16 -28.5q18 -26 47 -40.5t67 -14.5q48 0 96.5 35t103.5 102v593q0 10 5.5 17.5t20 12.5t38.5 7.5t61 2.5t61 -2.5t38 -7.5t20 -12.5 t6 -17.5v-892q0 -20 -22.5 -30t-84.5 -10q-32 0 -53 2.5t-33 7.5t-17 12.5t-5 17.5v103q-148 -160 -309 -160q-93 0 -155 30t-101 82q-38 52 -54.5 120.5t-16.5 170.5zM242 1117q5 13 19 32l158 223q6 9 16 15t25 10t37 5.5t53 1.5q32 0 53.5 -2t36 -6t23.5 -10t16 -14 l157 -223q13 -19 18.5 -32t-1.5 -20.5t-28.5 -10.5t-60.5 -3q-32 0 -50.5 1.5t-29.5 5.5t-17.5 11t-13.5 17l-104 150l-104 -150q-8 -11 -15 -17.5t-18.5 -10.5t-30 -5.5t-48.5 -1.5q-40 0 -61 3t-28 10.5t-2 20.5z" />
<glyph unicode="&#xfc;" horiz-adv-x="1099" d="M121 380v546q0 10 5.5 17.5t20 12.5t38.5 7.5t61 2.5t61 -2.5t38.5 -7.5t20.5 -12.5t6 -17.5v-504q0 -35 2 -61t6.5 -46t11.5 -35.5t16 -28.5q18 -26 47 -40.5t67 -14.5q48 0 96.5 35t103.5 102v593q0 10 5.5 17.5t20 12.5t38.5 7.5t61 2.5t61 -2.5t38 -7.5t20 -12.5 t6 -17.5v-892q0 -20 -22.5 -30t-84.5 -10q-32 0 -53 2.5t-33 7.5t-17 12.5t-5 17.5v103q-148 -160 -309 -160q-93 0 -155 30t-101 82q-38 52 -54.5 120.5t-16.5 170.5zM227 1222q0 72 27 99t100 27q75 0 101 -27q26 -26 26 -94q0 -70 -27 -98q-26 -27 -100 -27 q-75 0 -101 26q-26 28 -26 94zM618 1222q0 71 26 99q27 27 101 27q75 0 101 -27q26 -26 26 -94q0 -70 -27 -98q-26 -27 -101 -27q-74 0 -100 26q-26 28 -26 94z" />
<glyph unicode="&#xfd;" horiz-adv-x="970" d="M21.5 917.5q-1.5 19.5 11.5 30t41.5 14t75.5 4.5q43 0 67.5 -1.5t38.5 -7.5t21 -19t15 -35l210 -597h3l192 609q6 19 10.5 29t16 14.5t34 5.5t63.5 2q45 1 72.5 -3.5t41 -15t14 -28.5t-8.5 -45l-297 -874l-108 -316q-8 -25 -48 -36t-118 -11q-40 0 -64 3.5t-36 11.5 t-13 20t6 29l119 299q-13 6 -23.5 18.5t-15.5 26.5l-307 820q-12 33 -13.5 52.5zM392.5 1111.5q1.5 9.5 9.5 23.5l143 229q7 11 16.5 19t25 12.5t38.5 6.5t56 2q46 0 72.5 -4t38 -11.5t10.5 -17.5t-10 -21l-194 -232q-8 -10 -16 -16.5t-20.5 -10.5t-31.5 -6t-48 -2 q-35 0 -55 3t-28 9.5t-6.5 16z" />
<glyph unicode="&#xfe;" horiz-adv-x="1099" d="M126 -320v1669q0 10 6 18t20.5 13.5t38.5 8.5t61 3t61 -3t38.5 -8.5t20.5 -13.5t6 -18v-493q34 32 67 56t67 39.5t70.5 23.5t77.5 8q98 0 167.5 -39t113 -105.5t63.5 -156t20 -190.5q0 -119 -25 -214.5t-74.5 -162.5t-122 -102.5t-166.5 -35.5q-39 0 -72 7.5t-63.5 23 t-60.5 38.5t-62 54v-420q0 -10 -6 -18t-20.5 -13.5t-38.5 -8.5t-61 -3t-61 3t-38.5 8.5t-20.5 13.5t-6 18zM378 331q54 -67 102 -103.5t100 -36.5q49 0 83.5 25t56.5 65.5t32 91t10 101.5q0 57 -8.5 110t-29 94t-54.5 65.5t-84 24.5q-49 0 -99 -32t-109 -111v-294z" />
<glyph unicode="&#xff;" horiz-adv-x="970" d="M21.5 917.5q-1.5 19.5 11.5 30t41.5 14t75.5 4.5q43 0 67.5 -1.5t38.5 -7.5t21 -19t15 -35l210 -597h3l192 609q6 19 10.5 29t16 14.5t34 5.5t63.5 2q45 1 72.5 -3.5t41 -15t14 -28.5t-8.5 -45l-297 -874l-108 -316q-8 -25 -48 -36t-118 -11q-40 0 -64 3.5t-36 11.5 t-13 20t6 29l119 299q-13 6 -23.5 18.5t-15.5 26.5l-307 820q-12 33 -13.5 52.5zM168 1222q0 72 27 99t100 27q75 0 101 -27q26 -26 26 -94q0 -70 -27 -98q-26 -27 -100 -27q-75 0 -101 26q-26 28 -26 94zM559 1222q0 71 26 99q27 27 101 27q75 0 101 -27q26 -26 26 -94 q0 -70 -27 -98q-26 -27 -101 -27q-74 0 -100 26q-26 28 -26 94z" />
<glyph unicode="&#x152;" horiz-adv-x="1790" d="M80 640q0 157 40 282.5t118.5 213t195.5 134.5t271 47q75 0 142.5 -15t115.5 -38q9 17 24.5 23.5t34.5 6.5h632q18 0 28 -22.5t10 -81.5q0 -57 -10 -79.5t-28 -22.5h-462v-317h392q17 0 27.5 -22t10.5 -79q0 -58 -10.5 -80t-27.5 -22h-392v-362h466q19 0 29 -23t10 -80 t-10 -80t-29 -23h-634q-20 0 -37 8.5t-23 29.5q-114 -61 -283 -61q-151 0 -263.5 38.5t-187.5 119.5t-112.5 206.5t-37.5 298.5zM356 654q0 -107 15.5 -192t54 -144.5t102.5 -91.5t161 -32q140 0 241 76v761q-52 35 -108.5 52.5t-125.5 17.5q-97 0 -162 -36t-104.5 -97 t-56.5 -142.5t-17 -171.5z" />
<glyph unicode="&#x153;" horiz-adv-x="1726" d="M72 472q0 114 30.5 208t91.5 161.5t152.5 104.5t214.5 37q118 0 202 -38.5t141 -119.5q57 81 136.5 119.5t185.5 38.5q111 0 190 -33t130 -91.5t74.5 -138.5t23.5 -174v-40q0 -46 -20.5 -68t-55.5 -22h-543q0 -58 13.5 -104t42.5 -78.5t76 -49.5t113 -17q64 0 114 9.5 t87 21t61 21t38 9.5q19 0 26 -16t7 -67q0 -42 -3.5 -62.5t-17.5 -34.5q-8 -7 -36.5 -19t-73.5 -23.5t-102.5 -20t-123.5 -8.5q-125 0 -214 36.5t-147 121.5q-113 -158 -345 -158q-120 0 -208 33t-145.5 96t-86 155t-28.5 211zM331 482q0 -66 10.5 -122t35.5 -96.5t67 -63.5 t104 -23q115 0 168 80t53 221q0 66 -10.5 122t-35.5 97.5t-66.5 64.5t-104.5 23q-56 0 -97.5 -21t-69 -60t-41 -95.5t-13.5 -126.5zM1025 578h376q3 106 -42 166.5t-141 60.5q-49 0 -84.5 -18t-59 -48.5t-35.5 -72t-14 -88.5z" />
<glyph unicode="&#x178;" horiz-adv-x="1064" d="M22 1253.5q-6 20.5 5.5 31t42.5 13t86 2.5q46 0 73.5 -2t43.5 -7.5t24 -14.5t14 -23l144 -318q21 -46 41.5 -96.5t41.5 -107.5h2q19 54 38.5 105.5t39.5 96.5l142 316q5 16 12 26t22.5 15.5t41.5 7.5t69 2q57 0 88.5 -2.5t43 -13t5.5 -31.5t-24 -57l-354 -705v-455 q0 -20 -28 -31t-104 -11q-39 0 -64.5 3t-40.5 8t-21 13t-6 18v455l-354 705q-18 37 -24 57.5zM187 1530q0 71 28 98q28 28 104 28q77 0 104 -27t27 -95q0 -70 -28 -98q-27 -28 -104 -28q-39 0 -64 6.5t-40 20.5t-21 37.5t-6 57.5zM624 1530q0 36 6 60t21 38.5t40.5 21 t64.5 6.5q77 0 104 -27q27 -26 27 -95q0 -70 -28 -98t-105 -28t-104 27q-26 28 -26 95z" />
<glyph unicode="&#x2c6;" horiz-adv-x="822" d="M104 1117q5 13 19 32l158 223q6 9 16 15t25 10t37 5.5t53 1.5q32 0 53.5 -2t36 -6t23.5 -10t16 -14l157 -223q13 -19 18.5 -32t-1.5 -20.5t-28.5 -10.5t-60.5 -3q-32 0 -50.5 1.5t-29.5 5.5t-17.5 11t-13.5 17l-104 150l-104 -150q-8 -11 -15 -17.5t-18.5 -10.5t-30 -5.5 t-48.5 -1.5q-40 0 -61 3t-28 10.5t-2 20.5z" />
<glyph unicode="&#x2dc;" horiz-adv-x="910" d="M101 1127q0 117 55.5 183t160.5 66q57 0 96.5 -17.5t70 -39t56 -39t54.5 -17.5q62 0 62 85q0 17 15 22.5t61 5.5q45 0 61.5 -7.5t16.5 -32.5q0 -121 -57 -185.5t-160 -64.5q-58 0 -97.5 17.5t-69.5 39t-55 39t-55 17.5q-33 0 -47 -23.5t-14 -61.5q0 -18 -15.5 -23 t-63.5 -5q-42 0 -58.5 7.5t-16.5 33.5z" />
<glyph unicode="&#x2000;" horiz-adv-x="876" />
<glyph unicode="&#x2001;" horiz-adv-x="1753" />
<glyph unicode="&#x2002;" horiz-adv-x="876" />
<glyph unicode="&#x2003;" horiz-adv-x="1753" />
<glyph unicode="&#x2004;" horiz-adv-x="584" />
<glyph unicode="&#x2005;" horiz-adv-x="438" />
<glyph unicode="&#x2006;" horiz-adv-x="292" />
<glyph unicode="&#x2007;" horiz-adv-x="292" />
<glyph unicode="&#x2008;" horiz-adv-x="219" />
<glyph unicode="&#x2009;" horiz-adv-x="350" />
<glyph unicode="&#x200a;" horiz-adv-x="97" />
<glyph unicode="&#x2010;" horiz-adv-x="627" d="M59 503q0 57 11 79.5t36 22.5h416q24 0 35 -22t11 -80t-11 -81t-35 -23h-416q-25 0 -36 23.5t-11 80.5z" />
<glyph unicode="&#x2011;" horiz-adv-x="627" d="M59 503q0 57 11 79.5t36 22.5h416q24 0 35 -22t11 -80t-11 -81t-35 -23h-416q-25 0 -36 23.5t-11 80.5z" />
<glyph unicode="&#x2012;" horiz-adv-x="627" d="M59 503q0 57 11 79.5t36 22.5h416q24 0 35 -22t11 -80t-11 -81t-35 -23h-416q-25 0 -36 23.5t-11 80.5z" />
<glyph unicode="&#x2013;" d="M-11 568q0 57 10.5 80t36.5 23h946q24 0 35 -22.5t11 -80.5q0 -55 -10.5 -78.5t-35.5 -23.5h-946q-26 0 -36.5 23.5t-10.5 78.5z" />
<glyph unicode="&#x2014;" horiz-adv-x="1854" d="M131 568q0 57 11.5 80.5t36.5 23.5h1498q24 0 35 -23t11 -81q0 -57 -12 -79.5t-34 -22.5h-1498q-23 0 -35.5 22.5t-12.5 79.5z" />
<glyph unicode="&#x2018;" horiz-adv-x="528" d="M107 924q0 39 4 71.5t13 61.5t23 56.5t34 56.5l134 193q7 10 15 17t20.5 11.5t29.5 6.5t42 2q31 0 48.5 -2.5t26 -7.5t8.5 -13t-5 -19l-122 -277v-157q0 -35 -8 -55.5t-25 -31.5t-43.5 -14.5t-62.5 -3.5q-35 0 -60 3.5t-41 14.5t-23.5 31.5t-7.5 55.5z" />
<glyph unicode="&#x2019;" horiz-adv-x="528" d="M23.5 841q-0.5 8 4.5 20l122 276v157q0 34 8 55t25 32.5t43 15t63 3.5q35 0 60 -3.5t41.5 -15t24 -32.5t7.5 -55q0 -39 -4 -71.5t-13 -61.5t-23.5 -56.5t-34.5 -56.5l-134 -192q-7 -10 -15.5 -17t-20.5 -11.5t-29.5 -6.5t-42.5 -2q-29 0 -47 2t-26 7t-8.5 13z" />
<glyph unicode="&#x201a;" horiz-adv-x="528" d="M23.5 -269q-0.5 8 4.5 19l122 276v158q0 34 8 55t25 32t43 14.5t63 3.5q35 0 60 -3.5t41.5 -14.5t24 -32t7.5 -55q0 -39 -4 -71.5t-13 -62t-23.5 -57t-34.5 -56.5l-134 -192q-7 -10 -15 -17t-20.5 -11.5t-30 -6.5t-42.5 -2q-29 0 -46.5 2.5t-26 7.5t-9 13z" />
<glyph unicode="&#x201c;" horiz-adv-x="891" d="M100 930q0 38 3.5 70t12 61t21.5 56t32 55l128 191q7 10 14.5 17t19 11.5t27.5 6.5t39 2q53 0 66.5 -10t3.5 -32l-118 -273v-155q0 -34 -7.5 -54.5t-23 -31.5t-39.5 -14.5t-57 -3.5t-56 3.5t-37.5 14.5t-21.5 31.5t-7 54.5zM493 930q0 38 3.5 70t12 60.5t21.5 55.5t32 56 l127 191q7 10 14.5 17t18.5 11.5t27.5 6.5t40.5 2q52 0 65.5 -9.5t3.5 -32.5l-117 -273v-155q0 -34 -7.5 -54.5t-23.5 -31.5t-39.5 -14.5t-56.5 -3.5t-56 3.5t-38 14.5t-21.5 31.5t-6.5 54.5z" />
<glyph unicode="&#x201d;" horiz-adv-x="891" d="M32 869l118 272v155q0 34 7 54.5t22.5 31.5t39.5 14.5t58 3.5q33 0 56 -3.5t37.5 -14.5t21.5 -31.5t7 -54.5q0 -38 -3.5 -70t-12 -61t-21.5 -56t-32 -55l-129 -191q-7 -10 -15 -17t-19 -11.5t-27 -6.5t-38 -2q-53 0 -67 9.5t-3 33.5zM419.5 849q-0.5 8 4.5 20l118 272 v155q0 34 7.5 54.5t23 31.5t39.5 14.5t57 3.5t56 -3.5t37.5 -14.5t21.5 -31.5t7 -54.5q0 -38 -3.5 -70t-12 -60.5t-21.5 -56t-32 -55.5l-128 -191q-7 -10 -14.5 -17t-19 -11.5t-27.5 -6.5t-39 -2q-26 0 -42 2.5t-24 7.5t-8.5 13z" />
<glyph unicode="&#x201e;" horiz-adv-x="891" d="M32 -247l118 273v155q0 34 7 54.5t22.5 31.5t39.5 14.5t58 3.5q33 0 56 -3.5t37.5 -14.5t21.5 -31.5t7 -54.5q0 -39 -3.5 -71t-11.5 -60.5t-21.5 -56t-32.5 -55.5l-129 -190q-7 -10 -15 -17t-19 -11.5t-27 -6.5t-38 -2q-53 0 -66.5 9.5t-3.5 32.5zM424 -247l118 273v155 q0 34 7.5 54.5t23 31.5t39.5 14.5t57 3.5t56 -3.5t37.5 -14.5t21.5 -31.5t7 -54.5q0 -38 -3.5 -70t-12 -61t-21.5 -56.5t-32 -55.5l-128 -190q-7 -10 -14.5 -17t-19 -11.5t-27.5 -6.5t-39 -2q-53 0 -66.5 10t-3.5 32z" />
<glyph unicode="&#x2022;" d="M148 642q0 75 28 141t77 115t115 77t142 28q75 0 141 -27.5t114.5 -76t76.5 -114.5t28 -142t-28 -142t-77 -115t-115 -77t-142 -28q-75 0 -141 28t-114.5 76.5t-76.5 114.5t-28 142z" />
<glyph unicode="&#x2026;" horiz-adv-x="1457" d="M124 136q0 91 31 122t111 31q78 0 109 -31t31 -117q0 -91 -31 -122t-111 -31t-110 30t-30 118zM587 136q0 91 31 122t111 31q79 0 110 -31q31 -30 31 -117q0 -90 -32 -122q-31 -31 -110 -31q-81 0 -111 30t-30 118zM1051 136q0 91 31 122t110 31t110 -31t31 -117 q0 -91 -31 -122t-111 -31t-110 30t-30 118z" />
<glyph unicode="&#x202f;" horiz-adv-x="350" />
<glyph unicode="&#x2039;" horiz-adv-x="705" d="M101 484q-26 42 4 91l213 347q6 9 12.5 15.5t18 10.5t30.5 5.5t49 1.5q37 0 59 -4t33 -11t11.5 -17t-6.5 -23l-195 -375l201 -383q7 -13 6.5 -23t-11 -17.5t-33 -11.5t-59.5 -4q-29 0 -47.5 2t-30.5 6t-19 10t-12 15z" />
<glyph unicode="&#x203a;" horiz-adv-x="705" d="M168.5 922q0.5 10 11 17.5t33 11.5t59.5 4q29 0 48 -2t30.5 -5.5t18.5 -10t12 -15.5l223 -366q14 -22 13.5 -43.5t-16.5 -47.5l-213 -346q-6 -9 -12.5 -15.5t-18.5 -10.5t-30.5 -5.5t-47.5 -1.5q-37 0 -59.5 4t-33.5 11t-11.5 17t6.5 23l195 375l-201 383q-7 13 -6.5 23z " />
<glyph unicode="&#x205f;" horiz-adv-x="438" />
<glyph unicode="&#x20ac;" horiz-adv-x="1038" d="M32 491q0 46 6.5 64.5t22.5 18.5h89q0 15 -0.5 31.5t-0.5 32.5q0 20 0.5 39.5t0.5 37.5h-89q-15 0 -22 18t-7 66t9.5 65.5t23.5 17.5h103q20 96 58.5 175.5t99 137t145 89t197.5 31.5q54 0 101.5 -8t86 -19.5t64.5 -24t37 -21.5q9 -8 15 -17.5t9.5 -24.5t5 -36t1.5 -52 q0 -53 -9 -71.5t-25 -18.5t-37.5 13.5t-53 30t-75 30.5t-103.5 14q-56 0 -98 -16t-72 -45.5t-49.5 -71.5t-29.5 -95h274q15 0 24 -17.5t9 -65.5t-9 -66t-24 -18h-294q-1 -16 -1.5 -32.5t-0.5 -36.5q0 -18 0.5 -35.5t1.5 -36.5h294q15 0 24 -18.5t9 -64.5t-9 -65.5t-24 -19.5 h-275q8 -51 26.5 -91.5t50.5 -68.5t78 -43t108 -15q58 0 102 14t76 31t53.5 31t35.5 14q8 0 14.5 -4t11 -15.5t6.5 -32t2 -54.5q-1 -34 -5 -56t-12 -36.5t-21.5 -24.5t-32.5 -21q-39 -22 -105.5 -38.5t-156.5 -16.5q-113 0 -200 29t-149 83.5t-100.5 134t-55.5 180.5h-96 q-15 0 -24 19.5t-9 65.5z" />
<glyph unicode="&#x2122;" horiz-adv-x="1475" d="M50 1220q0 43 7.5 58.5t18.5 15.5h422q10 0 17.5 -15.5t7.5 -58.5q0 -42 -7.5 -56.5t-17.5 -14.5h-124v-416q0 -10 -18 -17t-69 -7q-53 0 -70.5 7t-17.5 17v416h-123q-11 0 -18.5 14.5t-7.5 56.5zM612 733v506q0 26 13.5 40.5t37.5 14.5h124q43 0 64 -22t36 -67l94 -280 l99 280q14 41 35 65t60 24h118q53 0 53 -55v-506q0 -10 -14.5 -17t-60.5 -7t-60.5 7t-14.5 17v416h-2l-138 -419q-4 -12 -22.5 -16.5t-56.5 -4.5q-37 0 -54.5 5t-21.5 16l-137 419h-2v-416q0 -10 -14 -17t-60 -7q-47 0 -61.5 7t-14.5 17z" />
<glyph unicode="&#x25fc;" horiz-adv-x="965" d="M0 0v965h965v-965h-965z" />
<glyph unicode="&#xfb01;" horiz-adv-x="1135" d="M25 858q0 59 9.5 80.5t29.5 21.5h111v79q0 183 74.5 273t233.5 90q21 0 44 -2t43.5 -6t35 -9t19.5 -11q6 -5 9.5 -12t6 -18t3.5 -28.5t1 -43.5q0 -48 -5.5 -67.5t-21.5 -19.5q-6 0 -13.5 2.5t-18 5t-24.5 5t-35 2.5q-54 0 -77.5 -35.5t-23.5 -119.5v-85h506 q38 0 57 -16.5t19 -52.5v-857q0 -10 -6 -17.5t-20 -12.5t-38.5 -7.5t-60.5 -2.5q-37 0 -61.5 2.5t-38.5 7.5t-20 12.5t-6 17.5v722h-331v-722q0 -10 -6 -17.5t-20 -12.5t-38.5 -7.5t-61.5 -2.5t-61 2.5t-38.5 7.5t-20 12.5t-5.5 17.5v722h-112q-19 0 -28.5 23.5t-9.5 78.5z M743 1226q0 36 6.5 61t23 41t44 23t69.5 7q41 0 68.5 -7t43.5 -23t22.5 -41t6.5 -61q0 -38 -6.5 -63t-22.5 -40.5t-43.5 -22t-68.5 -6.5q-42 0 -69.5 6.5t-44 22t-23 40.5t-6.5 63z" />
<glyph unicode="&#xfb02;" horiz-adv-x="1135" d="M25 858q0 59 9.5 80.5t29.5 21.5h111v77q0 181 83.5 272t270.5 91q20 0 42.5 -1t45 -3.5t43.5 -5.5t36 -6q31 -7 44 -13.5t18 -20.5q1 8 5 15.5t17 13.5t37.5 9.5t65.5 3.5q36 0 60.5 -3t38.5 -8.5t20 -13.5t6 -18v-1315q0 -10 -6 -17.5t-20 -12.5t-38.5 -7.5t-60.5 -2.5 q-37 0 -61.5 2.5t-38.5 7.5t-20 12.5t-6 17.5v1158q-6 -12 -22 -12q-11 1 -29 4t-39.5 6.5t-44 5.5t-42.5 2q-45 -1 -75 -9.5t-47.5 -27.5t-24.5 -48t-7 -71v-82h148q20 0 30 -21.5t10 -80.5q0 -55 -10 -78.5t-29 -23.5h-149v-722q0 -10 -6 -17.5t-20 -12.5t-38.5 -7.5 t-61.5 -2.5t-61 2.5t-38.5 7.5t-20 12.5t-5.5 17.5v722h-112q-19 0 -28.5 23.5t-9.5 78.5z" />
<glyph unicode="&#xfb03;" horiz-adv-x="1718" d="M25 858q0 59 9.5 80.5t29.5 21.5h111v66q0 180 75.5 271.5t235.5 91.5q34 0 61 -4t47.5 -9.5t33 -11.5t16.5 -10q11 -9 15.5 -32.5t4.5 -66.5q0 -49 -6.5 -69t-21.5 -20q-7 0 -16 3.5t-21.5 7t-28.5 7t-37 3.5q-57 0 -82 -36t-25 -120v-71h331v79q0 183 75.5 273 t233.5 90q21 0 44 -2t43.5 -6t35 -9t19.5 -11q6 -5 9.5 -12t6 -18t3.5 -28.5t1 -43.5q0 -48 -5.5 -67.5t-21.5 -19.5q-12 0 -31.5 7.5t-59.5 7.5q-54 0 -78 -35.5t-24 -119.5v-85h507q38 0 57.5 -16.5t19.5 -52.5v-857q0 -10 -6 -17.5t-20.5 -12.5t-38.5 -7.5t-61 -2.5 t-61 2.5t-38.5 7.5t-20.5 12.5t-6 17.5v722h-332v-722q0 -10 -6 -17.5t-20 -12.5t-38.5 -7.5t-60.5 -2.5q-37 0 -61.5 2.5t-38.5 7.5t-20 12.5t-6 17.5v722h-331v-722q0 -10 -6 -17.5t-20.5 -12.5t-38.5 -7.5t-61 -2.5t-61 2.5t-38.5 7.5t-20 12.5t-5.5 17.5v722h-112 q-19 0 -28.5 23.5t-9.5 78.5zM1325 1226q0 36 7 61t23.5 41t44 23t68.5 7q42 0 69.5 -7t44 -23t23 -41t6.5 -61q0 -38 -6.5 -63t-23 -40.5t-44 -22t-69.5 -6.5q-41 0 -68.5 6.5t-44 22t-23.5 40.5t-7 63z" />
<glyph unicode="&#xfb04;" horiz-adv-x="1718" d="M25 858q0 59 9.5 80.5t29.5 21.5h111v66q0 180 75.5 271.5t235.5 91.5q68 0 109 -13.5t49 -21.5q11 -9 15.5 -32.5t4.5 -66.5q0 -49 -6.5 -69t-21.5 -20q-7 0 -16 3.5t-21 7t-28 7t-37 3.5q-58 0 -83 -36t-25 -120v-71h331v79q0 182 84 272.5t271 90.5q20 0 43 -1 t45.5 -3.5t42.5 -5.5t35 -6q33 -7 45 -13t18 -23q1 8 5.5 15.5t17.5 13.5t37 9.5t65 3.5q37 0 61 -3t38.5 -8.5t20.5 -13.5t6 -18v-1315q0 -10 -6 -17.5t-20.5 -12.5t-38.5 -7.5t-61 -2.5t-61 2.5t-38.5 7.5t-20.5 12.5t-6 17.5v1161q-4 -6 -9 -9.5t-14 -3.5q-10 1 -28 4 t-39.5 6.5t-44.5 5.5t-42 2q-45 -1 -75 -9.5t-47.5 -27.5t-25 -48t-7.5 -70v-85h149q19 0 29.5 -21.5t10.5 -80.5q0 -55 -10.5 -78.5t-28.5 -23.5h-150v-722q0 -10 -6 -17.5t-20 -12.5t-38.5 -7.5t-60.5 -2.5q-37 0 -61.5 2.5t-38.5 7.5t-20 12.5t-6 17.5v722h-331v-722 q0 -10 -6 -17.5t-20.5 -12.5t-38.5 -7.5t-61 -2.5t-61 2.5t-38.5 7.5t-20 12.5t-5.5 17.5v722h-112q-19 0 -28.5 23.5t-9.5 78.5z" />
</font>
</defs>
</svg>
