<?xml version="1.0" standalone="no"?>
<!DOCTYPE svg PUBLIC "-//W3C//DTD SVG 1.1//EN" "http://www.w3.org/Graphics/SVG/1.1/DTD/svg11.dtd" >
<svg xmlns="http://www.w3.org/2000/svg">
<metadata></metadata>
<defs>
<font id="calibriitalic" horiz-adv-x="1053" >
<font-face units-per-em="2048" ascent="1536" descent="-512" />
<missing-glyph horiz-adv-x="463" />
<glyph horiz-adv-x="0" />
<glyph unicode="&#xd;" horiz-adv-x="463" />
<glyph horiz-adv-x="0" />
<glyph horiz-adv-x="0" />
<glyph unicode="&#x9;" horiz-adv-x="463" />
<glyph unicode=" "  horiz-adv-x="463" />
<glyph unicode="&#x09;" horiz-adv-x="463" />
<glyph unicode="&#xa0;" horiz-adv-x="463" />
<glyph unicode="!" horiz-adv-x="667" d="M187 52q0 13 2.5 32t7.5 39t12.5 38.5t18.5 29.5q16 16 37 21.5t54 5.5q29 0 47 -4.5t27.5 -12.5t13 -19.5t3.5 -25.5t-3 -33t-8.5 -39t-13.5 -37.5t-18 -27.5q-15 -14 -36.5 -21.5t-56.5 -7.5q-53 0 -70 15.5t-17 46.5zM279 373l172 954q5 26 26.5 36.5t74.5 10.5 q54 0 70 -11t11 -36l-208 -954q-4 -16 -21.5 -24t-59.5 -8q-43 0 -55.5 8t-9.5 24z" />
<glyph unicode="&#x22;" horiz-adv-x="821" d="M248 902l72 463q2 16 23.5 24t68.5 8q48 0 65.5 -8t13.5 -24l-117 -463q-2 -16 -18 -24t-52 -8t-47 8t-9 24zM603 902l72 463q2 16 23.5 24t68.5 8q48 0 65.5 -8t13.5 -24l-117 -463q-2 -16 -18 -24t-51 -8q-36 0 -47.5 8t-9.5 24z" />
<glyph unicode="#" horiz-adv-x="1020" d="M26 398q0 10 2 25.5t8 30.5t15.5 26t24.5 11h132l108 331h-120q-26 0 -26 37q0 14 4 30t10.5 29.5t15.5 22.5t20 9h137l105 321q2 16 21.5 22.5t64.5 6.5q23 0 36.5 -2t20 -5.5t7 -9t-1.5 -11.5l-105 -322h277l104 321q3 15 20.5 22t62.5 7q23 0 36.5 -2t20.5 -5.5 t8.5 -9t-0.5 -11.5l-103 -322h115q13 0 19 -9.5t6 -23.5q0 -9 -3 -25t-9 -31.5t-16 -27t-23 -11.5h-129l-109 -331h117q25 0 25 -34q0 -11 -3 -27t-9 -30.5t-16 -25t-24 -10.5h-133l-109 -342q-5 -16 -23.5 -22t-63.5 -6t-56 6.5t-6 21.5l111 342h-278l-111 -342 q-3 -8 -7 -13t-12.5 -8.5t-23 -5t-37.5 -1.5t-37.5 1.5t-22 5t-9 8.5t0.5 13l111 342h-116q-24 0 -24 34zM356 491h278l108 331h-278z" />
<glyph unicode="$" horiz-adv-x="1038" d="M31 127q0 9 2.5 27t8 36t14 31.5t20.5 13.5t33 -14t57 -31.5t88.5 -31.5t127.5 -14q101 0 169 23t109 59t58 81t17 89q0 46 -22.5 78.5t-59 56t-83 42t-95.5 37.5t-95.5 42.5t-83 57t-59 80t-22.5 112.5q0 71 25 138.5t79 121.5t138.5 89.5t203.5 42.5l61 201 q4 13 16.5 20.5t53.5 7.5q45 0 56.5 -8t6.5 -25l-61 -202q52 -9 100 -26.5t75 -37.5q19 -14 24 -23t5 -20q0 -10 -2.5 -29t-8 -37.5t-13.5 -32t-20 -13.5t-31.5 13.5t-52 29t-80 29t-116.5 13.5q-79 0 -132.5 -21.5t-86.5 -55t-47 -74.5t-14 -81q0 -43 22.5 -73t59 -53 t83.5 -41.5t96 -38t95.5 -44t83.5 -59t59.5 -82.5t22.5 -115q0 -80 -30 -153t-93 -129.5t-159.5 -92t-229.5 -41.5l-66 -217q-3 -6 -7 -11.5t-11.5 -9t-20 -5.5t-32.5 -2q-44 0 -55.5 8t-6.5 25l66 217q-63 8 -116 24t-86 37q-23 15 -30.5 27t-7.5 34z" />
<glyph unicode="%" horiz-adv-x="1464" d="M105.5 -21.5q-8.5 14.5 12.5 37.5l1158 1289q15 17 34.5 22.5t60.5 5.5q44 0 53 -14t-12 -38l-1158 -1289q-14 -15 -35 -21.5t-60 -6.5q-45 0 -53.5 14.5zM162 855q0 38 5.5 87t20.5 99.5t40 98.5t63.5 85.5t92.5 60.5t126 23q65 0 109 -17t71 -46.5t38.5 -70.5t11.5 -89 q0 -35 -5.5 -82.5t-19.5 -98t-39 -99.5t-64 -87.5t-94 -62.5t-129 -24q-115 0 -171 57.5t-56 165.5zM302 862q0 -64 25 -91.5t79 -27.5q40 0 70.5 19t52 49t35.5 67.5t22 75t11 70.5t3 55q0 58 -22.5 88.5t-82.5 30.5q-40 0 -70 -19.5t-51.5 -50.5t-35.5 -69t-22 -75.5 t-11 -70t-3 -51.5zM796 208q0 38 5.5 87t20.5 99.5t40 98.5t63.5 85.5t92.5 60.5t126 23q65 0 109 -17t71 -46.5t38.5 -70.5t11.5 -89q0 -35 -5.5 -82.5t-19.5 -98t-39 -99.5t-64 -87.5t-94 -62.5t-129 -24q-115 0 -171 57.5t-56 165.5zM936 215q0 -64 25 -91.5t79 -27.5 q40 0 70.5 19t52 49t35.5 67.5t22 75t11 70.5t3 55q0 58 -22.5 88.5t-82.5 30.5q-40 0 -70 -19.5t-51.5 -50.5t-35.5 -69t-22 -75.5t-11 -70t-3 -51.5z" />
<glyph unicode="&#x26;" horiz-adv-x="1397" d="M77 278q0 62 20 122.5t63 117.5t110.5 110.5t162.5 101.5q-56 102 -73.5 174t-17.5 114q0 33 8 71t27.5 75.5t50.5 71.5t77.5 60.5t108.5 42t143 15.5q94 0 157 -19.5t101.5 -51.5t55 -72t16.5 -80q0 -59 -20 -113t-69 -107.5t-132 -108t-209 -113.5q32 -53 62.5 -97.5 t62.5 -86t65.5 -81t71.5 -81.5q43 46 73 98t48.5 98.5t27.5 82t9 47.5q3 16 7.5 25t14.5 13.5t25.5 5.5t40.5 2q22 1 37 -1t23 -5t11.5 -6.5t4 -11.5t-2 -21.5t-6.5 -34.5q-9 -42 -26 -91.5t-42.5 -101.5t-59.5 -103t-78 -97q64 -61 105.5 -88.5t72.5 -27.5q21 0 28 -6 t6 -21q0 -5 -1.5 -14.5t-3.5 -20.5t-5 -23t-7 -22q-7 -17 -23 -26.5t-49 -9.5q-38 0 -95.5 33.5t-149.5 117.5q-97 -70 -208.5 -111t-235.5 -41q-89 0 -160 21t-120.5 59.5t-76 93t-26.5 122.5zM258 299q0 -33 11 -65t38 -57t71 -40t110 -15q40 0 81.5 8.5t81 23t76 35 t67.5 44.5q-42 46 -79.5 90.5t-73 90.5t-69.5 95t-68 103q-118 -63 -182 -138t-64 -175zM516 1025q0 -19 3 -41t10.5 -49.5t21 -60.5t34.5 -73q102 48 165 89t98 78t47.5 71t12.5 68q0 16 -7 35.5t-25 36.5t-49 28t-79 11q-68 0 -112.5 -19.5t-71 -49t-37.5 -63t-11 -61.5z " />
<glyph unicode="'" horiz-adv-x="452" d="M248 902l72 463q2 32 93 32q48 0 66 -8t14 -24l-117 -463q-4 -15 -19.5 -23.5t-51.5 -8.5t-47.5 8t-9.5 24z" />
<glyph unicode="(" horiz-adv-x="621" d="M117 200q0 129 20.5 268t68.5 288t127 308t196 328q9 14 28 20.5t65 6.5q86 0 59 -41q-110 -164 -186 -326.5t-123.5 -318t-69 -301t-21.5 -275.5q0 -53 3.5 -111.5t10 -118t17 -118t24.5 -109.5q3 -12 2.5 -20.5t-7.5 -14t-22 -8t-40 -2.5q-35 0 -50 5t-20 16 q-37 115 -59.5 244t-22.5 280z" />
<glyph unicode=")" horiz-adv-x="621" d="M-31 -304q108 164 184 326.5t124 318.5t70 301.5t22 274.5q0 53 -3.5 111.5t-10 118t-17 117.5t-24.5 110q-3 11 -2.5 19.5t7.5 14t22 8.5t40 3q37 0 51.5 -5.5t18.5 -16.5q37 -115 60 -243.5t23 -280.5q0 -128 -20.5 -267.5t-68.5 -288.5t-127 -308.5t-196 -327.5 q-5 -7 -11.5 -12t-17 -8t-26 -4.5t-39.5 -1.5q-46 0 -59 11t0 30z" />
<glyph unicode="*" horiz-adv-x="1020" d="M249 915q3 19 18 25l263 107l-211 101q-17 8 -15.5 25.5t30.5 55.5q31 39 47 47.5t32 -4.5l176 -149l25 261q2 16 18 24t61 8q48 0 63 -8t10 -24l-83 -261l243 156q14 9 27.5 -1t28.5 -49q15 -40 12.5 -60t-17.5 -26l-261 -105l215 -109q12 -6 9.5 -22t-30.5 -53 q-31 -41 -46.5 -48.5t-26.5 2.5l-185 153l-24 -262q0 -15 -16.5 -23t-61.5 -8q-47 0 -62 7.5t-10 23.5l81 262l-235 -153q-19 -12 -33 -2t-29 48q-16 42 -13 61z" />
<glyph unicode="+" horiz-adv-x="1020" d="M89 542q0 10 2.5 27.5t8.5 34.5t16.5 30t26.5 13h329l73 364q3 16 21 25.5t60 9.5t56 -9.5t11 -25.5l-73 -364h329q27 0 27 -38q0 -9 -3 -27t-9.5 -35t-17.5 -30t-26 -13h-328l-74 -364q-2 -14 -20 -23t-60 -9q-41 0 -55.5 9t-12.5 23l74 364h-328q-12 0 -19.5 8.5 t-7.5 29.5z" />
<glyph unicode="," horiz-adv-x="511" d="M-103.5 -281q-8.5 9 6.5 31l188 275l23 118q5 27 13 43t20.5 24.5t31.5 11t46 2.5q50 0 67.5 -11.5t17.5 -40.5q0 -115 -98 -228l-179 -206q-13 -15 -34 -21.5t-58 -6.5q-36 0 -44.5 9z" />
<glyph unicode="-" horiz-adv-x="627" d="M72 472q0 8 2.5 25t8.5 34t16.5 29.5t25.5 12.5h419q14 0 19.5 -9t5.5 -24q0 -9 -2.5 -26t-8.5 -34.5t-16 -30.5t-26 -13h-419q-25 0 -25 36z" />
<glyph unicode="." horiz-adv-x="517" d="M74 62q0 25 6 55t17 54q6 12 13 22t19.5 17t31 10.5t46.5 3.5t46 -5t28 -14.5t13.5 -22.5t3.5 -29q0 -10 -1.5 -23.5t-4.5 -28.5t-7 -30t-10 -27q-11 -26 -34 -39.5t-75 -13.5q-56 0 -74 18t-18 53z" />
<glyph unicode="/" horiz-adv-x="794" d="M-135.5 -268q-13.5 13 1.5 39l937 1659q14 25 35.5 32.5t64.5 7.5q53 0 68 -13t0 -39l-938 -1659q-14 -25 -36.5 -32.5t-63.5 -7.5q-55 0 -68.5 13z" />
<glyph unicode="0" horiz-adv-x="1038" d="M77 369q0 44 5.5 107.5t18 136.5t32.5 152t49.5 154.5t68.5 143t90 118.5q63 63 146.5 97.5t192.5 34.5q95 0 162 -26t109.5 -75.5t62 -122t19.5 -164.5q0 -44 -5.5 -107.5t-18 -137t-32.5 -152.5t-49.5 -154.5t-68.5 -143t-90 -117.5q-60 -60 -143 -96t-195 -36 q-94 0 -161 25.5t-110 75t-63 122t-20 165.5zM252 371q0 -128 48 -188.5t151 -60.5q60 0 107.5 20.5t86.5 59.5q40 40 71 99t55 127.5t40.5 141t27 139.5t15 123t4.5 91q0 128 -47 188.5t-152 60.5q-60 0 -107 -20.5t-87 -59.5q-40 -40 -71 -99t-55 -127.5t-40.5 -141.5 t-27 -139.5t-15 -122.5t-4.5 -91z" />
<glyph unicode="1" horiz-adv-x="1038" d="M95 37q0 7 3 24t9.5 34t17 30t25.5 13h270l195 974l-281 -148q-32 -17 -43 -10.5t-11 31.5q0 11 2.5 27.5t8 33t14.5 31.5t23 23l337 191q10 6 27 9t51 3q25 0 40.5 -2t23.5 -5.5t10 -9t1 -11.5l-226 -1137h234q14 0 19.5 -9.5t5.5 -26.5q0 -10 -3 -27.5t-9 -34 t-16 -28.5t-24 -12h-677q-12 0 -19.5 10t-7.5 27z" />
<glyph unicode="2" horiz-adv-x="1038" d="M32 42q0 10 1.5 26t7.5 34.5t18 38.5t33 38l333 292q117 103 186 185.5t105 148t46.5 114t10.5 83.5q0 24 -7 51.5t-26.5 51.5t-53 40t-85.5 16q-57 0 -109 -17t-94 -38t-71 -38t-39 -17q-22 0 -22 39q0 12 2.5 27.5t7 32t12 31.5t18.5 26t43.5 29t78.5 35t102.5 29.5 t115.5 12.5q96 0 159 -27t99.5 -68t51 -89t14.5 -91q0 -41 -6.5 -84t-24 -90t-49 -100t-81.5 -115t-122 -133.5t-170 -155.5l-250 -214h552q17 0 24 -12.5t7 -28.5q0 -10 -3.5 -27.5t-10 -35t-17.5 -30t-26 -12.5h-715q-26 0 -36 11t-10 31z" />
<glyph unicode="3" horiz-adv-x="1038" d="M35 110q0 9 2 27.5t7 37t13 33t20 14.5q9 0 32.5 -15.5t61 -34t90 -34t118.5 -15.5q84 0 145.5 26t101.5 66.5t59.5 90.5t19.5 98q0 40 -14.5 75t-46 60.5t-82 40.5t-121.5 15h-139q-33 0 -33 36q0 11 3 28t10 33t18 27.5t27 11.5h113q74 0 136 23t106.5 62t69.5 91 t25 111q0 72 -40.5 112.5t-134.5 40.5q-57 0 -109 -17.5t-94 -38.5t-71.5 -38.5t-41.5 -17.5q-19 0 -19 32q0 8 2 23t6.5 32t12 33t17.5 26q11 11 43 29.5t78 36t103 30t119 12.5q159 0 237 -71.5t78 -194.5q0 -70 -23 -131.5t-64 -110t-98 -82.5t-125 -49v-2 q66 -7 112.5 -31.5t75.5 -60t42 -79t13 -88.5q0 -74 -29 -150.5t-92 -139t-162.5 -102.5t-240.5 -40q-100 0 -178.5 23t-130.5 56q-28 18 -28 50z" />
<glyph unicode="4" horiz-adv-x="1038" d="M24 333q0 10 2.5 29t8 40.5t14.5 42.5t22 37l624 787q13 17 45 24t94 7q130 0 122 -35l-166 -826h146q15 0 21 -10.5t6 -27.5q0 -11 -3.5 -29t-10.5 -34.5t-17.5 -28.5t-24.5 -12h-146l-54 -272q-3 -15 -22.5 -23t-68.5 -8q-48 0 -65 8t-11 23l53 272h-534q-20 0 -27.5 9 t-7.5 27zM205 439h418l139 701h-2z" />
<glyph unicode="5" horiz-adv-x="1038" d="M29 90q0 8 2.5 27t8 38t14 33.5t21.5 14.5q10 0 30 -12.5t53.5 -27.5t82 -27.5t115.5 -12.5q94 0 164 29t116.5 78t69.5 113t23 134q0 36 -13 67.5t-43.5 55t-82 37.5t-128.5 14q-72 0 -121.5 -6t-88.5 -6q-27 0 -36.5 13t-1.5 50l106 527q13 65 72 65h573q28 0 28 -37 q0 -11 -3 -30t-10 -37.5t-18 -32t-27 -13.5h-483l-72 -363q35 4 64.5 6t66.5 2q110 0 186.5 -23.5t124.5 -64t69.5 -94t21.5 -114.5q0 -96 -34.5 -188t-104.5 -164t-177 -116t-252 -44q-90 0 -165 20.5t-124 44.5q-27 13 -27 44z" />
<glyph unicode="6" horiz-adv-x="1038" d="M106 337q0 39 4.5 101t17.5 138t36 160t59 165.5t87 156t121 131t159.5 90t203.5 33.5q66 0 118 -9.5t90 -24.5q24 -9 32.5 -20t8.5 -29q0 -10 -2 -26.5t-7 -32.5t-13.5 -28t-21.5 -12q-11 0 -27.5 7t-42.5 15.5t-62.5 15.5t-85.5 7q-93 0 -167.5 -37.5t-130.5 -101 t-94 -146.5t-59 -173q58 31 133 54t171 23q86 0 147 -22t100 -59.5t57 -89t18 -109.5q0 -56 -12 -117t-37.5 -120t-66.5 -112.5t-98.5 -94.5t-133 -65t-171.5 -24q-90 0 -153 26.5t-102.5 73.5t-57.5 112.5t-18 143.5zM278 348q0 -123 48.5 -175.5t140.5 -52.5q80 0 139 36 t97.5 91.5t57.5 120.5t19 124q0 76 -44 121t-147 45q-76 0 -151 -24t-135 -60q-14 -69 -19.5 -125t-5.5 -101z" />
<glyph unicode="7" horiz-adv-x="1038" d="M168 22.5q2 9.5 10 22.5l709 1098h-616q-27 0 -27 37q0 10 3 29t9.5 38t17.5 33t28 14h754q27 0 34 -10.5t7 -26.5q0 -12 -2.5 -29.5t-7.5 -37.5t-13.5 -41.5t-21.5 -41.5l-681 -1073q-8 -13 -17.5 -20.5t-23 -12t-32 -6t-44.5 -1.5q-34 0 -53.5 3t-27 9.5t-5.5 16z" />
<glyph unicode="8" horiz-adv-x="1038" d="M46 248q0 136 95 237.5t274 181.5q-98 56 -142 122t-44 149q0 67 26 134t81 120.5t141 87t206 33.5q100 0 165.5 -24t104 -60.5t53.5 -80.5t15 -84q0 -67 -23 -123.5t-65 -105t-101.5 -89t-132.5 -75.5q62 -34 106 -68.5t71.5 -70.5t40.5 -75t13 -83q0 -68 -27 -138 t-87.5 -126.5t-157.5 -92.5t-236 -36q-97 0 -168 20.5t-117 56.5t-68.5 85t-22.5 105zM221 270q0 -31 11 -59t37 -49.5t69.5 -34t108.5 -12.5q81 0 139 21t95.5 55.5t55 78.5t17.5 90q0 32 -11 60.5t-36 56.5t-65 56.5t-98 60.5q-95 -42 -157 -81t-99 -78t-52 -79.5 t-15 -85.5zM400 956q0 -32 6 -58t24.5 -50.5t52 -49.5t88.5 -56q131 61 204.5 133.5t73.5 167.5q0 25 -9.5 49.5t-31 44t-57 31t-87.5 11.5q-70 0 -120 -20t-82 -52.5t-47 -72t-15 -78.5z" />
<glyph unicode="9" horiz-adv-x="1038" d="M41 67q0 9 2 26t7 33t13.5 28t21.5 12q11 0 29.5 -7t46.5 -16t66 -16t87 -7q100 0 176.5 36.5t133 99t95 145.5t62.5 176q-60 -31 -134 -54t-170 -23q-86 0 -147 21.5t-99.5 59.5t-56 89t-17.5 110q0 55 11.5 116.5t37.5 120.5t66 112.5t98 94.5t133.5 65t171.5 24 q90 0 153 -26.5t102.5 -74t57.5 -112.5t18 -142q0 -39 -4.5 -101.5t-17 -138.5t-35.5 -160.5t-60 -166t-89.5 -156t-124.5 -131t-166 -90t-213 -33.5q-66 0 -121 11.5t-94 26.5q-23 9 -31.5 19.5t-8.5 28.5zM332 802q0 -38 10 -68.5t33 -52.5t59 -34t89 -12q37 0 75.5 6.5 t75 18t70.5 26.5t64 33q13 69 19.5 125.5t6.5 101.5q0 123 -48.5 176.5t-140.5 53.5q-53 0 -97 -17t-78.5 -45.5t-60.5 -66t-43 -79t-25.5 -84.5t-8.5 -82z" />
<glyph unicode=":" horiz-adv-x="548" d="M109 49q0 22 6 57q6 32 15 54.5t23.5 36t35.5 19.5t51 6q31 0 50.5 -6t29 -19.5t10.5 -36t-5 -54.5q-5 -32 -14.5 -54t-24.5 -35.5t-37 -19.5t-52 -6q-31 0 -50 5t-28.5 18t-9.5 35zM255 800q7 33 15.5 55.5t23 36t35.5 19.5t52 6q61 0 79 -25.5t4 -91.5 q-6 -32 -15.5 -54t-24 -35.5t-36 -19.5t-52.5 -6q-60 0 -77 25.5t-4 89.5z" />
<glyph unicode=";" horiz-adv-x="548" d="M-75.5 -279q-6.5 10 7.5 30l187 274l24 118q5 27 12.5 43t19.5 24.5t30.5 11t46.5 2.5q50 0 67.5 -11.5t17.5 -40.5q0 -57 -25.5 -114.5t-73.5 -113.5l-178 -204q-13 -15 -34 -22t-57 -7q-38 0 -44.5 10zM248.5 745.5q-0.5 22.5 6.5 55.5q7 36 16.5 59t24.5 35.5t36 17 t51 4.5q32 0 51 -6.5t28 -20t8.5 -36t-6.5 -53.5q-7 -32 -16 -54.5t-23.5 -36t-36 -19.5t-52.5 -6t-50 5.5t-28 19t-9.5 36z" />
<glyph unicode="&#x3c;" horiz-adv-x="1020" d="M87 538q0 12 2.5 30t8 35.5t14.5 32t23 20.5l858 393q20 9 28.5 3t8.5 -26q0 -22 -4.5 -44.5t-12.5 -42.5t-19.5 -35.5t-26.5 -21.5l-705 -311l579 -311q26 -14 26 -40q0 -19 -3.5 -43t-11 -44t-18 -31t-23.5 -3l-710 398q-7 4 -10.5 13.5t-3.5 27.5z" />
<glyph unicode="=" horiz-adv-x="1020" d="M73 350q0 11 3 28.5t9.5 34t17 28.5t26.5 12h755q27 0 27 -37q0 -9 -2.5 -26.5t-9 -35t-17 -30t-26.5 -12.5h-754q-13 0 -21 9t-8 29zM151 739q0 10 3 27.5t9.5 34t17 28.5t26.5 12h755q27 0 27 -36q0 -9 -2.5 -26.5t-8.5 -35t-17 -30.5t-28 -13h-754q-12 0 -20 9t-8 30z " />
<glyph unicode="&#x3e;" horiz-adv-x="1020" d="M34 124q0 22 4.5 45t13 43t20.5 35t26 21l705 311l-580 313q-25 13 -25 39q0 18 3.5 42.5t10.5 44.5t17.5 31t24.5 3l709 -399q15 -8 15 -39q0 -12 -2.5 -30t-8.5 -35.5t-15 -32.5t-22 -21l-858 -394q-38 -17 -38 23z" />
<glyph unicode="?" horiz-adv-x="949" d="M250 52q0 13 2.5 32t7.5 39t13 38.5t19 29.5q16 16 37 21.5t54 5.5q28 0 45.5 -4.5t27.5 -12.5t13 -19.5t3 -25.5t-3 -33.5t-8 -39t-12.5 -37t-17.5 -27.5q-15 -16 -37 -22.5t-56 -6.5q-53 0 -70.5 15.5t-17.5 46.5zM281 1189q0 22 7 52.5t24 47.5q13 13 44 27.5 t72.5 27.5t88.5 21.5t91 8.5q97 0 165 -26.5t110.5 -71t61.5 -103.5t19 -124q0 -81 -24.5 -157t-76 -136.5t-131.5 -99.5t-191 -46l-54 -239q-4 -15 -23 -22.5t-58 -7.5q-42 0 -59 6.5t-12 23.5l48 277q8 45 30.5 61.5t58.5 16.5h6q86 0 145.5 27.5t96.5 71t53.5 97 t16.5 105.5q0 45 -12.5 83.5t-38.5 66t-65.5 43.5t-92.5 16q-60 0 -107.5 -13.5t-82.5 -29.5t-57.5 -29.5t-34.5 -13.5q-10 0 -14 8.5t-4 30.5z" />
<glyph unicode="@" horiz-adv-x="1831" d="M160 274q0 45 7 114t26 151.5t51.5 173t83.5 177.5t123 166t169 139t222 95.5t282 35.5q152 0 261.5 -35t179.5 -97.5t103 -149.5t33 -191q0 -56 -10 -128.5t-32 -148.5t-58 -150t-88 -132t-121 -93.5t-158 -35.5q-94 0 -144.5 47t-44.5 134q-30 -44 -69.5 -78t-81.5 -57 t-84 -34.5t-78 -11.5q-59 0 -98 18t-62.5 49.5t-33.5 74t-10 92.5q0 51 11 112.5t34.5 124.5t59 122.5t84 105.5t110.5 74t138 28q67 0 115.5 -31.5t92.5 -97.5l27 89q5 14 19.5 21t51.5 7t50 -7t8 -21l-138 -433q-33 -105 -15 -152t85 -47q47 0 87 26.5t72 71t56 101.5 t40 118t24 121t8 111q0 69 -20 132.5t-70.5 112.5t-137 78t-219.5 29q-132 0 -236 -31.5t-184 -85t-138.5 -123t-99.5 -146t-66.5 -154.5t-40 -147.5t-19.5 -126t-5 -89.5q0 -50 7.5 -99t27 -94t54.5 -83.5t90 -66.5t132.5 -44t183.5 -16q76 0 136.5 8.5t104.5 19t71 19 t35 8.5q11 0 15 -7.5t4 -22.5q0 -24 -9 -54t-23 -45q-7 -8 -37 -18t-78 -19t-111 -15t-135 -6q-125 0 -219.5 20t-163.5 55.5t-114.5 84.5t-73 106.5t-38.5 121t-11 129.5zM682 423q0 -66 23 -95.5t74 -29.5q34 0 77.5 23.5t85.5 64t77.5 94.5t54.5 114l36 113 q-30 63 -65 96t-86 33q-45 0 -83 -21.5t-69 -56t-54 -78.5t-39 -90t-24 -90t-8 -77z" />
<glyph unicode="A" horiz-adv-x="1185" d="M-48 6q-5 4 -5 13q0 15 16 43l674 1202q6 11 14.5 18t21.5 11t32.5 5.5t49.5 1.5q33 0 54 -1.5t33 -5.5t17 -11.5t7 -18.5l194 -1202q3 -17 3 -28q-1 -4 -1 -8q-2 -13 -11 -20t-29.5 -9t-54.5 -2q-23 0 -38 1.5t-24 5t-13 9.5t-5 15l-48 315h-539l-169 -312 q-5 -10 -12 -16.5t-18 -10.5t-29 -5.5t-46 -1.5q-61 0 -74 12zM372 477h448l-97 645h-1z" />
<glyph unicode="B" horiz-adv-x="1114" d="M93 70l230 1154q8 39 32.5 54.5t51.5 15.5h278q97 0 166 -16.5t113 -48.5t65 -79t22 -108v-7q1 -57 -15 -109q-16 -54 -47 -99.5t-75 -81t-99 -58.5q43 -8 79 -29t62 -53t40.5 -74.5t14.5 -94.5q0 -81 -31.5 -158.5t-96.5 -140.5q-64 -63 -158.5 -100t-231.5 -37h-343 q-33 0 -49 16q-11 11 -11 32q0 10 3 22zM277 142h241q80 0 138 23t96 62t57 90t20 107v5q1 80 -57 124q-60 45 -184 45h-221zM396 735h195q77 0 130 26t85.5 66.5t47 89.5t14.5 94q0 33 -10.5 59t-34.5 45t-63.5 29t-98.5 10h-182z" />
<glyph unicode="C" horiz-adv-x="1070" d="M115 456q0 95 19.5 195.5t59 195.5t98 179t136.5 147t174.5 100t212.5 37q73 0 136.5 -16.5t108.5 -41.5t65 -44.5t20 -45.5q0 -23 -7 -52q-7 -31 -18.5 -49t-24.5 -18q-10 0 -21 8.5t-26.5 21.5t-36.5 28.5t-50.5 28.5t-68.5 21.5t-90 8.5q-83 0 -152.5 -31.5t-125 -85 t-97.5 -123.5t-69.5 -146.5t-41.5 -154.5t-14 -148q0 -161 77.5 -248t218.5 -87q78 0 134.5 17.5t97 39t67 39t44.5 17.5q21 0 21 -32q0 -6 -2 -19t-5 -28t-7.5 -30.5t-10.5 -27.5q-2 -5 -5.5 -9t-9.5 -9.5t-16.5 -13t-27.5 -17.5q-24 -14 -58 -28t-75 -25.5t-88 -18.5 t-98 -7q-102 0 -184 30.5t-139.5 90t-89 147.5t-31.5 204z" />
<glyph unicode="D" horiz-adv-x="1260" d="M92 36q-1 6 -1 13q0 9 2 21l230 1154q8 39 31 54.5t53 15.5h273q149 0 247 -31.5t163 -91.5q66 -60 98.5 -146t32.5 -197q0 -65 -9 -135.5t-28.5 -141t-50.5 -139t-76 -129.5t-103 -113t-133 -90t-167 -59t-221 -21h-287q-13 0 -24.5 3.5t-19 11t-10.5 21.5zM279 144h178 q124 0 204 29q82 29 144.5 80t107.5 118q33 50 57 104.5t39 111.5t22.5 114t7.5 112q0 75 -20 136t-65 106q-44 45 -112.5 70.5t-181.5 25.5h-180z" />
<glyph unicode="E" horiz-adv-x="1000" d="M92 36q-1 6 -1 13q0 9 2 21l231 1154q4 19 12 32.5t19 22t23 12t24 3.5h613q23 0 23 -33q0 -8 -2 -26t-7.5 -37t-16 -33t-26.5 -14h-505l-82 -406h435q24 0 24 -32q0 -9 -2.5 -27t-8.5 -35.5t-16 -31t-25 -13.5h-434l-94 -463h515q10 0 16.5 -8t6.5 -25q0 -10 -2 -28.5 t-8 -36.5t-16.5 -31.5t-26.5 -13.5h-622q-11 0 -21 3.5t-17.5 11t-10.5 21.5z" />
<glyph unicode="F" horiz-adv-x="941" d="M84 26l240 1198q4 19 12 32.5t19 22t23 12t24 3.5h581q14 0 18.5 -9.5t4.5 -24.5q0 -8 -2 -26.5t-8 -37.5t-16 -33.5t-26 -14.5h-473l-88 -440h448q23 0 23 -32q0 -10 -2.5 -28.5t-8.5 -37t-16.5 -32t-25.5 -13.5h-447l-108 -539q-3 -16 -22.5 -24t-69.5 -8t-66.5 8 t-13.5 24z" />
<glyph unicode="G" horiz-adv-x="1292" d="M110 474q0 107 24 210.5t70.5 196.5t114.5 172t155 136.5t192 90t227 32.5q52 0 100 -7t89 -18t74.5 -26t57.5 -30q24 -16 37 -25.5t18.5 -17t6.5 -15.5t3 -20q0 -11 -3 -28.5t-9 -35t-14.5 -30t-18.5 -12.5q-15 0 -40.5 18.5t-68 40.5t-103.5 40.5t-146 18.5 q-89 0 -166.5 -26.5t-142.5 -73t-116 -110t-86.5 -138t-54 -156.5t-18.5 -166q0 -88 25.5 -155.5t73.5 -113.5t116 -69.5t152 -23.5q63 0 130 14.5t125 44.5l75 375h-299q-25 0 -25 33q0 12 3 30.5t9.5 35.5t16.5 29.5t24 12.5h411q28 0 40.5 -19t5.5 -51l-100 -498 q-4 -19 -10.5 -30.5t-14.5 -20.5q-9 -9 -45.5 -26.5t-92 -35.5t-125.5 -31.5t-145 -13.5q-129 0 -228.5 34t-167 97.5t-102 154.5t-34.5 206z" />
<glyph unicode="H" horiz-adv-x="1276" d="M84 25l248 1244q3 14 24 22.5t69 8.5q50 0 66 -8.5t13 -22.5l-103 -519h588l104 519q3 14 23 22.5t70 8.5q49 0 65 -8.5t13 -22.5l-248 -1244q-3 -14 -22.5 -22.5t-70.5 -8.5q-48 0 -66 8.5t-12 22.5l114 575h-589l-114 -575q-3 -14 -22.5 -22.5t-69.5 -8.5t-66.5 8.5 t-13.5 22.5z" />
<glyph unicode="I" horiz-adv-x="516" d="M84 25l248 1244q3 14 25 22.5t68 8.5q48 0 65 -8.5t14 -22.5l-248 -1244q-3 -14 -23.5 -22.5t-68.5 -8.5q-50 0 -66.5 8.5t-13.5 22.5z" />
<glyph unicode="J" horiz-adv-x="653" d="M-72 57q0 10 3 30.5t9 40.5t14.5 35.5t19.5 15.5t22 -7.5t26.5 -16t37.5 -16t54 -7.5q37 0 64.5 10t47 33t33.5 60.5t25 92.5l188 941q3 15 24 23t69 8q47 0 65 -7.5t15 -23.5l-191 -957q-14 -71 -39 -131.5t-65 -104.5t-96.5 -69t-134.5 -25q-48 0 -86.5 7.5t-64.5 19.5 q-27 13 -33.5 23.5t-6.5 24.5z" />
<glyph unicode="K" horiz-adv-x="1064" d="M84 26l248 1243q3 14 24 22.5t69 8.5q50 0 66.5 -8.5t13.5 -22.5l-115 -576l566 574q9 9 18 15t22 10t30.5 6t41.5 2q51 0 67 -9t16 -24q0 -13 -10.5 -28t-32.5 -36l-537 -524l339 -603q10 -17 13 -27.5t3 -18.5q0 -18 -17.5 -27t-71.5 -9q-28 0 -45 2t-27.5 6t-16 10 t-10.5 15l-354 646l-128 -647q-3 -16 -23.5 -24t-68.5 -8q-50 0 -66.5 8t-13.5 24z" />
<glyph unicode="L" horiz-adv-x="861" d="M92 36q-1 6 -1 13q0 9 2 21l239 1199q3 14 24 22.5t69 8.5q49 0 65.5 -8.5t13.5 -22.5l-223 -1120h464q24 0 24 -34q0 -8 -2.5 -27t-9 -38.5t-16.5 -34.5t-25 -15h-573q-11 0 -22 3.5t-18.5 11t-10.5 21.5z" />
<glyph unicode="M" horiz-adv-x="1751" d="M84 25l237 1191q8 41 34 59.5t53 18.5h100q31 0 52.5 -6.5t35.5 -19.5t22 -33.5t14 -47.5l187 -935h5l578 935q16 25 31.5 45t33.5 34t39.5 21t50.5 7h114q29 0 47 -18q12 -12 13 -36q0 -11 -3 -24l-237 -1191q-3 -14 -21.5 -22.5t-68.5 -8.5q-49 0 -64.5 8.5t-12.5 22.5 l225 1127h-2l-689 -1131q-8 -14 -29 -20.5t-61 -6.5q-42 0 -58.5 7.5t-17.5 19.5l-215 1132h-2l-225 -1128q-3 -14 -21.5 -22.5t-68.5 -8.5q-49 0 -64 8q-12 7 -12 18v5z" />
<glyph unicode="N" horiz-adv-x="1320" d="M84 26l238 1194q8 40 33.5 57t51.5 17h79q25 0 42.5 -5t30.5 -18t23.5 -34t21.5 -52l245 -699q23 -66 45.5 -130.5t44.5 -130.5h2q14 82 30 170t33 170l141 701q3 15 21 23t66 8t63.5 -8t12.5 -23l-240 -1195q-4 -20 -13 -34t-20.5 -23t-24.5 -13t-25 -4h-65q-26 0 -44 6 t-31 20.5t-24 38t-23 58.5l-243 690q-26 74 -50 147t-47 148h-2q-13 -82 -28 -163t-31 -162l-150 -754q-3 -16 -23 -24t-67 -8t-61 8q-12 7 -13 19q0 2 1 5z" />
<glyph unicode="O" horiz-adv-x="1340" d="M114 426q0 86 15 185t49.5 197.5t90 189.5t136 161t188.5 112t248 42q227 0 342 -116t115 -337q0 -77 -14 -172t-47 -192.5t-87.5 -190.5t-135 -165t-189.5 -115.5t-252 -43.5q-229 0 -344 112.5t-115 332.5zM299 443q0 -71 16 -128.5t51.5 -98.5t93 -63.5t140.5 -22.5 q103 0 181 37.5t135 98.5t95 138.5t61 157t32.5 154.5t9.5 132q0 70 -16 128.5t-51.5 100.5t-92.5 65.5t-140 23.5q-104 0 -182.5 -38.5t-136 -100.5t-95 -140.5t-60 -159t-32 -155t-9.5 -129.5z" />
<glyph unicode="P" horiz-adv-x="1058" d="M84 25l238 1195q8 40 33 57t58 17h255q51 0 89 -3.5t74 -11.5q109 -24 171 -98t62 -191q0 -81 -29 -168t-92 -162q-31 -37 -71.5 -68t-91.5 -53t-114 -34.5t-139 -12.5h-178l-93 -467q-3 -14 -23 -22.5t-70 -8.5q-46 0 -64 7.5t-15 23.5zM378 633h163q103 0 166.5 33.5 t101.5 85.5t55.5 110.5t17.5 109.5q0 63 -30.5 107t-94.5 62q-24 7 -53 9t-62 2h-162z" />
<glyph unicode="Q" horiz-adv-x="1360" d="M114 426q0 86 15 185t49 197.5t89.5 189.5t136 161t188.5 112t248 42q227 0 342 -116t115 -337q0 -77 -13.5 -171t-46 -191.5t-87.5 -191.5t-138 -169q42 -40 78 -68t66 -46.5t53.5 -30t39.5 -18.5t24 -11.5t11 -9t3 -11t2 -16.5q0 -13 -3.5 -32.5t-10 -38t-16.5 -31.5 t-23 -13t-50 13.5t-87.5 43t-109 74.5t-113.5 108q-63 -34 -136.5 -51.5t-167.5 -17.5q-227 0 -342.5 113.5t-115.5 331.5zM298 443q0 -71 16 -128.5t51.5 -98.5t93 -63.5t141.5 -22.5q102 0 180 37.5t135 98.5t95 138.5t61 157t32.5 154.5t9.5 132q0 70 -15.5 128.5 t-51 100.5t-93 65.5t-140.5 23.5q-104 0 -182.5 -38.5t-135.5 -100.5t-95 -140.5t-60.5 -159t-32 -155t-9.5 -129.5z" />
<glyph unicode="R" horiz-adv-x="1112" d="M84 25l240 1199q8 39 32 54.5t53 15.5h281q185 0 278.5 -70t93.5 -201q0 -69 -19.5 -131t-59 -114t-99 -92.5t-138.5 -65.5q54 -19 86 -80t51 -161l53 -286q8 -40 8 -65q0 -18 -21 -26t-78 -8q-26 0 -41.5 2t-24.5 6.5t-12.5 13t-5.5 20.5l-51 304q-9 52 -23.5 95.5 t-40.5 75t-66 49t-98 17.5h-115l-111 -552q-3 -14 -22.5 -22.5t-70.5 -8.5q-48 0 -65 7.5t-14 23.5zM394 716h152q88 0 151 24t102.5 63.5t58 89.5t18.5 103q0 70 -50 113t-165 43h-179z" />
<glyph unicode="S" horiz-adv-x="926" d="M4 117q0 10 3 28.5t9 37.5t15.5 33t21.5 14q16 0 40 -16t59.5 -34.5t84.5 -34.5t115 -16q70 0 125 19.5t92.5 53t57.5 78.5t20 96q0 45 -19 78.5t-50.5 60.5t-71.5 50.5t-81.5 48t-81.5 53t-71.5 66t-50.5 86t-19 113.5q0 79 31 148t88 121t138 82t181 30 q71 0 132.5 -16.5t97.5 -36.5q18 -10 27.5 -17.5t14.5 -14t6 -14t3 -18.5q0 -11 -2.5 -29t-8 -35.5t-14 -30.5t-20.5 -13q-11 0 -30.5 12.5t-50 28t-72.5 28t-97 12.5q-61 0 -107 -19t-77 -50t-46.5 -71t-15.5 -83q0 -44 19.5 -77t51 -60.5t72 -51t83 -48.5t83 -54t72 -66 t51 -85.5t19.5 -112.5q0 -85 -35 -159.5t-99.5 -130t-155.5 -88t-203 -32.5q-61 0 -113.5 9.5t-94.5 26.5q-33 13 -56.5 24t-39.5 22t-23 24t-7 30z" />
<glyph unicode="T" horiz-adv-x="998" d="M163 1182q0 10 3 29t9 37.5t16 32t25 13.5h900q13 0 18 -9.5t5 -25.5q0 -9 -2 -27.5t-8 -37t-16.5 -32.5t-26.5 -14h-364l-225 -1122q-3 -16 -22.5 -24t-70.5 -8q-50 0 -66 8t-13 24l224 1122h-362q-14 0 -19 9t-5 25z" />
<glyph unicode="U" horiz-adv-x="1314" d="M163 262q-6 36 -6 77q0 64 15 139l158 790q3 16 23 24t69 8q50 0 66 -8t13 -24l-157 -788q-12 -63 -12 -115q0 -93 40 -149q63 -88 217 -88q151 0 252 90t135 260l158 790q3 16 22.5 24t68.5 8t66 -8t14 -24l-160 -797q-24 -122 -76.5 -214t-127 -153.5t-169 -92 t-203.5 -30.5q-115 0 -201 31.5t-137.5 94t-67.5 155.5z" />
<glyph unicode="V" horiz-adv-x="1162" d="M202 1290q8 6 26 8t49 2q30 0 48 -1.5t27.5 -5.5t13 -11t5.5 -17l151 -1088h1l577 1089q5 10 11.5 16.5t17.5 10.5t29.5 5.5t48.5 1.5q61 0 74 -12q5 -4 5 -12q0 -15 -16 -44l-662 -1202q-6 -11 -14 -18t-21.5 -11t-33.5 -5.5t-50 -1.5q-32 0 -52.5 1.5t-32.5 5.5 t-17.5 11.5t-7.5 18.5l-183 1210q-3 16 -3 27q0 16 9 22z" />
<glyph unicode="W" horiz-adv-x="1823" d="M220 1270q2 12 10.5 19t26.5 9t49 2q25 0 45.5 -2t29.5 -7t11.5 -14t3.5 -23l72 -1074h2l494 1082q5 11 11.5 18.5t17.5 12t30 6t49 1.5q27 0 43.5 -1.5t25 -6t11 -12t3.5 -18.5l82 -1082h2l502 1086q4 10 10.5 16.5t17.5 10.5t29 5.5t47 1.5q30 0 47 -2t24 -10 q5 -5 5 -14q0 -4 -1 -8q-3 -14 -13 -34l-582 -1195q-7 -14 -16.5 -22t-24.5 -13t-35.5 -6.5t-49.5 -1.5q-62 0 -86 7.5t-26 33.5l-77 980h-2l-442 -978q-6 -14 -15 -22.5t-23 -13t-35 -6t-51 -1.5q-34 0 -56 1.5t-35.5 6t-19.5 13.5t-7 23l-103 1199q-1 12 -1 21q-1 7 0 12z " />
<glyph unicode="X" horiz-adv-x="1063" d="M-40 7q-4 4 -4 10q0 15 23 45l479 604l-221 566q-8 21 -8 34.5t10.5 21t31.5 10t55 2.5q27 0 43 -2t26 -6.5t14.5 -12t9.5 -19.5l176 -473l365 482q7 9 14 15t18.5 9.5t30 5t47.5 1.5q66 0 82 -14q5 -4 5 -11q0 -15 -22 -43l-454 -571l242 -598q9 -21 9.5 -34.5t-9.5 -21 t-31 -10.5t-56 -3q-29 0 -46 1.5t-26 5.5t-13.5 9.5t-7.5 14.5l-196 519l-392 -519q-7 -9 -14.5 -15t-19.5 -9.5t-31 -5t-48 -1.5q-68 0 -82 13z" />
<glyph unicode="Y" horiz-adv-x="998" d="M192 1272q0 10 6 16q8 7 27 9.5t54 2.5q28 0 44.5 -2t26.5 -6.5t14.5 -12.5t8.5 -20l103 -355q18 -63 32 -119.5t27 -119.5h2q36 60 72.5 119t78.5 119l245 361q7 10 14 17t19 11t30.5 6t47.5 2q36 0 55 -3.5t25 -11.5q2 -4 2 -9t-3 -12q-6 -13 -19 -31l-512 -730 l-95 -478q-3 -14 -23.5 -22.5t-69.5 -8.5q-50 0 -66.5 8.5t-13.5 22.5l96 478l-220 730q-8 28 -8 39z" />
<glyph unicode="Z" horiz-adv-x="959" d="M-24 46q0 6 1.5 17t4 23.5t5.5 24t6 18.5t7 15t11 18.5t17.5 24t26.5 32.5l774 931h-584q-25 0 -25 35q0 8 2 26t8 36.5t17 32.5t28 14h723q20 0 32 -11.5t12 -31.5q0 -12 -4 -38t-10 -44q-3 -9 -6.5 -17t-10.5 -18t-17.5 -24t-27.5 -35l-774 -930h625q23 0 23 -33 q0 -9 -2 -27.5t-7.5 -37.5t-15.5 -33t-26 -14h-765q-24 0 -36 13.5t-12 32.5z" />
<glyph unicode="[" horiz-adv-x="628" d="M47 -283.5q-3 13.5 1 33.5l315 1579q8 39 31.5 54.5t47.5 15.5h255q20 0 20 -28q0 -8 -2.5 -24t-8 -31.5t-14 -27t-20.5 -11.5h-163l-295 -1476h163q20 0 20 -28q0 -10 -2.5 -26t-8 -31t-14 -25.5t-20.5 -10.5h-256q-11 0 -21.5 3.5t-17.5 11.5t-10 21.5z" />
<glyph unicode="\" horiz-adv-x="787" d="M206 1440q2 10 10.5 15t25 6.5t43.5 1.5q26 0 41.5 -1.5t23.5 -4.5t11 -8t5 -13l276 -1659q3 -17 1 -27t-10.5 -15.5t-24.5 -7t-43 -1.5t-42.5 1t-24.5 4t-12.5 8.5t-5.5 14.5l-273 1659q-3 17 -1 27z" />
<glyph unicode="]" horiz-adv-x="628" d="M-59 -291q0 9 2.5 24.5t8 30.5t14 26t20.5 11h162l295 1476h-162q-21 0 -21 27q0 9 2 25t7.5 31.5t14 27t22.5 11.5h255q25 0 41 -15.5t9 -54.5l-317 -1579q-8 -40 -31 -55t-46 -15h-256q-20 0 -20 29z" />
<glyph unicode="^" horiz-adv-x="1020" d="M134.5 577q-11.5 10 12.5 47l413 648q12 18 37 26t75 8t71.5 -8t26.5 -26l161 -648q5 -20 3.5 -31t-10.5 -17t-27 -7.5t-46 -1.5q-27 0 -43 1.5t-25 5.5t-13 10t-6 14l-123 551l-3 -3l-328 -548q-6 -8 -14 -14t-20 -10t-29.5 -5.5t-43.5 -1.5q-57 0 -68.5 10z" />
<glyph unicode="_" horiz-adv-x="1020" d="M-162 -332q0 8 2 25t8 33.5t15.5 29t24.5 12.5h962q13 0 19 -9.5t6 -25.5q0 -9 -2.5 -25t-8.5 -32.5t-16 -28.5t-24 -12h-963q-13 0 -18 9.5t-5 23.5z" />
<glyph unicode="`" horiz-adv-x="596" d="M300.5 1388.5q13.5 13.5 71.5 13.5q24 0 40 -1.5t27 -5.5t18.5 -11t14.5 -19l135 -231q13 -22 4 -32.5t-54 -10.5q-20 0 -33 1t-22 4.5t-16 10t-14 16.5l-171 233q-14 19 -0.5 32.5z" />
<glyph unicode="a" d="M81 306q0 56 10.5 127t34 144.5t61 144.5t90.5 126t123 88.5t159 33.5q90 0 152.5 -36t113.5 -99l19 91q3 16 22.5 23t59.5 7q42 0 56 -7q11 -6 11 -17q0 -3 -1 -6l-180 -901q-4 -17 -22 -24t-60 -7q-66 0 -66 24q0 3 1 7l33 170q-13 -33 -46.5 -70.5t-80.5 -69.5 t-104 -53t-116 -21q-81 0 -133 28t-82.5 73.5t-42.5 104t-12 119.5zM254 318q0 -35 5.5 -69.5t21 -63t42.5 -46t70 -17.5q55 0 110.5 30.5t103.5 84t85 127.5t55 161l34 165q-48 69 -101.5 103.5t-122.5 34.5q-54 0 -97.5 -25.5t-77 -67.5t-58 -95.5t-40 -110.5t-23 -112 t-7.5 -99z" />
<glyph unicode="b" d="M65 25l266 1336q3 16 21.5 24t68.5 8q49 0 63.5 -8t11.5 -24l-80 -402q-5 -26 -12 -54t-14.5 -55.5t-15 -52t-13.5 -42.5q16 34 50.5 72t81 69.5t101.5 52.5t111 21q59 0 102.5 -16t73.5 -42.5t48.5 -60.5t29 -70t14 -72t3.5 -65q0 -60 -11 -132.5t-35 -146t-62 -143 t-91 -123t-122.5 -86t-156.5 -32.5q-91 0 -154 34t-114 98l-18 -88q-4 -17 -22.5 -24t-58.5 -7q-41 0 -55 8q-11 7 -12 18q0 2 1 5zM276 257q48 -69 101 -102t122 -33q51 0 93.5 24t76.5 63.5t59 91.5t41.5 108.5t25 113.5t8.5 107q0 28 -4.5 62.5t-19.5 64.5t-42.5 50.5 t-73.5 20.5q-54 0 -109.5 -31t-104 -85.5t-86 -128.5t-54.5 -160z" />
<glyph unicode="c" horiz-adv-x="852" d="M76 307q0 61 11 133.5t35.5 146t63.5 142.5t95.5 122.5t132 85.5t172.5 32q60 0 113 -14t92 -38q21 -13 33.5 -23t19 -18t8.5 -15.5t2 -14.5q0 -17 -3.5 -36.5t-10.5 -36t-16.5 -27.5t-21.5 -11q-14 0 -29 15t-39.5 32.5t-62 32.5t-95.5 15q-64 0 -113.5 -26.5t-85.5 -69 t-60.5 -96.5t-39.5 -109t-21.5 -106.5t-6.5 -89.5q0 -103 44.5 -156t134.5 -53q65 0 111.5 16.5t79 36t54 36t36.5 16.5q17 0 17 -29q0 -12 -2 -28.5t-6.5 -33.5t-11.5 -33t-18 -28q-12 -12 -42 -30t-70 -33q-39 -14 -85 -23.5t-95 -9.5q-320 0 -320 326z" />
<glyph unicode="d" d="M81 311q0 58 11 129.5t35 145t61.5 142.5t90.5 123t122.5 86.5t157.5 32.5q44 0 81.5 -9.5t68.5 -26.5t57 -39.5t47 -47.5l102 510q3 15 21 23.5t67 8.5q49 -1 65 -9q13 -7 12 -16q0 -3 -1 -7l-266 -1332q-4 -17 -21.5 -24t-59.5 -7q-41 0 -55 7t-11 24l32 168 q-13 -33 -46.5 -70.5t-80.5 -69t-104 -52t-116 -20.5t-102 15.5t-73 42t-48.5 60.5t-29 70.5t-14 73t-3.5 68.5zM254 322q0 -97 33 -148.5t106 -51.5q55 0 110.5 30t104 83t85 126t54.5 160l34 166q-48 69 -101.5 105t-122.5 36q-53 0 -95.5 -24.5t-76.5 -65.5t-58.5 -94 t-40.5 -109t-24 -111.5t-8 -101.5z" />
<glyph unicode="e" horiz-adv-x="978" d="M77 312q0 65 12.5 139t39.5 147.5t70 140.5t102.5 118.5t137.5 82t176 30.5q84 0 142.5 -21t96 -54t54.5 -73.5t17 -80.5q0 -69 -32 -124t-100 -94t-174 -60t-254 -21h-106q-7 -33 -9.5 -64t-2.5 -58q0 -100 49.5 -153t160.5 -53q64 0 115 9.5t88.5 20.5t61.5 20.5 t33 9.5q18 0 18 -25q0 -11 -2 -24.5t-6 -28t-10 -27.5t-15 -22q-11 -12 -41.5 -24t-73 -21t-92.5 -15t-100 -6q-180 0 -268 81t-88 250zM288 562h102q105 0 175.5 13t113 35.5t60 52.5t17.5 63q0 51 -39.5 82.5t-114.5 31.5q-64 0 -114.5 -22.5t-89.5 -60.5t-66 -88.5 t-44 -106.5z" />
<glyph unicode="f" horiz-adv-x="625" d="M-195 -318q0 6 2.5 22.5t7 33.5t12 30t16.5 13q7 0 13.5 -1.5t14 -3t18 -3t26.5 -1.5q43 0 73 13t51.5 40.5t36 69.5t26.5 101l164 818h-128q-10 0 -15.5 6.5t-5.5 24.5q0 13 2.5 31t8.5 34.5t15.5 28.5t23.5 12h126l25 125q33 166 119 245t220 79q22 0 46 -2.5t44.5 -7 t36 -10.5t21.5 -12q12 -11 12 -33q0 -5 -2 -21t-6 -33t-11 -30t-16 -13q-7 0 -17.5 4t-24.5 8.5t-32.5 8.5t-42.5 4q-43 0 -73.5 -13t-52.5 -40.5t-37 -69.5t-26 -99l-17 -90h201q24 0 24 -32q0 -16 -4 -34.5t-10.5 -34t-16 -26t-20.5 -10.5h-202l-171 -852 q-34 -169 -116.5 -248t-221.5 -79q-45 0 -73.5 7t-35.5 13q-4 5 -6 11t-2 16z" />
<glyph unicode="g" d="M66 -265q0 10 2 27.5t7.5 34.5t15 29.5t24.5 12.5q12 0 30 -11t48 -23.5t74.5 -23.5t109.5 -11q110 0 174 43.5t83 137.5q18 91 34.5 151t27.5 93q-16 -37 -50.5 -75t-81 -69t-101.5 -50.5t-112 -19.5q-75 0 -127 25t-83.5 68.5t-45.5 103t-14 128.5q0 58 11 130t35 146 t61.5 144t90.5 124t122.5 87t157.5 33q90 0 152.5 -36t113.5 -99l19 91q3 16 22.5 23t59.5 7q42 0 56 -7q11 -6 11 -17q0 -3 -1 -6l-195 -972q-32 -161 -141.5 -240t-302.5 -79q-84 0 -152 16t-109 40q-16 9 -21 19t-5 25zM254 318q0 -43 7.5 -79t24 -62t43 -40.5 t64.5 -14.5q55 0 110.5 30.5t103.5 84.5t85 127.5t55 160.5l34 165q-48 69 -101.5 103.5t-122.5 34.5q-54 0 -97 -25t-76.5 -67t-58 -95.5t-40.5 -110t-23.5 -112t-7.5 -100.5z" />
<glyph unicode="h" d="M65 25l266 1336q3 16 21.5 24t68.5 8q49 0 63.5 -8t11.5 -24l-80 -407q-5 -26 -12 -53t-14.5 -53.5t-15 -50.5t-13.5 -42q16 34 50 72t80 70t101.5 52.5t114.5 20.5q64 0 109 -18.5t73.5 -51t41.5 -77.5t13 -97q0 -36 -4 -70t-11 -69l-112 -562q-3 -15 -22 -23t-68 -8 t-64 8t-12 23l111 556q5 26 8.5 58.5t3.5 56.5q0 57 -25.5 94.5t-87.5 37.5q-53 0 -108 -31t-103.5 -85.5t-85.5 -128.5t-54 -159l-80 -399q-3 -15 -21.5 -23t-67.5 -8q-25 0 -40.5 2t-24 6t-10.5 10l-2 6q0 3 1 7z" />
<glyph unicode="i" horiz-adv-x="470" d="M65 25l179 900q3 15 21 23t68 8q49 0 64 -8t12 -23l-179 -900q-3 -15 -21.5 -23t-67.5 -8q-25 0 -40.5 2t-24 6t-10.5 10l-2 6q0 3 1 7zM285 1228q5 28 13.5 47t23 30.5t35.5 16.5t51 5q58 1 75 -21q10 -13 11 -39q0 -17 -5 -39q-6 -28 -14.5 -47t-22.5 -30.5 t-34.5 -16.5t-50.5 -5q-59 -1 -76 21q-10 13 -10 39q0 17 4 39z" />
<glyph unicode="j" horiz-adv-x="490" d="M-197 -320q0 7 2.5 24t7.5 34t13 30t19 13q7 0 12 -1t11 -1.5t15.5 -1.5t24.5 -1q34 0 59.5 10t45 32.5t33.5 59.5t25 91l191 956q5 15 23 23t67 8q48 0 63.5 -8t12.5 -23l-193 -959q-16 -78 -40 -139.5t-62 -104t-91.5 -65t-127.5 -22.5q-42 0 -69 6t-34 12q-4 5 -6 11 t-2 16zM305 1228q5 28 13.5 47t22.5 30.5t34.5 16.5t50.5 5q60 0 77 -22q10 -13 10 -37q0 -17 -5 -40q-6 -28 -14.5 -47t-22 -30.5t-34 -16.5t-50.5 -5q-59 0 -76 21q-10 14 -10 39q0 17 4 39z" />
<glyph unicode="k" horiz-adv-x="931" d="M64 25l267 1336q3 16 21.5 24t68.5 8q49 0 63.5 -8t11.5 -24l-163 -814l417 377q16 19 40.5 25.5t72.5 6.5q49 0 66.5 -6.5t17.5 -21.5q0 -12 -8 -25.5t-34 -35.5l-391 -335l269 -453q11 -17 14.5 -30t3.5 -20q0 -17 -18.5 -26t-71.5 -9q-27 0 -44 1.5t-26.5 5.5 t-14.5 10t-9 15l-288 498l-99 -499q-3 -15 -22 -23t-68 -8q-48 0 -63.5 7.5t-12.5 23.5z" />
<glyph unicode="l" horiz-adv-x="470" d="M65 25l266 1336q3 16 21.5 24t68.5 8q49 0 63 -8q12 -7 12 -19v-5l-266 -1336q-3 -15 -21.5 -23t-67.5 -8q-25 0 -40.5 2t-24 6t-10.5 10l-2 6q0 3 1 7z" />
<glyph unicode="m" horiz-adv-x="1620" d="M65 25l181 901q3 15 20 22.5t58 7.5q43 0 56 -7t10 -23l-34 -172q15 34 49 72t80.5 70t101.5 53t111 21q61 0 103.5 -16.5t69.5 -45t40.5 -68.5t16.5 -86q20 34 55 72.5t81 70t99.5 52.5t110.5 21q67 0 112 -19t73 -52t40 -77.5t12 -95.5q0 -35 -3.5 -69t-11.5 -70 l-113 -562q-3 -15 -22 -23t-67 -8t-63.5 8t-12.5 23l111 556q6 29 9 55t3 52q0 64 -24.5 102t-85.5 38q-50 0 -103.5 -30.5t-101 -84t-85 -127t-54.5 -159.5l-80 -402q-3 -15 -22 -23t-68 -8q-48 0 -63.5 8t-12.5 23l111 556q6 30 9 59t3 54q0 61 -25 97.5t-85 36.5 q-50 0 -103.5 -30.5t-101.5 -84t-85 -127t-54 -159.5l-80 -402q-3 -15 -21.5 -23t-67.5 -8q-25 0 -40.5 2t-24 6t-10.5 10l-2 6q0 3 1 7z" />
<glyph unicode="n" d="M65 25l181 901q3 15 20 22.5t58 7.5q43 0 56 -7t10 -23l-34 -172q15 34 49 72t81 70t103.5 53t117.5 21q67 0 112 -20.5t73 -54t40 -77.5t12 -92q0 -35 -3.5 -69t-11.5 -70l-113 -562q-3 -15 -21 -23t-68 -8q-49 0 -64 8t-12 23l111 556q6 31 9 60t3 51q0 61 -26 98.5 t-87 37.5q-53 0 -108 -30.5t-103.5 -84t-85.5 -127t-54 -159.5l-80 -402q-3 -15 -21.5 -23t-67.5 -8q-25 0 -40.5 2t-24 6t-10.5 10l-2 6q0 3 1 7z" />
<glyph unicode="o" horiz-adv-x="1051" d="M78 324q0 74 14 150.5t42.5 148.5t72 135t103 110t135 74.5t168.5 27.5q96 0 164.5 -23.5t113 -68t65.5 -108t21 -143.5q0 -74 -14 -150.5t-42.5 -148.5t-72.5 -135t-103.5 -110t-135 -74.5t-168.5 -27.5q-96 0 -164.5 23t-112.5 67t-65 108t-21 145zM251 334 q0 -50 11 -90t35.5 -68t63.5 -43t95 -15q60 0 109 21.5t87.5 58.5t67 86.5t47 104.5t27.5 113.5t9 114.5q0 50 -11 90t-35 67.5t-63 42.5t-96 15q-60 0 -109 -21.5t-87.5 -58t-67 -85.5t-47 -104.5t-27.5 -114t-9 -114.5z" />
<glyph unicode="p" d="M-7 -332l253 1258q3 16 20.5 23t59.5 7t55.5 -6.5t10.5 -23.5l-34 -171q14 33 47.5 70.5t80 70t103 53.5t116.5 21q76 0 127.5 -25.5t83.5 -69.5t46 -103.5t14 -127.5q0 -59 -11 -131t-35 -145.5t-61.5 -143.5t-90.5 -124t-122.5 -86.5t-157.5 -32.5q-89 0 -150.5 33.5 t-104.5 85.5l-85 -432q-3 -16 -20.5 -24t-68.5 -8q-48 0 -63.5 8t-12.5 24zM276 261q48 -70 101 -104.5t122 -34.5q53 0 96.5 25t77 66.5t58 95t41 110.5t24 112.5t7.5 101.5q0 43 -7.5 79t-24 62t-43 40t-65.5 14q-54 0 -109.5 -30t-104 -84t-86 -127.5t-54.5 -160.5z" />
<glyph unicode="q" d="M81 305q0 56 10.5 127t34 144.5t60.5 144.5t90 126t123 89t160 34t152.5 -36t113.5 -99l19 91q3 16 22.5 23.5t59.5 7.5q42 0 56 -8q11 -7 11 -18q0 -2 -1 -5l-251 -1258q-3 -16 -21.5 -24t-68.5 -8q-47 0 -63 8t-13 24l66 325q5 25 12 52.5t14 54t14.5 50.5t14.5 42 q-16 -35 -50.5 -72t-81 -68t-101.5 -51t-112 -20q-71 0 -122 23.5t-84 66t-48.5 102t-15.5 132.5zM254 318q0 -196 139 -196q55 0 110.5 30.5t103.5 84.5t85 127.5t55 160.5l34 165q-48 69 -101.5 103.5t-122.5 34.5q-56 0 -100.5 -27t-78 -70.5t-57.5 -98.5t-38.5 -112 t-21.5 -110t-7 -92z" />
<glyph unicode="r" horiz-adv-x="702" d="M65 25l179 901q3 16 21.5 23t58.5 7q43 0 56 -7t10 -23l-33 -164q23 41 55 79t68.5 66.5t76.5 45.5t80 17q17 0 34.5 -2t32.5 -6t26.5 -8.5t17.5 -10.5t6 -19q0 -6 -3 -27.5t-9 -45.5t-15 -42.5t-21 -18.5q-8 0 -17.5 3.5t-21 8t-26.5 8.5t-35 4q-35 0 -79.5 -29.5 t-87 -81.5t-78.5 -123t-52 -154l-79 -401q-3 -15 -21.5 -23t-67.5 -8q-25 0 -40.5 2t-24 6t-10.5 10l-2 6q0 3 1 7z" />
<glyph unicode="s" horiz-adv-x="797" d="M9 93q0 12 3 30t8.5 34.5t13.5 28.5t17 12q12 0 29 -13.5t44.5 -29t68.5 -29t102 -13.5q55 0 94.5 13.5t65.5 36t38.5 52.5t12.5 63q0 42 -26.5 68.5t-65.5 48t-85.5 42.5t-85.5 49.5t-65.5 70t-26.5 105.5q0 66 26 122.5t73.5 98t114 64.5t147.5 23q38 0 73.5 -6 t65.5 -15t52 -20t33 -22t11 -31q0 -11 -3 -27t-8.5 -32t-13 -27t-16.5 -11q-12 0 -28.5 10t-40.5 21.5t-57.5 21.5t-79.5 10q-44 0 -78 -12.5t-57 -34t-35 -49t-12 -57.5q0 -40 26.5 -66t66.5 -47.5t86 -42t86 -49.5t66.5 -71t26.5 -105q0 -71 -27.5 -131t-79 -103.5 t-124.5 -68t-163 -24.5q-48 0 -89 7t-74.5 18.5t-57.5 24.5t-37 25q-15 15 -15 37z" />
<glyph unicode="t" horiz-adv-x="686" d="M113 846q0 14 3 32.5t9 34.5t15.5 27t22.5 11h126l43 214q3 15 22 23.5t67 8.5q49 0 64 -8.5t12 -23.5l-43 -214h230q15 0 20 -11t5 -25q0 -13 -3 -30.5t-9.5 -33t-16.5 -26.5t-23 -11h-230l-101 -502q-5 -21 -7.5 -47t-2.5 -43q0 -51 21.5 -74.5t69.5 -23.5q27 0 47 4.5 t34.5 9.5t25 9.5t19.5 4.5q8 0 12.5 -5.5t4.5 -20.5q0 -13 -2.5 -28.5t-6.5 -30.5t-10 -27.5t-13 -18.5q-8 -8 -24 -14.5t-36.5 -12t-44.5 -8.5t-47 -3q-112 0 -166.5 49t-54.5 157q0 23 5 57t10 62l101 506h-125q-11 0 -17 6.5t-6 25.5z" />
<glyph unicode="u" d="M112 225q0 33 4.5 67.5t11.5 69.5l111 564q5 15 23 22.5t67 7.5t64 -7t12 -23l-110 -558q-5 -26 -8.5 -54t-3.5 -57q0 -30 5.5 -54.5t19 -42.5t34.5 -28t53 -10q53 0 108.5 30.5t104 84.5t85.5 128.5t55 162.5l79 398q3 16 22.5 23t67.5 7q49 0 64 -7q13 -6 13 -18 q0 -2 -1 -5l-181 -901q-3 -17 -20 -24t-59 -7q-40 0 -54 7.5t-11 23.5l33 169q-16 -34 -50.5 -71.5t-81 -69t-102 -52t-112.5 -20.5q-68 0 -114.5 18.5t-75 51t-41 77t-12.5 97.5z" />
<glyph unicode="v" horiz-adv-x="913" d="M124 918q0 12 3.5 19.5t13 11.5t25.5 5.5t41 1.5q26 0 41.5 -1.5t24 -5t11.5 -10t5 -15.5l108 -742v-12l5 6q59 89 107.5 173t90.5 172.5t80 186.5t77 216q3 9 8.5 15.5t16 10t27.5 5t44 1.5q47 0 62.5 -5.5t15.5 -17.5q0 -10 -3 -20.5t-7 -21.5q-37 -109 -83 -220.5 t-103 -222t-124.5 -217t-147.5 -205.5q-14 -21 -37.5 -26.5t-66.5 -5.5q-31 0 -50 2t-29.5 6t-15 11t-5.5 17l-133 853q-1 11 -1.5 19.5t-0.5 15.5z" />
<glyph unicode="w" horiz-adv-x="1464" d="M143 917q0 24 17.5 31.5t68.5 7.5q26 0 41.5 -1.5t24 -5t11.5 -10t4 -15.5l70 -744v-9l4 9l341 744q4 9 9 15t14 10t23.5 5.5t38.5 1.5q47 0 63 -6.5t18 -23.5l74 -741v-8l5 8q45 72 91 160t89.5 184t82 196.5t70.5 198.5q6 18 25 25t70 7q25 0 40 -1.5t23 -4t10.5 -7 t2.5 -10.5q0 -11 -2.5 -22.5t-5.5 -19.5q-38 -109 -84 -220.5t-100.5 -221.5t-117.5 -217t-134 -206q-15 -21 -41.5 -26.5t-68.5 -5.5q-52 0 -71.5 8t-19.5 28l-67 660l-303 -657q-5 -11 -13 -18.5t-21 -12t-32.5 -6.5t-47.5 -2q-57 0 -81 8t-24 28l-95 855q-1 9 -1.5 17.5 t-0.5 14.5z" />
<glyph unicode="x" horiz-adv-x="887" d="M-40 4q-6 4 -6 13q0 10 11 26l374 444l-185 420q-13 29 5 39t79 10q28 0 44 -1.5t24.5 -4.5t12 -8t6.5 -12l143 -336l270 336q6 6 12 11t16.5 8t27.5 5t44 2q59 0 77 -8q8 -4 8 -11q0 -10 -15 -28l-351 -425l196 -440q12 -28 -8 -39t-81 -11q-29 0 -45 1.5t-24 5t-11.5 9 t-6.5 12.5l-150 355l-283 -355q-6 -7 -12.5 -12.5t-18 -9t-30.5 -5t-49 -1.5q-59 0 -74 10z" />
<glyph unicode="y" horiz-adv-x="916" d="M30 -353q-9 5 -9 13q0 11 13 27l244 313l-149 879q-2 12 -3 22t-1 17q0 23 17 30.5t67 7.5q26 0 42 -1.5t24.5 -5t11.5 -10.5t5 -17l117 -734h2q62 87 112.5 177t93 182.5t77.5 187.5t65 191q4 16 23.5 23t73.5 7q45 0 60 -6t15 -18q0 -11 -2 -22.5t-7 -21.5 q-33 -91 -72 -189.5t-91.5 -205.5t-122 -224.5t-164.5 -246.5l-259 -353q-12 -16 -36.5 -24.5t-75.5 -8.5q-53 0 -71 11z" />
<glyph unicode="z" horiz-adv-x="809" d="M5 39q0 7 1.5 18t4 22.5t5 21.5t4.5 15q4 14 14 29.5t37 48.5l512 618h-376q-26 0 -26 35q0 13 3 31t9.5 34.5t16.5 27.5t24 11h519q19 0 26.5 -9t7.5 -25q0 -5 -1 -14.5t-3 -20l-4 -21t-4 -17.5q-6 -22 -18.5 -41.5t-34.5 -45.5l-509 -618h413q24 0 24 -35q0 -12 -3 -30 t-9 -34.5t-16 -28t-23 -11.5h-557q-19 0 -28 10.5t-9 28.5z" />
<glyph unicode="{" horiz-adv-x="644" d="M102 536q0 9 1.5 20.5t4.5 22.5t7.5 20.5t9.5 13.5q8 9 21.5 11.5t31.5 6.5t39 14t44 33q30 30 51 78.5t32 108.5l44 226q15 79 36.5 138.5t54.5 99.5t80.5 59.5t113.5 19.5q63 0 80 -12q6 -6 6 -25q0 -13 -3 -28.5t-9 -29.5t-15.5 -23.5t-22.5 -9.5h-31q-29 0 -50 -8.5 t-37.5 -33t-30 -67.5t-26.5 -112l-37 -187q-11 -57 -30 -109t-47.5 -93.5t-68 -70t-92.5 -39.5q37 -8 61.5 -29.5t38.5 -49.5t20 -60t6 -60q0 -53 -11 -105l-50 -246q-8 -42 -11.5 -72.5t-3.5 -54.5q0 -45 15 -61t43 -16h46q15 0 21 -9.5t6 -22.5q0 -7 -2 -18.5t-5.5 -23.5 t-8.5 -22.5t-11 -16.5q-8 -8 -26.5 -11.5t-54.5 -3.5q-52 0 -86 12.5t-54 36t-28 57t-8 75.5q0 26 3.5 68t14.5 96l50 243q4 19 7 44t3 44q0 61 -25 101t-83 49q-14 2 -19 9.5t-5 22.5z" />
<glyph unicode="|" horiz-adv-x="943" d="M234 -333l347 1736q3 15 21.5 23t62.5 8q45 0 60.5 -8t10.5 -23l-347 -1736q-3 -16 -21 -24t-63 -8t-59.5 8t-11.5 24z" />
<glyph unicode="}" horiz-adv-x="644" d="M-28 -285q0 12 3 28t9 30t15.5 23.5t22.5 9.5h31q28 0 49 8.5t37.5 33t30 67.5t27.5 112l46 233q11 58 30 109.5t47.5 93t68 69.5t92.5 39q-37 8 -61.5 29.5t-38.5 50t-20 60t-6 59.5q0 54 11 106l41 201q8 40 11.5 71t3.5 55q0 45 -15 61t-43 16h-45q-16 0 -22 9.5 t-6 23.5q0 7 2 18t5.5 22.5t8.5 22.5t11 17q8 8 26 11.5t55 3.5q51 0 85 -12.5t54.5 -36t29 -57t8.5 -75.5q0 -26 -4.5 -68t-15.5 -96l-40 -197q-4 -19 -7 -44.5t-3 -44.5q0 -30 6 -55.5t19 -45t33.5 -32.5t49.5 -17q14 -2 19 -9.5t5 -21.5q0 -9 -2 -20.5t-5 -23t-7.5 -21 t-8.5 -13.5q-8 -8 -22 -10.5t-31.5 -7t-38.5 -14.5t-44 -33q-30 -30 -50.5 -78t-32.5 -108l-54 -272q-16 -79 -37.5 -138.5t-54.5 -99t-79.5 -59.5t-112.5 -20q-64 0 -80 12q-6 7 -6 25z" />
<glyph unicode="~" horiz-adv-x="1020" d="M147 824q0 62 17 118t51.5 98.5t87.5 67.5t124 25q59 0 99.5 -17.5t70 -43t51.5 -56t43.5 -56t46.5 -43t61 -17.5q33 0 58 13t42 36.5t26 55.5t11 70q1 16 18.5 21.5t48.5 5.5q38 0 50.5 -7t12.5 -23q0 -63 -19.5 -119t-55.5 -98.5t-87 -67t-114 -24.5q-61 0 -102 17.5 t-69.5 43.5t-49.5 56.5t-42.5 56.5t-47.5 43.5t-65 17.5q-34 0 -59 -14.5t-41.5 -38.5t-25.5 -55.5t-11 -65.5q-1 -18 -18 -23.5t-50 -5.5q-39 0 -50.5 7t-11.5 22z" />
<glyph unicode="&#xa1;" horiz-adv-x="667" d="M84 -145l208 954q4 16 21.5 24t59.5 8q43 0 55.5 -8t9.5 -24l-172 -954q-5 -26 -26.5 -36.5t-74.5 -10.5q-54 0 -70 11t-11 36zM307 1026q0 14 3 33t8.5 39t13.5 37.5t18 27.5q15 14 36.5 21.5t56.5 7.5q53 0 70 -15.5t17 -46.5q0 -13 -2.5 -32t-7.5 -39t-12.5 -38.5 t-18.5 -29.5q-16 -16 -37 -21.5t-54 -5.5q-29 0 -47 4.5t-27.5 12.5t-13 19.5t-3.5 25.5z" />
<glyph unicode="&#xa2;" horiz-adv-x="1020" d="M203 489q0 52 9 116.5t30.5 132.5t55.5 133.5t84.5 119.5t118 91.5t155.5 48.5l29 145q3 15 20 23t59 8q43 0 56 -8t10 -23l-28 -145q49 -7 89.5 -25t78.5 -50q17 -14 23 -26t6 -28q0 -10 -3 -28t-9 -36t-15.5 -31t-22.5 -13q-14 0 -29.5 16t-40.5 35.5t-63.5 35.5 t-97.5 16q-65 0 -115 -24.5t-88 -64.5t-64.5 -92t-42.5 -106t-23.5 -106.5t-7.5 -94.5q0 -49 10 -89t32.5 -68.5t60 -44t92.5 -15.5q59 0 103.5 17.5t78 38.5t57.5 38.5t43 17.5q17 0 17 -30q0 -11 -2.5 -28t-7 -35t-11.5 -34.5t-17 -26.5q-15 -15 -40 -30.5t-55 -28 t-64 -22.5t-67 -15l-29 -145q-3 -15 -20 -23t-59 -8t-56.5 8t-11.5 23l31 147q-71 11 -120 39.5t-80 72t-45 99.5t-14 122z" />
<glyph unicode="&#xa3;" horiz-adv-x="1038" d="M0 37q0 10 3.5 27.5t10.5 34t17 28.5t22 12h123l92 454h-123q-12 0 -19.5 10t-7.5 26q0 9 3 25.5t9 33t16 28.5t24 12h123l29 140q25 121 69 205.5t103.5 137t134 76t160.5 23.5q36 0 71.5 -6t69 -17t63 -28t52.5 -39q21 -21 21 -46q0 -10 -2 -28t-7.5 -35.5t-14.5 -30.5 t-22 -13q-14 0 -29.5 16t-41 35.5t-64.5 35.5t-99 16q-118 0 -192.5 -80.5t-106.5 -239.5l-24 -122h327q15 0 21 -11t6 -25q0 -9 -3 -26t-9 -33t-16 -28t-24 -12h-328l-91 -454h503q12 0 18.5 -9.5t6.5 -24.5q0 -9 -3 -26.5t-9 -35t-16 -30.5t-24 -13h-795q-12 0 -19.5 10 t-7.5 27z" />
<glyph unicode="&#xa4;" horiz-adv-x="1020" d="M-12.5 40.5q-9.5 15.5 19.5 48.5l186 207q-22 29 -35.5 75t-13.5 101q0 106 38 207.5t118 179.5l-103 207q-17 33 -1.5 48.5t72.5 15.5q24 0 39 -1.5t24 -4.5t14 -8t8 -12l76 -169q38 18 84.5 28.5t97.5 10.5q49 0 89 -9.5t72 -29.5l142 172q7 8 15 13t20 8t29 4t42 1 q57 0 66.5 -17t-19.5 -49l-192 -211q14 -23 22.5 -47t12.5 -46t5 -40t1 -30q0 -108 -40 -209.5t-123 -180.5l103 -204q17 -33 2 -48t-72 -15q-24 0 -39.5 1t-24.5 4t-13.5 7.5t-7.5 12.5l-76 170q-40 -19 -83 -29.5t-92 -10.5q-45 0 -83 7.5t-66 22.5l-142 -171 q-7 -7 -15 -12t-20 -8t-29 -4t-41 -1q-57 0 -66.5 15.5zM299 499q0 -88 44 -134.5t135 -46.5q76 0 130 33.5t87.5 85t49 112.5t15.5 115q0 35 -9 68.5t-29.5 59.5t-53 41.5t-78.5 15.5q-58 0 -102 -18t-76.5 -47t-54 -66.5t-34.5 -76.5t-18.5 -76t-5.5 -66z" />
<glyph unicode="&#xa5;" horiz-adv-x="1038" d="M74 190q0 7 2.5 22t7.5 30t14 26.5t21 11.5h276l31 160h-276q-20 0 -20 33q0 7 2.5 22t8 29.5t14 25.5t20.5 11h276l11 53l-238 619q-8 21 -9.5 34.5t7 20.5t28 9.5t52.5 2.5q28 0 45 -1.5t26.5 -5t14 -9.5t7.5 -15l182 -504l378 504q7 9 15 15t20.5 9.5t32 5t48.5 1.5 q63 0 73.5 -12t-23.5 -55l-487 -619l-11 -53h277q12 0 16.5 -9.5t4.5 -19.5t-2.5 -25.5t-8 -30.5t-14 -25.5t-20.5 -10.5h-277l-31 -160h276q12 0 16.5 -9t4.5 -20q0 -8 -2.5 -23.5t-7.5 -30.5t-13.5 -26.5t-21.5 -11.5h-277l-26 -135q-3 -15 -23.5 -22.5t-68.5 -7.5 q-50 0 -66.5 7.5t-13.5 22.5l26 135h-276q-21 0 -21 31z" />
<glyph unicode="&#xa6;" horiz-adv-x="1020" d="M266 -360l135 673q3 14 21 23t63 9t59.5 -8.5t11.5 -23.5l-135 -673q-5 -15 -21.5 -23t-62.5 -8q-45 0 -60.5 8t-10.5 23zM490 759l132 663q3 14 21 23t64 9q45 0 59.5 -9t11.5 -23l-133 -663q-3 -8 -8 -13.5t-14 -9.5t-24 -6t-38 -2q-85 0 -71 31z" />
<glyph unicode="&#xa7;" horiz-adv-x="1020" d="M69 -88q0 10 2.5 27t8.5 33.5t15 29t21 12.5q14 0 31 -13.5t44 -29.5t67.5 -29.5t100.5 -13.5q56 0 96.5 16t67 42t39 59.5t12.5 68.5t-18.5 60.5t-49 45.5t-69.5 37.5t-79.5 36t-79.5 40.5t-69.5 52.5t-49 71t-18.5 96.5q0 57 20 108.5t53 94.5t75.5 77t87.5 57 q-25 30 -35.5 63t-10.5 66q0 64 23 123t69 104t115 71.5t161 26.5q80 0 136.5 -19.5t81.5 -42.5q11 -13 11 -34q0 -8 -2.5 -25t-8 -34t-13.5 -30t-19 -13q-9 0 -23 11t-37 24.5t-57 24.5t-84 11q-44 0 -78.5 -14t-58.5 -37.5t-36.5 -54.5t-12.5 -65q0 -50 32 -82t80 -56.5 t103.5 -48t103.5 -56t80 -81t32 -123.5q0 -56 -19 -106t-51 -93t-74.5 -77.5t-88.5 -58.5q25 -32 36.5 -67.5t11.5 -63.5q0 -55 -22 -114.5t-70.5 -109t-126 -81.5t-187.5 -32q-48 0 -88 7t-72 18t-55 24.5t-37 26.5q-9 8 -13 16.5t-4 22.5zM308 575q0 -49 28.5 -79.5 t71 -53.5t92 -43t91.5 -47q35 14 66.5 36.5t55 52t37.5 64.5t14 74q0 50 -28 80.5t-70.5 52t-92 41t-92.5 48.5q-35 -14 -66.5 -36.5t-55 -52t-37.5 -64t-14 -73.5z" />
<glyph unicode="&#xa8;" horiz-adv-x="804" d="M280 1170.5q-1 18.5 3 45.5q8 54 32 74t76 20q53 0 69.5 -20t8.5 -74q-8 -55 -33 -74.5t-76 -19.5q-27 0 -44 4.5t-26 15t-10 29zM637 1216q9 54 32.5 74t75.5 20q53 0 70 -20t8 -74q-5 -27 -13 -45.5t-20.5 -29t-31 -15t-45.5 -4.5q-51 0 -68.5 19.5t-7.5 74.5z" />
<glyph unicode="&#xa9;" horiz-adv-x="1709" d="M201 484q0 49 5.5 114.5t20 139t41.5 151t69 151.5t102.5 139t143.5 114.5t190 78t243 28.5q174 0 287 -42.5t178 -113t90.5 -161t25.5 -187.5q0 -49 -5.5 -114.5t-20.5 -139t-41.5 -151t-69 -151t-103 -139t-143 -114.5t-189.5 -77.5t-242 -28.5q-117 0 -206 19.5 t-153.5 54.5t-107.5 82.5t-68.5 103.5t-36 117.5t-10.5 125.5zM333 504q0 -51 7 -101.5t25.5 -95.5t51.5 -83.5t85.5 -66.5t126.5 -44t175 -16q111 0 198 25t154.5 67t116.5 98.5t83 119.5t55.5 129.5t33.5 129t16 117.5t4 95q0 52 -7 102t-26 95t-52 83.5t-85 66t-126 43.5 t-174 16q-113 0 -201 -25.5t-155.5 -68.5t-116.5 -100t-83 -120.5t-55 -130t-32 -128.5t-15 -115.5t-4 -91.5zM529 538q0 54 10 119t32 130.5t57.5 127t87 109t120 76.5t156.5 29q76 0 130.5 -19t92.5 -49q14 -11 19.5 -20.5t5.5 -22.5q0 -15 -3.5 -32.5t-9.5 -31.5 t-15 -23.5t-20 -9.5q-13 0 -27 13.5t-36.5 29.5t-56.5 29.5t-87 13.5q-60 0 -105.5 -23.5t-79 -62t-56 -87t-36 -98t-19.5 -96t-6 -80.5q0 -188 165 -188q60 0 102.5 14.5t72 32.5t49 32.5t33.5 14.5q18 0 18 -26q0 -9 -2 -24t-6 -30t-10 -28t-13 -20q-17 -15 -44.5 -31 t-62.5 -29t-77 -21.5t-88 -8.5q-291 0 -291 290z" />
<glyph unicode="&#xaa;" horiz-adv-x="882" d="M113 377q0 8 2 23.5t7 31t15 27t26 11.5h550q26 0 26 -32q0 -7 -2.5 -22.5t-8.5 -31t-16 -27.5t-25 -12h-550q-14 0 -19 7t-5 25zM183 847q0 41 8 91t25.5 101t45.5 99.5t67.5 86t92 60.5t119.5 23q66 0 113.5 -23.5t84.5 -69.5l12 59q4 24 79 24q38 0 50.5 -6t10.5 -18 l-125 -630q-5 -12 -21.5 -18t-55.5 -6q-38 0 -52 6t-10 18l21 116q-12 -23 -37 -49.5t-59 -49t-75.5 -37t-87.5 -14.5q-61 0 -100.5 20t-63 53t-33 76t-9.5 88zM342 855q0 -23 4 -44t14.5 -37.5t28.5 -26.5t47 -10q34 0 73 21t74 59t63 90.5t41 115.5l14 68q-32 45 -69 70 t-85 25q-37 0 -66 -16t-52 -43t-39.5 -61.5t-27 -71t-15.5 -73t-5 -66.5z" />
<glyph unicode="&#xab;" horiz-adv-x="1049" d="M128 524q2 20 19 41l286 347q7 8 14 13t17 8t24.5 4t36.5 1q51 0 63 -12t-4 -33l-294 -383l138 -363q4 -10 3 -18.5t-8 -14.5t-22 -9.5t-40 -3.5q-22 0 -35 1t-20.5 4t-11 8t-6.5 13l-151 353q-11 24 -9 44zM497 523.5q1 19.5 19 40.5l279 329q7 9 14 14t17 7.5t24.5 3 t37.5 0.5q51 0 65 -10.5t-2 -30.5l-294 -366l146 -350q3 -10 2.5 -17t-8 -12t-23 -7.5t-41.5 -2.5q-22 0 -35 0.5t-20.5 3t-11 7.5t-6.5 13l-154 336q-10 22 -9 41.5z" />
<glyph unicode="&#xac;" horiz-adv-x="1020" d="M78 537q0 10 3 28t9.5 35t17 30t25.5 13h754q39 0 52.5 -14t5.5 -53l-51 -255q-6 -17 -22.5 -25.5t-58.5 -8.5q-40 0 -55.5 8.5t-11.5 25.5l37 181h-679q-26 0 -26 35z" />
<glyph unicode="&#xad;" horiz-adv-x="627" d="M72 472q0 8 2.5 25t8.5 34t16.5 29.5t25.5 12.5h419q14 0 19.5 -9t5.5 -24q0 -9 -2.5 -26t-8.5 -34.5t-16 -30.5t-26 -13h-419q-25 0 -25 36z" />
<glyph unicode="&#xae;" horiz-adv-x="1038" d="M237 975q0 96 35 175.5t93 136.5t134 88.5t157 31.5q87 0 155 -27.5t114.5 -75t70.5 -112t24 -138.5q0 -93 -35 -171t-93.5 -134.5t-133.5 -88t-156 -31.5q-89 0 -157.5 28.5t-114.5 76.5t-69.5 110.5t-23.5 130.5zM326 988q0 -67 20 -119t57 -88t89 -54.5t116 -18.5 q67 0 126 26t102.5 71t68.5 107t25 134q0 61 -18 113t-53 90t-87 59t-121 21q-68 0 -127 -26.5t-103 -72t-69.5 -108t-25.5 -134.5zM434 832l72 361q5 21 18 34t37 13h105q79 0 115.5 -27.5t36.5 -80.5q0 -27 -9.5 -48t-25.5 -37t-37 -27t-44 -17q48 -14 60 -86l10 -61 q2 -14 2 -22t-5 -12.5t-17 -5.5t-34 -1q-33 0 -43 5t-11 21l-6 59q-4 38 -19 56t-48 18h-29l-28 -142q-2 -9 -13 -13t-41 -4q-32 0 -40 4t-6 13zM576 1050h41q54 0 72.5 20.5t18.5 50.5q0 16 -12 28.5t-54 12.5h-44z" />
<glyph unicode="&#xaf;" horiz-adv-x="807" d="M280 1196q0 7 2 23.5t8 32.5t16 28.5t26 12.5h479q12 0 16.5 -8.5t4.5 -22.5q0 -8 -2.5 -24t-8 -32.5t-14.5 -29t-22 -12.5h-479q-26 0 -26 32z" />
<glyph unicode="&#xb0;" horiz-adv-x="694" d="M234 1107q0 58 21 105t56.5 80t83 51t100.5 18q52 0 94 -16t71.5 -44.5t45.5 -67t16 -82.5q0 -56 -20.5 -103t-55.5 -80.5t-82 -52t-100 -18.5q-54 0 -96.5 16t-72.5 44.5t-45.5 67t-15.5 82.5zM358 1117q0 -51 29 -83.5t86 -32.5q24 0 46.5 10t40 29t28 45.5t10.5 58.5 q0 48 -30 80t-85 32q-25 0 -47.5 -10t-40 -28t-27.5 -44t-10 -57z" />
<glyph unicode="&#xb1;" horiz-adv-x="1020" d="M3 38q0 14 3 32t10 34t16.5 27t23.5 11h778q26 0 26 -37q0 -13 -3.5 -31t-10.5 -34.5t-17.5 -28t-24.5 -11.5h-774q-11 0 -19 9.5t-8 28.5zM123 690q0 10 3 27t9.5 33t17 27.5t25.5 11.5h324l72 362q3 14 22 23.5t59 9.5q41 0 54 -9.5t10 -23.5l-73 -362h327q24 0 24 -36 q0 -12 -3 -29.5t-9.5 -34t-17 -28.5t-24.5 -12h-324l-73 -360q-3 -14 -20 -22.5t-59 -8.5q-38 0 -53 8.5t-12 22.5l72 360h-325q-13 0 -19.5 11t-6.5 30z" />
<glyph unicode="&#xb2;" horiz-adv-x="688" d="M132 752q0 10 2.5 23.5t8.5 28t15.5 28.5t23.5 26l191 156q60 49 99.5 89.5t63.5 75t33.5 64.5t9.5 59q0 36 -22.5 60t-74.5 24q-38 0 -69.5 -9.5t-56 -21.5t-43 -21.5t-28.5 -9.5q-6 0 -11 6t-5 22q0 10 2 23t5.5 26t8.5 24t12 18q10 10 34.5 22t56 22.5t67 17t68.5 6.5 q63 0 106 -15.5t69.5 -41t38 -57.5t11.5 -64q0 -46 -15.5 -90t-49 -90.5t-87.5 -98.5t-131 -114l-127 -102h323q18 0 18 -29q0 -9 -2 -23.5t-6.5 -29t-12 -25t-18.5 -10.5h-471q-22 0 -29.5 7.5t-7.5 23.5z" />
<glyph unicode="&#xb3;" horiz-adv-x="685" d="M129 786q0 7 2.5 22t7 29.5t11.5 25.5t16 11t22.5 -8t35 -17.5t52 -17.5t74.5 -8q39 0 73 8.5t59.5 25.5t40 42.5t14.5 60.5q0 22 -8.5 41t-28.5 32.5t-52.5 21t-80.5 7.5h-73q-11 0 -16 8t-5 20q0 13 3 27.5t8.5 26.5t13 20t16.5 8h69q42 0 78.5 9t63.5 27t42.5 45.5 t15.5 64.5q0 15 -4.5 29t-15.5 25t-30.5 18t-49.5 7q-37 0 -70 -9.5t-59.5 -21t-45.5 -21t-28 -9.5q-14 0 -14 24q0 9 2.5 22t7 26t10 24t11.5 17q8 8 29.5 18.5t51.5 20.5t66.5 16.5t75.5 6.5q60 0 101.5 -13.5t67.5 -36.5t37.5 -53t11.5 -63q0 -47 -15.5 -84.5t-42.5 -66 t-62 -46.5t-74 -26v-2q39 -3 67.5 -17.5t47.5 -36t28.5 -47.5t9.5 -51q0 -57 -24 -105t-68.5 -82.5t-109 -53.5t-145.5 -19q-57 0 -108.5 10t-94.5 33q-9 6 -13.5 13t-4.5 22z" />
<glyph unicode="&#xb4;" horiz-adv-x="598" d="M287 1102q-8 11 6 32l154 231q7 10 15 17.5t20 11.5t29 6t42 2q55 0 67 -13.5t-4 -32.5l-191 -233q-8 -9 -14.5 -15t-15.5 -10t-22 -5.5t-33 -1.5q-45 0 -53 11z" />
<glyph unicode="&#xb5;" horiz-adv-x="1102" d="M-7 -332l251 1258q3 16 21.5 23t68.5 7q48 0 63 -7t12 -23l-113 -567q-11 -54 -12.5 -98t9.5 -74.5t36 -47t67 -16.5q54 0 110 30t104.5 83t86 127t55.5 163l80 400q3 16 22.5 23t67.5 7q47 0 63 -7t13 -23l-132 -654q-8 -42 -10 -70.5t3 -46t18 -25t35 -7.5q33 0 51 5.5 t33 5.5q12 0 12 -14q0 -5 -1.5 -19.5t-5.5 -32.5t-10 -35t-16 -26q-5 -6 -16.5 -10.5t-26.5 -7.5t-32.5 -5t-33.5 -2q-94 0 -136.5 52.5t-24.5 158.5q-16 -34 -51 -71t-80.5 -68t-98.5 -51t-106 -20q-58 0 -94.5 22.5t-48.5 49.5l-24 -167l-44 -220q-3 -16 -20.5 -24 t-67.5 -8q-49 0 -64.5 8t-12.5 24z" />
<glyph unicode="&#xb6;" horiz-adv-x="1200" d="M191 837q0 87 30.5 169.5t93 146.5t159 102.5t228.5 38.5h428q29 0 40 -17t6 -43l-289 -1439q-3 -14 -18.5 -21.5t-59.5 -7.5q-42 0 -55 8t-11 21l275 1370h-198l-274 -1370q-3 -14 -19.5 -21.5t-58.5 -7.5t-55 8t-11 21l148 738q-92 0 -159.5 22t-112 61.5t-66 95.5 t-21.5 125z" />
<glyph unicode="&#xb7;" horiz-adv-x="517" d="M168 534q0 16 3.5 36t9 39.5t13.5 36t17 24.5q13 13 34 21t60 8q29 0 47 -5t27.5 -13.5t13 -20.5t3.5 -27q0 -16 -3 -36t-9 -39.5t-14.5 -36.5t-18.5 -27q-17 -17 -41.5 -22t-50.5 -5q-53 0 -72 17t-19 50z" />
<glyph unicode="&#xb8;" horiz-adv-x="629" d="M-23 -318q0 10 2 23t6.5 25t12.5 20.5t20 8.5h124q16 0 30.5 3.5t26 11.5t18.5 21.5t7 33.5q0 10 -2 26t-6 32l-29 113h140l19 -74q8 -33 13 -56.5t5 -44.5q0 -98 -59.5 -144t-159.5 -46q-27 0 -52.5 2.5t-47 6t-37 8t-21.5 8.5q-10 6 -10 22z" />
<glyph unicode="&#xb9;" horiz-adv-x="504" d="M204 1298q0 12 1.5 25.5t5.5 26t10.5 22.5t17.5 16l209 111q10 5 23.5 7t44.5 2q21 0 33 -1.5t18 -3.5t8 -5.5t2 -7.5l-151 -751q-3 -14 -19.5 -19t-58.5 -5q-38 0 -53 5t-12 19l124 620l-162 -78q-26 -13 -33.5 -6t-7.5 23z" />
<glyph unicode="&#xba;" horiz-adv-x="865" d="M129 377q0 8 2 23.5t7.5 31t15.5 27t26 11.5h519q26 0 26 -32q0 -7 -2.5 -22.5t-8.5 -31t-16 -27.5t-25 -12h-519q-14 0 -19.5 7t-5.5 25zM187 858q0 45 8 96t27 101.5t50 96.5t76 81t105.5 56t139.5 21q83 0 136.5 -23t84 -59t42.5 -80t12 -86q0 -48 -9 -99.5 t-28.5 -102t-51 -96t-76.5 -79.5t-104.5 -54.5t-134.5 -20.5q-84 0 -138 23.5t-85 59.5t-42.5 80t-11.5 85zM350 873q0 -28 6 -53t21 -44t40.5 -30.5t65.5 -11.5q67 0 110 34.5t68 84t34.5 103t9.5 92.5q0 28 -6 53t-21 44t-40.5 30.5t-64.5 11.5q-45 0 -79 -16.5t-59 -43.5 t-41 -61t-26 -69t-14 -67.5t-4 -56.5z" />
<glyph unicode="&#xbb;" horiz-adv-x="1049" d="M116 131.5q-14 10.5 2 30.5l294 366l-146 350q-4 9 -3 16.5t8.5 13t23 8t41.5 2.5q22 0 34.5 -1t20 -4t11.5 -8t7 -12l153 -336q11 -23 10 -42t-19 -40l-280 -329q-6 -8 -13 -12.5t-17.5 -7.5t-25 -4t-36.5 -1q-51 0 -65 10.5zM481 113q-12 12 4 32l294 384l-139 363 q-4 10 -3 18.5t9 14.5t23 9.5t40 3.5q22 0 34.5 -1t20 -4t11 -8t6.5 -13l151 -353q11 -24 9.5 -44t-19.5 -42l-287 -346q-6 -8 -13 -13t-17 -8t-24.5 -4t-36.5 -1q-51 0 -63 12z" />
<glyph unicode="&#xbc;" horiz-adv-x="1303" d="M6.5 -21.5q-8.5 14.5 12.5 37.5l1158 1289q15 17 34.5 22.5t60.5 5.5q44 0 53 -14t-12 -38l-1158 -1289q-14 -15 -35 -21.5t-60 -6.5q-45 0 -53.5 14.5zM196 1097q0 12 2 25.5t7 27t12 24t18 16.5l207 109q6 3 20.5 4.5t46.5 1.5q20 0 32.5 -1t19 -3t8.5 -5t1 -7 l-126 -625q-2 -13 -19 -18t-57 -5q-38 0 -53 5t-13 18l99 497l-165 -79q-24 -11 -32 -6t-8 21zM615 154q0 10 2.5 26t7 32.5t12 32t16.5 26.5l309 362q8 9 31.5 14.5t71.5 5.5q53 0 76.5 -7t21.5 -18l-79 -394h73q10 0 14 -6.5t4 -16.5q0 -5 -2.5 -18.5t-7 -27.5t-12 -24.5 t-17.5 -10.5h-74l-22 -113q-2 -11 -21 -17t-58 -6t-49.5 6t-10.5 17l23 113h-286q-23 0 -23 24zM748 234h197l59 296h-2z" />
<glyph unicode="&#xbd;" horiz-adv-x="1375" d="M6.5 -21.5q-8.5 14.5 12.5 37.5l1158 1289q15 17 34.5 22.5t60.5 5.5q44 0 53 -14t-12 -38l-1158 -1289q-14 -15 -35 -21.5t-60 -6.5q-45 0 -53.5 14.5zM196 1097q0 12 2 25.5t7 27t12 24t18 16.5l207 109q6 3 20.5 4.5t46.5 1.5q20 0 32.5 -1t19 -3t8.5 -5t1 -7 l-126 -625q-2 -13 -19 -18t-57 -5q-38 0 -53 5t-13 18l99 497l-165 -79q-24 -11 -32 -6t-8 21zM720 31q0 9 2 21.5t7 26.5t14 28t23 25l160 125q51 40 84.5 71t53.5 57t28 49.5t8 47.5q0 11 -4 23t-14 21.5t-25.5 15.5t-38.5 6q-34 0 -61.5 -8t-49 -17t-36 -17t-21.5 -8 q-17 0 -17 28q0 10 2 23t6 25.5t11 23.5t18 16q45 23 91.5 35.5t97.5 12.5q57 0 95 -14.5t61 -37t32.5 -50.5t9.5 -55q0 -43 -13.5 -79t-43.5 -72.5t-77.5 -76.5t-115.5 -91l-101 -75h281q11 0 14.5 -8t3.5 -19q0 -9 -2.5 -23.5t-7 -28t-11.5 -23t-16 -9.5h-412q-20 0 -28 7 t-8 24z" />
<glyph unicode="&#xbe;" horiz-adv-x="1383" d="M85.5 -21.5q-8.5 14.5 12.5 37.5l1158 1289q15 17 34.5 22.5t60.5 5.5q44 0 53 -14t-12 -38l-1158 -1289q-14 -15 -35 -21.5t-60 -6.5q-45 0 -53.5 14.5zM120 702q0 7 2 20t5.5 26.5t9 23.5t13.5 10q7 0 19 -7t31.5 -15t48 -15t69.5 -7q69 0 112 28.5t43 85.5q0 16 -7 30 t-23.5 24t-44 15.5t-68.5 5.5h-68q-20 0 -20 26q0 7 2 19.5t6 24.5t11 21t18 9h64q81 0 125 32t44 81q0 11 -4 22.5t-14.5 21t-29 15.5t-46.5 6q-32 0 -58.5 -8t-48 -17t-37 -17t-23.5 -8t-12.5 5.5t-4.5 19.5q0 27 10 49t27 33q34 20 81.5 33.5t104.5 13.5q104 0 153.5 -41 t49.5 -110q0 -33 -12.5 -62t-34.5 -51.5t-53 -38.5t-68 -24q35 -3 60.5 -15t42 -29.5t24.5 -38.5t8 -43q0 -49 -21.5 -90t-61.5 -71t-96.5 -46.5t-126.5 -16.5q-104 0 -180 39q-12 6 -16.5 12t-4.5 19zM695 154q0 10 2.5 26t7 32.5t12 32t16.5 26.5l309 362q8 9 31.5 14.5 t71.5 5.5q53 0 76.5 -7t21.5 -18l-79 -394h73q10 0 14 -6.5t4 -16.5q0 -5 -2.5 -18.5t-7 -27.5t-12 -24.5t-17.5 -10.5h-74l-22 -113q-2 -11 -21 -17t-58 -6t-49.5 6t-10.5 17l23 113h-286q-23 0 -23 24zM828 234h197l59 296h-2z" />
<glyph unicode="&#xbf;" horiz-adv-x="949" d="M34 133q0 81 24.5 157t76 136.5t131.5 99.5t191 46l54 239q4 15 23 22.5t58 7.5q42 0 59 -6.5t12 -23.5l-48 -277q-8 -45 -30.5 -61.5t-58.5 -16.5h-6q-86 0 -145.5 -27.5t-96.5 -71t-53.5 -97t-16.5 -105.5q0 -45 12.5 -83.5t38.5 -66t65.5 -43.5t92.5 -16 q60 0 107.5 13.5t82.5 29.5t57.5 29.5t34.5 13.5q10 0 14 -8.5t4 -30.5t-7 -52.5t-24 -47.5q-13 -13 -44 -27.5t-72.5 -27.5t-88.5 -21.5t-91 -8.5q-97 0 -165 26.5t-110.5 71t-61.5 103.5t-19 124zM526 1026q0 14 3 33.5t8 39t12.5 37t17.5 27.5q15 16 37 22.5t56 6.5 q53 0 70.5 -15.5t17.5 -46.5q0 -13 -2.5 -32t-7.5 -39t-13 -38.5t-19 -29.5q-16 -16 -37 -21.5t-54 -5.5q-28 0 -45.5 4.5t-27.5 12.5t-13 19.5t-3 25.5z" />
<glyph unicode="&#xc0;" horiz-adv-x="1185" d="M-48 6.5q-13 12.5 11 55.5l674 1202q6 11 14.5 18t21.5 11t32.5 5.5t49.5 1.5q33 0 54 -1.5t33 -5.5t17 -11.5t7 -18.5l194 -1202q4 -23 2.5 -36t-11 -20t-30 -9t-54.5 -2q-23 0 -38 1.5t-24 5t-13 9.5t-5 15l-48 315h-539l-169 -312q-5 -10 -12 -16.5t-18 -10.5 t-29 -5.5t-46 -1.5q-61 0 -74 12.5zM372 477h448l-97 645h-1zM465 1657q-2 9 5 16t25 11.5t48 4.5q24 0 41.5 -1.5t31 -5.5t23.5 -11.5t21 -19.5l179 -213q19 -22 8.5 -32.5t-55.5 -10.5q-20 0 -34.5 1.5t-25.5 5t-20 9.5t-18 15l-217 212q-10 10 -12 19z" />
<glyph unicode="&#xc1;" horiz-adv-x="1185" d="M-48 6.5q-13 12.5 11 55.5l674 1202q6 11 14.5 18t21.5 11t32.5 5.5t49.5 1.5q33 0 54 -1.5t33 -5.5t17 -11.5t7 -18.5l194 -1202q4 -23 2.5 -36t-11 -20t-30 -9t-54.5 -2q-23 0 -38 1.5t-24 5t-13 9.5t-5 15l-48 315h-539l-169 -312q-5 -10 -12 -16.5t-18 -10.5 t-29 -5.5t-46 -1.5q-61 0 -74 12.5zM372 477h448l-97 645h-1zM709 1405.5q-9 10.5 11 32.5l197 213q11 12 22.5 19.5t25 11.5t31.5 5.5t42 1.5q30 0 47.5 -4.5t23.5 -11.5t3 -16.5t-13 -18.5l-235 -212q-11 -9 -20 -15t-20 -9.5t-25 -5t-35 -1.5q-46 0 -55 10.5z" />
<glyph unicode="&#xc2;" horiz-adv-x="1185" d="M-48 6.5q-13 12.5 11 55.5l674 1202q6 11 14.5 18t21.5 11t32.5 5.5t49.5 1.5q33 0 54 -1.5t33 -5.5t17 -11.5t7 -18.5l194 -1202q4 -23 2.5 -36t-11 -20t-30 -9t-54.5 -2q-23 0 -38 1.5t-24 5t-13 9.5t-5 15l-48 315h-539l-169 -312q-5 -10 -12 -16.5t-18 -10.5 t-29 -5.5t-46 -1.5q-61 0 -74 12.5zM372 477h448l-97 645h-1zM474 1404q-7 9 16 29l269 227q19 16 40 22.5t62 6.5q21 0 34.5 -1t23.5 -4t16.5 -9t13.5 -15l170 -227q15 -20 -0.5 -29t-57.5 -9q-30 0 -47 1.5t-27 4.5t-15 7t-9 9l-118 173l-193 -168q-10 -9 -19.5 -14 t-23 -8t-32 -4t-46.5 -1q-50 0 -57 9z" />
<glyph unicode="&#xc3;" horiz-adv-x="1185" d="M-48 6.5q-13 12.5 11 55.5l674 1202q6 11 14.5 18t21.5 11t32.5 5.5t49.5 1.5q33 0 54 -1.5t33 -5.5t17 -11.5t7 -18.5l194 -1202q4 -23 2.5 -36t-11 -20t-30 -9t-54.5 -2q-23 0 -38 1.5t-24 5t-13 9.5t-5 15l-48 315h-539l-169 -312q-5 -10 -12 -16.5t-18 -10.5 t-29 -5.5t-46 -1.5q-61 0 -74 12.5zM372 477h448l-97 645h-1zM465 1421q0 17 7.5 53t30.5 72t65.5 63t112.5 27q51 0 88.5 -18t68.5 -39t59 -39t60 -18q36 0 58.5 20.5t28.5 71.5q2 14 17.5 18t47.5 4q34 0 44 -6.5t10 -18.5q0 -4 -1.5 -21.5t-8 -41.5t-20 -50.5t-37 -49 t-59.5 -37.5t-87 -15q-52 0 -90 18t-68.5 39t-58.5 39t-61 18q-43 0 -62 -25t-25 -67q-2 -11 -16.5 -16.5t-47.5 -5.5t-44.5 5.5t-11.5 19.5z" />
<glyph unicode="&#xc4;" horiz-adv-x="1185" d="M-48 6.5q-13 12.5 11 55.5l674 1202q6 11 14.5 18t21.5 11t32.5 5.5t49.5 1.5q33 0 54 -1.5t33 -5.5t17 -11.5t7 -18.5l194 -1202q4 -23 2.5 -36t-11 -20t-30 -9t-54.5 -2q-23 0 -38 1.5t-24 5t-13 9.5t-5 15l-48 315h-539l-169 -312q-5 -10 -12 -16.5t-18 -10.5 t-29 -5.5t-46 -1.5q-61 0 -74 12.5zM372 477h448l-97 645h-1zM512.5 1481.5q-1.5 18.5 3.5 45.5q4 28 11.5 46.5t20.5 30t32 16t48 4.5q54 0 71.5 -20.5t9.5 -76.5q-4 -28 -12 -46.5t-21.5 -29.5t-33 -15.5t-47.5 -4.5t-45.5 4.5t-26.5 16t-10.5 30zM925 1480.5 q-2 18.5 3 46.5q9 55 32.5 76t79.5 21q54 0 73 -20.5t9 -76.5q-5 -27 -13 -45.5t-21 -30t-32 -16t-47 -4.5t-46 4.5t-27 15.5t-11 29.5z" />
<glyph unicode="&#xc5;" horiz-adv-x="1185" d="M-48 6.5q-13 12.5 11 55.5l674 1202q6 11 14.5 18t21.5 11t32.5 5.5t49.5 1.5q33 0 54 -1.5t33 -5.5t17 -11.5t7 -18.5l194 -1202q4 -23 2.5 -36t-11 -20t-30 -9t-54.5 -2q-23 0 -38 1.5t-24 5t-13 9.5t-5 15l-48 315h-539l-169 -312q-5 -10 -12 -16.5t-18 -10.5 t-29 -5.5t-46 -1.5q-61 0 -74 12.5zM372 477h448l-97 645h-1zM616 1519q0 44 15.5 83t44.5 68t71 46t96 17q49 0 83.5 -14t56.5 -36.5t32 -51.5t10 -60q0 -44 -16 -82.5t-45.5 -67t-72 -45t-94.5 -16.5q-49 0 -83.5 13.5t-56 35.5t-31.5 50.5t-10 59.5zM728 1532 q0 -16 4 -31t14 -26.5t25.5 -18.5t39.5 -7q48 0 75 31t27 79q0 15 -4.5 30.5t-14 27.5t-25.5 19.5t-40 7.5q-50 0 -75.5 -32t-25.5 -80z" />
<glyph unicode="&#xc6;" horiz-adv-x="1563" d="M-135 6.5q-13 12.5 19 55.5l887 1195q9 12 18.5 19t23.5 11t34 5.5t49 1.5h681q24 0 24 -34q0 -10 -2.5 -28t-8.5 -36t-16.5 -31.5t-25.5 -13.5h-499l-82 -407h428q23 0 23 -34q0 -11 -2.5 -29t-8.5 -36t-15.5 -31t-24.5 -13h-429l-91 -458h507q11 0 17.5 -9t6.5 -24 q0 -10 -3 -28.5t-9 -36.5t-15.5 -31.5t-23.5 -13.5h-615q-12 0 -23 3.5t-18.5 12t-10.5 21.5t1 33l50 246h-445l-212 -288q-8 -10 -16 -16.5t-20.5 -10.5t-32 -5.5t-49.5 -1.5q-58 0 -71 12.5zM359 454h380l138 697h-3z" />
<glyph unicode="&#xc7;" horiz-adv-x="1070" d="M116 456q0 95 19.5 195.5t58.5 195.5t97.5 179t136.5 147t174.5 100t212.5 37q73 0 136.5 -16.5t108.5 -41.5q46 -25 66 -44.5t20 -45.5q0 -11 -2 -23.5t-6 -28.5q-7 -31 -18 -49t-25 -18q-9 0 -20 8.5t-26.5 21.5t-36.5 28.5t-50.5 28.5t-68.5 21.5t-90 8.5 q-84 0 -153.5 -31.5t-125 -85t-97 -123.5t-69 -146.5t-41.5 -154.5t-14 -148q0 -161 77.5 -248t218.5 -87q76 0 133 17.5t98.5 39t68 39t42.5 17.5q22 0 22 -32q0 -11 -4.5 -35.5t-12.5 -48.5q-4 -11 -8.5 -20.5t-14.5 -19.5q-5 -5 -17 -13t-31 -19q-36 -21 -111 -46 q-74 -23 -160 -29l15 -60q8 -33 13.5 -56.5t5.5 -44.5q0 -49 -15.5 -85t-44 -59t-69.5 -34.5t-91 -11.5q-26 0 -51.5 2.5t-46.5 6t-37 8t-23 8.5q-10 6 -10 22q0 10 2 23t7 25t13 20.5t20 8.5h123q33 0 57.5 15t24.5 55q0 10 -2 26t-6 32l-26 105q-95 16 -161 59 t-107.5 104.5t-60 138.5t-18.5 162z" />
<glyph unicode="&#xc8;" horiz-adv-x="1000" d="M92 36.5q-3 13.5 1 33.5l231 1154q4 19 12 32.5t19 22t23 12t24 3.5h613q23 0 23 -33q0 -8 -2 -26t-7.5 -37t-16 -33t-26.5 -14h-505l-82 -406h435q24 0 24 -32q0 -9 -2.5 -27t-8.5 -35.5t-16 -31t-25 -13.5h-434l-94 -463h515q10 0 16.5 -8t6.5 -25q0 -10 -2 -28.5 t-8 -36.5t-16.5 -31.5t-26.5 -13.5h-622q-11 0 -21 3.5t-17.5 11.5t-10.5 21.5zM404 1657q-2 9 5 16t25 11.5t48 4.5q24 0 41.5 -1.5t31 -5.5t23.5 -11.5t21 -19.5l179 -213q19 -22 8.5 -32.5t-55.5 -10.5q-20 0 -34.5 1.5t-25.5 5t-20 9.5t-18 15l-217 212q-10 10 -12 19z " />
<glyph unicode="&#xc9;" horiz-adv-x="1000" d="M92 36.5q-3 13.5 1 33.5l231 1154q4 19 12 32.5t19 22t23 12t24 3.5h613q23 0 23 -33q0 -8 -2 -26t-7.5 -37t-16 -33t-26.5 -14h-505l-82 -406h435q24 0 24 -32q0 -9 -2.5 -27t-8.5 -35.5t-16 -31t-25 -13.5h-434l-94 -463h515q10 0 16.5 -8t6.5 -25q0 -10 -2 -28.5 t-8 -36.5t-16.5 -31.5t-26.5 -13.5h-622q-11 0 -21 3.5t-17.5 11.5t-10.5 21.5zM644 1405.5q-9 10.5 11 32.5l197 213q11 12 22.5 19.5t25 11.5t31.5 5.5t42 1.5q30 0 47.5 -4.5t23.5 -11.5t3 -16.5t-13 -18.5l-235 -212q-11 -9 -20 -15t-20 -9.5t-25 -5t-35 -1.5 q-46 0 -55 10.5z" />
<glyph unicode="&#xca;" horiz-adv-x="1000" d="M92 36.5q-3 13.5 1 33.5l231 1154q4 19 12 32.5t19 22t23 12t24 3.5h613q23 0 23 -33q0 -8 -2 -26t-7.5 -37t-16 -33t-26.5 -14h-505l-82 -406h435q24 0 24 -32q0 -9 -2.5 -27t-8.5 -35.5t-16 -31t-25 -13.5h-434l-94 -463h515q10 0 16.5 -8t6.5 -25q0 -10 -2 -28.5 t-8 -36.5t-16.5 -31.5t-26.5 -13.5h-622q-11 0 -21 3.5t-17.5 11.5t-10.5 21.5zM390 1404q-7 9 16 29l269 227q19 16 40 22.5t62 6.5q21 0 34.5 -1t23.5 -4t16.5 -9t13.5 -15l170 -227q15 -20 -0.5 -29t-57.5 -9q-30 0 -47 1.5t-27 4.5t-15 7t-9 9l-118 173l-193 -168 q-10 -9 -19.5 -14t-23 -8t-32 -4t-46.5 -1q-50 0 -57 9z" />
<glyph unicode="&#xcb;" horiz-adv-x="1000" d="M92 36.5q-3 13.5 1 33.5l231 1154q4 19 12 32.5t19 22t23 12t24 3.5h613q23 0 23 -33q0 -8 -2 -26t-7.5 -37t-16 -33t-26.5 -14h-505l-82 -406h435q24 0 24 -32q0 -9 -2.5 -27t-8.5 -35.5t-16 -31t-25 -13.5h-434l-94 -463h515q10 0 16.5 -8t6.5 -25q0 -10 -2 -28.5 t-8 -36.5t-16.5 -31.5t-26.5 -13.5h-622q-11 0 -21 3.5t-17.5 11.5t-10.5 21.5zM426.5 1481.5q-1.5 18.5 3.5 45.5q4 28 11.5 46.5t20.5 30t32 16t48 4.5q54 0 71.5 -20.5t9.5 -76.5q-4 -28 -12 -46.5t-21.5 -29.5t-33 -15.5t-47.5 -4.5t-45.5 4.5t-26.5 16t-10.5 30z M839 1480.5q-2 18.5 3 46.5q9 55 32.5 76t79.5 21q54 0 73 -20.5t9 -76.5q-5 -27 -13 -45.5t-21 -30t-32 -16t-47 -4.5t-46 4.5t-27 15.5t-11 29.5z" />
<glyph unicode="&#xcc;" horiz-adv-x="516" d="M84 25l248 1244q3 14 25 22.5t68 8.5q48 0 65 -8.5t14 -22.5l-248 -1244q-3 -14 -23.5 -22.5t-68.5 -8.5q-50 0 -66.5 8.5t-13.5 22.5zM135 1657q-2 9 5 16t25 11.5t48 4.5q24 0 41.5 -1.5t31 -5.5t23.5 -11.5t21 -19.5l179 -213q19 -22 8.5 -32.5t-55.5 -10.5 q-20 0 -34.5 1.5t-25.5 5t-20 9.5t-18 15l-217 212q-10 10 -12 19z" />
<glyph unicode="&#xcd;" horiz-adv-x="516" d="M84 25l248 1244q3 14 25 22.5t68 8.5q48 0 65 -8.5t14 -22.5l-248 -1244q-3 -14 -23.5 -22.5t-68.5 -8.5q-50 0 -66.5 8.5t-13.5 22.5zM367 1405.5q-9 10.5 11 32.5l197 213q11 12 22.5 19.5t25 11.5t31.5 5.5t42 1.5q30 0 47.5 -4.5t23.5 -11.5t3 -16.5t-13 -18.5 l-235 -212q-11 -9 -20 -15t-20 -9.5t-25 -5t-35 -1.5q-46 0 -55 10.5z" />
<glyph unicode="&#xce;" horiz-adv-x="516" d="M84 25l248 1244q3 14 25 22.5t68 8.5q48 0 65 -8.5t14 -22.5l-248 -1244q-3 -14 -23.5 -22.5t-68.5 -8.5q-50 0 -66.5 8.5t-13.5 22.5zM125 1404q-7 9 16 29l269 227q19 16 40 22.5t62 6.5q21 0 34.5 -1t23.5 -4t16.5 -9t13.5 -15l170 -227q15 -20 -0.5 -29t-57.5 -9 q-30 0 -47 1.5t-27 4.5t-15 7t-9 9l-118 173l-193 -168q-10 -9 -19.5 -14t-23 -8t-32 -4t-46.5 -1q-50 0 -57 9z" />
<glyph unicode="&#xcf;" horiz-adv-x="516" d="M84 25l248 1244q3 14 25 22.5t68 8.5q48 0 65 -8.5t14 -22.5l-248 -1244q-3 -14 -23.5 -22.5t-68.5 -8.5q-50 0 -66.5 8.5t-13.5 22.5zM165.5 1481.5q-1.5 18.5 3.5 45.5q4 28 11.5 46.5t20.5 30t32 16t48 4.5q54 0 71.5 -20.5t9.5 -76.5q-4 -28 -12 -46.5t-21.5 -29.5 t-33 -15.5t-47.5 -4.5t-45.5 4.5t-26.5 16t-10.5 30zM578 1480.5q-2 18.5 3 46.5q9 55 32.5 76t79.5 21q54 0 73 -20.5t9 -76.5q-5 -27 -13 -45.5t-21 -30t-32 -16t-47 -4.5t-46 4.5t-27 15.5t-11 29.5z" />
<glyph unicode="&#xd0;" horiz-adv-x="1279" d="M63 636q0 10 2.5 28t8.5 36t16 31t25 13h131l96 480q8 39 30.5 54.5t52.5 15.5h273q149 0 247.5 -32t163.5 -92q66 -60 98.5 -146.5t32.5 -195.5q0 -68 -9.5 -139.5t-30 -142t-52 -138.5t-75.5 -129q-29 -42 -65.5 -77.5t-79.5 -66.5q-86 -62 -199 -99q-113 -36 -277 -36 h-289q-27 0 -43.5 15.5t-8.5 54.5l106 531h-130q-24 0 -24 35zM298 144h177q120 0 204 29q84 30 146 80.5t107 117.5q33 50 57 104.5t39 111.5t22.5 114t7.5 112q0 75 -20.5 136.5t-65.5 106.5q-44 45 -112.5 70t-181.5 25h-179l-82 -407h234q17 0 21 -11t4 -24t-3 -31.5 t-9.5 -35.5t-16.5 -29t-23 -12h-235z" />
<glyph unicode="&#xd1;" horiz-adv-x="1320" d="M84 26l238 1194q8 40 33.5 57t51.5 17h79q25 0 42.5 -5t30.5 -18t23.5 -34t21.5 -52l245 -699q23 -66 45.5 -130.5t44.5 -130.5h2q14 82 30 170t33 170l141 701q3 15 21 23t66 8t63.5 -8t12.5 -23l-240 -1195q-4 -20 -13 -34t-20.5 -23t-24.5 -13t-25 -4h-65q-26 0 -44 6 t-31 20.5t-24 38t-23 58.5l-243 690q-26 74 -50 147t-47 148h-2q-13 -82 -28 -163t-31 -162l-150 -754q-3 -16 -23 -24t-67 -8t-61.5 8t-11.5 24zM516 1421q0 17 7.5 53t30.5 72t65.5 63t112.5 27q51 0 88.5 -18t68.5 -39t59 -39t60 -18q36 0 58.5 20.5t28.5 71.5 q2 14 17.5 18t47.5 4q34 0 44 -6.5t10 -18.5q0 -4 -1.5 -21.5t-8 -41.5t-20 -50.5t-37 -49t-59.5 -37.5t-87 -15q-52 0 -90 18t-68.5 39t-58.5 39t-61 18q-43 0 -62 -25t-25 -67q-2 -11 -16.5 -16.5t-47.5 -5.5t-44.5 5.5t-11.5 19.5z" />
<glyph unicode="&#xd2;" horiz-adv-x="1340" d="M114 426q0 86 15 185t49.5 197.5t90 189.5t136 161t188.5 112t248 42q227 0 342 -116t115 -337q0 -77 -14 -172t-47 -192.5t-87.5 -190.5t-135 -165t-189.5 -115.5t-252 -43.5q-229 0 -344 112.5t-115 332.5zM299 443q0 -71 16 -128.5t51.5 -98.5t93 -63.5t140.5 -22.5 q103 0 181 37.5t135 98.5t95 138.5t61 157t32.5 154.5t9.5 132q0 70 -16 128.5t-51.5 100.5t-92.5 65.5t-140 23.5q-104 0 -182.5 -38.5t-136 -100.5t-95 -140.5t-60 -159t-32 -155t-9.5 -129.5zM538 1657q-2 9 5 16t25 11.5t48 4.5q24 0 41.5 -1.5t31 -5.5t23.5 -11.5 t21 -19.5l179 -213q19 -22 8.5 -32.5t-55.5 -10.5q-20 0 -34.5 1.5t-25.5 5t-20 9.5t-18 15l-217 212q-10 10 -12 19z" />
<glyph unicode="&#xd3;" horiz-adv-x="1340" d="M114 426q0 86 15 185t49.5 197.5t90 189.5t136 161t188.5 112t248 42q227 0 342 -116t115 -337q0 -77 -14 -172t-47 -192.5t-87.5 -190.5t-135 -165t-189.5 -115.5t-252 -43.5q-229 0 -344 112.5t-115 332.5zM299 443q0 -71 16 -128.5t51.5 -98.5t93 -63.5t140.5 -22.5 q103 0 181 37.5t135 98.5t95 138.5t61 157t32.5 154.5t9.5 132q0 70 -16 128.5t-51.5 100.5t-92.5 65.5t-140 23.5q-104 0 -182.5 -38.5t-136 -100.5t-95 -140.5t-60 -159t-32 -155t-9.5 -129.5zM751 1405.5q-9 10.5 11 32.5l197 213q11 12 22.5 19.5t25 11.5t31.5 5.5 t42 1.5q30 0 47.5 -4.5t23.5 -11.5t3 -16.5t-13 -18.5l-235 -212q-11 -9 -20 -15t-20 -9.5t-25 -5t-35 -1.5q-46 0 -55 10.5z" />
<glyph unicode="&#xd4;" horiz-adv-x="1340" d="M114 426q0 86 15 185t49.5 197.5t90 189.5t136 161t188.5 112t248 42q227 0 342 -116t115 -337q0 -77 -14 -172t-47 -192.5t-87.5 -190.5t-135 -165t-189.5 -115.5t-252 -43.5q-229 0 -344 112.5t-115 332.5zM299 443q0 -71 16 -128.5t51.5 -98.5t93 -63.5t140.5 -22.5 q103 0 181 37.5t135 98.5t95 138.5t61 157t32.5 154.5t9.5 132q0 70 -16 128.5t-51.5 100.5t-92.5 65.5t-140 23.5q-104 0 -182.5 -38.5t-136 -100.5t-95 -140.5t-60 -159t-32 -155t-9.5 -129.5zM533 1404q-7 9 16 29l269 227q19 16 40 22.5t62 6.5q21 0 34.5 -1t23.5 -4 t16.5 -9t13.5 -15l170 -227q15 -20 -0.5 -29t-57.5 -9q-30 0 -47 1.5t-27 4.5t-15 7t-9 9l-118 173l-193 -168q-10 -9 -19.5 -14t-23 -8t-32 -4t-46.5 -1q-50 0 -57 9z" />
<glyph unicode="&#xd5;" horiz-adv-x="1340" d="M114 426q0 86 15 185t49.5 197.5t90 189.5t136 161t188.5 112t248 42q227 0 342 -116t115 -337q0 -77 -14 -172t-47 -192.5t-87.5 -190.5t-135 -165t-189.5 -115.5t-252 -43.5q-229 0 -344 112.5t-115 332.5zM299 443q0 -71 16 -128.5t51.5 -98.5t93 -63.5t140.5 -22.5 q103 0 181 37.5t135 98.5t95 138.5t61 157t32.5 154.5t9.5 132q0 70 -16 128.5t-51.5 100.5t-92.5 65.5t-140 23.5q-104 0 -182.5 -38.5t-136 -100.5t-95 -140.5t-60 -159t-32 -155t-9.5 -129.5zM530 1421q0 17 7.5 53t30.5 72t65.5 63t112.5 27q51 0 88.5 -18t68.5 -39 t59 -39t60 -18q36 0 58.5 20.5t28.5 71.5q2 14 17.5 18t47.5 4q34 0 44 -6.5t10 -18.5q0 -4 -1.5 -21.5t-8 -41.5t-20 -50.5t-37 -49t-59.5 -37.5t-87 -15q-52 0 -90 18t-68.5 39t-58.5 39t-61 18q-43 0 -62 -25t-25 -67q-2 -11 -16.5 -16.5t-47.5 -5.5t-44.5 5.5 t-11.5 19.5z" />
<glyph unicode="&#xd6;" horiz-adv-x="1340" d="M114 426q0 86 15 185t49.5 197.5t90 189.5t136 161t188.5 112t248 42q227 0 342 -116t115 -337q0 -77 -14 -172t-47 -192.5t-87.5 -190.5t-135 -165t-189.5 -115.5t-252 -43.5q-229 0 -344 112.5t-115 332.5zM299 443q0 -71 16 -128.5t51.5 -98.5t93 -63.5t140.5 -22.5 q103 0 181 37.5t135 98.5t95 138.5t61 157t32.5 154.5t9.5 132q0 70 -16 128.5t-51.5 100.5t-92.5 65.5t-140 23.5q-104 0 -182.5 -38.5t-136 -100.5t-95 -140.5t-60 -159t-32 -155t-9.5 -129.5zM585.5 1481.5q-1.5 18.5 3.5 45.5q4 28 11.5 46.5t20.5 30t32 16t48 4.5 q54 0 71.5 -20.5t9.5 -76.5q-4 -28 -12 -46.5t-21.5 -29.5t-33 -15.5t-47.5 -4.5t-45.5 4.5t-26.5 16t-10.5 30zM998 1480.5q-2 18.5 3 46.5q9 55 32.5 76t79.5 21q54 0 73 -20.5t9 -76.5q-5 -27 -13 -45.5t-21 -30t-32 -16t-47 -4.5t-46 4.5t-27 15.5t-11 29.5z" />
<glyph unicode="&#xd7;" horiz-adv-x="1020" d="M52.5 240.5q-0.5 21.5 14.5 34.5l366 304l-242 301q-11 14 -3.5 31.5t39.5 43.5q33 28 48.5 32.5t27.5 -9.5l243 -304l362 302q17 14 38.5 9t41.5 -29q42 -53 7 -82l-364 -304l241 -301q11 -14 3 -31.5t-39 -43.5q-32 -28 -49.5 -33t-28.5 9l-241 304l-362 -301 q-16 -14 -38 -10t-43 30t-21.5 47.5z" />
<glyph unicode="&#xd8;" horiz-adv-x="1347" d="M44 -215.5q-10 14.5 6 37.5l187 268q-60 57 -91.5 139.5t-31.5 196.5q0 81 14 178.5t47 196t87 191t135.5 164t192 114.5t255.5 43q61 0 114.5 -9.5t98.5 -29.5l154 223q11 15 34 20t66 5q52 0 61 -15t-7 -38l-186 -266q63 -57 93.5 -141t30.5 -193q0 -82 -14 -179 t-47 -196t-87.5 -191.5t-135.5 -164t-191.5 -114.5t-254.5 -43q-64 0 -118 9.5t-96 29.5l-155 -226q-10 -14 -33.5 -19t-63.5 -5q-54 0 -64 14.5zM294 440q0 -58 11.5 -109.5t40.5 -88.5l623 897q-32 15 -69.5 23t-82.5 8q-108 0 -188.5 -39.5t-138.5 -103.5t-96 -144.5 t-60 -161.5t-31 -155t-9 -126zM449 155q30 -14 68.5 -22.5t83.5 -8.5q107 0 188 39.5t139 103.5t96 144t60 161t31 155.5t9 126.5q0 58 -11.5 109t-40.5 89z" />
<glyph unicode="&#xd9;" horiz-adv-x="1314" d="M163 262q-16 93 9 216l158 790q3 16 23 24t69 8q50 0 66 -8t13 -24l-157 -788q-35 -177 28 -264.5t217 -87.5q151 0 252 90t135 260l158 790q3 16 22.5 24t68.5 8t66 -8t14 -24l-160 -797q-24 -122 -76.5 -214t-127 -153.5t-169 -92t-203.5 -30.5q-115 0 -201 31.5 t-137.5 94t-67.5 155.5zM514 1657q-2 9 5 16t25 11.5t48 4.5q24 0 41.5 -1.5t31 -5.5t23.5 -11.5t21 -19.5l179 -213q19 -22 8.5 -32.5t-55.5 -10.5q-20 0 -34.5 1.5t-25.5 5t-20 9.5t-18 15l-217 212q-10 10 -12 19z" />
<glyph unicode="&#xda;" horiz-adv-x="1314" d="M163 262q-16 93 9 216l158 790q3 16 23 24t69 8q50 0 66 -8t13 -24l-157 -788q-35 -177 28 -264.5t217 -87.5q151 0 252 90t135 260l158 790q3 16 22.5 24t68.5 8t66 -8t14 -24l-160 -797q-24 -122 -76.5 -214t-127 -153.5t-169 -92t-203.5 -30.5q-115 0 -201 31.5 t-137.5 94t-67.5 155.5zM754 1405.5q-9 10.5 11 32.5l197 213q11 12 22.5 19.5t25 11.5t31.5 5.5t42 1.5q30 0 47.5 -4.5t23.5 -11.5t3 -16.5t-13 -18.5l-235 -212q-11 -9 -20 -15t-20 -9.5t-25 -5t-35 -1.5q-46 0 -55 10.5z" />
<glyph unicode="&#xdb;" horiz-adv-x="1314" d="M163 262q-16 93 9 216l158 790q3 16 23 24t69 8q50 0 66 -8t13 -24l-157 -788q-35 -177 28 -264.5t217 -87.5q151 0 252 90t135 260l158 790q3 16 22.5 24t68.5 8t66 -8t14 -24l-160 -797q-24 -122 -76.5 -214t-127 -153.5t-169 -92t-203.5 -30.5q-115 0 -201 31.5 t-137.5 94t-67.5 155.5zM513 1404q-7 9 16 29l269 227q19 16 40 22.5t62 6.5q21 0 34.5 -1t23.5 -4t16.5 -9t13.5 -15l170 -227q15 -20 -0.5 -29t-57.5 -9q-30 0 -47 1.5t-27 4.5t-15 7t-9 9l-118 173l-193 -168q-10 -9 -19.5 -14t-23 -8t-32 -4t-46.5 -1q-50 0 -57 9z" />
<glyph unicode="&#xdc;" horiz-adv-x="1314" d="M163 262q-16 93 9 216l158 790q3 16 23 24t69 8q50 0 66 -8t13 -24l-157 -788q-35 -177 28 -264.5t217 -87.5q151 0 252 90t135 260l158 790q3 16 22.5 24t68.5 8t66 -8t14 -24l-160 -797q-24 -122 -76.5 -214t-127 -153.5t-169 -92t-203.5 -30.5q-115 0 -201 31.5 t-137.5 94t-67.5 155.5zM557.5 1481.5q-1.5 18.5 3.5 45.5q4 28 11.5 46.5t20.5 30t32 16t48 4.5q54 0 71.5 -20.5t9.5 -76.5q-4 -28 -12 -46.5t-21.5 -29.5t-33 -15.5t-47.5 -4.5t-45.5 4.5t-26.5 16t-10.5 30zM970 1480.5q-2 18.5 3 46.5q9 55 32.5 76t79.5 21 q54 0 73 -20.5t9 -76.5q-5 -27 -13 -45.5t-21 -30t-32 -16t-47 -4.5t-46 4.5t-27 15.5t-11 29.5z" />
<glyph unicode="&#xdd;" horiz-adv-x="998" d="M192.5 1268q-1.5 13 6 20t26.5 9.5t54 2.5q28 0 44.5 -2t26.5 -6.5t14.5 -12.5t8.5 -20l103 -355q18 -63 32 -119.5t27 -119.5h2q36 60 72.5 119t78.5 119l245 361q7 10 14 17t19 11t30.5 6t47.5 2q36 0 55 -3.5t24.5 -11.5t-0.5 -21t-19 -31l-512 -730l-95 -478 q-3 -14 -23.5 -22.5t-69.5 -8.5q-50 0 -66.5 8.5t-13.5 22.5l96 478l-220 730q-6 22 -7.5 35zM667 1405.5q-9 10.5 11 32.5l197 213q11 12 22.5 19.5t25 11.5t31.5 5.5t42 1.5q30 0 47.5 -4.5t23.5 -11.5t3 -16.5t-13 -18.5l-235 -212q-11 -9 -20 -15t-20 -9.5t-25 -5 t-35 -1.5q-46 0 -55 10.5z" />
<glyph unicode="&#xde;" horiz-adv-x="1058" d="M82 22l250 1249q3 15 23 23t68 8q51 0 68 -8t14 -23l-39 -195h159q54 0 91.5 -3.5t72.5 -11.5q63 -14 107.5 -43.5t72 -67.5t40 -82t12.5 -88q0 -94 -31 -183.5t-97 -162.5q-65 -73 -162.5 -116.5t-245.5 -43.5h-180l-50 -252q-6 -15 -25 -23t-68 -8q-50 0 -66.5 8 t-13.5 23zM334 415h164q52 0 93.5 9.5t74 25.5t57 38t43.5 48q38 51 55 108.5t17 103.5q0 30 -6.5 57.5t-21.5 50.5t-39 40.5t-59 27.5q-25 7 -56.5 9t-69.5 2h-149z" />
<glyph unicode="&#xdf;" horiz-adv-x="1080" d="M-213 -322q0 8 2.5 25t7.5 34t13 29.5t19 12.5q10 0 22.5 -2.5t42.5 -2.5q34 0 59 10t43.5 32.5t32 58.5t24.5 89l207 1046q17 85 52.5 157t90.5 123.5t130 80.5t171 29q84 0 144.5 -22t100 -58t58 -82t18.5 -94q0 -73 -24 -122.5t-60.5 -84t-78.5 -60t-78.5 -51 t-60.5 -57t-24 -77.5q0 -36 20 -61.5t50 -49t65.5 -47t65.5 -54t50 -72t20 -99.5q0 -77 -30 -138t-80 -103t-115.5 -64.5t-135.5 -22.5q-69 0 -120.5 15.5t-69.5 33.5q-5 6 -9 14t-4 20t2.5 29.5t8.5 34t14.5 28t20.5 11.5q10 0 22 -8t30.5 -18t45 -18t64.5 -8t71.5 11 t59 33t40.5 54t15 73q0 43 -20 72t-50 52.5t-64.5 45.5t-64.5 50t-50 66.5t-20 95.5q0 69 24 115t60 79t78 58t78 52.5t60 61.5t24 86q0 28 -9.5 54t-29.5 46t-51.5 32.5t-74.5 12.5q-58 0 -102.5 -21t-76.5 -57t-53.5 -85t-32.5 -104l-207 -1036q-15 -76 -38.5 -136.5 t-61 -103t-92 -65t-130.5 -22.5q-40 0 -67.5 6t-33.5 12q-8 8 -8 25z" />
<glyph unicode="&#xe0;" d="M81 306q0 56 10.5 127t34 144.5t61 144.5t90.5 126t123 88.5t159 33.5q90 0 152.5 -36t113.5 -99l19 91q3 16 22.5 23t59.5 7q42 0 55.5 -7t10.5 -23l-180 -901q-4 -17 -22 -24t-60 -7q-75 0 -65 31l33 170q-13 -33 -46.5 -70.5t-80.5 -69.5t-104 -53t-116 -21 q-81 0 -133 28t-82.5 73.5t-42.5 104t-12 119.5zM254 318q0 -35 5.5 -69.5t21 -63t42.5 -46t70 -17.5q55 0 110.5 30.5t103.5 84t85 127.5t55 161l34 165q-48 69 -101.5 103.5t-122.5 34.5q-54 0 -97.5 -25.5t-77 -67.5t-58 -95.5t-40 -110.5t-23 -112t-7.5 -99z M426.5 1388.5q13.5 13.5 71.5 13.5q24 0 40 -1.5t27 -5.5t18.5 -11t14.5 -19l135 -231q13 -22 4 -32.5t-54 -10.5q-20 0 -33 1t-22 4.5t-16 10t-14 16.5l-171 233q-14 19 -0.5 32.5z" />
<glyph unicode="&#xe1;" d="M81 306q0 56 10.5 127t34 144.5t61 144.5t90.5 126t123 88.5t159 33.5q90 0 152.5 -36t113.5 -99l19 91q3 16 22.5 23t59.5 7q42 0 55.5 -7t10.5 -23l-180 -901q-4 -17 -22 -24t-60 -7q-75 0 -65 31l33 170q-13 -33 -46.5 -70.5t-80.5 -69.5t-104 -53t-116 -21 q-81 0 -133 28t-82.5 73.5t-42.5 104t-12 119.5zM254 318q0 -35 5.5 -69.5t21 -63t42.5 -46t70 -17.5q55 0 110.5 30.5t103.5 84t85 127.5t55 161l34 165q-48 69 -101.5 103.5t-122.5 34.5q-54 0 -97.5 -25.5t-77 -67.5t-58 -95.5t-40 -110.5t-23 -112t-7.5 -99zM568 1102 q-8 11 6 32l154 231q7 10 15 17.5t20 11.5t29 6t42 2q55 0 67 -13.5t-4 -32.5l-191 -233q-8 -9 -14.5 -15t-15.5 -10t-22 -5.5t-33 -1.5q-45 0 -53 11z" />
<glyph unicode="&#xe2;" d="M81 306q0 56 10.5 127t34 144.5t61 144.5t90.5 126t123 88.5t159 33.5q90 0 152.5 -36t113.5 -99l19 91q3 16 22.5 23t59.5 7q42 0 55.5 -7t10.5 -23l-180 -901q-4 -17 -22 -24t-60 -7q-75 0 -65 31l33 170q-13 -33 -46.5 -70.5t-80.5 -69.5t-104 -53t-116 -21 q-81 0 -133 28t-82.5 73.5t-42.5 104t-12 119.5zM254 318q0 -35 5.5 -69.5t21 -63t42.5 -46t70 -17.5q55 0 110.5 30.5t103.5 84t85 127.5t55 161l34 165q-48 69 -101.5 103.5t-122.5 34.5q-54 0 -97.5 -25.5t-77 -67.5t-58 -95.5t-40 -110.5t-23 -112t-7.5 -99zM404.5 1104 q-5.5 13 21.5 43l210 229q14 14 34 20t64 6q41 0 57.5 -6t26.5 -20l118 -229q7 -15 10 -25.5t-2.5 -17t-19.5 -10t-41 -3.5q-20 0 -32.5 1.5t-20 5t-12 9t-8.5 14.5l-94 180l-166 -180q-8 -9 -15.5 -15t-16.5 -9t-22 -4.5t-32 -1.5q-54 0 -59.5 13z" />
<glyph unicode="&#xe3;" d="M81 306q0 56 10.5 127t34 144.5t61 144.5t90.5 126t123 88.5t159 33.5q90 0 152.5 -36t113.5 -99l19 91q3 16 22.5 23t59.5 7q42 0 55.5 -7t10.5 -23l-180 -901q-4 -17 -22 -24t-60 -7q-75 0 -65 31l33 170q-13 -33 -46.5 -70.5t-80.5 -69.5t-104 -53t-116 -21 q-81 0 -133 28t-82.5 73.5t-42.5 104t-12 119.5zM254 318q0 -35 5.5 -69.5t21 -63t42.5 -46t70 -17.5q55 0 110.5 30.5t103.5 84t85 127.5t55 161l34 165q-48 69 -101.5 103.5t-122.5 34.5q-54 0 -97.5 -25.5t-77 -67.5t-58 -95.5t-40 -110.5t-23 -112t-7.5 -99zM328 1125 q0 6 2 25t9 44.5t20 54t36.5 52t58 39t83.5 15.5q55 0 93 -20.5t67.5 -45.5t55.5 -45.5t59 -20.5q35 0 57.5 26.5t27.5 78.5q2 16 14 21.5t46 5.5q37 0 47 -6.5t10 -21.5q0 -5 -2 -24.5t-9 -45t-20.5 -54t-37 -52.5t-58.5 -39.5t-84 -15.5q-55 0 -92.5 20.5t-67 45.5 t-56 45.5t-59.5 20.5q-40 0 -59 -29t-25 -77q-1 -8 -4 -13t-10 -8t-19 -4t-32 -1q-33 0 -42 6.5t-9 22.5z" />
<glyph unicode="&#xe4;" d="M81 306q0 56 10.5 127t34 144.5t61 144.5t90.5 126t123 88.5t159 33.5q90 0 152.5 -36t113.5 -99l19 91q3 16 22.5 23t59.5 7q42 0 55.5 -7t10.5 -23l-180 -901q-4 -17 -22 -24t-60 -7q-75 0 -65 31l33 170q-13 -33 -46.5 -70.5t-80.5 -69.5t-104 -53t-116 -21 q-81 0 -133 28t-82.5 73.5t-42.5 104t-12 119.5zM254 318q0 -35 5.5 -69.5t21 -63t42.5 -46t70 -17.5q55 0 110.5 30.5t103.5 84t85 127.5t55 161l34 165q-48 69 -101.5 103.5t-122.5 34.5q-54 0 -97.5 -25.5t-77 -67.5t-58 -95.5t-40 -110.5t-23 -112t-7.5 -99zM394 1170.5 q-1 18.5 3 45.5q8 54 32 74t76 20q53 0 69.5 -20t8.5 -74q-8 -55 -33 -74.5t-76 -19.5q-27 0 -44 4.5t-26 15t-10 29zM751 1216q9 54 32.5 74t75.5 20q53 0 70 -20t8 -74q-5 -27 -13 -45.5t-20.5 -29t-31 -15t-45.5 -4.5q-51 0 -68.5 19.5t-7.5 74.5z" />
<glyph unicode="&#xe5;" d="M81 306q0 56 10.5 127t34 144.5t61 144.5t90.5 126t123 88.5t159 33.5q90 0 152.5 -36t113.5 -99l19 91q3 16 22.5 23t59.5 7q42 0 55.5 -7t10.5 -23l-180 -901q-4 -17 -22 -24t-60 -7q-75 0 -65 31l33 170q-13 -33 -46.5 -70.5t-80.5 -69.5t-104 -53t-116 -21 q-81 0 -133 28t-82.5 73.5t-42.5 104t-12 119.5zM254 318q0 -35 5.5 -69.5t21 -63t42.5 -46t70 -17.5q55 0 110.5 30.5t103.5 84t85 127.5t55 161l34 165q-48 69 -101.5 103.5t-122.5 34.5q-54 0 -97.5 -25.5t-77 -67.5t-58 -95.5t-40 -110.5t-23 -112t-7.5 -99zM472 1227 q0 45 15 83t43.5 65.5t69.5 42.5t93 15q49 0 82.5 -13t54.5 -34t30 -49t9 -58q0 -45 -15 -83t-43.5 -65.5t-69.5 -42.5t-93 -15q-49 0 -82.5 12.5t-54.5 33.5t-30 49t-9 59zM581 1239q0 -15 4 -29.5t13.5 -26t25 -18.5t38.5 -7q48 0 73.5 29t25.5 80q0 31 -18 56.5t-64 25.5 q-48 0 -73 -29.5t-25 -80.5z" />
<glyph unicode="&#xe6;" horiz-adv-x="1545" d="M47 207q0 84 35 149.5t98.5 110.5t152.5 68.5t197 23.5h155l15 67q12 52 9.5 91.5t-21.5 66t-56.5 39.5t-95.5 13q-60 0 -112.5 -14.5t-93 -32t-68 -32t-37.5 -14.5q-24 0 -24 40q0 22 8.5 49t22.5 43q14 15 48.5 31.5t80 31t98 23.5t103.5 9q62 0 109.5 -12t81 -33 t54.5 -50.5t30 -63.5q64 74 155 116.5t191 42.5q85 0 144 -21t96 -54t53.5 -74.5t16.5 -81.5q0 -68 -30.5 -123t-97.5 -94.5t-173.5 -61t-258.5 -21.5h-107q-6 -33 -8.5 -62.5t-2.5 -56.5q0 -100 50.5 -153t164.5 -53q61 0 110.5 9.5t87 20.5t62 20.5t33.5 9.5q17 0 17 -24 q0 -13 -2.5 -28t-7 -29.5t-10 -26.5t-12.5 -19q-10 -11 -39.5 -22.5t-71.5 -21.5t-92.5 -16t-102.5 -6q-121 0 -200.5 44t-115.5 124q-87 -82 -178 -125t-190 -43q-76 0 -127.5 19.5t-83.5 51.5t-46 72.5t-14 82.5zM219 227q0 -57 37 -87t97 -30q72 0 142.5 36t154.5 120 q-4 16 -4 44q0 31 3 65t10 64h-138q-81 0 -138 -16.5t-93.5 -45t-53.5 -67.5t-17 -83zM851 560h107q108 0 178.5 13.5t112 36.5t58.5 53t17 63q0 49 -37 81.5t-118 32.5q-64 0 -116.5 -22.5t-92.5 -61t-67.5 -89.5t-41.5 -107z" />
<glyph unicode="&#xe7;" horiz-adv-x="852" d="M76 307q0 61 11 133.5t35.5 146t63.5 142.5t95.5 122.5t132 85.5t172.5 32q60 0 113 -14t92 -38q21 -13 33.5 -23t19 -18t8.5 -15.5t2 -14.5q0 -17 -3.5 -36.5t-10.5 -36t-16.5 -27.5t-21.5 -11q-14 0 -29 15t-39.5 32.5t-62 32.5t-95.5 15q-64 0 -113.5 -26.5t-85.5 -69 t-60.5 -96.5t-39.5 -109t-21.5 -106.5t-6.5 -89.5q0 -103 44.5 -156t134.5 -53q65 0 111.5 16.5t79 36t54 36t36.5 16.5q17 0 17 -29q0 -18 -5 -45t-15 -50q-7 -15 -18.5 -27.5t-45.5 -33.5q-17 -10 -39.5 -20t-49 -18.5t-55.5 -14t-57 -7.5l15 -58q8 -33 13 -56.5t5 -44.5 q0 -98 -59.5 -144t-160.5 -46q-26 0 -51.5 2.5t-47 6t-37 8t-21.5 8.5q-10 5 -10 22q0 10 2 23t6.5 25t12.5 20.5t20 8.5h123q16 0 31 3.5t26.5 11.5t18.5 21.5t7 33.5q0 10 -2 26t-6 32l-26 104q-104 18 -164 96t-60 220z" />
<glyph unicode="&#xe8;" horiz-adv-x="978" d="M77 312q0 65 12.5 139t39.5 147.5t70 140.5t102.5 118.5t137.5 82t176 30.5q84 0 142.5 -21t96 -54t54.5 -73.5t17 -80.5q0 -69 -32 -124t-100 -94t-174 -60t-254 -21h-106q-7 -33 -9.5 -64t-2.5 -58q0 -100 49.5 -153t160.5 -53q64 0 115 9.5t88.5 20.5t61.5 20.5 t33 9.5q18 0 18 -25q0 -11 -2 -24.5t-6 -28t-10 -27.5t-15 -22q-11 -12 -41.5 -24t-73 -21t-92.5 -15t-100 -6q-180 0 -268 81t-88 250zM288 562h102q105 0 175.5 13t113 35.5t60 52.5t17.5 63q0 51 -39.5 82.5t-114.5 31.5q-64 0 -114.5 -22.5t-89.5 -60.5t-66 -88.5 t-44 -106.5zM416.5 1388.5q13.5 13.5 71.5 13.5q24 0 40 -1.5t27 -5.5t18.5 -11t14.5 -19l135 -231q13 -22 4 -32.5t-54 -10.5q-20 0 -33 1t-22 4.5t-16 10t-14 16.5l-171 233q-14 19 -0.5 32.5z" />
<glyph unicode="&#xe9;" horiz-adv-x="978" d="M77 312q0 65 12.5 139t39.5 147.5t70 140.5t102.5 118.5t137.5 82t176 30.5q84 0 142.5 -21t96 -54t54.5 -73.5t17 -80.5q0 -69 -32 -124t-100 -94t-174 -60t-254 -21h-106q-7 -33 -9.5 -64t-2.5 -58q0 -100 49.5 -153t160.5 -53q64 0 115 9.5t88.5 20.5t61.5 20.5 t33 9.5q18 0 18 -25q0 -11 -2 -24.5t-6 -28t-10 -27.5t-15 -22q-11 -12 -41.5 -24t-73 -21t-92.5 -15t-100 -6q-180 0 -268 81t-88 250zM288 562h102q105 0 175.5 13t113 35.5t60 52.5t17.5 63q0 51 -39.5 82.5t-114.5 31.5q-64 0 -114.5 -22.5t-89.5 -60.5t-66 -88.5 t-44 -106.5zM557 1102q-8 11 6 32l154 231q7 10 15 17.5t20 11.5t29 6t42 2q55 0 67 -13.5t-4 -32.5l-191 -233q-8 -9 -14.5 -15t-15.5 -10t-22 -5.5t-33 -1.5q-45 0 -53 11z" />
<glyph unicode="&#xea;" horiz-adv-x="978" d="M77 312q0 65 12.5 139t39.5 147.5t70 140.5t102.5 118.5t137.5 82t176 30.5q84 0 142.5 -21t96 -54t54.5 -73.5t17 -80.5q0 -69 -32 -124t-100 -94t-174 -60t-254 -21h-106q-7 -33 -9.5 -64t-2.5 -58q0 -100 49.5 -153t160.5 -53q64 0 115 9.5t88.5 20.5t61.5 20.5 t33 9.5q18 0 18 -25q0 -11 -2 -24.5t-6 -28t-10 -27.5t-15 -22q-11 -12 -41.5 -24t-73 -21t-92.5 -15t-100 -6q-180 0 -268 81t-88 250zM288 562h102q105 0 175.5 13t113 35.5t60 52.5t17.5 63q0 51 -39.5 82.5t-114.5 31.5q-64 0 -114.5 -22.5t-89.5 -60.5t-66 -88.5 t-44 -106.5zM362.5 1104q-5.5 13 21.5 43l210 229q14 14 34 20t64 6q41 0 57.5 -6t26.5 -20l118 -229q7 -15 10 -25.5t-2.5 -17t-19.5 -10t-41 -3.5q-20 0 -32.5 1.5t-20 5t-12 9t-8.5 14.5l-94 180l-166 -180q-8 -9 -15.5 -15t-16.5 -9t-22 -4.5t-32 -1.5q-54 0 -59.5 13z " />
<glyph unicode="&#xeb;" horiz-adv-x="978" d="M77 312q0 65 12.5 139t39.5 147.5t70 140.5t102.5 118.5t137.5 82t176 30.5q84 0 142.5 -21t96 -54t54.5 -73.5t17 -80.5q0 -69 -32 -124t-100 -94t-174 -60t-254 -21h-106q-7 -33 -9.5 -64t-2.5 -58q0 -100 49.5 -153t160.5 -53q64 0 115 9.5t88.5 20.5t61.5 20.5 t33 9.5q18 0 18 -25q0 -11 -2 -24.5t-6 -28t-10 -27.5t-15 -22q-11 -12 -41.5 -24t-73 -21t-92.5 -15t-100 -6q-180 0 -268 81t-88 250zM288 562h102q105 0 175.5 13t113 35.5t60 52.5t17.5 63q0 51 -39.5 82.5t-114.5 31.5q-64 0 -114.5 -22.5t-89.5 -60.5t-66 -88.5 t-44 -106.5zM371 1170.5q-1 18.5 3 45.5q8 54 32 74t76 20q53 0 69.5 -20t8.5 -74q-8 -55 -33 -74.5t-76 -19.5q-27 0 -44 4.5t-26 15t-10 29zM728 1216q9 54 32.5 74t75.5 20q53 0 70 -20t8 -74q-5 -27 -13 -45.5t-20.5 -29t-31 -15t-45.5 -4.5q-51 0 -68.5 19.5t-7.5 74.5 z" />
<glyph unicode="&#xec;" horiz-adv-x="470" d="M65 25l179 900q3 16 22 23.5t67 7.5q49 0 64 -7.5t12 -23.5l-179 -900q-3 -15 -21.5 -23t-67.5 -8q-25 0 -40.5 2t-24 6t-11 9.5t-0.5 13.5zM108.5 1388.5q13.5 13.5 71.5 13.5q24 0 40 -1.5t27 -5.5t18.5 -11t14.5 -19l135 -231q13 -22 4 -32.5t-54 -10.5q-20 0 -33 1 t-22 4.5t-16 10t-14 16.5l-171 233q-14 19 -0.5 32.5z" />
<glyph unicode="&#xed;" horiz-adv-x="470" d="M65 25l179 900q3 16 22 23.5t67 7.5q49 0 64 -7.5t12 -23.5l-179 -900q-3 -15 -21.5 -23t-67.5 -8q-25 0 -40.5 2t-24 6t-11 9.5t-0.5 13.5zM280 1102q-8 11 6 32l154 231q7 10 15 17.5t20 11.5t29 6t42 2q55 0 67 -13.5t-4 -32.5l-191 -233q-8 -9 -14.5 -15t-15.5 -10 t-22 -5.5t-33 -1.5q-45 0 -53 11z" />
<glyph unicode="&#xee;" horiz-adv-x="470" d="M65 25l179 900q3 16 22 23.5t67 7.5q49 0 64 -7.5t12 -23.5l-179 -900q-3 -15 -21.5 -23t-67.5 -8q-25 0 -40.5 2t-24 6t-11 9.5t-0.5 13.5zM89.5 1104q-5.5 13 21.5 43l210 229q14 14 34 20t64 6q41 0 57.5 -6t26.5 -20l118 -229q7 -15 10 -25.5t-2.5 -17t-19.5 -10 t-41 -3.5q-20 0 -32.5 1.5t-20 5t-12 9t-8.5 14.5l-94 180l-166 -180q-8 -9 -15.5 -15t-16.5 -9t-22 -4.5t-32 -1.5q-54 0 -59.5 13z" />
<glyph unicode="&#xef;" horiz-adv-x="470" d="M65 25l179 900q3 16 22 23.5t67 7.5q49 0 64 -7.5t12 -23.5l-179 -900q-3 -15 -21.5 -23t-67.5 -8q-25 0 -40.5 2t-24 6t-11 9.5t-0.5 13.5zM137 1216q10 54 35 74t75 20q51 0 66 -20t5 -74q-5 -27 -13.5 -45.5t-21 -29t-31 -15t-43.5 -4.5q-52 0 -67.5 19.5t-4.5 74.5z M447 1216q10 54 35 74t76 20t66.5 -20t4.5 -74q-11 -55 -34.5 -74.5t-74.5 -19.5q-52 0 -68 19.5t-5 74.5z" />
<glyph unicode="&#xf0;" horiz-adv-x="1076" d="M80 314q0 63 11.5 136t36.5 146t63.5 140.5t93.5 119.5t126.5 83t161.5 31q36 0 71.5 -8t68.5 -26.5t61.5 -49t49.5 -74.5q-10 31 -19 68t-21.5 78t-31 86.5t-48.5 94.5l-285 -69q-19 -5 -25 2.5t-6 23.5q0 13 3 29t9 30t15.5 24.5t22.5 13.5l203 49l-72 106 q-7 10 -8.5 18t5.5 13.5t25 8.5t51 3q28 0 48.5 -2t34 -6t22 -10t13.5 -14l48 -77l272 66q19 5 26.5 -3t7.5 -23q0 -10 -2 -24.5t-7.5 -29.5t-15.5 -26.5t-25 -15.5l-191 -47q51 -97 77 -196.5t26 -212.5q0 -94 -13 -189t-41.5 -182.5t-73.5 -164t-108 -132.5t-146 -88.5 t-188 -32.5q-90 0 -152 24.5t-100.5 68.5t-56 105t-17.5 135zM254 336q0 -214 172 -214q64 0 114.5 22.5t89.5 59t66.5 83.5t45 96.5t25.5 97.5t8 86q0 58 -14 106.5t-40 82.5t-64 53t-87 19q-56 0 -101 -23.5t-80.5 -63t-60.5 -90.5t-41.5 -105.5t-24.5 -109t-8 -100.5z " />
<glyph unicode="&#xf1;" d="M65 25l181 901q3 15 20 22.5t58 7.5q43 0 56 -7t10 -23l-34 -172q15 34 49 72t81 70t103.5 53t117.5 21q67 0 112 -20.5t73 -54t40 -77.5t12 -92q0 -35 -3.5 -69t-11.5 -70l-113 -562q-3 -15 -21 -23t-68 -8q-49 0 -64 8t-12 23l111 556q6 31 9 60t3 51q0 61 -26 98.5 t-87 37.5q-53 0 -108 -30.5t-103.5 -84t-85.5 -127t-54 -159.5l-80 -402q-3 -15 -21.5 -23t-67.5 -8q-25 0 -40.5 2t-24 6t-11 9.5t-0.5 13.5zM313 1125q0 6 2 25t9 44.5t20 54t36.5 52t58 39t83.5 15.5q55 0 93 -20.5t67.5 -45.5t55.5 -45.5t59 -20.5q35 0 57.5 26.5 t27.5 78.5q2 16 14 21.5t46 5.5q37 0 47 -6.5t10 -21.5q0 -5 -2 -24.5t-9 -45t-20.5 -54t-37 -52.5t-58.5 -39.5t-84 -15.5q-55 0 -92.5 20.5t-67 45.5t-56 45.5t-59.5 20.5q-40 0 -59 -29t-25 -77q-1 -8 -4 -13t-10 -8t-19 -4t-32 -1q-33 0 -42 6.5t-9 22.5z" />
<glyph unicode="&#xf2;" horiz-adv-x="1051" d="M78 324q0 74 14 150.5t42.5 148.5t72 135t103 110t135 74.5t168.5 27.5q96 0 164.5 -23.5t113 -68t65.5 -108t21 -143.5q0 -74 -14 -150.5t-42.5 -148.5t-72.5 -135t-103.5 -110t-135 -74.5t-168.5 -27.5q-96 0 -164.5 23t-112.5 67t-65 108t-21 145zM251 334 q0 -50 11 -90t35.5 -68t63.5 -43t95 -15q60 0 109 21.5t87.5 58.5t67 86.5t47 104.5t27.5 113.5t9 114.5q0 50 -11 90t-35 67.5t-63 42.5t-96 15q-60 0 -109 -21.5t-87.5 -58t-67 -85.5t-47 -104.5t-27.5 -114t-9 -114.5zM406.5 1388.5q13.5 13.5 71.5 13.5q24 0 40 -1.5 t27 -5.5t18.5 -11t14.5 -19l135 -231q13 -22 4 -32.5t-54 -10.5q-20 0 -33 1t-22 4.5t-16 10t-14 16.5l-171 233q-14 19 -0.5 32.5z" />
<glyph unicode="&#xf3;" horiz-adv-x="1051" d="M78 324q0 74 14 150.5t42.5 148.5t72 135t103 110t135 74.5t168.5 27.5q96 0 164.5 -23.5t113 -68t65.5 -108t21 -143.5q0 -74 -14 -150.5t-42.5 -148.5t-72.5 -135t-103.5 -110t-135 -74.5t-168.5 -27.5q-96 0 -164.5 23t-112.5 67t-65 108t-21 145zM251 334 q0 -50 11 -90t35.5 -68t63.5 -43t95 -15q60 0 109 21.5t87.5 58.5t67 86.5t47 104.5t27.5 113.5t9 114.5q0 50 -11 90t-35 67.5t-63 42.5t-96 15q-60 0 -109 -21.5t-87.5 -58t-67 -85.5t-47 -104.5t-27.5 -114t-9 -114.5zM585 1102q-8 11 6 32l154 231q7 10 15 17.5t20 11.5 t29 6t42 2q55 0 67 -13.5t-4 -32.5l-191 -233q-8 -9 -14.5 -15t-15.5 -10t-22 -5.5t-33 -1.5q-45 0 -53 11z" />
<glyph unicode="&#xf4;" horiz-adv-x="1051" d="M78 324q0 74 14 150.5t42.5 148.5t72 135t103 110t135 74.5t168.5 27.5q96 0 164.5 -23.5t113 -68t65.5 -108t21 -143.5q0 -74 -14 -150.5t-42.5 -148.5t-72.5 -135t-103.5 -110t-135 -74.5t-168.5 -27.5q-96 0 -164.5 23t-112.5 67t-65 108t-21 145zM251 334 q0 -50 11 -90t35.5 -68t63.5 -43t95 -15q60 0 109 21.5t87.5 58.5t67 86.5t47 104.5t27.5 113.5t9 114.5q0 50 -11 90t-35 67.5t-63 42.5t-96 15q-60 0 -109 -21.5t-87.5 -58t-67 -85.5t-47 -104.5t-27.5 -114t-9 -114.5zM378.5 1104q-5.5 13 21.5 43l210 229q14 14 34 20 t64 6q41 0 57.5 -6t26.5 -20l118 -229q7 -15 10 -25.5t-2.5 -17t-19.5 -10t-41 -3.5q-20 0 -32.5 1.5t-20 5t-12 9t-8.5 14.5l-94 180l-166 -180q-8 -9 -15.5 -15t-16.5 -9t-22 -4.5t-32 -1.5q-54 0 -59.5 13z" />
<glyph unicode="&#xf5;" horiz-adv-x="1051" d="M78 324q0 74 14 150.5t42.5 148.5t72 135t103 110t135 74.5t168.5 27.5q96 0 164.5 -23.5t113 -68t65.5 -108t21 -143.5q0 -74 -14 -150.5t-42.5 -148.5t-72.5 -135t-103.5 -110t-135 -74.5t-168.5 -27.5q-96 0 -164.5 23t-112.5 67t-65 108t-21 145zM251 334 q0 -50 11 -90t35.5 -68t63.5 -43t95 -15q60 0 109 21.5t87.5 58.5t67 86.5t47 104.5t27.5 113.5t9 114.5q0 50 -11 90t-35 67.5t-63 42.5t-96 15q-60 0 -109 -21.5t-87.5 -58t-67 -85.5t-47 -104.5t-27.5 -114t-9 -114.5zM318 1125q0 6 2 25t9 44.5t20 54t36.5 52t58 39 t83.5 15.5q55 0 93 -20.5t67.5 -45.5t55.5 -45.5t59 -20.5q35 0 57.5 26.5t27.5 78.5q2 16 14 21.5t46 5.5q37 0 47 -6.5t10 -21.5q0 -5 -2 -24.5t-9 -45t-20.5 -54t-37 -52.5t-58.5 -39.5t-84 -15.5q-55 0 -92.5 20.5t-67 45.5t-56 45.5t-59.5 20.5q-40 0 -59 -29t-25 -77 q-1 -8 -4 -13t-10 -8t-19 -4t-32 -1q-33 0 -42 6.5t-9 22.5z" />
<glyph unicode="&#xf6;" horiz-adv-x="1051" d="M78 324q0 74 14 150.5t42.5 148.5t72 135t103 110t135 74.5t168.5 27.5q96 0 164.5 -23.5t113 -68t65.5 -108t21 -143.5q0 -74 -14 -150.5t-42.5 -148.5t-72.5 -135t-103.5 -110t-135 -74.5t-168.5 -27.5q-96 0 -164.5 23t-112.5 67t-65 108t-21 145zM251 334 q0 -50 11 -90t35.5 -68t63.5 -43t95 -15q60 0 109 21.5t87.5 58.5t67 86.5t47 104.5t27.5 113.5t9 114.5q0 50 -11 90t-35 67.5t-63 42.5t-96 15q-60 0 -109 -21.5t-87.5 -58t-67 -85.5t-47 -104.5t-27.5 -114t-9 -114.5zM397 1170.5q-1 18.5 3 45.5q8 54 32 74t76 20 q53 0 69.5 -20t8.5 -74q-8 -55 -33 -74.5t-76 -19.5q-27 0 -44 4.5t-26 15t-10 29zM754 1216q9 54 32.5 74t75.5 20q53 0 70 -20t8 -74q-5 -27 -13 -45.5t-20.5 -29t-31 -15t-45.5 -4.5q-51 0 -68.5 19.5t-7.5 74.5z" />
<glyph unicode="&#xf7;" horiz-adv-x="1020" d="M60 539q0 10 3 28.5t9.5 35.5t16.5 30t23 13h849q24 0 24 -37q0 -10 -3 -27.5t-9 -34t-15.5 -29t-23.5 -12.5h-849q-25 0 -25 33zM334 204q7 35 17 58.5t26 38t39.5 20.5t57.5 6t55 -6t32 -20.5t12 -38t-6 -58.5q-12 -65 -43 -92t-98 -27q-68 0 -86.5 27t-5.5 92z M476 887.5q-1 23.5 6 56.5q7 34 17.5 57.5t26.5 38t39.5 21t57.5 6.5q33 0 54 -6.5t31.5 -21t11 -38t-5.5 -57.5q-6 -33 -16.5 -56t-27 -37.5t-40 -21t-56.5 -6.5q-34 0 -55 6.5t-31.5 20.5t-11.5 37.5z" />
<glyph unicode="&#xf8;" horiz-adv-x="1084" d="M57.5 -155.5q-9.5 10.5 4.5 32.5l121 180q-57 43 -81 111t-24 156q0 74 14 150.5t43 148.5t73.5 135t105.5 110t140 74.5t176 27.5q40 0 78 -4.5t80 -17.5l94 139q11 16 32 21.5t55 5.5q46 0 57 -10.5t-5 -33.5l-119 -174q60 -48 84 -114.5t24 -154.5q0 -74 -13.5 -150.5 t-42.5 -148.5t-73.5 -135t-105.5 -110t-140 -74.5t-177 -27.5q-51 0 -92 5.5t-69 15.5l-95 -141q-11 -16 -33 -21.5t-56 -5.5q-46 0 -55.5 10.5zM242 336q0 -48 11 -83t30 -56l426 629q-19 6 -46 9.5t-51 3.5q-66 0 -119 -22t-94 -60t-71 -88t-49 -106t-28 -114.5t-9 -112.5 zM378 125q17 -6 41.5 -10t56.5 -4q66 0 119.5 22t94.5 60t70.5 88t48.5 106t28 114t9 113q0 38 -9 75.5t-32 66.5z" />
<glyph unicode="&#xf9;" d="M112 225q0 33 4.5 67.5t11.5 69.5l111 564q5 15 23 22.5t67 7.5t64 -7t12 -23l-110 -558q-5 -26 -8.5 -54t-3.5 -57q0 -30 5.5 -54.5t19 -42.5t34.5 -28t53 -10q53 0 108.5 30.5t104 84.5t85.5 128.5t55 162.5l79 398q3 16 22.5 23t67.5 7q49 0 64 -7t12 -23l-181 -901 q-3 -17 -20 -24t-59 -7q-40 0 -54 7.5t-11 23.5l33 169q-16 -34 -50.5 -71.5t-81 -69t-102 -52t-112.5 -20.5q-68 0 -114.5 18.5t-75 51t-41 77t-12.5 97.5zM380.5 1388.5q13.5 13.5 71.5 13.5q24 0 40 -1.5t27 -5.5t18.5 -11t14.5 -19l135 -231q13 -22 4 -32.5t-54 -10.5 q-20 0 -33 1t-22 4.5t-16 10t-14 16.5l-171 233q-14 19 -0.5 32.5z" />
<glyph unicode="&#xfa;" d="M112 225q0 33 4.5 67.5t11.5 69.5l111 564q5 15 23 22.5t67 7.5t64 -7t12 -23l-110 -558q-5 -26 -8.5 -54t-3.5 -57q0 -30 5.5 -54.5t19 -42.5t34.5 -28t53 -10q53 0 108.5 30.5t104 84.5t85.5 128.5t55 162.5l79 398q3 16 22.5 23t67.5 7q49 0 64 -7t12 -23l-181 -901 q-3 -17 -20 -24t-59 -7q-40 0 -54 7.5t-11 23.5l33 169q-16 -34 -50.5 -71.5t-81 -69t-102 -52t-112.5 -20.5q-68 0 -114.5 18.5t-75 51t-41 77t-12.5 97.5zM582 1102q-8 11 6 32l154 231q7 10 15 17.5t20 11.5t29 6t42 2q55 0 67 -13.5t-4 -32.5l-191 -233q-8 -9 -14.5 -15 t-15.5 -10t-22 -5.5t-33 -1.5q-45 0 -53 11z" />
<glyph unicode="&#xfb;" d="M112 225q0 33 4.5 67.5t11.5 69.5l111 564q5 15 23 22.5t67 7.5t64 -7t12 -23l-110 -558q-5 -26 -8.5 -54t-3.5 -57q0 -30 5.5 -54.5t19 -42.5t34.5 -28t53 -10q53 0 108.5 30.5t104 84.5t85.5 128.5t55 162.5l79 398q3 16 22.5 23t67.5 7q49 0 64 -7t12 -23l-181 -901 q-3 -17 -20 -24t-59 -7q-40 0 -54 7.5t-11 23.5l33 169q-16 -34 -50.5 -71.5t-81 -69t-102 -52t-112.5 -20.5q-68 0 -114.5 18.5t-75 51t-41 77t-12.5 97.5zM379.5 1104q-5.5 13 21.5 43l210 229q14 14 34 20t64 6q41 0 57.5 -6t26.5 -20l118 -229q7 -15 10 -25.5t-2.5 -17 t-19.5 -10t-41 -3.5q-20 0 -32.5 1.5t-20 5t-12 9t-8.5 14.5l-94 180l-166 -180q-8 -9 -15.5 -15t-16.5 -9t-22 -4.5t-32 -1.5q-54 0 -59.5 13z" />
<glyph unicode="&#xfc;" d="M112 225q0 33 4.5 67.5t11.5 69.5l111 564q5 15 23 22.5t67 7.5t64 -7t12 -23l-110 -558q-5 -26 -8.5 -54t-3.5 -57q0 -30 5.5 -54.5t19 -42.5t34.5 -28t53 -10q53 0 108.5 30.5t104 84.5t85.5 128.5t55 162.5l79 398q3 16 22.5 23t67.5 7q49 0 64 -7t12 -23l-181 -901 q-3 -17 -20 -24t-59 -7q-40 0 -54 7.5t-11 23.5l33 169q-16 -34 -50.5 -71.5t-81 -69t-102 -52t-112.5 -20.5q-68 0 -114.5 18.5t-75 51t-41 77t-12.5 97.5zM387 1170.5q-1 18.5 3 45.5q8 54 32 74t76 20q53 0 69.5 -20t8.5 -74q-8 -55 -33 -74.5t-76 -19.5q-27 0 -44 4.5 t-26 15t-10 29zM744 1216q9 54 32.5 74t75.5 20q53 0 70 -20t8 -74q-5 -27 -13 -45.5t-20.5 -29t-31 -15t-45.5 -4.5q-51 0 -68.5 19.5t-7.5 74.5z" />
<glyph unicode="&#xfd;" horiz-adv-x="916" d="M29.5 -353q-18.5 11 4.5 40l244 313l-149 879q-2 12 -3 22t-1 17q0 23 17 30.5t67 7.5q26 0 42 -1.5t24.5 -5t11.5 -10.5t5 -17l117 -734h2q62 87 112.5 177t93 182.5t77.5 187.5t65 191q4 16 23.5 23t73.5 7q45 0 60 -6t15 -18q0 -11 -2 -22.5t-7 -21.5 q-33 -91 -72 -189.5t-91.5 -205.5t-122 -224.5t-164.5 -246.5l-259 -353q-12 -16 -36.5 -24.5t-75.5 -8.5q-53 0 -71.5 11zM485 1102q-8 11 6 32l154 231q7 10 15 17.5t20 11.5t29 6t42 2q55 0 67 -13.5t-4 -32.5l-191 -233q-8 -9 -14.5 -15t-15.5 -10t-22 -5.5t-33 -1.5 q-45 0 -53 11z" />
<glyph unicode="&#xfe;" d="M-7 -332l338 1693q3 16 23 24t67 8q49 0 63.5 -8.5t11.5 -23.5l-80 -402q-10 -49 -23.5 -100.5t-31.5 -103.5q15 34 49 71.5t80.5 69.5t102 53t112.5 21q76 0 127.5 -25.5t83.5 -69.5t46 -103.5t14 -127.5q0 -59 -11 -131t-35 -145.5t-61.5 -143.5t-90.5 -124 t-122.5 -86.5t-157.5 -32.5q-89 0 -150.5 33.5t-104.5 85.5l-85 -432q-3 -16 -20.5 -24t-68.5 -8q-48 0 -63.5 8t-12.5 24zM276 261q48 -70 101 -104.5t122 -34.5q53 0 96.5 25t77 66.5t58 95t41 110.5t24 112.5t7.5 101.5q0 43 -7.5 79t-24 62t-43 40t-65.5 14 q-54 0 -110 -31.5t-104.5 -85.5t-85.5 -127.5t-54 -157.5z" />
<glyph unicode="&#xff;" horiz-adv-x="916" d="M29.5 -353q-18.5 11 4.5 40l244 313l-149 879q-2 12 -3 22t-1 17q0 23 17 30.5t67 7.5q26 0 42 -1.5t24.5 -5t11.5 -10.5t5 -17l117 -734h2q62 87 112.5 177t93 182.5t77.5 187.5t65 191q4 16 23.5 23t73.5 7q45 0 60 -6t15 -18q0 -11 -2 -22.5t-7 -21.5 q-33 -91 -72 -189.5t-91.5 -205.5t-122 -224.5t-164.5 -246.5l-259 -353q-12 -16 -36.5 -24.5t-75.5 -8.5q-53 0 -71.5 11zM300 1170.5q-1 18.5 3 45.5q8 54 32 74t76 20q53 0 69.5 -20t8.5 -74q-8 -55 -33 -74.5t-76 -19.5q-27 0 -44 4.5t-26 15t-10 29zM657 1216 q9 54 32.5 74t75.5 20q53 0 70 -20t8 -74q-5 -27 -13 -45.5t-20.5 -29t-31 -15t-45.5 -4.5q-51 0 -68.5 19.5t-7.5 74.5z" />
<glyph unicode="&#x152;" horiz-adv-x="1775" d="M114 422q0 91 15.5 192.5t50.5 200.5t91 189.5t137 159t189 109t247 40.5q80 0 153 -16t120 -45q11 24 28.5 33t35.5 9h609q14 0 18.5 -9t4.5 -26q0 -9 -2.5 -27t-8.5 -36t-16 -31.5t-25 -13.5h-506l-81 -407h434q24 0 24 -34q0 -9 -3 -27t-9 -36.5t-16 -32t-25 -13.5 h-434l-92 -458h514q13 0 18 -9t5 -24q0 -8 -2 -26.5t-7.5 -37t-15.5 -32.5t-26 -14h-615q-18 0 -34.5 10.5t-14.5 37.5q-66 -33 -139.5 -50t-158.5 -17q-96 0 -168 18.5t-123.5 51t-84.5 75.5t-52.5 92t-27 101t-7.5 103zM298 446q0 -158 72.5 -237t233.5 -79q75 0 149 22.5 t146 72.5l172 858q-49 38 -112.5 60.5t-142.5 22.5q-106 0 -186 -39t-137.5 -102.5t-95 -142.5t-59.5 -159t-31 -153t-9 -124z" />
<glyph unicode="&#x153;" horiz-adv-x="1668" d="M78 325q0 74 14 150.5t42.5 148t72.5 134.5t104 110t137 74.5t172 27.5q125 0 205 -48t110 -142q60 86 151 138t219 52q83 0 142 -20.5t96.5 -53t54.5 -73.5t17 -82q0 -67 -31 -122t-98.5 -94.5t-173.5 -61t-256 -21.5h-107q-12 -66 -12 -122q0 -100 49.5 -153t160.5 -53 q64 0 115 9.5t88.5 20.5t61.5 20.5t33 9.5q18 0 18 -24q0 -12 -2 -26.5t-6.5 -29t-10.5 -27t-14 -20.5q-11 -11 -40.5 -22.5t-71 -21.5t-92 -16t-103.5 -6q-122 0 -202.5 43.5t-114.5 137.5q-65 -85 -156 -133t-215 -48q-93 0 -160.5 23t-111 67.5t-64.5 108.5t-21 145z M251 334q0 -50 11 -90t35.5 -68t63.5 -43t95 -15q60 0 109 21.5t87.5 58.5t67 86t47 104.5t27.5 114t9 113.5q0 50 -11 90t-35 68t-63 43t-96 15q-60 0 -109 -21.5t-87.5 -58t-67 -85.5t-47 -104.5t-27.5 -114t-9 -114.5zM978 562h102q106 0 176.5 13.5t112.5 36.5 t59.5 52.5t17.5 61.5q0 51 -40 82.5t-115 31.5q-63 0 -113.5 -22.5t-89.5 -60.5t-66 -88.5t-44 -106.5z" />
<glyph unicode="&#x178;" horiz-adv-x="998" d="M192.5 1268q-1.5 13 6 20t26.5 9.5t54 2.5q28 0 44.5 -2t26.5 -6.5t14.5 -12.5t8.5 -20l103 -355q18 -63 32 -119.5t27 -119.5h2q36 60 72.5 119t78.5 119l245 361q7 10 14 17t19 11t30.5 6t47.5 2q36 0 55 -3.5t24.5 -11.5t-0.5 -21t-19 -31l-512 -730l-95 -478 q-3 -14 -23.5 -22.5t-69.5 -8.5q-50 0 -66.5 8.5t-13.5 22.5l96 478l-220 730q-6 22 -7.5 35zM446.5 1481.5q-1.5 18.5 3.5 45.5q4 28 11.5 46.5t20.5 30t32 16t48 4.5q54 0 71.5 -20.5t9.5 -76.5q-4 -28 -12 -46.5t-21.5 -29.5t-33 -15.5t-47.5 -4.5t-45.5 4.5t-26.5 16 t-10.5 30zM859 1480.5q-2 18.5 3 46.5q9 55 32.5 76t79.5 21q54 0 73 -20.5t9 -76.5q-5 -27 -13 -45.5t-21 -30t-32 -16t-47 -4.5t-46 4.5t-27 15.5t-11 29.5z" />
<glyph unicode="&#x2c6;" horiz-adv-x="809" d="M264.5 1104q-5.5 13 21.5 43l210 229q14 14 34 20t64 6q41 0 57.5 -6t26.5 -20l118 -229q7 -15 10 -25.5t-2.5 -17t-19.5 -10t-41 -3.5q-20 0 -32.5 1.5t-20 5t-12 9t-8.5 14.5l-94 180l-166 -180q-8 -9 -15.5 -15t-16.5 -9t-22 -4.5t-32 -1.5q-54 0 -59.5 13z" />
<glyph unicode="&#x2dc;" horiz-adv-x="922" d="M270 1125q0 6 2 25t9 44.5t20 54t36.5 52t58 39t83.5 15.5q55 0 93 -20.5t67.5 -45.5t55.5 -45.5t59 -20.5q35 0 57.5 26.5t27.5 78.5q2 16 14 21.5t46 5.5q37 0 47 -6.5t10 -21.5q0 -5 -2 -24.5t-9 -45t-20.5 -54t-37 -52.5t-58.5 -39.5t-84 -15.5q-55 0 -92.5 20.5 t-67 45.5t-56 45.5t-59.5 20.5q-40 0 -59 -29t-25 -77q-1 -8 -4 -13t-10 -8t-19 -4t-32 -1q-33 0 -42 6.5t-9 22.5z" />
<glyph unicode="&#x2000;" horiz-adv-x="866" />
<glyph unicode="&#x2001;" horiz-adv-x="1733" />
<glyph unicode="&#x2002;" horiz-adv-x="866" />
<glyph unicode="&#x2003;" horiz-adv-x="1733" />
<glyph unicode="&#x2004;" horiz-adv-x="577" />
<glyph unicode="&#x2005;" horiz-adv-x="433" />
<glyph unicode="&#x2006;" horiz-adv-x="288" />
<glyph unicode="&#x2007;" horiz-adv-x="288" />
<glyph unicode="&#x2008;" horiz-adv-x="216" />
<glyph unicode="&#x2009;" horiz-adv-x="346" />
<glyph unicode="&#x200a;" horiz-adv-x="96" />
<glyph unicode="&#x2010;" horiz-adv-x="627" d="M72 472q0 8 2.5 25t8.5 34t16.5 29.5t25.5 12.5h419q14 0 19.5 -9t5.5 -24q0 -9 -2.5 -26t-8.5 -34.5t-16 -30.5t-26 -13h-419q-25 0 -25 36z" />
<glyph unicode="&#x2011;" horiz-adv-x="627" d="M72 472q0 8 2.5 25t8.5 34t16.5 29.5t25.5 12.5h419q14 0 19.5 -9t5.5 -24q0 -9 -2.5 -26t-8.5 -34.5t-16 -30.5t-26 -13h-419q-25 0 -25 36z" />
<glyph unicode="&#x2012;" horiz-adv-x="627" d="M72 472q0 8 2.5 25t8.5 34t16.5 29.5t25.5 12.5h419q14 0 19.5 -9t5.5 -24q0 -9 -2.5 -26t-8.5 -34.5t-16 -30.5t-26 -13h-419q-25 0 -25 36z" />
<glyph unicode="&#x2013;" horiz-adv-x="1020" d="M5 529q0 9 2.5 27t9 36.5t17 32t26.5 13.5h963q28 0 28 -35q0 -9 -2.5 -27.5t-9.5 -37t-18 -32t-27 -13.5h-962q-15 0 -21 10t-6 26z" />
<glyph unicode="&#x2014;" horiz-adv-x="1854" d="M165 532q0 10 3 28t9.5 35.5t17.5 30.5t27 13h1480q14 0 20.5 -10t6.5 -24q0 -10 -2.5 -29t-9.5 -37.5t-18 -32t-28 -13.5h-1477q-29 0 -29 39z" />
<glyph unicode="&#x2018;" horiz-adv-x="511" d="M236 937q0 57 25 115t73 113l178 206q14 16 34.5 22.5t57.5 6.5q36 0 44.5 -9.5t-5.5 -30.5l-189 -275l-23 -118q-5 -27 -12.5 -43t-20 -24.5t-31.5 -11.5t-46 -3q-50 0 -67.5 11.5t-17.5 40.5z" />
<glyph unicode="&#x2019;" horiz-adv-x="511" d="M131 894q-9 9 6 31l188 275l23 118q5 26 12.5 42t20 25t31.5 12t47 3q50 0 67.5 -12t17.5 -40q0 -57 -25.5 -115t-73.5 -113l-178 -206q-14 -16 -33.5 -22.5t-57.5 -6.5q-36 0 -45 9z" />
<glyph unicode="&#x201a;" horiz-adv-x="511" d="M-103.5 -281q-8.5 9 6.5 31l188 275l23 118q5 27 13 43t20.5 24.5t31.5 11t46 2.5q50 0 67.5 -11.5t17.5 -40.5q0 -115 -98 -228l-179 -206q-13 -15 -34 -21.5t-58 -6.5q-36 0 -44.5 9z" />
<glyph unicode="&#x201c;" horiz-adv-x="857" d="M233 939q1 57 25.5 115t71.5 112l176 205q13 15 33 22t55 7q34 0 42.5 -9.5t-5.5 -30.5l-187 -274l-23 -117q-5 -26 -12.5 -42t-19.5 -25t-30 -12t-45 -3q-48 0 -64.5 12t-16.5 40zM590 939q1 57 25.5 115t71.5 112l176 205q13 15 33 22t55 7q34 0 42.5 -9.5t-5.5 -30.5 l-186 -274l-25 -117q-6 -26 -13 -42t-19 -25t-30 -12t-44 -3q-49 0 -65 12t-16 40z" />
<glyph unicode="&#x201d;" horiz-adv-x="857" d="M134 896.5q-9 9.5 6 31.5l187 273l23 118q5 26 12.5 42t19.5 24.5t30 11.5t45 3q48 0 64.5 -11.5t16.5 -40.5q-1 -57 -26 -114.5t-71 -111.5l-176 -205q-14 -16 -33.5 -23t-54.5 -7q-34 0 -43 9.5zM491 896.5q-9 9.5 6 31.5l187 273l23 118q5 26 12 42t19.5 24.5t31 11.5 t45.5 3q47 0 63.5 -11.5t16.5 -40.5q-1 -57 -26 -114.5t-71 -111.5l-175 -205q-14 -17 -34 -23.5t-55 -6.5q-34 0 -43 9.5z" />
<glyph unicode="&#x201e;" horiz-adv-x="857" d="M-100 -280q-8 9 6 30l187 275l23 117q5 26 12.5 42t19.5 24.5t30 11.5t45 3q48 0 64 -11.5t16 -40.5q0 -115 -97 -227l-176 -204q-14 -15 -33.5 -22t-54.5 -7q-34 0 -42 9zM257 -280q-8 9 6 30l187 275l23 117q5 26 12.5 42t19.5 24.5t30 11.5t44 3q49 0 65 -12t16 -40 q0 -57 -24.5 -114.5t-72.5 -112.5l-175 -204q-14 -16 -34 -22.5t-55 -6.5q-34 0 -42 9z" />
<glyph unicode="&#x2022;" horiz-adv-x="1020" d="M228 627q0 71 27 132t73 105.5t105.5 70t125.5 25.5q65 0 120.5 -25t96 -66.5t63 -96t22.5 -114.5q0 -71 -27.5 -131.5t-73 -105t-106 -70t-126.5 -25.5q-65 0 -120 24.5t-95 66t-62.5 96t-22.5 114.5z" />
<glyph unicode="&#x2026;" horiz-adv-x="1413" d="M73 62q0 23 6 54t17 54q6 12 13 21.5t19 16.5t30 10.5t45 3.5q28 0 45.5 -5t27.5 -14.5t13.5 -22.5t3.5 -29q0 -20 -6 -51t-17 -56q-6 -12 -13.5 -22t-19.5 -17t-30 -10.5t-44 -3.5q-54 0 -72 18t-18 53zM525 62q0 23 6 53.5t17 54.5q5 12 12 21.5t19 16.5t30.5 10.5 t45.5 3.5q28 0 45.5 -5t27.5 -14.5t13 -22.5t3 -29q0 -20 -5.5 -51.5t-16.5 -55.5q-6 -12 -14 -22t-20 -17t-29.5 -10.5t-43.5 -3.5q-55 0 -72.5 18t-17.5 53zM976 62q0 23 6 54t17 54q6 12 13 21.5t19 16.5t30 10.5t45 3.5q28 0 45.5 -5t27.5 -14.5t13.5 -22.5t3.5 -29 q0 -20 -6 -51t-17 -56q-6 -12 -13.5 -22t-19.5 -17t-30 -10.5t-44 -3.5q-54 0 -72 18t-18 53z" />
<glyph unicode="&#x202f;" horiz-adv-x="346" />
<glyph unicode="&#x2039;" horiz-adv-x="694" d="M126.5 524q3.5 20 20.5 41l286 347q6 7 13 12t17 8t25 4.5t37 1.5q51 0 62 -12t-5 -33l-294 -380l140 -366q4 -10 3.5 -18.5t-8 -14.5t-22.5 -9.5t-40 -3.5q-22 0 -35.5 1t-21.5 4t-12 8t-7 13l-151 353q-11 24 -7.5 44z" />
<glyph unicode="&#x203a;" horiz-adv-x="694" d="M127 113q-13 12 5 32l293 382l-138 365q-8 20 5 33t63 13q22 0 35 -1t20.5 -4t11.5 -8t7 -13l150 -353q10 -23 9 -43t-20 -43l-285 -346q-7 -8 -14 -13t-17 -8t-24.5 -4t-36.5 -1q-51 0 -64 12z" />
<glyph unicode="&#x205f;" horiz-adv-x="433" />
<glyph unicode="&#x20ac;" horiz-adv-x="1038" d="M44 457q0 10 2 26.5t7.5 32.5t14 27.5t22.5 11.5h108q6 42 16 88.5t19 86.5h-108q-11 0 -16 6.5t-5 24.5q0 9 2.5 26t8.5 33.5t15.5 28.5t23.5 12h118q40 102 93 185t122 141.5t154.5 90.5t191.5 32q75 0 141 -18t114 -53q19 -14 24.5 -27.5t5.5 -29.5q0 -11 -2.5 -29 t-7.5 -35t-12.5 -30t-18.5 -13q-13 0 -32 14t-49 31.5t-72.5 31.5t-101.5 14q-132 0 -221 -80.5t-143 -224.5h304q23 0 23 -34q0 -9 -2.5 -25t-8 -32t-15 -28t-23.5 -12h-323q-11 -40 -21.5 -86.5t-16.5 -88.5h326q24 0 24 -32q0 -10 -3 -26.5t-9 -32.5t-16 -28t-24 -12 h-311q0 -77 12.5 -132t41 -91t75.5 -53t116 -17q66 0 116 15.5t87 34.5t61.5 34.5t40.5 15.5q18 0 18 -30q0 -34 -10 -68.5t-31 -56.5q-17 -18 -49 -34.5t-73.5 -29t-89.5 -20.5t-96 -8q-102 0 -177 29t-124 85.5t-72.5 138.5t-23.5 187h-118q-11 0 -16.5 7.5t-5.5 25.5z " />
<glyph unicode="&#x2122;" horiz-adv-x="1444" d="M219 1240q2 29 13 41.5t20 12.5h403q11 0 13.5 -12.5t-1.5 -41.5q-4 -26 -13.5 -38.5t-19.5 -12.5h-141l-91 -454q-2 -8 -15.5 -14t-49.5 -6q-35 0 -48 6t-11 14l91 454h-138q-24 0 -12 51zM670 735l103 512q5 22 19.5 34.5t33.5 12.5h71q40 0 55 -15t22 -55l56 -344 l202 344q20 35 42 52.5t55 17.5h81q20 0 30.5 -12.5t5.5 -34.5l-103 -512q-2 -8 -14 -14t-46 -6t-44 6t-8 14l89 446h-1l-256 -450q-9 -16 -65 -16q-47 0 -51 16l-74 450h-1l-90 -446q-2 -8 -14 -14t-45 -6q-34 0 -44.5 6t-8.5 14z" />
<glyph unicode="&#x25fc;" horiz-adv-x="955" d="M0 0v955h955v-955h-955z" />
<glyph unicode="&#xfb01;" horiz-adv-x="1084" d="M-195 -318q0 6 2.5 22.5t7 33.5t12 30t16.5 13q7 0 13.5 -1.5t14 -3t18 -3t26.5 -1.5q43 0 73 13t51.5 40.5t36 69.5t26.5 101l164 818h-128q-10 0 -15.5 6.5t-5.5 24.5q0 13 2.5 31t8.5 34.5t15.5 28.5t23.5 12h126l25 123q34 167 118 247t220 80q23 0 45 -2.5t40 -7 t31 -9.5t18 -11q9 -9 9 -31q0 -5 -2 -20.5t-6.5 -32.5t-11 -30t-16.5 -13q-14 0 -37.5 10t-67.5 10q-41 0 -70.5 -13t-50.5 -40.5t-35.5 -69.5t-25.5 -99l-17 -91h519q27 0 36 -14t4 -37l-174 -875q-3 -15 -22 -23t-68 -8q-48 0 -63.5 8t-12.5 23l158 789h-405l-171 -852 q-34 -169 -116.5 -248t-221.5 -79q-45 0 -73.5 7t-35.5 13q-4 5 -6 11t-2 16zM901 1228q5 28 13.5 47t22 30.5t34.5 16.5t51 5q29 0 47 -5t27 -16.5t10 -30.5t-4 -47q-6 -28 -14 -47t-22 -30.5t-34 -16.5t-50 -5q-60 0 -76 21.5t-5 77.5z" />
<glyph unicode="&#xfb02;" horiz-adv-x="1084" d="M-195 -318q0 6 2.5 22.5t7 33.5t12 30t16.5 13q7 0 13.5 -1.5t14 -3t18 -3t26.5 -1.5q43 0 73 13t51.5 40.5t36 69.5t26.5 101l164 818h-128q-10 0 -15.5 6.5t-5.5 24.5q0 13 2.5 31t8.5 34.5t15.5 28.5t23.5 12h126l25 125q16 83 47.5 144t81.5 101t121.5 59.5 t168.5 19.5q22 0 53.5 -2.5t62 -7t54 -10t29.5 -11.5l4.5 -6t3.5 -6q2 17 20.5 26.5t70.5 9.5q47 0 63 -8t13 -24l-267 -1335q-4 -17 -24.5 -24.5t-62.5 -7.5q-50 0 -66 8t-13 24l244 1220q-5 -7 -17 -7q-7 0 -21 3.5t-35.5 8t-51.5 8.5t-70 4q-65 0 -108 -13t-71.5 -40.5 t-44.5 -69.5t-27 -99l-17 -90h184q24 0 24 -32q0 -16 -4 -34.5t-10.5 -34t-16 -26t-21.5 -10.5h-184l-171 -852q-34 -169 -116.5 -248t-221.5 -79q-45 0 -73.5 7t-35.5 13q-4 5 -6 11t-2 16z" />
<glyph unicode="&#xfb03;" horiz-adv-x="1654" d="M-195 -318q0 6 2.5 22.5t7 33.5t12 30t16.5 13q7 0 13.5 -1.5t14 -3t18 -3t26.5 -1.5q43 0 73 13t51.5 40.5t36 69.5t26.5 101l164 818h-128q-10 0 -15.5 6.5t-5.5 24.5q0 13 2.5 31t8.5 34.5t15.5 28.5t23.5 12h126l23 112q34 166 118.5 246t221.5 80q22 0 45.5 -2.5 t44 -7t36.5 -10.5t22 -12q11 -11 11 -33q0 -6 -2 -21.5t-6 -32.5t-11 -30t-16 -13q-7 0 -17.5 4t-24.5 8.5t-32.5 8.5t-41.5 4q-43 0 -74 -13t-53 -40.5t-37 -69.5t-26 -99l-15 -79h405l24 123q32 167 116.5 247t222.5 80q23 0 45 -2.5t40 -7t31 -9.5t19 -11q5 -5 6 -13 t1 -18q0 -5 -2 -20.5t-6 -32t-10.5 -30t-15.5 -13.5q-8 0 -17.5 3t-22 7t-28.5 7t-38 3q-42 0 -71.5 -13t-50.5 -40t-35.5 -69t-25.5 -100l-17 -91h519q27 0 36.5 -13.5t4.5 -37.5l-174 -875q-3 -8 -8 -13.5t-15 -9.5t-26 -6t-41 -2t-40.5 2t-24 6t-11 9.5t-0.5 13.5 l157 789h-405l-164 -817q-18 -92 -47.5 -158t-72 -108.5t-98.5 -63t-128 -20.5q-51 0 -87.5 7.5t-48.5 20.5q-9 7 -9 27q0 7 2 24t7 33.5t12 29.5t18 13q14 0 38.5 -9t64.5 -9q41 0 70.5 12.5t51.5 39t37 67.5t26 97l163 814h-405l-171 -852q-34 -169 -116.5 -248 t-221.5 -79q-45 0 -73.5 7t-35.5 13q-4 5 -6 11t-2 16zM1465.5 1181q-0.5 19 5.5 47q5 28 13.5 47t22.5 30.5t35 16.5t51 5q29 0 47 -5t27 -16.5t10 -30.5t-4 -47q-6 -28 -14.5 -47t-22 -30.5t-34 -16.5t-50.5 -5t-49 5t-28 16.5t-9.5 30.5z" />
<glyph unicode="&#xfb04;" horiz-adv-x="1654" d="M-195 -318q0 6 2.5 22.5t7 33.5t12 30t16.5 13q7 0 13.5 -1.5t14 -3t18 -3t26.5 -1.5q43 0 73 13t51.5 40t36 69.5t26.5 101.5l164 818h-128q-10 0 -15.5 6.5t-5.5 24.5q0 13 2.5 31t8.5 34.5t15.5 28.5t23.5 12h126l23 112q34 166 118.5 246t221.5 80q22 0 45.5 -2.5 t44 -7t36.5 -10.5t22 -12q11 -11 11 -33q0 -6 -2 -21.5t-6 -32.5t-11 -30t-16 -13q-7 0 -17.5 4t-24.5 8.5t-32.5 8.5t-41.5 4q-43 0 -74 -13t-53 -40.5t-37 -69.5t-26 -99l-15 -79h405l24 125q16 83 46.5 144t80.5 101.5t122 60t171 19.5q22 0 53.5 -2.5t61.5 -7t53.5 -10 t29.5 -11.5l9 -13q2 17 20.5 26.5t69.5 9.5q48 0 63 -8t12 -24l-265 -1336q-4 -17 -25 -24t-63 -7q-50 0 -65.5 8t-12.5 23l243 1222q-5 -7 -16 -7q-8 0 -22 3.5t-35.5 8t-51.5 8.5t-70 4q-65 0 -108.5 -13t-71.5 -40t-44 -69t-27 -100l-17 -91h184q24 0 24 -32 q0 -16 -3.5 -34.5t-10.5 -34t-16 -26t-21 -10.5h-185l-163 -817q-18 -92 -47.5 -158t-72 -108.5t-99 -63t-128.5 -20.5q-51 0 -87 7.5t-48 20.5q-10 7 -10 27q0 7 2 24t7 33.5t12 29.5t18 13q14 0 38.5 -9t64.5 -9q41 0 71 12.5t52 39t37 67.5t26 97l162 814h-405l-171 -852 q-34 -169 -116.5 -248t-221.5 -79q-45 0 -73.5 7t-35.5 13q-4 5 -6 11t-2 16z" />
</font>
</defs>
</svg>
